<svg width="28" height="28" viewBox="0 0 28 28" fill="none" xmlns="http://www.w3.org/2000/svg">
<path d="M26.88 0H1.12C0.5005 0 0 0.5005 0 1.12V26.88C0 27.4995 0.5005 28 1.12 28H26.88C27.4995 28 28 27.4995 28 26.88V1.12C28 0.5005 27.4995 0 26.88 0ZM17.0275 8.3615H21.8715V9.541H17.0275V8.3615ZM14 18.088C13.7734 18.5181 13.4499 18.8895 13.055 19.173C12.642 19.46 12.1835 19.67 11.697 19.7925C11.188 19.9289 10.6629 19.996 10.136 19.992H4.34V8.0535H9.975C10.5455 8.0535 11.0635 8.106 11.536 8.204C12.005 8.302 12.404 8.47 12.74 8.6975C13.0725 8.925 13.335 9.2295 13.5205 9.6075C13.7025 9.982 13.797 10.451 13.797 11.0075C13.797 11.6095 13.6605 12.1065 13.3875 12.509C13.111 12.9115 12.712 13.237 12.1695 13.4925C12.908 13.7025 13.4505 14.077 13.8075 14.602C14.1715 15.134 14.35 15.771 14.35 16.52C14.35 17.129 14.2345 17.6505 14 18.088ZM23.758 16.24H17.514C17.514 16.919 17.7485 17.57 18.102 17.92C18.459 18.2665 18.97 18.4415 19.6385 18.4415C20.1215 18.4415 20.531 18.319 20.881 18.0775C21.2275 17.836 21.4375 17.5805 21.5145 17.3145H23.6075C23.2715 18.354 22.7605 19.096 22.0675 19.544C21.3815 19.992 20.5415 20.216 19.565 20.216C18.8825 20.216 18.27 20.104 17.7205 19.8905C17.192 19.684 16.716 19.369 16.324 18.963C15.9375 18.5461 15.6387 18.0557 15.4455 17.521C15.232 16.9295 15.127 16.3065 15.134 15.68C15.134 15.0325 15.2425 14.4305 15.4525 13.8705C15.855 12.782 16.6915 11.9105 17.759 11.459C18.3295 11.221 18.942 11.102 19.5615 11.109C20.2965 11.109 20.9335 11.249 21.4865 11.536C22.0189 11.8101 22.4811 12.2028 22.8375 12.684C23.191 13.1635 23.4395 13.7095 23.597 14.3255C23.7475 14.931 23.8 15.568 23.758 16.24ZM19.488 12.894C19.11 12.894 18.7915 12.9605 18.5465 13.09C18.3015 13.2195 18.0985 13.3805 17.9445 13.566C17.7978 13.7451 17.6894 13.9524 17.626 14.175C17.57 14.3605 17.5315 14.5495 17.5175 14.742H21.385C21.329 14.1365 21.119 13.6885 20.839 13.3735C20.545 13.062 20.0725 12.894 19.488 12.894ZM10.7905 12.5405C11.095 12.32 11.242 11.956 11.242 11.4555C11.2525 11.2175 11.2035 10.983 11.0985 10.7695C11.004 10.598 10.864 10.4545 10.6925 10.353C10.5147 10.2452 10.3172 10.1738 10.1115 10.143C9.8875 10.101 9.66 10.08 9.436 10.0835H6.9755V12.873H9.639C10.0975 12.8765 10.486 12.7645 10.7905 12.5405ZM11.2035 15.0605C10.8605 14.798 10.402 14.6685 9.8315 14.6685H6.9685V17.9585H9.7755C10.038 17.9585 10.2795 17.934 10.514 17.885C10.7485 17.836 10.9585 17.752 11.137 17.633C11.3155 17.5175 11.459 17.36 11.5675 17.157C11.6725 16.954 11.725 16.695 11.725 16.3835C11.725 15.764 11.55 15.3265 11.2035 15.0605Z" fill="#FCF7FF"/>
</svg>
