<svg width="87" height="25" viewBox="0 0 87 25" fill="white" xmlns="http://www.w3.org/2000/svg"><path d="M65.612.61h-2.324v2.483h2.325V.609zM6.793.61H0v18.896h5.867c3.144 0 9.727-.215 9.727-9.501S8.697.609 6.794.609zm-.845 16.763H2.483V2.743h4.178c3.143 0 6.291 1.594 6.291 7.315 0 5.046-2.247 7.315-7.004 7.315zM24.13 5.253c-1.163 0-3.093.35-4.44 2.43h-.081V5.795h-2.166V24.5h2.324v-6.965c1.189 2.375 3.886 2.51 4.414 2.51 3.066 0 6-2.08 6-7.398s-2.75-7.398-6.052-7.398v.004zm-.37 13.119c-1.771 0-4.151-1.432-4.151-5.668 0-5.183 2.826-5.778 4.018-5.778 2.642 0 4.096 2.186 4.096 5.721 0 4.372-2.088 5.725-3.963 5.725zM34.49 8.437V5.791h-2.324v13.715h2.325V12.46c0-.242 0-.487.026-.728.21-3.456 2.036-4.67 5.155-4.805V5.253l-.687.026c-1.878.079-3.804 1.134-4.439 3.158h-.055zM46.38 5.253c-4.89 0-6.609 3.753-6.609 7.398 0 3.644 1.72 7.398 6.61 7.398 4.888 0 6.608-3.754 6.608-7.398 0-3.645-1.72-7.398-6.609-7.398zm0 13.119c-1.03 0-4.151-.241-4.151-5.751 0-5.51 3.118-5.752 4.151-5.752s4.151.245 4.151 5.752c0 5.506-3.118 5.75-4.15 5.75zM55.897 3.93V5.79h-2.484v1.674h2.484v12.041h2.324V7.465h2.934V5.79h-2.934V4.144c0-.565.026-1.888 1.296-1.888.24 0 .501-.052 1.638.027V.609C60.76.583 59.937.5 59.435.5c-2.406 0-3.542 1.052-3.542 3.43h.004zM65.612 5.791h-2.324v13.715h2.325V5.791zM71.694.61h-2.325v18.896h2.325V.61zM80.919 18.372c-3.067 0-4.255-2.834-4.255-5.182H87c0-.215-.026-.46-.026-.675-.133-2.97-.845-7.262-6.21-7.262-6.21 0-6.554 5.562-6.554 7.45 0 1.244.133 7.342 6.794 7.342 4.121 0 5.524-2.566 5.867-4.507h-2.222c-.291 1.511-1.48 2.834-3.727 2.834h-.003zm-.107-11.446c3.04 0 3.646 2.755 3.727 4.59h-7.875c0-1.726.712-4.59 4.151-4.59h-.003z"></path></svg>