<svg width="20" height="20" viewBox="0 0 20 20" fill="none" xmlns="http://www.w3.org/2000/svg">
<path fill-rule="evenodd" clip-rule="evenodd" d="M6.36338 1.22106C7.4842 0.756278 8.7128 0.5 10 0.5C11.2872 0.5 12.5158 0.756277 13.6366 1.22106C13.8917 1.32684 14.0127 1.61937 13.907 1.87445C13.8012 2.12953 13.5086 2.25056 13.2536 2.14479C12.252 1.72947 11.1534 1.5 10 1.5C8.84655 1.5 7.74796 1.72947 6.74644 2.14479C6.49136 2.25057 6.19882 2.12953 6.09305 1.87445C5.98727 1.61937 6.1083 1.32684 6.36338 1.22106ZM18.1255 6.09305C18.3806 5.98727 18.6732 6.1083 18.7789 6.36338C19.2437 7.4842 19.5 8.7128 19.5 10C19.5 11.2872 19.2437 12.5158 18.7789 13.6366C18.6732 13.8917 18.3806 14.0127 18.1255 13.907C17.8705 13.8012 17.7494 13.5086 17.8552 13.2536C18.2705 12.252 18.5 11.1534 18.5 10C18.5 8.84655 18.2705 7.74796 17.8552 6.74644C17.7494 6.49136 17.8705 6.19882 18.1255 6.09305ZM1.87445 6.09305C2.12953 6.19882 2.25056 6.49136 2.14479 6.74644C1.72947 7.74796 1.5 8.84655 1.5 10C1.5 11.1535 1.72947 12.252 2.14479 13.2536C2.25057 13.5086 2.12953 13.8012 1.87445 13.907C1.61937 14.0127 1.32684 13.8917 1.22106 13.6366C0.756278 12.5158 0.5 11.2872 0.5 10C0.5 8.7128 0.756277 7.4842 1.22106 6.36338C1.32684 6.1083 1.61937 5.98727 1.87445 6.09305ZM13.907 18.1255C14.0127 18.3806 13.8917 18.6732 13.6366 18.7789C12.5158 19.2437 11.2872 19.5 10 19.5C8.7128 19.5 7.4842 19.2437 6.36338 18.7789C6.1083 18.6732 5.98727 18.3806 6.09305 18.1255C6.19882 17.8705 6.49136 17.7494 6.74644 17.8552C7.74796 18.2705 8.84655 18.5 10 18.5C11.1535 18.5 12.252 18.2705 13.2536 17.8552C13.5086 17.7494 13.8012 17.8705 13.907 18.1255Z" fill="#616161"/>
</svg>
