<svg width="28" height="29" viewBox="0 0 28 29" fill="none" xmlns="http://www.w3.org/2000/svg">
<path d="M21.4375 0.429688H6.5625C2.93813 0.429688 0 3.36782 0 6.99219V21.8672C0 25.4916 2.93813 28.4297 6.5625 28.4297H21.4375C25.0619 28.4297 28 25.4916 28 21.8672V6.99219C28 3.36782 25.0619 0.429688 21.4375 0.429688Z" fill="#242938"/>
<mask id="mask0_221_15" style="mask-type:luminance" maskUnits="userSpaceOnUse" x="6" y="3" width="16" height="23">
<path d="M6.67188 3.49219H21.2581V25.3672H6.67188V3.49219Z" fill="white"/>
</mask>
<g mask="url(#mask0_221_15)">
<path d="M10.3192 25.3671C12.3317 25.3671 13.965 23.7338 13.965 21.7213V18.0754H10.3192C8.30675 18.0754 6.67334 19.7088 6.67334 21.7213C6.67334 23.7338 8.30675 25.3671 10.3192 25.3671Z" fill="#0ACF83"/>
<path d="M6.67334 14.4297C6.67334 12.4172 8.30675 10.7839 10.3192 10.7839H13.965V18.0755H10.3192C8.30675 18.0755 6.67334 16.4422 6.67334 14.4297Z" fill="#A259FF"/>
<path d="M6.67346 7.13798C6.67346 5.12548 8.30687 3.49219 10.3194 3.49219H13.9652V10.7839H10.3194C8.30687 10.7839 6.67346 9.15048 6.67346 7.13798Z" fill="#F24E1E"/>
<path d="M13.9651 3.49219H17.6109C19.6234 3.49219 21.2568 5.12548 21.2568 7.13798C21.2568 9.15048 19.6234 10.7839 17.6109 10.7839H13.9651V3.49219Z" fill="#FF7262"/>
<path d="M21.2568 14.4297C21.2568 16.4422 19.6234 18.0755 17.6109 18.0755C15.5984 18.0755 13.9651 16.4422 13.9651 14.4297C13.9651 12.4172 15.5984 10.7839 17.6109 10.7839C19.6234 10.7839 21.2568 12.4172 21.2568 14.4297Z" fill="#1ABCFE"/>
</g>
</svg>
