<svg width="28" height="28" viewBox="0 0 28 28" fill="none" xmlns="http://www.w3.org/2000/svg">
<g clip-path="url(#clip0_1_1670)">
<path d="M23.3516 0.397827H4.64844C2.08118 0.397827 0 2.44699 0 4.97475V22.7009C0 25.2287 2.08118 27.2778 4.64844 27.2778H23.3516C25.9188 27.2778 28 25.2287 28 22.7009V4.97475C28 2.44699 25.9188 0.397827 23.3516 0.397827Z" fill="#330000"/>
<path d="M13.5684 16.5291H9.22952L8.34665 19.2293C8.33463 19.2785 8.30554 19.3221 8.26439 19.3525C8.22324 19.3829 8.17261 19.3982 8.12122 19.3958H5.92355C5.79832 19.3958 5.75446 19.3279 5.79208 19.1922L9.54879 8.53952C9.5863 8.4286 9.62393 8.30227 9.66144 8.16044C9.71066 7.91361 9.73582 7.6629 9.73658 7.41144C9.73403 7.39385 9.73566 7.37592 9.74137 7.35906C9.74707 7.3422 9.75668 7.32688 9.76943 7.31431C9.78219 7.30174 9.79774 7.29227 9.81486 7.28664C9.83197 7.28101 9.85019 7.27939 9.86805 7.28189H12.8546C12.9421 7.28189 12.9922 7.3128 13.0049 7.3745L17.2687 19.2107C17.3063 19.3342 17.2687 19.3959 17.156 19.3958H14.7141C14.6722 19.4003 14.63 19.3897 14.5954 19.3659C14.5609 19.3421 14.5363 19.3067 14.5263 19.2663L13.5684 16.5291ZM9.90568 14.1989H12.8735L12.8311 14.0613L12.7632 13.8436L12.7148 13.6907L12.6374 13.4499L12.473 12.9429L12.3284 12.4935L11.953 11.3229C11.8595 11.0319 11.7698 10.7398 11.6839 10.4465L11.6152 10.2085L11.5349 9.92713L11.4124 9.49098L11.3895 9.40881H11.3708C11.2768 9.85273 11.1623 10.2922 11.0278 10.7259L10.7491 11.6085L10.5957 12.0962L10.441 12.5898C10.413 12.679 10.3852 12.7672 10.3573 12.8543L10.2742 13.1126L10.1915 13.3648L10.1092 13.6107L10.0274 13.8506C10.0003 13.9295 9.97316 14.0074 9.94615 14.0843L9.90568 14.1989ZM19.8042 9.24232C19.6127 9.24989 19.4216 9.21757 19.2436 9.14746C19.0656 9.07735 18.9046 8.97103 18.7712 8.83546C18.6381 8.694 18.5348 8.52804 18.4671 8.34713C18.3994 8.16621 18.3686 7.9739 18.3767 7.78126C18.3699 7.59055 18.404 7.40057 18.4768 7.22372C18.5496 7.04687 18.6595 6.88714 18.7993 6.75495C19.0689 6.50011 19.428 6.3575 19.8017 6.35681L19.8417 6.35724C20.2926 6.35724 20.6464 6.4897 20.9031 6.75484C21.0327 6.8926 21.1334 7.05417 21.1994 7.2303C21.2655 7.40642 21.2956 7.59365 21.2881 7.78126C21.296 7.97467 21.2643 8.16767 21.1949 8.34878C21.1256 8.5299 21.0199 8.69544 20.8843 8.83557C20.7474 8.96846 20.5848 9.07303 20.4062 9.14312C20.2276 9.21322 20.0366 9.24742 19.8444 9.24372L19.8042 9.24232ZM18.5081 19.2107V10.3705C18.5081 10.2596 18.558 10.204 18.6584 10.204H20.9689C21.0689 10.204 21.119 10.2595 21.1191 10.3705V19.2107C21.1191 19.3342 21.069 19.3959 20.9689 19.3958H18.6772C18.5705 19.3958 18.5143 19.3404 18.5087 19.2297L18.5081 19.2107Z" fill="#FF9A00"/>
</g>
<defs>
<clipPath id="clip0_1_1670">
<rect width="28" height="26.9231" fill="white" transform="translate(0 0.397827)"/>
</clipPath>
</defs>
</svg>
