<svg width="28" height="28" viewBox="0 0 28 28" fill="none" xmlns="http://www.w3.org/2000/svg">
<g clip-path="url(#clip0_1_1667)">
<path d="M23.3516 0.397827H4.64844C2.08118 0.397827 0 2.44699 0 4.97475V22.7009C0 25.2287 2.08118 27.2778 4.64844 27.2778H23.3516C25.9188 27.2778 28 25.2287 28 22.7009V4.97475C28 2.44699 25.9188 0.397827 23.3516 0.397827Z" fill="#49021F"/>
<path d="M10.1685 7.42982V19.2107C10.1685 19.3341 10.1122 19.3957 9.9994 19.3957H7.72659C7.62629 19.3957 7.5762 19.334 7.57642 19.2107V7.42982C7.57642 7.33128 7.63275 7.28196 7.7454 7.28185H10.0182C10.0373 7.27919 10.0568 7.28065 10.0753 7.28615C10.0938 7.29164 10.1108 7.30104 10.1252 7.31367C10.1396 7.32631 10.1511 7.34189 10.1588 7.35933C10.1664 7.37676 10.1702 7.39563 10.1697 7.41463L10.1685 7.42982ZM17.0138 19.5794L16.8929 19.5806C16.0283 19.5936 15.1717 19.4167 14.3853 19.0628C13.6527 18.729 13.0403 18.184 12.6291 17.5C12.2136 16.8206 12.0009 15.9737 11.9908 14.9596L11.9905 14.8831C11.9834 14.0343 12.2037 13.1986 12.6292 12.4603C13.0557 11.7285 13.6777 11.1257 14.4277 10.7176L14.4887 10.6848C15.3024 10.241 16.2855 10.0191 17.4377 10.0191L17.4619 10.0192L17.5159 10.0204L17.5769 10.0227L17.645 10.0262L17.7202 10.0308L17.8023 10.0367L17.9879 10.0517L18.0387 10.056V6.41277C18.0387 6.32662 18.0763 6.28322 18.1513 6.28322H20.5181C20.5334 6.28106 20.549 6.28244 20.5637 6.28725C20.5784 6.29206 20.5917 6.30017 20.6026 6.31093C20.6135 6.32169 20.6218 6.33482 20.6267 6.34926C20.6316 6.36371 20.633 6.37907 20.6308 6.39414V17.3244C20.6315 17.5527 20.6409 17.781 20.659 18.0086L20.6767 18.2471L20.6923 18.469L20.7059 18.6744C20.7082 18.7128 20.6987 18.751 20.6786 18.7841C20.6585 18.8171 20.6288 18.8433 20.5932 18.8594C19.9827 19.1101 19.3467 19.2961 18.6961 19.4141C18.141 19.515 17.5784 19.5703 17.0139 19.5794H17.0138ZM18.0387 17.2873V12.2384C17.9372 12.2113 17.8335 12.1928 17.7288 12.1829C17.6009 12.1702 17.4723 12.1641 17.3437 12.1644C16.8878 12.16 16.4374 12.2613 16.0289 12.4603C15.631 12.6551 15.2912 12.9483 15.0428 13.3111C14.786 13.6809 14.6576 14.168 14.6577 14.7722C14.6485 15.1753 14.7154 15.5766 14.8549 15.9557C14.9684 16.2612 15.1479 16.5389 15.3809 16.7695C15.6039 16.9817 15.874 17.14 16.1698 17.2319C16.4822 17.3315 16.8087 17.3815 17.1371 17.3799C17.3123 17.3799 17.4751 17.3737 17.6255 17.3613C17.7454 17.3524 17.8643 17.333 17.9807 17.3032L18.0387 17.2873Z" fill="#FF3366"/>
</g>
<defs>
<clipPath id="clip0_1_1667">
<rect width="28" height="26.9231" fill="white" transform="translate(0 0.397827)"/>
</clipPath>
</defs>
</svg>
