<svg width="296" height="72" viewBox="0 0 296 72" fill="none" xmlns="http://www.w3.org/2000/svg">
<rect x="1" y="11.5902" width="58" height="53.4098" rx="9" stroke="#27496C" stroke-width="2"/>
<line x1="12.5498" y1="7.60913" x2="12.5498" y2="15.4452" stroke="#27496C" stroke-width="2" stroke-linecap="round"/>
<line x1="31.5996" y1="7.60913" x2="31.5996" y2="15.4452" stroke="#27496C" stroke-width="2" stroke-linecap="round"/>
<line x1="50.6504" y1="7.60913" x2="50.6504" y2="15.4452" stroke="#27496C" stroke-width="2" stroke-linecap="round"/>
<rect x="8.84961" y="20.2623" width="10.5" height="8.19672" rx="3" fill="#FFE0B2"/>
<rect x="8.84961" y="35.0164" width="10.5" height="8.19672" rx="3" fill="#C28327"/>
<rect x="8.84961" y="49.7705" width="10.5" height="8.19672" rx="3" fill="#E0E0E0"/>
<rect x="25.3496" y="20.2623" width="10.5" height="8.19672" rx="3" fill="#FFE0B2"/>
<rect x="25.3496" y="35.0164" width="10.5" height="8.19672" rx="3" fill="#E0E0E0"/>
<rect x="25.3496" y="49.7705" width="10.5" height="8.19672" rx="3" fill="#E0E0E0"/>
<rect x="41.8496" y="20.2623" width="10.5" height="8.19672" rx="3" fill="#FFE0B2"/>
<rect x="41.8496" y="35.0164" width="10.5" height="8.19672" rx="3" fill="#E0E0E0"/>
<rect x="41.8496" y="49.7705" width="10.5" height="8.19672" rx="3" fill="#E0E0E0"/>
<path d="M114.904 27.744C114.733 27.9147 114.52 28 114.264 28C114.008 28.0213 113.795 27.9253 113.624 27.712L103.352 15.328L112.728 3.296C112.899 3.12533 113.112 3.02933 113.368 3.008C113.624 2.98667 113.848 3.06133 114.04 3.232C114.253 3.40267 114.36 3.60533 114.36 3.84C114.36 4.05333 114.275 4.27733 114.104 4.512L105.688 15.232L115.096 26.464C115.267 26.6773 115.32 26.9013 115.256 27.136C115.213 27.3493 115.096 27.552 114.904 27.744ZM99.16 28C98.8827 28 98.648 27.9147 98.456 27.744C98.2853 27.552 98.2 27.3173 98.2 27.04V3.968C98.2 3.69066 98.2853 3.46667 98.456 3.296C98.648 3.104 98.8827 3.008 99.16 3.008C99.4373 3.008 99.6613 3.104 99.832 3.296C100.024 3.46667 100.12 3.69066 100.12 3.968V14.528H105.048V16.256H100.12V27.04C100.12 27.3173 100.024 27.552 99.832 27.744C99.6613 27.9147 99.4373 28 99.16 28ZM124.974 28.192C123.267 28.192 121.731 27.808 120.366 27.04C119.022 26.2507 117.955 25.184 117.166 23.84C116.398 22.4747 116.014 20.9493 116.014 19.264C116.014 17.5573 116.398 16.032 117.166 14.688C117.955 13.3227 119.022 12.256 120.366 11.488C121.731 10.6987 123.267 10.304 124.974 10.304C126.68 10.304 128.206 10.6987 129.55 11.488C130.894 12.256 131.95 13.3227 132.718 14.688C133.507 16.032 133.902 17.5573 133.902 19.264L133.102 20.544C133.102 21.9947 132.739 23.296 132.014 24.448C131.31 25.6 130.35 26.5173 129.134 27.2C127.918 27.8613 126.531 28.192 124.974 28.192ZM124.974 26.4C126.318 26.4 127.512 26.0907 128.558 25.472C129.624 24.832 130.456 23.9787 131.054 22.912C131.672 21.824 131.982 20.608 131.982 19.264C131.982 17.8987 131.672 16.6827 131.054 15.616C130.456 14.528 129.624 13.6747 128.558 13.056C127.512 12.416 126.318 12.096 124.974 12.096C123.651 12.096 122.456 12.416 121.39 13.056C120.323 13.6747 119.48 14.528 118.862 15.616C118.243 16.6827 117.934 17.8987 117.934 19.264C117.934 20.608 118.243 21.824 118.862 22.912C119.48 23.9787 120.323 24.832 121.39 25.472C122.456 26.0907 123.651 26.4 124.974 26.4ZM132.942 28C132.664 28 132.43 27.9147 132.238 27.744C132.067 27.552 131.982 27.3173 131.982 27.04V21.184L132.59 19.264H133.902V27.04C133.902 27.3173 133.816 27.552 133.646 27.744C133.475 27.9147 133.24 28 132.942 28ZM145.189 10.464C145.402 10.464 145.605 10.5173 145.797 10.624C145.989 10.7307 146.127 10.9013 146.213 11.136L153.413 26.784C153.519 26.9973 153.519 27.2213 153.413 27.456C153.327 27.6907 153.167 27.8613 152.933 27.968C152.698 28.0747 152.453 28.0853 152.197 28C151.962 27.9147 151.791 27.7547 151.685 27.52L144.645 12H145.957L138.789 27.488C138.682 27.7227 138.49 27.8827 138.213 27.968C137.957 28.0533 137.711 28.0427 137.477 27.936C137.242 27.8293 137.082 27.6587 136.997 27.424C136.911 27.1893 136.911 26.9653 136.997 26.752L144.293 11.136C144.527 10.688 144.826 10.464 145.189 10.464ZM165.249 28.16C163.564 28.16 162.06 27.7867 160.737 27.04C159.436 26.272 158.412 25.216 157.665 23.872C156.918 22.528 156.545 20.992 156.545 19.264C156.545 17.5147 156.897 15.9787 157.601 14.656C158.305 13.312 159.276 12.256 160.513 11.488C161.75 10.72 163.169 10.336 164.769 10.336C166.348 10.336 167.745 10.7093 168.961 11.456C170.177 12.1813 171.126 13.1947 171.809 14.496C172.492 15.776 172.833 17.2587 172.833 18.944C172.833 19.2213 172.748 19.4453 172.577 19.616C172.406 19.7653 172.182 19.84 171.905 19.84H157.825V18.176H172.417L171.009 19.232C171.052 17.8453 170.817 16.6187 170.305 15.552C169.793 14.4853 169.057 13.6533 168.097 13.056C167.158 12.4373 166.049 12.128 164.769 12.128C163.553 12.128 162.465 12.4373 161.505 13.056C160.566 13.6533 159.82 14.4853 159.265 15.552C158.732 16.6187 158.465 17.856 158.465 19.264C158.465 20.6507 158.753 21.8773 159.329 22.944C159.905 24.0107 160.705 24.8533 161.729 25.472C162.753 26.0693 163.926 26.368 165.249 26.368C166.081 26.368 166.913 26.2293 167.745 25.952C168.598 25.6533 169.27 25.2693 169.761 24.8C169.932 24.6293 170.134 24.544 170.369 24.544C170.625 24.5227 170.838 24.5867 171.009 24.736C171.244 24.928 171.361 25.1413 171.361 25.376C171.382 25.6107 171.286 25.824 171.073 26.016C170.39 26.6347 169.494 27.1467 168.385 27.552C167.297 27.9573 166.252 28.16 165.249 28.16ZM192.141 28C191.864 28 191.629 27.9147 191.437 27.744C191.266 27.552 191.181 27.3173 191.181 27.04V11.456C191.181 11.1573 191.266 10.9227 191.437 10.752C191.629 10.5813 191.864 10.496 192.141 10.496C192.44 10.496 192.674 10.5813 192.845 10.752C193.016 10.9227 193.101 11.1573 193.101 11.456V27.04C193.101 27.3173 193.016 27.552 192.845 27.744C192.674 27.9147 192.44 28 192.141 28ZM177.965 28C177.688 28 177.453 27.9147 177.261 27.744C177.09 27.552 177.005 27.3173 177.005 27.04V11.456C177.005 11.1573 177.09 10.9227 177.261 10.752C177.453 10.5813 177.688 10.496 177.965 10.496C178.264 10.496 178.498 10.5813 178.669 10.752C178.84 10.9227 178.925 11.1573 178.925 11.456V27.04C178.925 27.3173 178.84 27.552 178.669 27.744C178.498 27.9147 178.264 28 177.965 28ZM178.509 20.224V18.496H191.981V20.224H178.509ZM206.849 28.192C205.099 28.192 203.553 27.808 202.209 27.04C200.865 26.272 199.809 25.216 199.041 23.872C198.273 22.528 197.889 20.992 197.889 19.264C197.889 17.5147 198.283 15.968 199.073 14.624C199.862 13.28 200.929 12.224 202.273 11.456C203.638 10.688 205.163 10.304 206.849 10.304C208.598 10.304 210.134 10.688 211.457 11.456C212.801 12.224 213.857 13.28 214.625 14.624C215.393 15.968 215.777 17.5147 215.777 19.264L214.657 20.544C214.657 22.0373 214.326 23.36 213.665 24.512C213.003 25.664 212.086 26.5707 210.913 27.232C209.739 27.872 208.385 28.192 206.849 28.192ZM206.977 34.688C205.206 34.688 203.691 34.3573 202.433 33.696C201.195 33.0347 200.171 32.192 199.361 31.168C199.19 30.9547 199.105 30.7307 199.105 30.496C199.105 30.2613 199.211 30.0693 199.425 29.92C199.638 29.7493 199.883 29.6853 200.161 29.728C200.459 29.7707 200.683 29.9093 200.833 30.144C201.494 30.9333 202.337 31.584 203.361 32.096C204.385 32.6293 205.59 32.896 206.977 32.896C208.299 32.896 209.473 32.576 210.497 31.936C211.542 31.296 212.363 30.4107 212.961 29.28C213.558 28.1707 213.857 26.9227 213.857 25.536V20.448L214.721 19.264H215.777V25.536C215.777 27.264 215.393 28.8213 214.625 30.208C213.857 31.5947 212.811 32.6827 211.489 33.472C210.166 34.2827 208.662 34.688 206.977 34.688ZM206.849 26.4C208.214 26.4 209.419 26.1013 210.465 25.504C211.531 24.8853 212.363 24.0427 212.961 22.976C213.558 21.888 213.857 20.6507 213.857 19.264C213.857 17.856 213.558 16.6187 212.961 15.552C212.363 14.464 211.531 13.6213 210.465 13.024C209.419 12.4053 208.214 12.096 206.849 12.096C205.483 12.096 204.267 12.4053 203.201 13.024C202.134 13.6213 201.302 14.464 200.705 15.552C200.107 16.6187 199.809 17.856 199.809 19.264C199.809 20.6507 200.107 21.888 200.705 22.976C201.302 24.0427 202.134 24.8853 203.201 25.504C204.267 26.1013 205.483 26.4 206.849 26.4ZM228.568 28.192C226.861 28.192 225.325 27.808 223.96 27.04C222.616 26.2507 221.549 25.184 220.76 23.84C219.992 22.4747 219.608 20.9493 219.608 19.264C219.608 17.5573 219.992 16.032 220.76 14.688C221.549 13.3227 222.616 12.256 223.96 11.488C225.325 10.6987 226.861 10.304 228.568 10.304C230.274 10.304 231.8 10.6987 233.144 11.488C234.488 12.256 235.544 13.3227 236.312 14.688C237.101 16.032 237.496 17.5573 237.496 19.264L236.696 20.544C236.696 21.9947 236.333 23.296 235.608 24.448C234.904 25.6 233.944 26.5173 232.728 27.2C231.512 27.8613 230.125 28.192 228.568 28.192ZM228.568 26.4C229.912 26.4 231.106 26.0907 232.152 25.472C233.218 24.832 234.05 23.9787 234.648 22.912C235.266 21.824 235.576 20.608 235.576 19.264C235.576 17.8987 235.266 16.6827 234.648 15.616C234.05 14.528 233.218 13.6747 232.152 13.056C231.106 12.416 229.912 12.096 228.568 12.096C227.245 12.096 226.05 12.416 224.984 13.056C223.917 13.6747 223.074 14.528 222.456 15.616C221.837 16.6827 221.528 17.8987 221.528 19.264C221.528 20.608 221.837 21.824 222.456 22.912C223.074 23.9787 223.917 24.832 224.984 25.472C226.05 26.0907 227.245 26.4 228.568 26.4ZM236.536 28C236.258 28 236.024 27.9147 235.832 27.744C235.661 27.552 235.576 27.3173 235.576 27.04V21.184L236.184 19.264H237.496V27.04C237.496 27.3173 237.41 27.552 237.24 27.744C237.069 27.9147 236.834 28 236.536 28ZM243.246 35.488C242.969 35.488 242.734 35.392 242.542 35.2C242.372 35.0293 242.286 34.8053 242.286 34.528V19.072C242.329 17.3867 242.734 15.8933 243.502 14.592C244.292 13.2693 245.358 12.224 246.702 11.456C248.046 10.688 249.55 10.304 251.214 10.304C252.921 10.304 254.446 10.6987 255.79 11.488C257.156 12.256 258.222 13.3227 258.99 14.688C259.78 16.032 260.174 17.5573 260.174 19.264C260.174 20.9493 259.78 22.4747 258.99 23.84C258.222 25.184 257.156 26.2507 255.79 27.04C254.446 27.808 252.921 28.192 251.214 28.192C249.678 28.192 248.292 27.8613 247.054 27.2C245.838 26.5387 244.889 25.6533 244.206 24.544V34.528C244.206 34.8053 244.121 35.0293 243.95 35.2C243.78 35.392 243.545 35.488 243.246 35.488ZM251.214 26.4C252.558 26.4 253.753 26.0907 254.798 25.472C255.865 24.832 256.708 23.9787 257.326 22.912C257.945 21.824 258.254 20.608 258.254 19.264C258.254 17.8987 257.945 16.6827 257.326 15.616C256.708 14.528 255.865 13.6747 254.798 13.056C253.753 12.416 252.558 12.096 251.214 12.096C249.892 12.096 248.697 12.416 247.63 13.056C246.564 13.6747 245.721 14.528 245.102 15.616C244.505 16.6827 244.206 17.8987 244.206 19.264C244.206 20.608 244.505 21.824 245.102 22.912C245.721 23.9787 246.564 24.832 247.63 25.472C248.697 26.0907 249.892 26.4 251.214 26.4ZM272.078 28.32C270.691 28.32 269.464 28.064 268.398 27.552C267.331 27.0187 266.488 26.2933 265.87 25.376C265.272 24.4373 264.974 23.3707 264.974 22.176V11.424C264.995 11.1467 265.091 10.9227 265.262 10.752C265.432 10.5813 265.656 10.496 265.934 10.496C266.232 10.496 266.467 10.5813 266.638 10.752C266.808 10.9227 266.894 11.1573 266.894 11.456V16.672H272.078C273.486 16.672 274.691 16.928 275.694 17.44C276.718 17.952 277.496 18.6453 278.03 19.52C278.584 20.3947 278.862 21.3867 278.862 22.496C278.862 23.6267 278.574 24.64 277.998 25.536C277.422 26.4107 276.622 27.0933 275.598 27.584C274.574 28.0747 273.4 28.32 272.078 28.32ZM272.078 26.592C273.507 26.592 274.67 26.2507 275.566 25.568C276.483 24.8853 276.942 23.8613 276.942 22.496C276.942 21.2373 276.526 20.2453 275.694 19.52C274.883 18.7733 273.678 18.4 272.078 18.4H266.894V22.208C266.894 23.0613 267.096 23.8187 267.502 24.48C267.928 25.1413 268.526 25.664 269.294 26.048C270.083 26.4107 271.011 26.592 272.078 26.592ZM107.672 64C107.395 64 107.16 63.9147 106.968 63.744C106.797 63.552 106.712 63.3173 106.712 63.04V56.224H103.352L97.688 63.712C97.5387 63.9253 97.3253 64.0213 97.048 64C96.792 64 96.5787 63.9147 96.408 63.744C96.216 63.552 96.12 63.3493 96.12 63.136C96.1413 62.9013 96.2267 62.6773 96.376 62.464L101.88 55.2L97.112 48C96.9627 47.7653 96.8773 47.5413 96.856 47.328C96.856 47.0933 96.9627 46.8907 97.176 46.72C97.368 46.5493 97.56 46.4747 97.752 46.496C97.9653 46.5173 98.1573 46.6133 98.328 46.784L103.448 54.496H106.712V47.456C106.712 47.1573 106.797 46.9227 106.968 46.752C107.16 46.5813 107.395 46.496 107.672 46.496C107.971 46.496 108.205 46.5813 108.376 46.752C108.547 46.9227 108.632 47.1573 108.632 47.456V54.496H111.8L117.016 46.784C117.187 46.6133 117.368 46.5173 117.56 46.496C117.773 46.4747 117.976 46.5493 118.168 46.72C118.381 46.8907 118.477 47.0933 118.456 47.328C118.456 47.5413 118.381 47.7653 118.232 48L113.464 55.2L118.968 62.464C119.139 62.6773 119.224 62.9013 119.224 63.136C119.224 63.3493 119.128 63.552 118.936 63.744C118.765 63.9147 118.552 64 118.296 64C118.04 64.0213 117.827 63.9253 117.656 63.712L111.992 56.224H108.632V63.04C108.632 63.3173 108.547 63.552 108.376 63.744C108.205 63.9147 107.971 64 107.672 64ZM131 64.224C129.464 64.224 128.088 63.9147 126.872 63.296C125.656 62.656 124.685 61.728 123.96 60.512C123.256 59.296 122.904 57.8133 122.904 56.064V47.456C122.904 47.1787 122.989 46.9547 123.16 46.784C123.352 46.592 123.586 46.496 123.864 46.496C124.141 46.496 124.365 46.592 124.536 46.784C124.728 46.9547 124.824 47.1787 124.824 47.456V56.064C124.824 57.4507 125.09 58.6133 125.624 59.552C126.178 60.4693 126.914 61.1627 127.832 61.632C128.77 62.08 129.826 62.304 131 62.304C132.152 62.304 133.186 62.08 134.104 61.632C135.021 61.184 135.746 60.5867 136.28 59.84C136.813 59.072 137.08 58.208 137.08 57.248H138.68C138.594 58.5707 138.2 59.7653 137.496 60.832C136.792 61.8773 135.874 62.7093 134.744 63.328C133.634 63.9253 132.386 64.224 131 64.224ZM138.04 64C137.762 64 137.528 63.9147 137.336 63.744C137.165 63.552 137.08 63.3173 137.08 63.04V47.456C137.08 47.1573 137.165 46.9227 137.336 46.752C137.528 46.5813 137.762 46.496 138.04 46.496C138.338 46.496 138.573 46.5813 138.744 46.752C138.914 46.9227 139 47.1573 139 47.456V63.04C139 63.3173 138.914 63.552 138.744 63.744C138.573 63.9147 138.338 64 138.04 64ZM150.003 64.32C149.128 64.32 148.254 64.1813 147.379 63.904C146.504 63.6267 145.715 63.2533 145.011 62.784C144.328 62.2933 143.795 61.7493 143.411 61.152C143.283 60.9173 143.272 60.6827 143.379 60.448C143.486 60.2133 143.678 60.032 143.955 59.904C144.147 59.8187 144.36 59.8293 144.595 59.936C144.83 60.0213 145.022 60.1707 145.171 60.384C145.726 60.9813 146.419 61.4933 147.251 61.92C148.083 62.3253 148.99 62.528 149.971 62.528C151.294 62.528 152.392 62.2507 153.267 61.696C154.163 61.12 154.611 60.2773 154.611 59.168C154.611 58.208 154.248 57.3867 153.523 56.704C152.819 56.0213 151.923 55.6587 150.835 55.616H149.363C149.022 55.616 148.734 55.5307 148.499 55.36C148.286 55.1893 148.179 54.976 148.179 54.72C148.179 54.464 148.286 54.2507 148.499 54.08C148.734 53.9093 149.022 53.824 149.363 53.824H150.835C151.71 53.824 152.435 53.5467 153.011 52.992C153.608 52.416 153.907 51.712 153.907 50.88C153.907 50.0693 153.534 49.3867 152.787 48.832C152.062 48.2773 151.144 48 150.035 48C148.904 48 148.008 48.2027 147.347 48.608C146.686 48.992 146.142 49.4827 145.715 50.08C145.566 50.2933 145.363 50.432 145.107 50.496C144.872 50.56 144.638 50.5387 144.403 50.432C144.126 50.304 143.944 50.1227 143.859 49.888C143.795 49.632 143.838 49.3867 143.987 49.152C144.648 48.2987 145.47 47.5947 146.451 47.04C147.454 46.464 148.648 46.176 150.035 46.176C151.144 46.176 152.126 46.3787 152.979 46.784C153.854 47.168 154.547 47.7013 155.059 48.384C155.571 49.0667 155.827 49.8453 155.827 50.72C155.827 51.4027 155.646 52.0427 155.283 52.64C154.942 53.2373 154.462 53.7387 153.843 54.144C153.246 54.5493 152.552 54.816 151.763 54.944V54.528C152.68 54.528 153.491 54.7307 154.195 55.136C154.92 55.5413 155.486 56.096 155.891 56.8C156.318 57.504 156.531 58.304 156.531 59.2C156.531 60.16 156.243 61.0347 155.667 61.824C155.112 62.592 154.344 63.2 153.363 63.648C152.382 64.096 151.262 64.32 150.003 64.32ZM175.985 64C175.707 64 175.473 63.9147 175.281 63.744C175.11 63.552 175.025 63.3173 175.025 63.04V47.456C175.025 47.1573 175.11 46.9227 175.281 46.752C175.473 46.5813 175.707 46.496 175.985 46.496C176.283 46.496 176.518 46.5813 176.689 46.752C176.859 46.9227 176.945 47.1573 176.945 47.456V63.04C176.945 63.3173 176.859 63.552 176.689 63.744C176.518 63.9147 176.283 64 175.985 64ZM161.809 64C161.531 64 161.297 63.9147 161.105 63.744C160.934 63.552 160.849 63.3173 160.849 63.04V47.456C160.849 47.1573 160.934 46.9227 161.105 46.752C161.297 46.5813 161.531 46.496 161.809 46.496C162.107 46.496 162.342 46.5813 162.513 46.752C162.683 46.9227 162.769 47.1573 162.769 47.456V63.04C162.769 63.3173 162.683 63.552 162.513 63.744C162.342 63.9147 162.107 64 161.809 64ZM162.353 56.224V54.496H175.825V56.224H162.353ZM190.469 64.224C188.933 64.224 187.557 63.9147 186.341 63.296C185.125 62.656 184.154 61.728 183.429 60.512C182.725 59.296 182.373 57.8133 182.373 56.064V47.456C182.373 47.1787 182.458 46.9547 182.629 46.784C182.821 46.592 183.055 46.496 183.333 46.496C183.61 46.496 183.834 46.592 184.005 46.784C184.197 46.9547 184.293 47.1787 184.293 47.456V56.064C184.293 57.4507 184.559 58.6133 185.093 59.552C185.647 60.4693 186.383 61.1627 187.301 61.632C188.239 62.08 189.295 62.304 190.469 62.304C191.621 62.304 192.655 62.08 193.573 61.632C194.49 61.184 195.215 60.5867 195.749 59.84C196.282 59.072 196.549 58.208 196.549 57.248H198.149C198.063 58.5707 197.669 59.7653 196.965 60.832C196.261 61.8773 195.343 62.7093 194.213 63.328C193.103 63.9253 191.855 64.224 190.469 64.224ZM197.509 64C197.231 64 196.997 63.9147 196.805 63.744C196.634 63.552 196.549 63.3173 196.549 63.04V47.456C196.549 47.1573 196.634 46.9227 196.805 46.752C196.997 46.5813 197.231 46.496 197.509 46.496C197.807 46.496 198.042 46.5813 198.213 46.752C198.383 46.9227 198.469 47.1573 198.469 47.456V63.04C198.469 63.3173 198.383 63.552 198.213 63.744C198.042 63.9147 197.807 64 197.509 64Z" fill="#F4F4F4"/>
</svg>
