<svg width="226" height="36" viewBox="0 0 226 36" fill="none" xmlns="http://www.w3.org/2000/svg">
<path d="M4.248 13.448C5.256 12.2 6.168 11.336 6.984 10.76C8.376 9.8 9.96 9.32 11.736 9.32C13.704 9.32 15.336 9.848 16.536 10.808C17.208 11.384 17.88 12.2 18.408 13.304C19.368 11.96 20.472 10.952 21.72 10.28C23.016 9.656 24.408 9.32 25.992 9.32C29.352 9.32 31.656 10.568 32.904 13.016C33.528 14.312 33.864 16.04 33.864 18.296V35H29.496V17.576C29.496 15.896 29.064 14.744 28.248 14.12C27.384 13.496 26.376 13.16 25.176 13.16C23.496 13.16 22.104 13.736 20.904 14.84C19.704 15.944 19.08 17.816 19.08 20.408V35H14.808V18.632C14.808 16.904 14.616 15.656 14.184 14.888C13.56 13.736 12.36 13.112 10.632 13.112C9 13.112 7.56 13.736 6.264 14.984C4.968 16.232 4.296 18.44 4.296 21.704L4.296 35H0.0720001L0.0720001 9.896H4.248V13.448ZM43.4164 5.336H39.0964V0.584H43.4164V5.336ZM43.4164 35H39.0964V9.992H43.4164V35ZM52.809 13.448C54.009 12.008 55.257 10.952 56.601 10.28C57.897 9.656 59.385 9.32 61.017 9.32C64.569 9.32 66.969 10.568 68.217 13.064C68.889 14.408 69.273 16.376 69.273 18.92V35H64.953V19.16C64.953 17.672 64.713 16.424 64.281 15.464C63.561 13.928 62.169 13.112 60.201 13.112C59.193 13.112 58.377 13.208 57.753 13.448C56.601 13.784 55.593 14.456 54.681 15.512C54.009 16.328 53.577 17.192 53.337 18.056C53.145 18.968 53.001 20.216 53.001 21.848V35H48.777V9.896H52.809V13.448ZM78.8089 5.336H74.4889V0.584H78.8089V5.336ZM78.8089 35H74.4889V9.992H78.8089V35ZM88.3455 13.448C89.3535 12.2 90.2655 11.336 91.0815 10.76C92.4735 9.8 94.0575 9.32 95.8335 9.32C97.8015 9.32 99.4335 9.848 100.634 10.808C101.306 11.384 101.978 12.2 102.506 13.304C103.466 11.96 104.57 10.952 105.818 10.28C107.114 9.656 108.506 9.32 110.09 9.32C113.45 9.32 115.754 10.568 117.002 13.016C117.626 14.312 117.962 16.04 117.962 18.296V35H113.594V17.576C113.594 15.896 113.162 14.744 112.346 14.12C111.482 13.496 110.474 13.16 109.274 13.16C107.594 13.16 106.202 13.736 105.002 14.84C103.802 15.944 103.178 17.816 103.178 20.408V35H98.9055V18.632C98.9055 16.904 98.7135 15.656 98.2815 14.888C97.6575 13.736 96.4575 13.112 94.7295 13.112C93.0975 13.112 91.6575 13.736 90.3615 14.984C89.0655 16.232 88.3935 18.44 88.3935 21.704V35H84.1695V9.896H88.3455V13.448ZM136.682 19.784C137.642 19.688 138.266 19.256 138.602 18.584C138.794 18.2 138.89 17.672 138.89 16.952C138.89 15.512 138.362 14.456 137.354 13.832C136.346 13.16 134.858 12.872 132.986 12.872C130.778 12.872 129.194 13.448 128.282 14.648C127.754 15.272 127.418 16.28 127.274 17.576L123.338 17.576C123.386 14.456 124.394 12.296 126.362 11.096C128.282 9.896 130.49 9.272 133.082 9.272C136.01 9.272 138.41 9.848 140.234 11C142.106 12.104 143.018 13.88 143.018 16.232V30.68C143.018 31.112 143.114 31.496 143.258 31.736C143.45 32.024 143.834 32.12 144.41 32.12C144.602 32.12 144.794 32.12 145.034 32.072C145.274 32.072 145.514 32.024 145.802 32.024V35.096C145.13 35.288 144.65 35.432 144.266 35.48C143.93 35.528 143.45 35.528 142.874 35.528C141.434 35.528 140.378 35 139.706 33.992C139.37 33.464 139.13 32.696 138.986 31.688C138.122 32.792 136.922 33.8 135.29 34.616C133.658 35.432 131.93 35.864 129.962 35.864C127.658 35.864 125.738 35.144 124.25 33.704C122.81 32.312 122.042 30.536 122.042 28.424C122.042 26.072 122.762 24.296 124.202 23C125.69 21.704 127.562 20.936 129.962 20.648L136.682 19.784ZM127.802 31.208C128.666 31.928 129.722 32.264 130.97 32.264C132.41 32.264 133.898 31.928 135.242 31.208C137.594 30.056 138.794 28.232 138.794 25.64V22.232C138.266 22.568 137.594 22.856 136.778 23.048C135.962 23.24 135.146 23.432 134.378 23.528L131.834 23.864C130.298 24.056 129.146 24.344 128.378 24.824C127.13 25.544 126.458 26.696 126.458 28.328C126.458 29.528 126.89 30.488 127.802 31.208ZM153.274 35H149.05V0.584H153.274V35ZM162.906 5.336H158.586V0.584H162.906V5.336ZM162.906 35H158.586V9.992H162.906V35ZM170.811 27.128C170.907 28.52 171.243 29.624 171.867 30.344C172.923 31.736 174.747 32.408 177.387 32.408C178.971 32.408 180.315 32.024 181.515 31.352C182.715 30.68 183.291 29.672 183.291 28.232C183.291 27.128 182.811 26.312 181.851 25.784C181.227 25.4 180.075 25.016 178.251 24.584L174.891 23.72C172.779 23.192 171.195 22.616 170.187 21.944C168.363 20.792 167.451 19.208 167.451 17.192C167.451 14.84 168.315 12.92 170.043 11.432C171.723 9.992 174.027 9.224 176.907 9.224C180.699 9.224 183.435 10.328 185.115 12.584C186.171 13.976 186.651 15.512 186.603 17.096H182.619C182.571 16.136 182.187 15.272 181.611 14.504C180.651 13.4 178.971 12.872 176.571 12.872C174.987 12.872 173.787 13.16 172.971 13.784C172.155 14.36 171.723 15.176 171.723 16.184C171.723 17.288 172.251 18.152 173.355 18.824C173.979 19.208 174.891 19.544 176.139 19.832L178.923 20.504C181.947 21.224 183.963 21.992 185.019 22.664C186.651 23.72 187.467 25.4 187.467 27.752C187.467 29.96 186.603 31.928 184.923 33.512C183.195 35.144 180.651 35.96 177.195 35.96C173.451 35.96 170.811 35.096 169.227 33.416C167.691 31.736 166.875 29.624 166.731 27.128H170.811ZM195.483 13.448C196.491 12.2 197.403 11.336 198.219 10.76C199.611 9.8 201.195 9.32 202.971 9.32C204.939 9.32 206.571 9.848 207.771 10.808C208.443 11.384 209.115 12.2 209.643 13.304C210.603 11.96 211.707 10.952 212.955 10.28C214.251 9.656 215.643 9.32 217.227 9.32C220.587 9.32 222.891 10.568 224.139 13.016C224.763 14.312 225.099 16.04 225.099 18.296V35H220.731V17.576C220.731 15.896 220.299 14.744 219.483 14.12C218.619 13.496 217.611 13.16 216.411 13.16C214.731 13.16 213.339 13.736 212.139 14.84C210.939 15.944 210.315 17.816 210.315 20.408V35H206.043V18.632C206.043 16.904 205.851 15.656 205.419 14.888C204.795 13.736 203.595 13.112 201.867 13.112C200.235 13.112 198.795 13.736 197.499 14.984C196.203 16.232 195.531 18.44 195.531 21.704V35H191.307V9.896H195.483V13.448Z" fill="#F4F4F4"/>
</svg>
