<svg width="209" height="45" viewBox="0 0 209 45" fill="none" xmlns="http://www.w3.org/2000/svg">
<path d="M42.5156 34.6562C42.5156 34.8958 42.4844 35.151 42.4219 35.4219C42.3698 35.6927 42.2552 35.9479 42.0781 36.1875C41.9115 36.4167 41.6719 36.6094 41.3594 36.7656C41.0469 36.9219 40.6406 37 40.1406 37H33.2656C32.776 37 32.375 36.9531 32.0625 36.8594C31.7604 36.7656 31.5208 36.6302 31.3438 36.4531C31.1667 36.276 31.0469 36.0521 30.9844 35.7812C30.9219 35.5104 30.8906 35.1927 30.8906 34.8281V17.2812C30.8906 16.6875 30.9583 16.2135 31.0938 15.8594C31.2292 15.4948 31.4219 15.2188 31.6719 15.0312C31.9219 14.8333 32.2188 14.7083 32.5625 14.6562C32.9167 14.5938 33.3073 14.5625 33.7344 14.5625H48.25C48.75 14.5625 49 14.8229 49 15.3438V16.7812C49 16.9896 48.9375 17.125 48.8125 17.1875C48.6875 17.25 48.5365 17.2812 48.3594 17.2812C48.2552 17.2812 48.0938 17.2656 47.875 17.2344C47.6562 17.2031 47.401 17.1667 47.1094 17.125C46.8177 17.0729 46.5 17.0156 46.1562 16.9531C45.8229 16.8802 45.4844 16.8125 45.1406 16.75C44.3385 16.5938 43.4635 16.4115 42.5156 16.2031V20.1719H48.3281C48.5469 20.1719 48.6562 20.2812 48.6562 20.5V22.0625C48.6562 22.2917 48.5469 22.4062 48.3281 22.4062H42.5156V34.6562Z" fill="#DF5266"/>
<path d="M60.6875 37.6094C59.8542 37.6094 59.0156 37.5365 58.1719 37.3906C57.3385 37.2448 56.5365 36.9948 55.7656 36.6406C54.9948 36.2865 54.276 35.8177 53.6094 35.2344C52.9427 34.6406 52.3594 33.9062 51.8594 33.0312C51.3698 32.1458 50.9844 31.1042 50.7031 29.9062C50.4219 28.6979 50.2812 27.2969 50.2812 25.7031C50.2812 24.1198 50.4219 22.724 50.7031 21.5156C50.9844 20.3073 51.3698 19.2656 51.8594 18.3906C52.3594 17.5052 52.9427 16.7708 53.6094 16.1875C54.276 15.6042 54.9948 15.1406 55.7656 14.7969C56.5365 14.4427 57.3385 14.1927 58.1719 14.0469C59.0156 13.901 59.8542 13.8281 60.6875 13.8281C61.5208 13.8281 62.3594 13.901 63.2031 14.0469C64.0469 14.1927 64.8542 14.4427 65.625 14.7969C66.3958 15.1406 67.1146 15.6042 67.7812 16.1875C68.4479 16.7708 69.026 17.5052 69.5156 18.3906C70.0052 19.2656 70.3906 20.3073 70.6719 21.5156C70.9531 22.724 71.0938 24.1198 71.0938 25.7031C71.0938 27.2865 70.9531 28.6823 70.6719 29.8906C70.3906 31.099 70.0052 32.1458 69.5156 33.0312C69.026 33.9062 68.4479 34.6406 67.7812 35.2344C67.1146 35.8177 66.3958 36.2865 65.625 36.6406C64.8542 36.9948 64.0469 37.2448 63.2031 37.3906C62.3594 37.5365 61.5208 37.6094 60.6875 37.6094ZM62.0938 25.7031C62.0938 27.0052 62.1875 28.0938 62.375 28.9688C62.5729 29.8438 62.8333 30.5469 63.1562 31.0781C63.4792 31.6094 63.8385 31.9896 64.2344 32.2188C64.6406 32.4375 65.0573 32.5469 65.4844 32.5469C65.9115 32.5469 66.3281 32.4375 66.7344 32.2188C67.1406 31.9896 67.5 31.6094 67.8125 31.0781C68.1354 30.5469 68.3906 29.8438 68.5781 28.9688C68.776 28.0938 68.875 27.0052 68.875 25.7031C68.875 24.401 68.776 23.3125 68.5781 22.4375C68.3906 21.5625 68.1354 20.8594 67.8125 20.3281C67.5 19.7969 67.1406 19.4219 66.7344 19.2031C66.3281 18.974 65.9115 18.8594 65.4844 18.8594C65.0573 18.8594 64.6406 18.974 64.2344 19.2031C63.8385 19.4219 63.4792 19.7969 63.1562 20.3281C62.8333 20.8594 62.5729 21.5625 62.375 22.4375C62.1875 23.3125 62.0938 24.401 62.0938 25.7031ZM83.4062 37.6094C82.5729 37.6094 81.7344 37.5365 80.8906 37.3906C80.0573 37.2448 79.2552 36.9948 78.4844 36.6406C77.7135 36.2865 76.9948 35.8177 76.3281 35.2344C75.6615 34.6406 75.0781 33.9062 74.5781 33.0312C74.0885 32.1458 73.7031 31.1042 73.4219 29.9062C73.1406 28.6979 73 27.2969 73 25.7031C73 24.1198 73.1406 22.724 73.4219 21.5156C73.7031 20.3073 74.0885 19.2656 74.5781 18.3906C75.0781 17.5052 75.6615 16.7708 76.3281 16.1875C76.9948 15.6042 77.7135 15.1406 78.4844 14.7969C79.2552 14.4427 80.0573 14.1927 80.8906 14.0469C81.7344 13.901 82.5729 13.8281 83.4062 13.8281C84.2396 13.8281 85.0781 13.901 85.9219 14.0469C86.7656 14.1927 87.5729 14.4427 88.3438 14.7969C89.1146 15.1406 89.8333 15.6042 90.5 16.1875C91.1667 16.7708 91.7448 17.5052 92.2344 18.3906C92.724 19.2656 93.1094 20.3073 93.3906 21.5156C93.6719 22.724 93.8125 24.1198 93.8125 25.7031C93.8125 27.2865 93.6719 28.6823 93.3906 29.8906C93.1094 31.099 92.724 32.1458 92.2344 33.0312C91.7448 33.9062 91.1667 34.6406 90.5 35.2344C89.8333 35.8177 89.1146 36.2865 88.3438 36.6406C87.5729 36.9948 86.7656 37.2448 85.9219 37.3906C85.0781 37.5365 84.2396 37.6094 83.4062 37.6094ZM84.8125 25.7031C84.8125 27.0052 84.9062 28.0938 85.0938 28.9688C85.2917 29.8438 85.5521 30.5469 85.875 31.0781C86.1979 31.6094 86.5573 31.9896 86.9531 32.2188C87.3594 32.4375 87.776 32.5469 88.2031 32.5469C88.6302 32.5469 89.0469 32.4375 89.4531 32.2188C89.8594 31.9896 90.2188 31.6094 90.5312 31.0781C90.8542 30.5469 91.1094 29.8438 91.2969 28.9688C91.4948 28.0938 91.5938 27.0052 91.5938 25.7031C91.5938 24.401 91.4948 23.3125 91.2969 22.4375C91.1094 21.5625 90.8542 20.8594 90.5312 20.3281C90.2188 19.7969 89.8594 19.4219 89.4531 19.2031C89.0469 18.974 88.6302 18.8594 88.2031 18.8594C87.776 18.8594 87.3594 18.974 86.9531 19.2031C86.5573 19.4219 86.1979 19.7969 85.875 20.3281C85.5521 20.8594 85.2917 21.5625 85.0938 22.4375C84.9062 23.3125 84.8125 24.401 84.8125 25.7031ZM96.2031 16.75C96.2031 16.3854 96.2344 16.0677 96.2969 15.7969C96.3594 15.526 96.4792 15.3021 96.6562 15.125C96.8333 14.9375 97.0781 14.7969 97.3906 14.7031C97.7031 14.6094 98.1094 14.5625 98.6094 14.5625H106.125C106.906 14.5625 107.682 14.6198 108.453 14.7344C109.224 14.8385 109.958 15.0312 110.656 15.3125C111.354 15.5938 112 15.9844 112.594 16.4844C113.198 16.974 113.719 17.6094 114.156 18.3906C114.594 19.1719 114.938 20.1094 115.188 21.2031C115.438 22.2969 115.562 23.5833 115.562 25.0625C115.562 26.8021 115.427 28.3073 115.156 29.5781C114.896 30.8385 114.536 31.9115 114.078 32.7969C113.63 33.6823 113.094 34.401 112.469 34.9531C111.854 35.4948 111.188 35.9219 110.469 36.2344C109.76 36.5365 109.021 36.7396 108.25 36.8438C107.49 36.9479 106.729 37 105.969 37H98.6094C98.1094 37 97.7031 36.9531 97.3906 36.8594C97.0781 36.7656 96.8333 36.6302 96.6562 36.4531C96.4792 36.276 96.3594 36.0521 96.2969 35.7812C96.2344 35.5104 96.2031 35.1927 96.2031 34.8281V16.75ZM113.359 25.3906C113.359 24.099 113.255 22.9219 113.047 21.8594C112.839 20.7969 112.51 19.8906 112.062 19.1406C111.615 18.3906 111.042 17.8073 110.344 17.3906C109.656 16.974 108.828 16.7604 107.859 16.75V34.8281C108.828 34.8177 109.661 34.5677 110.359 34.0781C111.057 33.5781 111.625 32.901 112.062 32.0469C112.51 31.1927 112.839 30.1979 113.047 29.0625C113.255 27.9167 113.359 26.6927 113.359 25.3906ZM138.547 16.75C138.547 16.3854 138.578 16.0677 138.641 15.7969C138.703 15.526 138.823 15.3021 139 15.125C139.177 14.9375 139.422 14.7969 139.734 14.7031C140.047 14.6094 140.453 14.5625 140.953 14.5625H147.922C148.526 14.5625 148.984 14.651 149.297 14.8281C149.62 15.0052 149.844 15.2292 149.969 15.5C150.104 15.7604 150.177 16.0417 150.188 16.3438C150.198 16.6354 150.203 16.9062 150.203 17.1562V34.8594C150.922 34.7552 151.589 34.6615 152.203 34.5781C152.464 34.5469 152.724 34.5156 152.984 34.4844C153.255 34.4427 153.5 34.4062 153.719 34.375C153.948 34.3438 154.151 34.3229 154.328 34.3125C154.505 34.2917 154.635 34.2812 154.719 34.2812C154.896 34.2812 155.036 34.3177 155.141 34.3906C155.255 34.4531 155.312 34.5885 155.312 34.7969V36.2344C155.312 36.4219 155.229 36.599 155.062 36.7656C154.906 36.9219 154.651 37 154.297 37H140.922C140.432 37 140.031 36.9531 139.719 36.8594C139.417 36.7656 139.177 36.6302 139 36.4531C138.823 36.276 138.703 36.0521 138.641 35.7812C138.578 35.5104 138.547 35.1927 138.547 34.8281V16.75ZM167 37.6094C166.167 37.6094 165.328 37.5365 164.484 37.3906C163.651 37.2448 162.849 36.9948 162.078 36.6406C161.307 36.2865 160.589 35.8177 159.922 35.2344C159.255 34.6406 158.672 33.9062 158.172 33.0312C157.682 32.1458 157.297 31.1042 157.016 29.9062C156.734 28.6979 156.594 27.2969 156.594 25.7031C156.594 24.1198 156.734 22.724 157.016 21.5156C157.297 20.3073 157.682 19.2656 158.172 18.3906C158.672 17.5052 159.255 16.7708 159.922 16.1875C160.589 15.6042 161.307 15.1406 162.078 14.7969C162.849 14.4427 163.651 14.1927 164.484 14.0469C165.328 13.901 166.167 13.8281 167 13.8281C167.833 13.8281 168.672 13.901 169.516 14.0469C170.359 14.1927 171.167 14.4427 171.938 14.7969C172.708 15.1406 173.427 15.6042 174.094 16.1875C174.76 16.7708 175.339 17.5052 175.828 18.3906C176.318 19.2656 176.703 20.3073 176.984 21.5156C177.266 22.724 177.406 24.1198 177.406 25.7031C177.406 27.2865 177.266 28.6823 176.984 29.8906C176.703 31.099 176.318 32.1458 175.828 33.0312C175.339 33.9062 174.76 34.6406 174.094 35.2344C173.427 35.8177 172.708 36.2865 171.938 36.6406C171.167 36.9948 170.359 37.2448 169.516 37.3906C168.672 37.5365 167.833 37.6094 167 37.6094ZM168.406 25.7031C168.406 27.0052 168.5 28.0938 168.688 28.9688C168.885 29.8438 169.146 30.5469 169.469 31.0781C169.792 31.6094 170.151 31.9896 170.547 32.2188C170.953 32.4375 171.37 32.5469 171.797 32.5469C172.224 32.5469 172.641 32.4375 173.047 32.2188C173.453 31.9896 173.812 31.6094 174.125 31.0781C174.448 30.5469 174.703 29.8438 174.891 28.9688C175.089 28.0938 175.188 27.0052 175.188 25.7031C175.188 24.401 175.089 23.3125 174.891 22.4375C174.703 21.5625 174.448 20.8594 174.125 20.3281C173.812 19.7969 173.453 19.4219 173.047 19.2031C172.641 18.974 172.224 18.8594 171.797 18.8594C171.37 18.8594 170.953 18.974 170.547 19.2031C170.151 19.4219 169.792 19.7969 169.469 20.3281C169.146 20.8594 168.885 21.5625 168.688 22.4375C168.5 23.3125 168.406 24.401 168.406 25.7031ZM194.516 16.9375C194.286 16.9375 194.042 16.974 193.781 17.0469C193.531 17.1198 193.281 17.2604 193.031 17.4688C192.781 17.6771 192.536 17.9688 192.297 18.3438C192.068 18.7083 191.865 19.1927 191.688 19.7969C191.521 20.401 191.385 21.1354 191.281 22C191.177 22.8542 191.125 23.875 191.125 25.0625C191.125 26.2396 191.177 27.2656 191.281 28.1406C191.385 29.0156 191.521 29.7656 191.688 30.3906C191.865 31.0156 192.068 31.5312 192.297 31.9375C192.536 32.3333 192.781 32.6458 193.031 32.875C193.281 33.1042 193.531 33.2656 193.781 33.3594C194.042 33.4427 194.286 33.4844 194.516 33.4844C194.828 33.4844 195.12 33.4167 195.391 33.2812V27.2969C195.391 27.1302 195.427 26.9688 195.5 26.8125C195.573 26.6458 195.745 26.5625 196.016 26.5625H197.656C197.75 26.5625 197.844 26.5677 197.938 26.5781C198.031 26.5885 198.115 26.6198 198.188 26.6719C198.26 26.7135 198.318 26.7865 198.359 26.8906C198.401 26.9844 198.422 27.1198 198.422 27.2969V36.2656C198.422 36.4427 198.401 36.5833 198.359 36.6875C198.318 36.7812 198.26 36.8542 198.188 36.9062C198.115 36.9479 198.031 36.974 197.938 36.9844C197.844 36.9948 197.75 37 197.656 37H196.016C195.88 37 195.771 36.9792 195.688 36.9375C195.615 36.8958 195.552 36.8385 195.5 36.7656C195.458 36.6927 195.427 36.6146 195.406 36.5312C195.396 36.4375 195.391 36.349 195.391 36.2656V35.8125C195.057 36.0521 194.688 36.2812 194.281 36.5C193.875 36.7188 193.427 36.9115 192.938 37.0781C192.458 37.2448 191.938 37.375 191.375 37.4688C190.812 37.5625 190.208 37.6094 189.562 37.6094C188.802 37.6094 188.021 37.5417 187.219 37.4062C186.417 37.2708 185.635 37.0312 184.875 36.6875C184.125 36.3333 183.411 35.8542 182.734 35.25C182.057 34.6458 181.464 33.8802 180.953 32.9531C180.453 32.026 180.052 30.9167 179.75 29.625C179.458 28.3229 179.312 26.8021 179.312 25.0625C179.312 23.5833 179.458 22.2812 179.75 21.1562C180.052 20.0208 180.458 19.0365 180.969 18.2031C181.479 17.3698 182.073 16.6719 182.75 16.1094C183.438 15.5469 184.167 15.099 184.938 14.7656C185.708 14.4219 186.5 14.1823 187.312 14.0469C188.135 13.901 188.938 13.8281 189.719 13.8281C190.573 13.8281 191.385 13.8958 192.156 14.0312C192.927 14.1667 193.63 14.3385 194.266 14.5469C194.911 14.7552 195.484 14.9896 195.984 15.25C196.484 15.5104 196.896 15.7656 197.219 16.0156C197.25 16.0469 197.286 16.0833 197.328 16.125C197.37 16.1562 197.391 16.1979 197.391 16.25C197.391 16.2917 197.375 16.3438 197.344 16.4062L196.672 17.4688C196.609 17.5625 196.536 17.6094 196.453 17.6094C196.391 17.6094 196.302 17.5781 196.188 17.5156C196.083 17.4427 195.948 17.3646 195.781 17.2812C195.615 17.1875 195.427 17.1094 195.219 17.0469C195.01 16.974 194.776 16.9375 194.516 16.9375Z" fill="#FAFAFA"/>
<path d="M117.984 16.75C117.984 16.3854 118.016 16.0677 118.078 15.7969C118.141 15.526 118.26 15.3021 118.438 15.125C118.615 14.9375 118.859 14.7969 119.172 14.7031C119.484 14.6094 119.891 14.5625 120.391 14.5625H127.359C128.495 14.5625 129.589 14.6979 130.641 14.9688C131.693 15.2396 132.625 15.6771 133.438 16.2812C134.25 16.8854 134.901 17.6719 135.391 18.6406C135.88 19.599 136.125 20.7708 136.125 22.1562C136.125 24.0938 135.812 25.6667 135.188 26.875C134.573 28.0833 133.714 28.9375 132.609 29.4375C133.38 29.6875 133.958 30.0833 134.344 30.625C134.729 31.1562 134.922 31.7969 134.922 32.5469C134.922 33.5156 134.698 34.2917 134.25 34.875C133.812 35.4583 133.24 35.9115 132.531 36.2344C131.823 36.5469 131.026 36.7552 130.141 36.8594C129.266 36.9531 128.391 37 127.516 37H120.391C119.891 37 119.484 36.9531 119.172 36.8594C118.859 36.7656 118.615 36.6302 118.438 36.4531C118.26 36.276 118.141 36.0521 118.078 35.7812C118.016 35.5104 117.984 35.1927 117.984 34.8281V16.75ZM133.922 22.4062C133.922 21.6562 133.839 20.9688 133.672 20.3438C133.505 19.7083 133.25 19.151 132.906 18.6719C132.562 18.1927 132.12 17.7969 131.578 17.4844C131.036 17.1719 130.391 16.9583 129.641 16.8438V28.4688C130.391 28.3646 131.036 28.1354 131.578 27.7812C132.12 27.4167 132.562 26.9635 132.906 26.4219C133.25 25.8802 133.505 25.2656 133.672 24.5781C133.839 23.8906 133.922 23.1667 133.922 22.4062ZM129.641 34.8281C130.724 34.7865 131.505 34.5677 131.984 34.1719C132.464 33.776 132.703 33.3021 132.703 32.75C132.703 32.4896 132.646 32.2292 132.531 31.9688C132.427 31.7083 132.25 31.4792 132 31.2812C131.76 31.0729 131.443 30.901 131.047 30.7656C130.661 30.6302 130.193 30.5469 129.641 30.5156V34.8281Z" fill="#2AABEE"/>
<path d="M20.1429 33.3686C18.4286 35.2417 17.6571 37.5312 16.9714 41L17.0571 30.8537C17.2 30.6802 17.4857 30.4201 17.4857 29.8997C17.4857 29.4661 17.1429 28.9458 16.5429 28.9458C15.9429 28.9458 15.6 29.2927 15.6 29.8997C15.6 30.4201 15.8857 30.738 16.0286 30.8537V41C15.6 37.7046 13.2857 34.2358 12.7714 33.3686C12.36 32.6748 10.6 30.6513 9.77143 29.7263C10.6286 28.0786 10.8 27.7317 11.3143 26.1707C11.7314 24.9047 12.0857 23.0199 12.1714 22.1816V18.019C9.77143 17.9322 9 16.1111 9 15.2439C9 14.4634 9.42438 13.6707 9.77143 13.2493C10.2 12.729 11.9143 11.6016 11.9143 12.3821C11.9143 13.2261 11.9714 13.2493 12.0857 13.1626C12.1429 12.9024 12.3257 12.174 12.6 11.3415C12.9429 10.3008 14.5714 9 16.6286 9C18 9 18.6644 9.3741 19.2 9.78049C19.5429 10.0407 20.4 10.7344 20.7429 12.0352C20.7714 12.4688 20.8629 13.336 21 13.336C21.1371 13.336 21.1714 13.0181 21.1714 12.9892C21.1714 12.6423 21.24 12.1913 21.5143 12.122C21.8571 12.0352 22.3643 12.2882 22.8857 12.8157C23.3143 13.2493 24 14.0298 24 14.7236C24 15.4173 23.7943 16.2499 22.9714 17.1518C21.9429 18.2791 20.4857 17.9322 19.7143 17.6721C19.0437 17.4459 18.2571 16.5447 18.2571 16.5447C18.2571 16.5447 18.6 18.1057 20.1429 18.4526C20.618 18.5213 20.7429 18.7995 20.7429 18.9729C20.7714 19.2331 20.8114 19.8575 20.7429 20.2737C20.6743 20.69 20.3143 20.6784 20.1429 20.6206C19.8286 20.4761 18.0857 20.1003 16.6286 20.1003C15.3867 20.1003 14.6571 20.2737 14.0571 20.5339C14.6286 20.4761 16.3543 20.4818 17.6571 20.6206C18.96 20.7593 20.4286 21.3722 21 21.6612C21.0571 22.3839 21.24 24.1415 21.5143 25.3902C21.7886 26.639 22.8286 28.8591 23.3143 29.813C22.9714 30.2177 21.8571 31.4954 20.1429 33.3686Z" fill="#FAFAFA"/>
</svg>
