<svg width="189" height="84" viewBox="0 0 189 84" fill="none" xmlns="http://www.w3.org/2000/svg">
<path d="M95.0001 0L95.5854 11.3225L100.725 1.21696L96.6549 11.7987L105.461 4.65741L97.4382 12.6686L108.387 9.72646L97.7999 13.782L108.999 15.5476L97.6776 14.9462L107.191 21.1144L97.0922 15.96L103.274 25.4642L96.1452 16.6481L97.9267 27.8449L95.0001 16.8915L92.0735 27.8449L93.855 16.6481L86.7263 25.4642L92.908 15.96L82.8097 21.1144L92.3226 14.9462L81.0009 15.5476L92.2003 13.782L81.6128 9.72646L92.562 12.6686L84.5394 4.65741L93.3453 11.7987L89.2748 1.21696L94.4148 11.3225L95.0001 0Z" fill="#ECECEC"/>
<path d="M11.304 71.5686L1.896 52.1126H7.336L13.16 65.6806L11.304 71.5686ZM11.304 71.5686L11.176 67.8246L18.12 52.0486H20.456L13.064 67.6646C13.0213 67.7713 12.9253 67.9953 12.776 68.3366C12.6267 68.6566 12.4667 69.0299 12.296 69.4566C12.1253 69.8619 11.9653 70.2566 11.816 70.6406C11.688 71.0246 11.6133 71.3339 11.592 71.5686H11.304ZM17.224 54.0646C17.4587 53.4886 17.4267 53.0406 17.128 52.7206C16.8507 52.4006 16.52 52.2406 16.136 52.2406H15.912V51.9526H22.28V52.2726C22.28 52.2726 22.2373 52.2726 22.152 52.2726C22.0667 52.2726 22.024 52.2726 22.024 52.2726C21.5973 52.2726 21.1493 52.4113 20.68 52.6886C20.2107 52.9446 19.816 53.4033 19.496 54.0646H17.224ZM8.168 54.0646H2.856C2.536 53.4033 2.14133 52.9446 1.672 52.6886C1.224 52.4113 0.786667 52.2726 0.36 52.2726C0.36 52.2726 0.328 52.2726 0.264 52.2726C0.178667 52.2726 0.136 52.2726 0.136 52.2726V51.9526H9.512V52.2406H9.256C8.91467 52.2406 8.59467 52.4006 8.296 52.7206C7.99733 53.0406 7.95467 53.4886 8.168 54.0646ZM31.0985 51.9526V71.1526H26.4905V51.9526H31.0985ZM26.5865 69.1366V71.1526H24.2505V70.8326C24.2505 70.8326 24.3145 70.8326 24.4425 70.8326C24.5705 70.8326 24.6452 70.8326 24.6665 70.8326C25.1572 70.8326 25.5838 70.6726 25.9465 70.3526C26.3092 70.0113 26.4905 69.6059 26.4905 69.1366H26.5865ZM31.0345 69.1366H31.0985C31.1198 69.6059 31.3012 70.0113 31.6425 70.3526C32.0052 70.6726 32.4425 70.8326 32.9545 70.8326C32.9545 70.8326 33.0078 70.8326 33.1145 70.8326C33.2425 70.8326 33.3172 70.8326 33.3385 70.8326V71.1526H31.0345V69.1366ZM31.0345 53.9686V51.9526H33.3385L33.3065 52.2726C33.3065 52.2726 33.2532 52.2726 33.1465 52.2726C33.0398 52.2726 32.9758 52.2726 32.9545 52.2726C32.4425 52.2726 32.0052 52.4326 31.6425 52.7526C31.3012 53.0726 31.1198 53.4779 31.0985 53.9686H31.0345ZM26.5865 53.9686H26.4905C26.4905 53.4779 26.3092 53.0726 25.9465 52.7526C25.5838 52.4326 25.1465 52.2726 24.6345 52.2726C24.6345 52.2726 24.5705 52.2726 24.4425 52.2726C24.3145 52.2726 24.2505 52.2726 24.2505 52.2726V51.9526H26.5865V53.9686ZM56.0193 63.1206L56.3713 67.9526C55.9659 68.6353 55.4006 69.2539 54.6753 69.8086C53.9499 70.3419 53.0646 70.7686 52.0193 71.0886C50.9739 71.4086 49.7579 71.5686 48.3713 71.5686C45.9819 71.5473 43.9233 71.1419 42.1953 70.3526C40.4673 69.5633 39.1339 68.4326 38.1953 66.9606C37.2779 65.4673 36.8193 63.6539 36.8193 61.5206C36.8193 59.4299 37.2779 57.6486 38.1953 56.1766C39.1126 54.6833 40.4353 53.5419 42.1633 52.7526C43.8913 51.9419 45.9606 51.5366 48.3713 51.5366C49.8219 51.5366 51.1659 51.6753 52.4033 51.9526C53.6619 52.2299 54.7073 52.5819 55.5393 53.0086L55.5713 58.0966H55.3153C54.7819 56.1339 53.9393 54.7579 52.7873 53.9686C51.6353 53.1793 50.2699 52.7846 48.6913 52.7846C47.1339 52.7846 45.8326 53.1473 44.7873 53.8726C43.7633 54.5979 42.9846 55.6113 42.4513 56.9126C41.9393 58.2139 41.6833 59.7393 41.6833 61.4886C41.6833 63.2593 41.9393 64.7953 42.4513 66.0966C42.9846 67.3979 43.7526 68.4113 44.7553 69.1366C45.7579 69.8619 46.9633 70.2459 48.3713 70.2886C49.8859 70.2886 51.1339 70.0539 52.1153 69.5846C53.1179 69.1153 53.9073 68.3579 54.4833 67.3126C55.0806 66.2673 55.5073 64.8699 55.7633 63.1206H56.0193ZM71.079 52.0486V71.1526H66.439V52.0486H71.079ZM78.055 51.9206V53.2006H59.495V51.9206H78.055ZM78.055 53.1046V56.4966H77.703V56.2086C77.7243 55.2913 77.4683 54.5659 76.935 54.0326C76.423 53.4993 75.7083 53.2219 74.791 53.2006V53.1046H78.055ZM78.055 51.4406V52.2406L74.663 51.9206C75.0683 51.9206 75.5057 51.8993 75.975 51.8566C76.4443 51.7926 76.871 51.7286 77.255 51.6646C77.639 51.5793 77.9057 51.5046 78.055 51.4406ZM66.503 69.1366V71.1526H64.359V70.8326C64.359 70.8326 64.4123 70.8326 64.519 70.8326C64.647 70.8326 64.711 70.8326 64.711 70.8326C65.1803 70.8326 65.575 70.6726 65.895 70.3526C66.2363 70.0113 66.4177 69.6059 66.439 69.1366H66.503ZM70.983 69.1366H71.079C71.079 69.6059 71.2497 70.0113 71.591 70.3526C71.9323 70.6726 72.3483 70.8326 72.839 70.8326C72.839 70.8326 72.8923 70.8326 72.999 70.8326C73.127 70.8326 73.191 70.8326 73.191 70.8326V71.1526H70.983V69.1366ZM62.759 53.1046V53.2006C61.8203 53.2219 61.095 53.4993 60.583 54.0326C60.0923 54.5659 59.847 55.2913 59.847 56.2086V56.4966H59.495V53.1046H62.759ZM59.495 51.4406C59.687 51.4833 59.9643 51.5473 60.327 51.6326C60.711 51.7179 61.127 51.7926 61.575 51.8566C62.0443 51.8993 62.471 51.9206 62.855 51.9206L59.495 52.2406V51.4406ZM92.066 51.5366C93.7727 51.5366 95.3193 51.7713 96.706 52.2406C98.0927 52.6886 99.2873 53.3499 100.29 54.2246C101.293 55.0993 102.061 56.1553 102.594 57.3926C103.149 58.6299 103.426 60.0273 103.426 61.5846C103.426 63.1206 103.149 64.5073 102.594 65.7446C102.061 66.9606 101.293 68.0059 100.29 68.8806C99.2873 69.7553 98.0927 70.4273 96.706 70.8966C95.3193 71.3446 93.7727 71.5686 92.066 71.5686C90.3807 71.5686 88.8447 71.3446 87.458 70.8966C86.0713 70.4273 84.8767 69.7553 83.874 68.8806C82.8713 68.0059 82.1033 66.9606 81.57 65.7446C81.0367 64.5073 80.77 63.1206 80.77 61.5846C80.77 60.0273 81.0367 58.6299 81.57 57.3926C82.1033 56.1553 82.8713 55.0993 83.874 54.2246C84.8767 53.3499 86.0713 52.6886 87.458 52.2406C88.8447 51.7713 90.3807 51.5366 92.066 51.5366ZM92.066 70.3206C93.3673 70.3206 94.498 69.9686 95.458 69.2646C96.4393 68.5393 97.186 67.5259 97.698 66.2246C98.2313 64.9233 98.498 63.3766 98.498 61.5846C98.498 59.7713 98.2313 58.2139 97.698 56.9126C97.186 55.5899 96.4393 54.5766 95.458 53.8726C94.498 53.1473 93.3673 52.7846 92.066 52.7846C90.786 52.7846 89.666 53.1473 88.706 53.8726C87.746 54.5766 86.9993 55.5899 86.466 56.9126C85.9327 58.2139 85.666 59.7713 85.666 61.5846C85.666 63.3766 85.9327 64.9233 86.466 66.2246C86.9993 67.5259 87.746 68.5393 88.706 69.2646C89.666 69.9686 90.786 70.3206 92.066 70.3206ZM113.462 51.9526H116.918C117.793 51.9526 118.646 52.0486 119.478 52.2406C120.31 52.4113 121.057 52.6993 121.718 53.1046C122.379 53.4886 122.902 54.0219 123.286 54.7046C123.691 55.3659 123.894 56.1979 123.894 57.2006C123.894 57.9473 123.734 58.6939 123.414 59.4406C123.115 60.1659 122.635 60.7953 121.974 61.3286C121.334 61.8619 120.491 62.2139 119.446 62.3846C120.065 62.5766 120.651 62.9499 121.206 63.5046C121.782 64.0593 122.23 64.5819 122.55 65.0726C122.635 65.2433 122.785 65.5206 122.998 65.9046C123.211 66.2673 123.478 66.6939 123.798 67.1846C124.139 67.6539 124.491 68.1446 124.854 68.6566C125.281 69.2326 125.654 69.6806 125.974 70.0006C126.294 70.2993 126.625 70.5126 126.966 70.6406C127.307 70.7686 127.702 70.8326 128.15 70.8326V71.1526H125.462C124.31 71.1526 123.329 71.0673 122.518 70.8966C121.729 70.7259 121.035 70.4166 120.438 69.9686C119.862 69.4993 119.329 68.8699 118.838 68.0806C118.646 67.8033 118.443 67.4726 118.23 67.0886C118.017 66.6833 117.803 66.2779 117.59 65.8726C117.377 65.4673 117.185 65.0726 117.014 64.6886C116.865 64.3046 116.758 63.9846 116.694 63.7286C116.417 63.0459 116.097 62.5553 115.734 62.2566C115.393 61.9366 115.073 61.7766 114.774 61.7766V61.4886C114.774 61.4886 114.849 61.4886 114.998 61.4886C115.147 61.4886 115.339 61.4886 115.574 61.4886C116.022 61.4886 116.459 61.4139 116.886 61.2646C117.334 61.0939 117.739 60.7846 118.102 60.3366C118.465 59.8673 118.731 59.1846 118.902 58.2886C118.945 58.1606 118.977 57.9793 118.998 57.7446C119.041 57.5099 119.051 57.2433 119.03 56.9446C118.987 56.1553 118.838 55.5259 118.582 55.0566C118.347 54.5659 118.049 54.2033 117.686 53.9686C117.323 53.7126 116.95 53.5419 116.566 53.4566C116.203 53.3499 115.883 53.2966 115.606 53.2966C115.201 53.2753 114.827 53.2753 114.486 53.2966C114.166 53.2966 113.921 53.2859 113.75 53.2646C113.729 53.2646 113.697 53.1579 113.654 52.9446C113.611 52.7099 113.569 52.4859 113.526 52.2726C113.483 52.0593 113.462 51.9526 113.462 51.9526ZM113.782 51.9526V71.1526H109.142V51.9526H113.782ZM109.238 69.1366L109.366 71.1526H107.062V70.8326C107.083 70.8326 107.137 70.8326 107.222 70.8326C107.329 70.8326 107.403 70.8326 107.446 70.8326C107.915 70.8326 108.31 70.6726 108.63 70.3526C108.971 70.0113 109.153 69.6059 109.174 69.1366H109.238ZM109.238 53.9366H109.174C109.153 53.4459 108.971 53.0513 108.63 52.7526C108.31 52.4326 107.926 52.2726 107.478 52.2726C107.414 52.2726 107.329 52.2726 107.222 52.2726C107.137 52.2726 107.083 52.2726 107.062 52.2726V51.9526H109.366L109.238 53.9366ZM113.718 69.1366H113.782C113.782 69.6699 113.963 70.0859 114.326 70.3846C114.71 70.6833 115.115 70.8326 115.542 70.8326C115.542 70.8326 115.585 70.8326 115.67 70.8326C115.755 70.8326 115.819 70.8326 115.862 70.8326V71.1526H113.558L113.718 69.1366ZM136.348 51.9526V71.1526H131.74V51.9526H136.348ZM131.836 69.1366V71.1526H129.5V70.8326C129.5 70.8326 129.564 70.8326 129.692 70.8326C129.82 70.8326 129.895 70.8326 129.916 70.8326C130.407 70.8326 130.834 70.6726 131.196 70.3526C131.559 70.0113 131.74 69.6059 131.74 69.1366H131.836ZM136.284 69.1366H136.348C136.37 69.6059 136.551 70.0113 136.892 70.3526C137.255 70.6726 137.692 70.8326 138.204 70.8326C138.204 70.8326 138.258 70.8326 138.364 70.8326C138.492 70.8326 138.567 70.8326 138.588 70.8326V71.1526H136.284V69.1366ZM136.284 53.9686V51.9526H138.588L138.556 52.2726C138.556 52.2726 138.503 52.2726 138.396 52.2726C138.29 52.2726 138.226 52.2726 138.204 52.2726C137.692 52.2726 137.255 52.4326 136.892 52.7526C136.551 53.0726 136.37 53.4779 136.348 53.9686H136.284ZM131.836 53.9686H131.74C131.74 53.4779 131.559 53.0726 131.196 52.7526C130.834 52.4326 130.396 52.2726 129.884 52.2726C129.884 52.2726 129.82 52.2726 129.692 52.2726C129.564 52.2726 129.5 52.2726 129.5 52.2726V51.9526H131.836V53.9686ZM151.47 51.0886L160.942 70.9926H155.534L149.582 56.9446L151.47 51.0886ZM145.454 69.0406C145.22 69.6166 145.252 70.0646 145.55 70.3846C145.849 70.6833 146.18 70.8326 146.542 70.8326H146.798V71.1526H140.398V70.8326C140.398 70.8326 140.441 70.8326 140.526 70.8326C140.612 70.8326 140.654 70.8326 140.654 70.8326C141.081 70.8326 141.529 70.7046 141.998 70.4486C142.468 70.1713 142.852 69.7019 143.15 69.0406H145.454ZM151.47 51.0886L151.534 54.9286L144.59 71.0566H142.222L149.71 54.9606C149.753 54.8326 149.849 54.6086 149.998 54.2886C150.148 53.9473 150.308 53.5739 150.478 53.1686C150.649 52.7419 150.809 52.3473 150.958 51.9846C151.108 51.6006 151.193 51.3019 151.214 51.0886H151.47ZM154.254 64.8806V66.1286H146.094V64.8806H154.254ZM154.734 69.0406H160.014C160.334 69.7019 160.729 70.1713 161.198 70.4486C161.668 70.7046 162.116 70.8326 162.542 70.8326C162.542 70.8326 162.585 70.8326 162.67 70.8326C162.756 70.8326 162.798 70.8326 162.798 70.8326V71.1526H153.39V70.8326H153.646C154.009 70.8326 154.34 70.6833 154.638 70.3846C154.937 70.0646 154.969 69.6166 154.734 69.0406ZM166.368 51.5046L185.152 68.0166L185.472 71.5686L166.72 55.0566L166.368 51.5046ZM166.496 69.2006V71.1526H164.128V70.8326C164.128 70.8326 164.214 70.8326 164.384 70.8326C164.555 70.8326 164.64 70.8326 164.64 70.8326C165.131 70.8326 165.547 70.6833 165.888 70.3846C166.23 70.0646 166.4 69.6699 166.4 69.2006H166.496ZM170.784 69.2006C170.806 69.6699 170.987 70.0646 171.328 70.3846C171.67 70.6833 172.075 70.8326 172.544 70.8326C172.544 70.8326 172.63 70.8326 172.8 70.8326C172.992 70.8326 173.088 70.8326 173.088 70.8326V71.1526H170.72V69.2006H170.784ZM166.368 51.5046L170.784 56.3046V71.1526H166.4V55.1526C166.4 54.0646 166.347 53.1899 166.24 52.5286C166.134 51.8459 166.08 51.5046 166.08 51.5046H166.368ZM185.44 51.9526V67.8246C185.44 68.5713 185.462 69.2326 185.504 69.8086C185.568 70.3633 185.622 70.8006 185.664 71.1206C185.728 71.4193 185.76 71.5686 185.76 71.5686H185.472L181.056 66.4806V51.9526H185.44ZM185.344 53.9046V51.9526H187.744V52.2726C187.744 52.2726 187.648 52.2726 187.456 52.2726C187.286 52.2726 187.2 52.2726 187.2 52.2726C186.731 52.2726 186.315 52.4326 185.952 52.7526C185.611 53.0513 185.44 53.4353 185.44 53.9046H185.344ZM181.056 53.9046C181.035 53.4353 180.854 53.0513 180.512 52.7526C180.192 52.4326 179.787 52.2726 179.296 52.2726C179.296 52.2726 179.2 52.2726 179.008 52.2726C178.838 52.2726 178.752 52.2726 178.752 52.2726V51.9526H181.12V53.9046H181.056Z" fill="#ECECEC"/>
</svg>
