<svg width="246" height="106" viewBox="0 0 246 106" fill="none" xmlns="http://www.w3.org/2000/svg">
<g clip-path="url(#clip0_423_4864)">
<path d="M4.45738 9.27212C4.77 8.9081 5.18171 8.41535 5.51142 8.06317C6.49884 7.09245 6.62696 6.96519 7.52554 6.24751C7.79204 6.0581 8.10809 5.83022 8.41729 5.61566C6.13667 7.28778 5.84625 9.13894 7.93896 10.2828C7.93554 10.2828 7.93554 10.2828 7.93554 10.2858C10.8619 11.8129 17.275 11.4829 22.3351 9.52664C27.2363 7.63256 29.0454 4.92313 26.6264 3.31316C24.503 2.96838 21.9712 2.92843 19.2925 3.23918L19.0141 2.84112L19.2447 2.18115C20.8198 2.05833 22.3163 2.08793 23.6078 2.27882C23.9204 2.32469 24.3321 2.40312 24.6396 2.45935C25.2341 2.58513 25.557 2.66059 25.9448 2.76862C26.3411 2.87072 26.6794 2.97282 27.2688 3.16223C27.8462 3.35904 28.0956 3.44782 28.5585 3.64759C29.077 3.85248 29.5807 4.08423 30.067 4.34159C33.921 6.44136 31.5242 10.2724 24.7233 12.8975C17.9413 15.5137 9.29879 15.9251 5.426 13.8505C5.42429 13.8475 5.41917 13.8446 5.40892 13.8416H5.41575C3.30083 12.6815 3.07875 10.9975 4.45738 9.27212ZM22.1028 23.9513L22.0481 21.5925L20.1125 19.728C13.7183 20.9829 7.43329 20.7136 3.93804 18.9305C3.92608 18.9186 3.89704 18.9068 3.88508 18.8949C1.90683 17.8399 1.41825 16.4785 1.56688 14.9988C1.10392 17.1636 1.06633 17.9449 1.13296 19.7976C1.21496 20.9577 1.98883 22.0276 3.54513 22.871L3.55708 22.8829C7.28296 24.8894 15.0456 25.3245 22.1028 23.9513ZM30.1746 26.6518C21.1495 29.7874 9.854 29.9724 4.94767 27.0706C5.47752 28.1922 6.19847 29.2386 7.0865 30.1751C11.5897 32.8386 21.9575 32.6685 30.2378 29.7904C35.0844 28.1079 38.1423 25.869 38.9452 23.7707L39.1707 23.1389C39.7054 21.5378 39.8062 20.2045 39.8916 19.0178C39.7943 21.594 36.2905 24.5239 30.1746 26.6518ZM10.252 32.6907C10.5356 32.9245 11.4274 33.873 15.9459 34.9207C17.1674 35.1545 20.2424 35.9047 25.9226 34.8141L25.9568 34.3657L25.5075 33.7561C20.2373 34.8363 14.3828 34.4752 10.252 32.6907ZM23.2935 14.0325L28.0922 17.1829C28.0922 17.1829 29.1189 17.8236 28.1503 18.2735C27.185 18.7189 24.7063 19.8094 24.7063 19.8094L22.2582 19.0178L21.0299 19.4913L23.1961 21.1205L23.2132 23.6553L24.4859 23.1655L25.3298 21.0243C25.3298 21.0243 27.9213 20.1601 28.9498 19.8346C29.9833 19.5164 29.8449 20.6055 29.8449 20.6055L29.3358 25.8009L31.0271 25.1499L33.8117 18.1403C33.8117 18.1403 35.2877 17.5188 36.3263 16.9727C37.3633 16.4267 37.7186 15.5211 37.7186 15.5211C37.7186 15.5211 36.7073 15.1438 35.5422 15.4471C34.3771 15.7475 32.8584 16.2832 32.8584 16.2832L24.9796 13.3844L23.2935 14.0325ZM13.1408 4.06488L16.3986 6.31262L17.2887 6.1972L15.5154 4.1803C15.5154 4.1803 15.1293 3.76301 15.6487 3.66386C16.1714 3.56324 17.4937 3.32944 17.4937 3.32944L18.4879 4.01753L19.1576 3.9317L18.3991 2.887L18.7988 1.72835L18.1514 1.80974L17.3843 2.69167C17.3843 2.69167 16.0382 2.80117 15.5086 2.83964C14.9756 2.87516 15.2045 2.37944 15.2045 2.37944L16.2261 0L15.3309 0.113941L12.9734 3.08676C12.9734 3.08676 12.1876 3.21106 11.6187 3.35164C11.0481 3.49073 10.7475 3.87251 10.7475 3.87251C10.7475 3.87251 11.166 4.1655 11.7554 4.15514C12.3499 4.14478 13.1408 4.06488 13.1408 4.06488ZM29.2419 32.9467L27.1338 31.9922L26.6486 32.1387L27.8974 33.1065C27.8974 33.1065 28.1639 33.3033 27.8838 33.4083C27.6036 33.5119 26.8895 33.7664 26.8895 33.7664L26.3001 33.5386L25.9499 33.6481L26.4402 34.1009L26.3924 34.7623L26.758 34.6528L27.0313 34.1157C27.0313 34.1157 27.7727 33.9248 28.0683 33.8567C28.3621 33.7872 28.2955 34.0861 28.2955 34.0861L28.017 35.514L28.5039 35.3675L29.4588 33.4794C29.4588 33.4794 29.8808 33.3358 30.1832 33.2041C30.4855 33.0724 30.6051 32.8298 30.6051 32.8298C30.6051 32.8298 30.3369 32.7025 30.0055 32.7661C29.6724 32.8268 29.2419 32.9467 29.2419 32.9467Z" fill="#CB7342"/>
</g>
<path d="M50.0204 8.68742C50.0204 8.21142 49.9551 7.86142 49.8244 7.63742C49.6938 7.40409 49.4324 7.28742 49.0404 7.28742H48.9004V6.86742H50.5804C50.9164 6.86742 51.1731 6.92342 51.3504 7.03542C51.5278 7.14742 51.6538 7.33409 51.7284 7.59542C51.8031 7.84742 51.8404 8.21142 51.8404 8.68742V10.9974H55.6204V6.86742H57.4404V14.2874C57.4404 14.7634 57.5058 15.1181 57.6364 15.3514C57.7671 15.5754 58.0284 15.6874 58.4204 15.6874H58.5604V16.1074H56.8804C56.5444 16.1074 56.2878 16.0561 56.1104 15.9534C55.9331 15.8414 55.8071 15.6594 55.7324 15.4074C55.6578 15.1461 55.6204 14.7728 55.6204 14.2874V11.6274H51.8404V16.1074H50.0204V8.68742ZM62.3816 16.2474C61.7376 16.2474 61.1729 16.0981 60.6876 15.7994C60.2022 15.5008 59.8242 15.0948 59.5536 14.5814C59.2922 14.0588 59.1616 13.4708 59.1616 12.8174C59.1616 12.0894 59.2922 11.4688 59.5536 10.9554C59.8242 10.4421 60.1929 10.0548 60.6596 9.79342C61.1262 9.52275 61.6536 9.38742 62.2416 9.38742C62.8202 9.38742 63.3429 9.50409 63.8096 9.73742C64.2762 9.97076 64.6449 10.3021 64.9156 10.7314C65.1862 11.1514 65.3216 11.6368 65.3216 12.1874C65.3216 12.3648 65.3122 12.5654 65.2936 12.7894L65.2656 13.0694H61.0516C61.0516 13.9561 61.1869 14.6048 61.4576 15.0154C61.7282 15.4168 62.1062 15.6174 62.5916 15.6174C63.0396 15.6174 63.4129 15.5194 63.7116 15.3234C64.0196 15.1181 64.3136 14.8288 64.5936 14.4554L65.0276 14.7774C64.7569 15.1974 64.4162 15.5474 64.0056 15.8274C63.6042 16.1074 63.0629 16.2474 62.3816 16.2474ZM63.4316 12.4394C63.4316 11.5621 63.3289 10.9414 63.1236 10.5774C62.9182 10.2041 62.6242 10.0174 62.2416 10.0174C61.8869 10.0174 61.5976 10.2088 61.3736 10.5914C61.1589 10.9648 61.0516 11.5808 61.0516 12.4394H63.4316ZM68.7766 16.2474C67.6286 16.2474 66.7653 15.8741 66.1866 15.1274L66.6066 14.7774C67.0546 15.3374 67.6379 15.6174 68.3566 15.6174C68.8046 15.6174 69.1593 15.5148 69.4206 15.3094C69.6913 15.1041 69.8266 14.7868 69.8266 14.3574C69.8266 13.9001 69.7006 13.5641 69.4486 13.3494C69.2059 13.1348 68.7719 13.0274 68.1466 13.0274H67.4466V12.3974H68.1466C68.6973 12.3974 69.0799 12.3088 69.2946 12.1314C69.5093 11.9448 69.6166 11.6368 69.6166 11.2074C69.6166 10.8154 69.4953 10.5214 69.2526 10.3254C69.0099 10.1201 68.7113 10.0174 68.3566 10.0174C67.9366 10.0174 67.5819 10.1621 67.2926 10.4514C67.0033 10.7314 66.8446 11.1001 66.8166 11.5574H66.3966C66.3966 11.0721 66.4153 10.7128 66.4526 10.4794C66.4899 10.2368 66.5879 10.0361 66.7466 9.87742C66.9146 9.70942 67.1713 9.58809 67.5166 9.51342C67.8619 9.42942 68.2586 9.38742 68.7066 9.38742C69.5746 9.38742 70.2559 9.54142 70.7506 9.84942C71.2546 10.1481 71.5066 10.6008 71.5066 11.2074C71.5066 11.6181 71.3526 11.9588 71.0446 12.2294C70.7459 12.5001 70.3399 12.6728 69.8266 12.7474C70.4053 12.8221 70.8626 13.0041 71.1986 13.2934C71.5439 13.5828 71.7166 13.9374 71.7166 14.3574C71.7166 15.0014 71.4599 15.4774 70.9466 15.7854C70.4333 16.0934 69.7099 16.2474 68.7766 16.2474ZM74.9921 16.2474C74.2361 16.2474 73.6481 16.0794 73.2281 15.7434C72.8174 15.3981 72.6121 14.9361 72.6121 14.3574C72.6121 13.8908 72.7194 13.5034 72.9341 13.1954C73.1581 12.8874 73.5454 12.6541 74.0961 12.4954C74.6467 12.3368 75.4121 12.2574 76.3921 12.2574H76.6021C76.6021 11.4454 76.4901 10.8714 76.2661 10.5354C76.0421 10.1901 75.7107 10.0174 75.2721 10.0174C74.9081 10.0174 74.6094 10.1061 74.3761 10.2834C74.1427 10.4608 73.9747 10.7921 73.8721 11.2774H73.1021C73.1021 10.9601 73.1207 10.6894 73.1581 10.4654C73.2047 10.2414 73.3027 10.0454 73.4521 9.87742C73.7414 9.55075 74.4414 9.38742 75.5521 9.38742C76.4854 9.38742 77.1947 9.63475 77.6801 10.1294C78.1747 10.6148 78.4221 11.3474 78.4221 12.3274V16.1074H77.2321L76.7421 15.4774H76.6721C76.5881 15.6081 76.4574 15.7388 76.2801 15.8694C75.9627 16.1214 75.5334 16.2474 74.9921 16.2474ZM75.4121 15.5474C75.6081 15.5474 75.7761 15.5101 75.9161 15.4354C76.0561 15.3514 76.1914 15.2394 76.3221 15.0994C76.4434 14.9688 76.5367 14.8148 76.6021 14.6374V12.8874H76.3921C75.7294 12.8874 75.2487 13.0088 74.9501 13.2514C74.6514 13.4848 74.5021 13.8534 74.5021 14.3574C74.5021 14.7401 74.5814 15.0341 74.7401 15.2394C74.8987 15.4448 75.1227 15.5474 75.4121 15.5474ZM83.0014 16.2474C82.012 16.2474 81.228 15.9441 80.6494 15.3374C80.0707 14.7214 79.7814 13.8581 79.7814 12.7474V12.3274C79.7814 11.1888 79.8794 10.2881 80.0754 9.62542C80.2807 8.95342 80.556 8.46809 80.9014 8.16942C81.256 7.86142 81.704 7.64675 82.2454 7.52542L84.1914 7.07742C84.6207 6.97475 84.938 6.87675 85.1434 6.78342C85.358 6.68075 85.484 6.54542 85.5214 6.37742H85.9414V7.49742C85.9414 7.98275 85.6614 8.28609 85.1014 8.40742L82.8054 8.92542C82.1987 9.07476 81.704 9.38276 81.3214 9.84942C80.9387 10.3068 80.7287 10.9461 80.6914 11.7674H80.7614C80.9947 11.1794 81.312 10.7314 81.7134 10.4234C82.1147 10.1061 82.6374 9.94742 83.2814 9.94742C84.168 9.94742 84.8774 10.2134 85.4094 10.7454C85.9507 11.2681 86.2214 12.0521 86.2214 13.0974C86.2214 14.1521 85.9367 14.9408 85.3674 15.4634C84.8074 15.9861 84.0187 16.2474 83.0014 16.2474ZM83.0014 15.6174C83.356 15.6174 83.664 15.4261 83.9254 15.0434C84.196 14.6608 84.3314 14.0121 84.3314 13.0974C84.3314 12.4908 84.2614 12.0008 84.1214 11.6274C83.9907 11.2448 83.8227 10.9741 83.6174 10.8154C83.4214 10.6568 83.216 10.5774 83.0014 10.5774C82.7867 10.5774 82.5767 10.6568 82.3714 10.8154C82.1754 10.9741 82.0074 11.2448 81.8674 11.6274C81.7367 12.0008 81.6714 12.4908 81.6714 13.0974C81.6714 14.0121 81.802 14.6608 82.0634 15.0434C82.334 15.4261 82.6467 15.6174 83.0014 15.6174ZM87.8863 11.3474C87.8863 10.8714 87.8209 10.5214 87.6903 10.2974C87.5596 10.0641 87.2983 9.94742 86.9063 9.94742H86.7663V9.52742H88.4463C88.7823 9.52742 89.0389 9.58342 89.2163 9.69542C89.3936 9.80742 89.5196 9.99409 89.5943 10.2554C89.6689 10.5074 89.7063 10.8714 89.7063 11.3474V12.1874H90.6163C91.5029 12.1874 92.2029 12.3601 92.7163 12.7054C93.2296 13.0414 93.4863 13.5221 93.4863 14.1474C93.4863 14.7728 93.2296 15.2581 92.7163 15.6034C92.2029 15.9394 91.5029 16.1074 90.6163 16.1074H87.8863V11.3474ZM95.4463 16.1074C95.1103 16.1074 94.8536 16.0561 94.6763 15.9534C94.4989 15.8414 94.3729 15.6594 94.2983 15.4074C94.2236 15.1461 94.1863 14.7728 94.1863 14.2874V9.52742H96.0063V14.2874C96.0063 14.7634 96.0716 15.1181 96.2023 15.3514C96.3329 15.5754 96.5943 15.6874 96.9863 15.6874H97.1263V16.1074H95.4463ZM90.3363 15.5474C90.6909 15.5474 90.9896 15.4401 91.2323 15.2254C91.4749 15.0014 91.5963 14.6421 91.5963 14.1474C91.5963 13.6528 91.4749 13.2981 91.2323 13.0834C90.9896 12.8594 90.6909 12.7474 90.3363 12.7474C90.1123 12.7474 89.9023 12.7801 89.7063 12.8454V15.4494C89.9023 15.5148 90.1123 15.5474 90.3363 15.5474ZM98.1522 11.3474C98.1522 10.8714 98.0869 10.5214 97.9562 10.2974C97.8255 10.0641 97.5642 9.94742 97.1722 9.94742H97.1022V9.52742H100.854C101.722 9.52742 102.408 9.67209 102.912 9.96142C103.426 10.2508 103.682 10.6661 103.682 11.2074C103.682 11.6181 103.528 11.9494 103.22 12.2014C102.912 12.4441 102.474 12.6028 101.904 12.6774C102.53 12.7614 103.029 12.9434 103.402 13.2234C103.776 13.4941 103.962 13.8488 103.962 14.2874C103.962 15.5008 102.926 16.1074 100.854 16.1074H98.1522V11.3474ZM100.462 12.3274C100.836 12.3274 101.148 12.2294 101.4 12.0334C101.662 11.8281 101.792 11.5528 101.792 11.2074C101.792 10.8434 101.671 10.5681 101.428 10.3814C101.195 10.1854 100.92 10.0874 100.602 10.0874C100.378 10.0874 100.168 10.1201 99.9722 10.1854V12.3274H100.462ZM100.602 15.5474C101.041 15.5474 101.396 15.4401 101.666 15.2254C101.937 15.0014 102.072 14.6888 102.072 14.2874C102.072 13.8488 101.928 13.5174 101.638 13.2934C101.358 13.0694 100.966 12.9574 100.462 12.9574H99.9722V15.4494C100.168 15.5148 100.378 15.5474 100.602 15.5474ZM107.244 16.2474C106.488 16.2474 105.9 16.0794 105.48 15.7434C105.069 15.3981 104.864 14.9361 104.864 14.3574C104.864 13.8908 104.971 13.5034 105.186 13.1954C105.41 12.8874 105.797 12.6541 106.348 12.4954C106.899 12.3368 107.664 12.2574 108.644 12.2574H108.854C108.854 11.4454 108.742 10.8714 108.518 10.5354C108.294 10.1901 107.963 10.0174 107.524 10.0174C107.16 10.0174 106.861 10.1061 106.628 10.2834C106.395 10.4608 106.227 10.7921 106.124 11.2774H105.354C105.354 10.9601 105.373 10.6894 105.41 10.4654C105.457 10.2414 105.555 10.0454 105.704 9.87742C105.993 9.55075 106.693 9.38742 107.804 9.38742C108.737 9.38742 109.447 9.63475 109.932 10.1294C110.427 10.6148 110.674 11.3474 110.674 12.3274V16.1074H109.484L108.994 15.4774H108.924C108.84 15.6081 108.709 15.7388 108.532 15.8694C108.215 16.1214 107.785 16.2474 107.244 16.2474ZM107.664 15.5474C107.86 15.5474 108.028 15.5101 108.168 15.4354C108.308 15.3514 108.443 15.2394 108.574 15.0994C108.695 14.9688 108.789 14.8148 108.854 14.6374V12.8874H108.644C107.981 12.8874 107.501 13.0088 107.202 13.2514C106.903 13.4848 106.754 13.8534 106.754 14.3574C106.754 14.7401 106.833 15.0341 106.992 15.2394C107.151 15.4448 107.375 15.5474 107.664 15.5474ZM115.141 16.2474C114.497 16.2474 113.933 16.0981 113.447 15.7994C112.962 15.5008 112.584 15.0948 112.313 14.5814C112.052 14.0588 111.921 13.4708 111.921 12.8174C111.921 12.0894 112.052 11.4688 112.313 10.9554C112.584 10.4421 112.953 10.0548 113.419 9.79342C113.886 9.52275 114.413 9.38742 115.001 9.38742C115.58 9.38742 116.103 9.50409 116.569 9.73742C117.036 9.97076 117.405 10.3021 117.675 10.7314C117.946 11.1514 118.081 11.6368 118.081 12.1874C118.081 12.3648 118.072 12.5654 118.053 12.7894L118.025 13.0694H113.811C113.811 13.9561 113.947 14.6048 114.217 15.0154C114.488 15.4168 114.866 15.6174 115.351 15.6174C115.799 15.6174 116.173 15.5194 116.471 15.3234C116.779 15.1181 117.073 14.8288 117.353 14.4554L117.787 14.7774C117.517 15.1974 117.176 15.5474 116.765 15.8274C116.364 16.1074 115.823 16.2474 115.141 16.2474ZM116.191 12.4394C116.191 11.5621 116.089 10.9414 115.883 10.5774C115.678 10.2041 115.384 10.0174 115.001 10.0174C114.647 10.0174 114.357 10.2088 114.133 10.5914C113.919 10.9648 113.811 11.5808 113.811 12.4394H116.191ZM127.822 16.4574C126.824 16.4574 126.1 16.2381 125.652 15.7994C125.204 15.3514 124.98 14.6608 124.98 13.7274V11.2914L122.964 16.1074H122.502L120.066 11.1514V16.0934H119.366V9.52742H121.074L123.146 13.7414L124.966 9.38742H126.8V13.7274C126.8 14.5208 126.875 15.0994 127.024 15.4634C127.174 15.8274 127.44 16.0421 127.822 16.1074V16.4574ZM128.957 11.3474C128.957 10.8714 128.891 10.5214 128.761 10.2974C128.63 10.0641 128.369 9.94742 127.977 9.94742H127.837V9.52742H129.517C129.853 9.52742 130.109 9.58342 130.287 9.69542C130.464 9.80742 130.59 9.99409 130.665 10.2554C130.739 10.5074 130.777 10.8714 130.777 11.3474V12.1874H131.687C132.573 12.1874 133.273 12.3601 133.787 12.7054C134.3 13.0414 134.557 13.5221 134.557 14.1474C134.557 14.7728 134.3 15.2581 133.787 15.6034C133.273 15.9394 132.573 16.1074 131.687 16.1074H128.957V11.3474ZM136.517 16.1074C136.181 16.1074 135.924 16.0561 135.747 15.9534C135.569 15.8414 135.443 15.6594 135.369 15.4074C135.294 15.1461 135.257 14.7728 135.257 14.2874V9.52742H137.077V14.2874C137.077 14.7634 137.142 15.1181 137.273 15.3514C137.403 15.5754 137.665 15.6874 138.057 15.6874H138.197V16.1074H136.517ZM131.407 15.5474C131.761 15.5474 132.06 15.4401 132.303 15.2254C132.545 15.0014 132.667 14.6421 132.667 14.1474C132.667 13.6528 132.545 13.2981 132.303 13.0834C132.06 12.8594 131.761 12.7474 131.407 12.7474C131.183 12.7474 130.973 12.7801 130.777 12.8454V15.4494C130.973 15.5148 131.183 15.5474 131.407 15.5474ZM141.925 16.2474C141.281 16.2474 140.716 16.0981 140.231 15.7994C139.745 15.5008 139.367 15.0948 139.097 14.5814C138.835 14.0588 138.705 13.4708 138.705 12.8174C138.705 12.0894 138.835 11.4688 139.097 10.9554C139.367 10.4421 139.736 10.0548 140.203 9.79342C140.669 9.52275 141.197 9.38742 141.785 9.38742C142.363 9.38742 142.886 9.50409 143.353 9.73742C143.819 9.97076 144.188 10.3021 144.459 10.7314C144.729 11.1514 144.865 11.6368 144.865 12.1874C144.865 12.3648 144.855 12.5654 144.837 12.7894L144.809 13.0694H140.595C140.595 13.9561 140.73 14.6048 141.001 15.0154C141.271 15.4168 141.649 15.6174 142.135 15.6174C142.583 15.6174 142.956 15.5194 143.255 15.3234C143.563 15.1181 143.857 14.8288 144.137 14.4554L144.571 14.7774C144.3 15.1974 143.959 15.5474 143.549 15.8274C143.147 16.1074 142.606 16.2474 141.925 16.2474ZM142.975 12.4394C142.975 11.5621 142.872 10.9414 142.667 10.5774C142.461 10.2041 142.167 10.0174 141.785 10.0174C141.43 10.0174 141.141 10.2088 140.917 10.5914C140.702 10.9648 140.595 11.5808 140.595 12.4394H142.975ZM56.2411 24.6874C56.2411 24.2114 56.1758 23.8614 56.0451 23.6374C55.9145 23.4041 55.6531 23.2874 55.2611 23.2874H55.1211V22.8674H63.5211V32.1074H61.7011V23.4974H58.0611V32.1074H56.2411V24.6874ZM65.8515 34.4174C66.3648 34.4174 66.7801 34.3194 67.0975 34.1234C67.4148 33.9274 67.6715 33.5728 67.8675 33.0594L68.1615 32.3034L65.6415 26.7874C65.3335 26.1154 64.8995 25.7421 64.3395 25.6674V25.3874H65.5715C65.9821 25.3874 66.3461 25.4901 66.6635 25.6954C66.9808 25.8914 67.2235 26.1621 67.3915 26.5074L69.0015 30.0354L70.7095 25.5274H71.4515L68.6235 33.0174C68.3621 33.7454 68.0588 34.2401 67.7135 34.5014C67.3681 34.7721 66.9341 34.9074 66.4115 34.9074H65.8515V34.4174ZM74.1645 26.1574H73.7445C73.3059 26.1574 72.9745 26.2741 72.7505 26.5074C72.5265 26.7408 72.4145 27.1141 72.4145 27.6274H71.9945V26.6474C71.9945 25.9008 72.3445 25.5274 73.0445 25.5274H78.0985V26.1574H75.9845V32.1074H74.1645V26.1574ZM81.7683 32.2474C81.1243 32.2474 80.5596 32.0981 80.0743 31.7994C79.5889 31.5008 79.2109 31.0948 78.9403 30.5814C78.6789 30.0588 78.5483 29.4708 78.5483 28.8174C78.5483 28.0894 78.6789 27.4688 78.9403 26.9554C79.2109 26.4421 79.5796 26.0548 80.0463 25.7934C80.5129 25.5228 81.0403 25.3874 81.6283 25.3874C82.2069 25.3874 82.7296 25.5041 83.1963 25.7374C83.6629 25.9708 84.0316 26.3021 84.3023 26.7314C84.5729 27.1514 84.7083 27.6368 84.7083 28.1874C84.7083 28.3648 84.6989 28.5654 84.6803 28.7894L84.6523 29.0694H80.4383C80.4383 29.9561 80.5736 30.6048 80.8443 31.0154C81.1149 31.4168 81.4929 31.6174 81.9783 31.6174C82.4263 31.6174 82.7996 31.5194 83.0983 31.3234C83.4063 31.1181 83.7003 30.8288 83.9803 30.4554L84.4143 30.7774C84.1436 31.1974 83.8029 31.5474 83.3923 31.8274C82.9909 32.1074 82.4496 32.2474 81.7683 32.2474ZM82.8183 28.4394C82.8183 27.5621 82.7156 26.9414 82.5103 26.5774C82.3049 26.2041 82.0109 26.0174 81.6283 26.0174C81.2736 26.0174 80.9843 26.2088 80.7603 26.5914C80.5456 26.9648 80.4383 27.5808 80.4383 28.4394H82.8183ZM86.2593 27.3474C86.2593 26.8714 86.194 26.5214 86.0633 26.2974C85.9327 26.0641 85.6713 25.9474 85.2793 25.9474H85.1393V25.5274H86.8193C87.1553 25.5274 87.412 25.5834 87.5893 25.6954C87.7667 25.8074 87.8927 25.9941 87.9673 26.2554C88.042 26.5074 88.0793 26.8714 88.0793 27.3474V31.4774H89.6893V25.5274H91.5093V31.4774H93.1193V25.5274H94.9393V32.1074H86.2593V27.3474ZM99.5144 32.2474C98.8704 32.2474 98.3057 32.0981 97.8204 31.7994C97.335 31.5008 96.957 31.0948 96.6864 30.5814C96.425 30.0588 96.2944 29.4708 96.2944 28.8174C96.2944 28.0894 96.425 27.4688 96.6864 26.9554C96.957 26.4421 97.3257 26.0548 97.7924 25.7934C98.259 25.5228 98.7864 25.3874 99.3744 25.3874C99.953 25.3874 100.476 25.5041 100.942 25.7374C101.409 25.9708 101.778 26.3021 102.048 26.7314C102.319 27.1514 102.454 27.6368 102.454 28.1874C102.454 28.3648 102.445 28.5654 102.426 28.7894L102.398 29.0694H98.1844C98.1844 29.9561 98.3197 30.6048 98.5904 31.0154C98.861 31.4168 99.239 31.6174 99.7244 31.6174C100.172 31.6174 100.546 31.5194 100.844 31.3234C101.152 31.1181 101.446 30.8288 101.726 30.4554L102.16 30.7774C101.89 31.1974 101.549 31.5474 101.138 31.8274C100.737 32.1074 100.196 32.2474 99.5144 32.2474ZM100.564 28.4394C100.564 27.5621 100.462 26.9414 100.256 26.5774C100.051 26.2041 99.757 26.0174 99.3744 26.0174C99.0197 26.0174 98.7304 26.2088 98.5064 26.5914C98.2917 26.9648 98.1844 27.5808 98.1844 28.4394H100.564ZM106.763 32.2474C106.045 32.2474 105.433 32.0934 104.929 31.7854C104.425 31.4774 104.043 31.0668 103.781 30.5534C103.529 30.0308 103.403 29.4521 103.403 28.8174C103.403 28.1828 103.529 27.6088 103.781 27.0954C104.043 26.5728 104.425 26.1574 104.929 25.8494C105.433 25.5414 106.045 25.3874 106.763 25.3874C107.883 25.3874 108.607 25.5508 108.933 25.8774C109.092 26.0361 109.19 26.2461 109.227 26.5074C109.265 26.7688 109.283 27.2121 109.283 27.8374H108.863C108.826 27.2494 108.644 26.8014 108.317 26.4934C107.991 26.1761 107.543 26.0174 106.973 26.0174C106.46 26.0174 106.049 26.2554 105.741 26.7314C105.443 27.1981 105.293 27.8934 105.293 28.8174C105.293 30.6841 105.877 31.6174 107.043 31.6174C107.491 31.6174 107.865 31.5194 108.163 31.3234C108.471 31.1181 108.765 30.8288 109.045 30.4554L109.479 30.7774C109.209 31.1974 108.868 31.5474 108.457 31.8274C108.047 32.1074 107.482 32.2474 106.763 32.2474ZM112.323 26.1574H111.903C111.464 26.1574 111.133 26.2741 110.909 26.5074C110.685 26.7408 110.573 27.1141 110.573 27.6274H110.153V26.6474C110.153 25.9008 110.503 25.5274 111.203 25.5274H116.257V26.1574H114.143V32.1074H112.323V26.1574ZM117.416 27.3474C117.416 26.8714 117.351 26.5214 117.22 26.2974C117.089 26.0641 116.828 25.9474 116.436 25.9474H116.366V25.5274H120.118C120.986 25.5274 121.672 25.6721 122.176 25.9614C122.689 26.2508 122.946 26.6661 122.946 27.2074C122.946 27.6181 122.792 27.9494 122.484 28.2014C122.176 28.4441 121.737 28.6028 121.168 28.6774C121.793 28.7614 122.293 28.9434 122.666 29.2234C123.039 29.4941 123.226 29.8488 123.226 30.2874C123.226 31.5008 122.19 32.1074 120.118 32.1074H117.416V27.3474ZM119.726 28.3274C120.099 28.3274 120.412 28.2294 120.664 28.0334C120.925 27.8281 121.056 27.5528 121.056 27.2074C121.056 26.8434 120.935 26.5681 120.692 26.3814C120.459 26.1854 120.183 26.0874 119.866 26.0874C119.642 26.0874 119.432 26.1201 119.236 26.1854V28.3274H119.726ZM119.866 31.5474C120.305 31.5474 120.659 31.4401 120.93 31.2254C121.201 31.0014 121.336 30.6888 121.336 30.2874C121.336 29.8488 121.191 29.5174 120.902 29.2934C120.622 29.0694 120.23 28.9574 119.726 28.9574H119.236V31.4494C119.432 31.5148 119.642 31.5474 119.866 31.5474ZM124.828 27.3474C124.828 26.8714 124.762 26.5214 124.632 26.2974C124.501 26.0641 124.24 25.9474 123.848 25.9474H123.708V25.5274H125.388C125.724 25.5274 125.98 25.5834 126.158 25.6954C126.335 25.8074 126.461 25.9941 126.536 26.2554C126.61 26.5074 126.648 26.8714 126.648 27.3474V30.3574L129.168 25.5274H130.848V32.1074H129.028V27.2774L126.508 32.1074H124.828V27.3474ZM132.812 32.3174C132.486 32.3174 132.182 32.2708 131.902 32.1774V31.8134C132.332 31.7574 132.728 31.4121 133.092 30.7774L133.932 29.3214C133.438 29.2468 133.046 29.0508 132.756 28.7334C132.467 28.4068 132.322 28.0148 132.322 27.5574C132.322 26.8574 132.593 26.3441 133.134 26.0174C133.685 25.6908 134.441 25.5274 135.402 25.5274H139.042V25.9474H138.972C138.58 25.9474 138.319 26.0641 138.188 26.2974C138.058 26.5214 137.992 26.8714 137.992 27.3474V32.1074H136.172V29.3914H135.556L134.716 31.0574C134.502 31.4961 134.25 31.8181 133.96 32.0234C133.68 32.2194 133.298 32.3174 132.812 32.3174ZM135.542 28.8174C135.71 28.8174 135.855 28.8034 135.976 28.7754C136.098 28.7381 136.163 28.7194 136.172 28.7194V26.1854C136.163 26.1854 136.098 26.1714 135.976 26.1434C135.855 26.1061 135.71 26.0874 135.542 26.0874C135.15 26.0874 134.828 26.1948 134.576 26.4094C134.334 26.6148 134.212 26.9508 134.212 27.4174C134.212 27.8841 134.338 28.2341 134.59 28.4674C134.842 28.7008 135.16 28.8174 135.542 28.8174Z" fill="#CB7342"/>
<path d="M15.2855 54.1539H10.7415C8.35217 54.1539 6.5175 54.7512 5.2375 55.9459C4.00017 57.1406 3.3815 59.1032 3.3815 61.8339H1.4615V56.3939C1.4615 52.9806 3.27483 51.2739 6.9015 51.2739H36.9815V54.1539H23.6055V93.5139H15.2855V54.1539ZM47.463 91.8499C49.7243 91.8499 51.687 91.5512 53.351 90.9539C55.015 90.3139 56.231 89.1406 56.999 87.4339L57.447 86.4739L44.327 59.5939C43.3883 57.5032 42.2363 55.8606 40.871 54.6659C39.5483 53.4286 38.055 52.7246 36.391 52.5539V51.2739H42.791C45.1377 51.2739 47.207 51.9139 48.999 53.1939C50.8337 54.4739 52.2417 56.1806 53.223 58.3139L62.055 76.3619L73.383 51.2739H77.543L61.159 87.4339C60.263 89.5672 58.919 91.2312 57.127 92.4259C55.335 93.5779 53.1803 94.1539 50.663 94.1539H47.463V91.8499ZM84.0175 59.5939C84.0175 57.4179 83.7188 55.8179 83.1215 54.7939C82.5242 53.7272 81.3295 53.1939 79.5375 53.1939H78.8975V51.2739H96.4975C100.892 51.2739 104.86 52.1486 108.402 53.8979C111.986 55.6046 113.778 59.0179 113.778 64.1379C113.778 67.4659 112.839 70.0472 110.962 71.8819C109.127 73.7166 107.058 74.9326 104.754 75.5299C102.45 76.1272 100.338 76.4259 98.4175 76.4259H92.3375V93.5139H84.0175V59.5939ZM96.1775 73.8659C98.6948 73.8659 100.764 73.0979 102.386 71.5619C104.007 70.0259 104.818 67.4446 104.818 63.8179C104.818 60.2339 104.007 57.6739 102.386 56.1379C100.807 54.6019 98.8442 53.8339 96.4975 53.8339C95.2602 53.8339 94.3002 53.9192 93.6175 54.0899L92.3375 54.2819V73.8659H96.1775ZM155.515 105.354C155.174 102.282 154.662 99.8926 153.979 98.1859C153.339 96.4792 152.507 95.2632 151.483 94.5379C150.459 93.8552 149.136 93.5139 147.515 93.5139H120.955V59.5939C120.955 57.4179 120.656 55.8179 120.059 54.7939C119.462 53.7272 118.267 53.1939 116.475 53.1939H115.835V51.2739H123.515C125.051 51.2739 126.224 51.5299 127.035 52.0419C127.846 52.5539 128.422 53.4072 128.763 54.6019C129.104 55.7539 129.275 57.4179 129.275 59.5939V90.6339H145.915V51.2739H154.235V90.6339H156.475C157.115 90.6339 157.648 90.8472 158.075 91.2739C158.502 91.7006 158.715 92.2339 158.715 92.8739V105.354H155.515ZM166.143 59.5939C166.143 57.4179 165.844 55.8179 165.247 54.7939C164.649 53.7272 163.455 53.1939 161.663 53.1939H161.023V51.2739H168.703C170.239 51.2739 171.412 51.5299 172.223 52.0419C173.033 52.5539 173.609 53.4072 173.951 54.6019C174.292 55.7539 174.463 57.4179 174.463 59.5939V85.1939L193.023 51.2739H200.703V93.5139H192.382V59.5939L173.823 93.5139H166.143V59.5939ZM210.366 94.5379C209.598 94.5379 208.766 94.4739 207.87 94.3459C206.974 94.2179 206.355 94.0686 206.014 93.8979V92.2979C207.166 92.0846 208.382 91.4659 209.661 90.4419C210.942 89.4179 212.371 87.6899 213.95 85.2579L220.03 75.5939C217.299 74.9966 214.888 73.6952 212.798 71.6899C210.707 69.6846 209.661 67.1246 209.661 64.0099C209.661 59.3166 211.411 56.0312 214.91 54.1539C218.451 52.2339 222.462 51.2739 226.942 51.2739H244.606V53.1939H243.966C242.174 53.1939 240.979 53.7272 240.382 54.7939C239.784 55.8179 239.486 57.4179 239.486 59.5939V93.5139H231.102V76.1059H228.286L222.526 85.2579C220.392 88.6286 218.366 91.0179 216.446 92.4259C214.526 93.8339 212.499 94.5379 210.366 94.5379ZM231.102 73.5459V54.2819L229.822 54.0899C229.139 53.9192 228.179 53.8339 226.942 53.8339C225.619 53.8339 224.318 54.2179 223.038 54.9859C221.758 55.7112 220.691 56.8206 219.838 58.3139C219.027 59.8072 218.622 61.5992 218.622 63.6899C218.622 65.8659 219.027 67.7006 219.838 69.1939C220.691 70.6446 221.779 71.7326 223.102 72.4579C224.424 73.1832 225.811 73.5459 227.262 73.5459H231.102Z" fill="#CB7342"/>
<defs>
<clipPath id="clip0_423_4864">
<rect width="41" height="35.514" fill="white"/>
</clipPath>
</defs>
</svg>
