<svg width="399" height="39" viewBox="0 0 399 39" fill="none" xmlns="http://www.w3.org/2000/svg">
<path d="M0 26.921H8.19024V32.4567H0V26.921ZM22.8592 0.695435H31.1001V32.4567H22.8592V19.8241H0V0.695435H8.19024V13.1498H22.8592V0.695435Z" fill="#FCF7FF"/>
<path d="M74.3277 16.5809C74.3277 26.6179 65.5602 33.1108 55.2451 33.1108C44.8866 33.1108 36.1191 26.6179 36.1191 16.5809V16.5435H44.6243C44.6243 23.1629 50.1243 26.1261 55.2451 26.1261C60.3373 26.1261 65.8226 23.1629 65.8226 16.5307C65.8226 9.91048 60.3373 6.90988 55.2451 6.90988C52.7215 6.90988 50.1096 7.64113 48.097 9.17923H37.9568C41.0502 3.44221 47.7168 0 55.2451 0C65.5602 0 74.3277 6.49373 74.3277 16.5809Z" fill="#FCF7FF"/>
<path d="M87.4403 25.6957H103.299V32.4544H87.4403V25.6957Z" fill="#FCF7FF"/>
<path d="M79.2557 0.695312H87.4404V25.6987H79.2557V0.695312Z" fill="#FCF7FF"/>
<path d="M138.873 16.6075C138.873 26.417 131.461 32.4571 120.359 32.4571H107.098V14.4766L107.156 14.4265H115.282V25.7868H120.052C125.699 25.7868 130.309 22.9628 130.309 16.6075C130.309 10.2403 125.699 7.37818 120.052 7.37818H107.098V0.695068H120.417C131.461 0.695068 138.873 6.79811 138.873 16.6075Z" fill="#FCF7FF"/>
<path d="M225.666 7.8123L222.631 12.503L222.366 12.9112L222.105 12.5077L214.485 0.726562H205.363L218.269 19.2274V32.4878H226.469V19.2235L234.42 7.8123H225.666Z" fill="#9C4B97"/>
<path d="M203.171 0.695801V32.4579H195.133V11.4131L185.548 32.4579H178.91L169.325 11.6781V32.4579H161.549V7.65581H169.31V0.695801H172.228L182.338 22.1559L191.923 0.695801H203.171Z" fill="#9C4B97"/>
<path d="M333.593 16.5812C333.593 26.6182 324.826 33.1112 314.511 33.1112C304.152 33.1112 295.385 26.6182 295.385 16.5812V16.5438H303.89C303.89 23.1633 309.39 26.1265 314.511 26.1265C319.603 26.1265 325.088 23.1633 325.088 16.5311C325.088 9.91085 319.603 6.91025 314.511 6.91025C311.987 6.91025 309.375 7.6415 307.363 9.17959H297.222C300.316 3.44258 306.983 0.000366211 314.511 0.000366211C324.826 0.000366211 333.593 6.4941 333.593 16.5812Z" fill="#9C4B97"/>
<path d="M370.558 16.6077C370.558 26.4171 363.147 32.4573 352.044 32.4573H338.783V14.4266H346.968V25.7869H351.738C357.384 25.7869 361.994 22.9629 361.994 16.6077C361.994 10.2404 357.384 7.3783 351.738 7.3783H338.783V0.69519H352.102C363.147 0.69519 370.558 6.79823 370.558 16.6077Z" fill="#9C4B97"/>
<path d="M399.001 25.8011H375.673V32.4604H399.001V25.8011Z" fill="#9C4B97"/>
<path d="M383.858 7.37738V13.4168H397.542V19.6455H375.673V0.695068H398.943V7.37738H383.858Z" fill="#9C4B97"/>
<path d="M294.099 27.2785L288.148 22.1341C287.174 23.5411 285.532 24.9451 282.948 25.6245L282.948 32.882C288.263 32.1714 291.853 29.8713 294.099 27.2785Z" fill="#9C4B97"/>
<path d="M268.949 16.6512C268.949 9.97527 274.494 6.93011 279.418 6.93011C283.529 6.93011 285.966 8.42683 287.347 10.0819L293.188 5.03475C290.469 2.26332 286.069 0.0313721 279.417 0.0313721C269.155 0.0313721 260.446 6.75029 260.446 16.6512C260.446 25.0045 266.507 30.9802 274.751 32.6488V25.1215C271.407 23.7202 268.949 20.7944 268.949 16.6512Z" fill="#9C4B97"/>
</svg>
