<svg width="28" height="29" viewBox="0 0 28 29" fill="none" xmlns="http://www.w3.org/2000/svg">
<g clip-path="url(#clip0_1_1673)">
<path d="M23.3516 0.859375H4.64844C2.08118 0.859375 0 2.9905 0 5.61937V24.0546C0 26.6835 2.08118 28.8146 4.64844 28.8146H23.3516C25.9188 28.8146 28 26.6835 28 24.0546V5.61937C28 2.9905 25.9188 0.859375 23.3516 0.859375Z" fill="#001E36"/>
<path d="M6.30481 20.4633V8.17265C6.30481 8.08305 6.34243 8.03803 6.41758 8.03803L6.53647 8.03769L6.73968 8.03545L7.02209 8.02974L7.96818 8.00924L8.98264 7.98998C9.33942 7.98371 9.69314 7.98035 10.0438 7.98035C10.9954 7.98035 11.7967 8.1022 12.4481 8.3458C13.0356 8.5493 13.5714 8.8844 14.0165 9.3267C14.3938 9.71011 14.6854 10.1728 14.8712 10.6828C15.0469 11.1791 15.1359 11.7032 15.1342 12.2311C15.1342 13.2571 14.9025 14.1034 14.4391 14.77C13.986 15.4204 13.3539 15.9177 12.6235 16.1987L12.5608 16.2222C11.7982 16.5135 10.9536 16.6188 10.0273 16.6254L9.88334 16.6259L9.66973 16.6247L9.562 16.6232L9.4419 16.6202L9.3695 16.6173L9.32553 16.615L9.21736 16.611L9.08512 16.6082L8.88606 16.6067L8.84176 16.6066V20.444C8.84506 20.4676 8.84295 20.4915 8.83562 20.5141C8.82828 20.5366 8.81592 20.5571 8.79951 20.5739C8.7831 20.5907 8.7631 20.6034 8.74108 20.6109C8.71906 20.6184 8.69564 20.6206 8.67267 20.6172H6.43639C6.34856 20.6172 6.30481 20.5661 6.30481 20.4633ZM8.84187 10.3461V14.3548C8.99178 14.3672 9.1421 14.3736 9.2925 14.3741H9.91243C10.3398 14.3726 10.7648 14.3075 11.1739 14.1807L11.2555 14.1546C11.6276 14.0414 11.9602 13.821 12.2135 13.5198C12.4488 13.2355 12.5708 12.8438 12.5792 12.3446L12.5798 12.2888C12.5896 11.9167 12.4951 11.5496 12.3073 11.2309C12.1099 10.9228 11.8247 10.6843 11.4903 10.5481C11.0536 10.3743 10.5873 10.2925 10.119 10.3077L9.88083 10.3084L9.73054 10.3097L9.58715 10.3116L9.38481 10.3157L9.23715 10.3199L9.16048 10.3228L9.058 10.3278L8.97072 10.3332L8.92095 10.3373L8.87797 10.3415L8.85904 10.3438L8.84187 10.3461ZM22.3967 13.6259C22.0691 13.4535 21.7215 13.324 21.3622 13.2404L21.2791 13.2221C20.8839 13.1292 20.4804 13.078 20.075 13.0694L19.9737 13.0682C19.7361 13.0616 19.4987 13.0907 19.2694 13.1547C19.1233 13.188 18.9935 13.2732 18.903 13.3951C18.8417 13.4927 18.8092 13.6062 18.8091 13.7221C18.8125 13.8346 18.8521 13.9428 18.9218 14.0298C19.0214 14.1492 19.1413 14.2492 19.2756 14.3251L19.3163 14.3472C19.5841 14.4949 19.86 14.6265 20.1427 14.7415C20.7731 14.9575 21.3755 15.2514 21.9365 15.6166C22.3187 15.8636 22.635 16.2041 22.857 16.6073C23.0436 16.989 23.137 17.4113 23.1293 17.8381C23.1406 18.4018 22.9832 18.9555 22.6785 19.4251C22.3522 19.9016 21.899 20.2721 21.373 20.4924C20.822 20.7404 20.1455 20.8684 19.3433 20.8768L19.26 20.8773C18.7627 20.8824 18.2661 20.8378 17.7773 20.7442L17.6727 20.7234C17.2611 20.6461 16.8605 20.5169 16.48 20.3386C16.4417 20.3184 16.4094 20.2882 16.3863 20.251C16.3632 20.2138 16.3502 20.171 16.3485 20.127V18.0306C16.3462 18.0102 16.3494 17.9896 16.3577 17.971C16.366 17.9523 16.3791 17.9363 16.3955 17.9247C16.4117 17.9154 16.4302 17.9113 16.4486 17.913C16.4671 17.9147 16.4846 17.9222 16.4988 17.9343C16.9482 18.2057 17.4361 18.4036 17.945 18.521C18.3937 18.6362 18.8538 18.6975 19.3163 18.7038C19.7544 18.7038 20.0769 18.646 20.2836 18.5306C20.3769 18.4869 20.4559 18.4164 20.5109 18.3276C20.5659 18.2389 20.5946 18.1357 20.5936 18.0306C20.5936 17.8641 20.4996 17.7037 20.3118 17.5497C20.2331 17.4852 20.1201 17.415 19.9731 17.3392L19.9027 17.3038L19.8277 17.2676L19.7883 17.2492L19.7059 17.2118C19.6916 17.2054 19.6772 17.1991 19.6629 17.1928L19.5732 17.1543L19.5265 17.1347L19.4296 17.0949L19.3793 17.0747L19.275 17.0336L19.166 16.9919C18.5762 16.7817 18.017 16.4905 17.5036 16.1263C17.1365 15.8648 16.8342 15.519 16.6208 15.1165C16.4361 14.7375 16.3427 14.3187 16.3485 13.8952C16.3475 13.3863 16.484 12.887 16.7429 12.4526C17.0382 11.9744 17.4622 11.5936 17.9639 11.3564C18.5148 11.0745 19.2034 10.9333 20.03 10.9331C20.5141 10.9291 20.9977 10.9645 21.4763 11.039C21.8229 11.084 22.1617 11.1778 22.4832 11.3178C22.535 11.3331 22.5766 11.3722 22.5959 11.4237C22.6087 11.4706 22.6149 11.5191 22.6147 11.5679V13.5106C22.6174 13.5565 22.5959 13.6005 22.5584 13.6259C22.5333 13.6387 22.5056 13.6454 22.4775 13.6454C22.4495 13.6454 22.4218 13.6387 22.3967 13.6259Z" fill="#31A8FF"/>
</g>
<defs>
<clipPath id="clip0_1_1673">
<rect width="28" height="28" fill="white" transform="translate(0 0.859375)"/>
</clipPath>
</defs>
</svg>
