<svg width="2" height="58" viewBox="0 0 2 58" fill="none" xmlns="http://www.w3.org/2000/svg">
<path fill-rule="evenodd" clip-rule="evenodd" d="M0.5 3.625L0.5 0L1.5 -4.37114e-08L1.5 3.625C1.5 3.90114 1.27614 4.125 1 4.125C0.723858 4.125 0.5 3.90114 0.5 3.625ZM1 10.375C1.27614 10.375 1.5 10.5989 1.5 10.875L1.5 18.125C1.5 18.4011 1.27614 18.625 1 18.625C0.723858 18.625 0.500001 18.4011 0.500001 18.125L0.5 10.875C0.5 10.5989 0.723858 10.375 1 10.375ZM1 24.875C1.27614 24.875 1.5 25.0989 1.5 25.375L1.5 32.625C1.5 32.9011 1.27614 33.125 1 33.125C0.723859 33.125 0.500001 32.9011 0.500001 32.625L0.500001 25.375C0.500001 25.0989 0.723859 24.875 1 24.875ZM1 39.375C1.27614 39.375 1.5 39.5989 1.5 39.875L1.5 47.125C1.5 47.4011 1.27614 47.625 1 47.625C0.72386 47.625 0.500002 47.4011 0.500002 47.125L0.500002 39.875C0.500002 39.5989 0.723859 39.375 1 39.375ZM1 53.875C1.27614 53.875 1.5 54.0989 1.5 54.375L1.5 58L0.500003 58L0.500002 54.375C0.500002 54.0989 0.72386 53.875 1 53.875Z" fill="#616161"/>
</svg>
