<svg width="321" height="84" viewBox="0 0 321 84" fill="none" xmlns="http://www.w3.org/2000/svg">
<rect width="320.125" height="84" fill="#1F2025" fill-opacity="0.8"/>
<path d="M44.8929 57.6911C41.6786 61.2033 40.2321 65.4959 38.9464 72L39.1071 52.9756C39.375 52.6504 39.9107 52.1626 39.9107 51.187C39.9107 50.374 39.2679 49.3984 38.1429 49.3984C37.0179 49.3984 36.375 50.0488 36.375 51.187C36.375 52.1626 36.9107 52.7588 37.1786 52.9756V72C36.375 65.8211 32.0357 59.3171 31.0714 57.6911C30.3 56.3902 27 52.5962 25.4464 50.8618C27.0536 47.7724 27.375 47.1219 28.3393 44.1951C29.1214 41.8214 29.7857 38.2873 29.9464 36.7154V28.9106C25.4464 28.748 24 25.3333 24 23.7073C24 22.2439 24.7957 20.7575 25.4464 19.9675C26.25 18.9919 29.4643 16.878 29.4643 18.3415C29.4643 19.924 29.5714 19.9675 29.7857 19.8049C29.8929 19.3171 30.2357 17.9512 30.75 16.3902C31.3929 14.439 34.4464 12 38.3036 12C40.875 12 42.1208 12.7014 43.125 13.4634C43.7679 13.9512 45.375 15.252 46.0179 17.6911C46.0714 18.5041 46.2429 20.1301 46.5 20.1301C46.7571 20.1301 46.8214 19.5339 46.8214 19.4797C46.8214 18.8293 46.95 17.9837 47.4643 17.8537C48.1071 17.6911 49.0581 18.1654 50.0357 19.1545C50.8393 19.9675 52.125 21.4309 52.125 22.7317C52.125 24.0325 51.7393 25.5935 50.1964 27.2846C48.2679 29.3984 45.5357 28.748 44.0893 28.2602C42.832 27.8361 41.3571 26.1463 41.3571 26.1463C41.3571 26.1463 42 29.0732 44.8929 29.7236C45.7838 29.8524 46.0179 30.374 46.0179 30.6992C46.0714 31.187 46.1464 32.3577 46.0179 33.1382C45.8893 33.9187 45.2143 33.897 44.8929 33.7886C44.3036 33.5176 41.0357 32.813 38.3036 32.813C35.975 32.813 34.6071 33.1382 33.4821 33.626C34.5536 33.5176 37.7893 33.5285 40.2321 33.7886C42.675 34.0488 45.4286 35.1978 46.5 35.7398C46.6071 37.0949 46.95 40.3902 47.4643 42.7317C47.9786 45.0732 49.9286 49.2358 50.8393 51.0244C50.1964 51.7832 48.1071 54.1789 44.8929 57.6911Z" fill="#FCF7FF" stroke="#FCF7FF" stroke-linejoin="round"/>
<path d="M185.063 30.5234C185.063 30.0107 185.107 29.564 185.195 29.1831C185.283 28.8022 185.452 28.4873 185.701 28.2383C185.95 27.9746 186.294 27.7769 186.733 27.645C187.173 27.5132 187.744 27.4473 188.447 27.4473H198.247C199.844 27.4473 201.382 27.6377 202.861 28.0186C204.341 28.3994 205.652 29.0146 206.794 29.8643C207.937 30.7139 208.853 31.8198 209.541 33.1821C210.229 34.5298 210.574 36.1777 210.574 38.126C210.574 40.8506 210.134 43.0625 209.255 44.7617C208.391 46.4609 207.183 47.6621 205.63 48.3652C206.714 48.7168 207.527 49.2734 208.069 50.0352C208.611 50.7822 208.882 51.6831 208.882 52.7378C208.882 54.1001 208.567 55.1914 207.937 56.0117C207.322 56.832 206.516 57.4692 205.52 57.9233C204.524 58.3628 203.403 58.6558 202.158 58.8022C200.928 58.9341 199.697 59 198.467 59H188.447C187.744 59 187.173 58.9341 186.733 58.8022C186.294 58.6704 185.95 58.48 185.701 58.231C185.452 57.9819 185.283 57.667 185.195 57.2861C185.107 56.9053 185.063 56.4585 185.063 55.9458V30.5234ZM207.476 38.4775C207.476 37.4229 207.358 36.4561 207.124 35.5771C206.89 34.6836 206.531 33.8999 206.047 33.2261C205.564 32.5522 204.941 31.9956 204.18 31.5562C203.418 31.1167 202.51 30.8164 201.455 30.6553V47.0029C202.51 46.8564 203.418 46.5342 204.18 46.0361C204.941 45.5234 205.564 44.8862 206.047 44.1245C206.531 43.3628 206.89 42.4985 207.124 41.5317C207.358 40.5649 207.476 39.5469 207.476 38.4775ZM201.455 55.9458C202.979 55.8872 204.077 55.5796 204.751 55.0229C205.425 54.4663 205.762 53.7998 205.762 53.0234C205.762 52.6572 205.681 52.291 205.52 51.9248C205.374 51.5586 205.125 51.2363 204.773 50.958C204.436 50.665 203.989 50.4233 203.433 50.2329C202.891 50.0425 202.231 49.9253 201.455 49.8813V55.9458Z" fill="#2AABEE"/>
<path d="M78.3945 55.7041C78.3945 56.041 78.3506 56.3999 78.2627 56.7808C78.1895 57.1616 78.0283 57.5205 77.7793 57.8574C77.5449 58.1797 77.208 58.4507 76.7686 58.6704C76.3291 58.8901 75.7578 59 75.0547 59H65.3867C64.6982 59 64.1343 58.9341 63.6948 58.8022C63.27 58.6704 62.9331 58.48 62.6841 58.231C62.4351 57.9819 62.2666 57.667 62.1787 57.2861C62.0908 56.9053 62.0469 56.4585 62.0469 55.9458V31.2705C62.0469 30.4355 62.1421 29.769 62.3325 29.271C62.5229 28.7583 62.7939 28.3701 63.1455 28.1064C63.4971 27.8281 63.9146 27.6523 64.3979 27.5791C64.896 27.4912 65.4453 27.4473 66.0459 27.4473H86.4585C87.1616 27.4473 87.5132 27.8135 87.5132 28.5459V30.5674C87.5132 30.8604 87.4253 31.0508 87.2495 31.1387C87.0737 31.2266 86.8613 31.2705 86.6123 31.2705C86.4658 31.2705 86.2388 31.2485 85.9312 31.2046C85.6235 31.1606 85.2646 31.1094 84.8545 31.0508C84.4443 30.9775 83.9976 30.897 83.5142 30.8091C83.0454 30.7065 82.5693 30.6113 82.0859 30.5234C80.958 30.3037 79.7275 30.0474 78.3945 29.7544V35.3354H86.5684C86.876 35.3354 87.0298 35.4893 87.0298 35.7969V37.9941C87.0298 38.3164 86.876 38.4775 86.5684 38.4775H78.3945V55.7041Z" fill="#DF5266"/>
<path d="M104.211 59.8569C103.039 59.8569 101.86 59.7544 100.673 59.5493C99.5015 59.3442 98.3735 58.9927 97.2896 58.4946C96.2056 57.9966 95.1948 57.3374 94.2573 56.5171C93.3198 55.6821 92.4995 54.6494 91.7964 53.4189C91.1079 52.1738 90.5659 50.709 90.1704 49.0244C89.7749 47.3252 89.5771 45.355 89.5771 43.1138C89.5771 40.8872 89.7749 38.9243 90.1704 37.2251C90.5659 35.5259 91.1079 34.061 91.7964 32.8306C92.4995 31.5854 93.3198 30.5527 94.2573 29.7324C95.1948 28.9121 96.2056 28.2603 97.2896 27.7769C98.3735 27.2788 99.5015 26.9272 100.673 26.7222C101.86 26.5171 103.039 26.4146 104.211 26.4146C105.383 26.4146 106.562 26.5171 107.749 26.7222C108.935 26.9272 110.07 27.2788 111.154 27.7769C112.238 28.2603 113.249 28.9121 114.187 29.7324C115.124 30.5527 115.937 31.5854 116.625 32.8306C117.314 34.061 117.856 35.5259 118.251 37.2251C118.647 38.9243 118.845 40.8872 118.845 43.1138C118.845 45.3403 118.647 47.3032 118.251 49.0024C117.856 50.7017 117.314 52.1738 116.625 53.4189C115.937 54.6494 115.124 55.6821 114.187 56.5171C113.249 57.3374 112.238 57.9966 111.154 58.4946C110.07 58.9927 108.935 59.3442 107.749 59.5493C106.562 59.7544 105.383 59.8569 104.211 59.8569ZM106.188 43.1138C106.188 44.9448 106.32 46.4756 106.584 47.7061C106.862 48.9365 107.229 49.9253 107.683 50.6724C108.137 51.4194 108.642 51.9541 109.199 52.2764C109.77 52.584 110.356 52.7378 110.957 52.7378C111.557 52.7378 112.143 52.584 112.714 52.2764C113.286 51.9541 113.791 51.4194 114.23 50.6724C114.685 49.9253 115.043 48.9365 115.307 47.7061C115.585 46.4756 115.725 44.9448 115.725 43.1138C115.725 41.2827 115.585 39.752 115.307 38.5215C115.043 37.291 114.685 36.3022 114.23 35.5552C113.791 34.8081 113.286 34.2808 112.714 33.9731C112.143 33.6509 111.557 33.4897 110.957 33.4897C110.356 33.4897 109.77 33.6509 109.199 33.9731C108.642 34.2808 108.137 34.8081 107.683 35.5552C107.229 36.3022 106.862 37.291 106.584 38.5215C106.32 39.752 106.188 41.2827 106.188 43.1138Z" fill="#FCF7FF"/>
<path d="M136.159 59.8569C134.987 59.8569 133.808 59.7544 132.622 59.5493C131.45 59.3442 130.322 58.9927 129.238 58.4946C128.154 57.9966 127.143 57.3374 126.206 56.5171C125.268 55.6821 124.448 54.6494 123.745 53.4189C123.056 52.1738 122.514 50.709 122.119 49.0244C121.723 47.3252 121.525 45.355 121.525 43.1138C121.525 40.8872 121.723 38.9243 122.119 37.2251C122.514 35.5259 123.056 34.061 123.745 32.8306C124.448 31.5854 125.268 30.5527 126.206 29.7324C127.143 28.9121 128.154 28.2603 129.238 27.7769C130.322 27.2788 131.45 26.9272 132.622 26.7222C133.808 26.5171 134.987 26.4146 136.159 26.4146C137.331 26.4146 138.51 26.5171 139.697 26.7222C140.883 26.9272 142.019 27.2788 143.103 27.7769C144.187 28.2603 145.197 28.9121 146.135 29.7324C147.072 30.5527 147.885 31.5854 148.574 32.8306C149.262 34.061 149.804 35.5259 150.2 37.2251C150.595 38.9243 150.793 40.8872 150.793 43.1138C150.793 45.3403 150.595 47.3032 150.2 49.0024C149.804 50.7017 149.262 52.1738 148.574 53.4189C147.885 54.6494 147.072 55.6821 146.135 56.5171C145.197 57.3374 144.187 57.9966 143.103 58.4946C142.019 58.9927 140.883 59.3442 139.697 59.5493C138.51 59.7544 137.331 59.8569 136.159 59.8569ZM138.137 43.1138C138.137 44.9448 138.269 46.4756 138.532 47.7061C138.811 48.9365 139.177 49.9253 139.631 50.6724C140.085 51.4194 140.59 51.9541 141.147 52.2764C141.718 52.584 142.304 52.7378 142.905 52.7378C143.505 52.7378 144.091 52.584 144.663 52.2764C145.234 51.9541 145.739 51.4194 146.179 50.6724C146.633 49.9253 146.992 48.9365 147.255 47.7061C147.534 46.4756 147.673 44.9448 147.673 43.1138C147.673 41.2827 147.534 39.752 147.255 38.5215C146.992 37.291 146.633 36.3022 146.179 35.5552C145.739 34.8081 145.234 34.2808 144.663 33.9731C144.091 33.6509 143.505 33.4897 142.905 33.4897C142.304 33.4897 141.718 33.6509 141.147 33.9731C140.59 34.2808 140.085 34.8081 139.631 35.5552C139.177 36.3022 138.811 37.291 138.532 38.5215C138.269 39.752 138.137 41.2827 138.137 43.1138Z" fill="#FCF7FF"/>
<path d="M154.155 30.5234C154.155 30.0107 154.199 29.564 154.287 29.1831C154.375 28.8022 154.543 28.4873 154.792 28.2383C155.041 27.9746 155.385 27.7769 155.825 27.645C156.264 27.5132 156.835 27.4473 157.539 27.4473H168.107C169.206 27.4473 170.297 27.5278 171.381 27.689C172.465 27.8354 173.498 28.1064 174.479 28.502C175.461 28.8975 176.369 29.4468 177.204 30.1499C178.054 30.8384 178.786 31.7319 179.401 32.8306C180.017 33.9292 180.5 35.2476 180.852 36.7856C181.203 38.3237 181.379 40.1328 181.379 42.2129C181.379 44.6592 181.188 46.7759 180.808 48.563C180.441 50.3354 179.936 51.8442 179.292 53.0894C178.662 54.3345 177.907 55.3452 177.028 56.1216C176.164 56.8833 175.227 57.4839 174.216 57.9233C173.22 58.3481 172.18 58.6338 171.096 58.7803C170.026 58.9268 168.957 59 167.888 59H157.539C156.835 59 156.264 58.9341 155.825 58.8022C155.385 58.6704 155.041 58.48 154.792 58.231C154.543 57.9819 154.375 57.667 154.287 57.2861C154.199 56.9053 154.155 56.4585 154.155 55.9458V30.5234ZM178.281 42.6743C178.281 40.8579 178.134 39.2026 177.841 37.7085C177.548 36.2144 177.087 34.9399 176.457 33.8853C175.827 32.8306 175.021 32.0103 174.04 31.4243C173.073 30.8384 171.909 30.5381 170.546 30.5234V55.9458C171.909 55.9312 173.081 55.5796 174.062 54.8911C175.043 54.188 175.842 53.2358 176.457 52.0347C177.087 50.8335 177.548 49.4346 177.841 47.8379C178.134 46.2266 178.281 44.5054 178.281 42.6743Z" fill="#FCF7FF"/>
<path d="M214.12 30.5234C214.12 30.0107 214.164 29.564 214.252 29.1831C214.34 28.8022 214.508 28.4873 214.757 28.2383C215.006 27.9746 215.351 27.7769 215.79 27.645C216.229 27.5132 216.801 27.4473 217.504 27.4473H227.304C228.153 27.4473 228.798 27.5718 229.237 27.8208C229.691 28.0698 230.006 28.3848 230.182 28.7656C230.373 29.1318 230.475 29.5273 230.49 29.9521C230.504 30.3623 230.512 30.7432 230.512 31.0947V55.9897C231.522 55.8433 232.46 55.7114 233.324 55.5942C233.69 55.5503 234.057 55.5063 234.423 55.4624C234.804 55.4038 235.148 55.3525 235.456 55.3086C235.778 55.2646 236.063 55.2354 236.312 55.2207C236.562 55.1914 236.745 55.1768 236.862 55.1768C237.111 55.1768 237.309 55.228 237.455 55.3306C237.616 55.4185 237.697 55.6089 237.697 55.9019V57.9233C237.697 58.187 237.58 58.436 237.345 58.6704C237.125 58.8901 236.767 59 236.269 59H217.46C216.771 59 216.208 58.9341 215.768 58.8022C215.343 58.6704 215.006 58.48 214.757 58.231C214.508 57.9819 214.34 57.667 214.252 57.2861C214.164 56.9053 214.12 56.4585 214.12 55.9458V30.5234Z" fill="#FCF7FF"/>
<path d="M254.132 59.8569C252.96 59.8569 251.781 59.7544 250.595 59.5493C249.423 59.3442 248.295 58.9927 247.211 58.4946C246.127 57.9966 245.116 57.3374 244.179 56.5171C243.241 55.6821 242.421 54.6494 241.718 53.4189C241.029 52.1738 240.487 50.709 240.092 49.0244C239.696 47.3252 239.499 45.355 239.499 43.1138C239.499 40.8872 239.696 38.9243 240.092 37.2251C240.487 35.5259 241.029 34.061 241.718 32.8306C242.421 31.5854 243.241 30.5527 244.179 29.7324C245.116 28.9121 246.127 28.2603 247.211 27.7769C248.295 27.2788 249.423 26.9272 250.595 26.7222C251.781 26.5171 252.96 26.4146 254.132 26.4146C255.304 26.4146 256.483 26.5171 257.67 26.7222C258.856 26.9272 259.992 27.2788 261.076 27.7769C262.16 28.2603 263.17 28.9121 264.108 29.7324C265.045 30.5527 265.858 31.5854 266.547 32.8306C267.235 34.061 267.777 35.5259 268.173 37.2251C268.568 38.9243 268.766 40.8872 268.766 43.1138C268.766 45.3403 268.568 47.3032 268.173 49.0024C267.777 50.7017 267.235 52.1738 266.547 53.4189C265.858 54.6494 265.045 55.6821 264.108 56.5171C263.17 57.3374 262.16 57.9966 261.076 58.4946C259.992 58.9927 258.856 59.3442 257.67 59.5493C256.483 59.7544 255.304 59.8569 254.132 59.8569ZM256.11 43.1138C256.11 44.9448 256.242 46.4756 256.505 47.7061C256.784 48.9365 257.15 49.9253 257.604 50.6724C258.058 51.4194 258.563 51.9541 259.12 52.2764C259.691 52.584 260.277 52.7378 260.878 52.7378C261.479 52.7378 262.064 52.584 262.636 52.2764C263.207 51.9541 263.712 51.4194 264.152 50.6724C264.606 49.9253 264.965 48.9365 265.229 47.7061C265.507 46.4756 265.646 44.9448 265.646 43.1138C265.646 41.2827 265.507 39.752 265.229 38.5215C264.965 37.291 264.606 36.3022 264.152 35.5552C263.712 34.8081 263.207 34.2808 262.636 33.9731C262.064 33.6509 261.479 33.4897 260.878 33.4897C260.277 33.4897 259.691 33.6509 259.12 33.9731C258.563 34.2808 258.058 34.8081 257.604 35.5552C257.15 36.3022 256.784 37.291 256.505 38.5215C256.242 39.752 256.11 41.2827 256.11 43.1138Z" fill="#FCF7FF"/>
<path d="M292.826 30.7871C292.504 30.7871 292.16 30.8384 291.793 30.9409C291.442 31.0435 291.09 31.2412 290.739 31.5342C290.387 31.8271 290.043 32.2373 289.706 32.7646C289.384 33.2773 289.098 33.9585 288.849 34.8081C288.615 35.6577 288.424 36.6904 288.278 37.9062C288.131 39.1074 288.058 40.543 288.058 42.2129C288.058 43.8682 288.131 45.311 288.278 46.5415C288.424 47.772 288.615 48.8267 288.849 49.7056C289.098 50.5845 289.384 51.3096 289.706 51.8809C290.043 52.4375 290.387 52.877 290.739 53.1992C291.09 53.5215 291.442 53.7485 291.793 53.8804C292.16 53.9976 292.504 54.0562 292.826 54.0562C293.266 54.0562 293.676 53.9609 294.057 53.7705V45.355C294.057 45.1206 294.108 44.8936 294.21 44.6738C294.313 44.4395 294.555 44.3223 294.936 44.3223H297.243C297.375 44.3223 297.506 44.3296 297.638 44.3442C297.77 44.3589 297.887 44.4028 297.99 44.4761C298.092 44.5347 298.173 44.6372 298.231 44.7837C298.29 44.9155 298.319 45.106 298.319 45.355V57.9673C298.319 58.2163 298.29 58.4141 298.231 58.5605C298.173 58.6924 298.092 58.7949 297.99 58.8682C297.887 58.9268 297.77 58.9634 297.638 58.978C297.506 58.9927 297.375 59 297.243 59H294.936C294.745 59 294.591 58.9707 294.474 58.9121C294.372 58.8535 294.284 58.7729 294.21 58.6704C294.152 58.5679 294.108 58.458 294.079 58.3408C294.064 58.209 294.057 58.0845 294.057 57.9673V57.3301C293.588 57.667 293.068 57.9893 292.497 58.2969C291.925 58.6045 291.295 58.8755 290.607 59.1099C289.933 59.3442 289.201 59.5273 288.41 59.6592C287.619 59.791 286.769 59.8569 285.861 59.8569C284.792 59.8569 283.693 59.7617 282.565 59.5713C281.437 59.3809 280.338 59.0439 279.269 58.5605C278.214 58.0625 277.211 57.3887 276.259 56.5391C275.307 55.6895 274.472 54.6128 273.754 53.3091C273.051 52.0054 272.487 50.4453 272.062 48.6289C271.652 46.7979 271.447 44.6592 271.447 42.2129C271.447 40.1328 271.652 38.3018 272.062 36.7197C272.487 35.123 273.058 33.7388 273.776 32.5669C274.494 31.395 275.329 30.4136 276.281 29.6226C277.248 28.8315 278.273 28.2017 279.357 27.7329C280.441 27.2495 281.554 26.9126 282.697 26.7222C283.854 26.5171 284.982 26.4146 286.081 26.4146C287.282 26.4146 288.424 26.5098 289.508 26.7002C290.592 26.8906 291.581 27.1323 292.475 27.4253C293.383 27.7183 294.188 28.0479 294.892 28.4141C295.595 28.7803 296.173 29.1392 296.627 29.4907C296.671 29.5347 296.723 29.5859 296.781 29.6445C296.84 29.6885 296.869 29.7471 296.869 29.8203C296.869 29.8789 296.847 29.9521 296.803 30.04L295.858 31.5342C295.771 31.666 295.668 31.7319 295.551 31.7319C295.463 31.7319 295.338 31.688 295.177 31.6001C295.031 31.4976 294.84 31.3877 294.606 31.2705C294.372 31.1387 294.108 31.0288 293.815 30.9409C293.522 30.8384 293.192 30.7871 292.826 30.7871Z" fill="#FCF7FF"/>
</svg>
