<svg width="408" height="234" viewBox="0 0 408 234" fill="none" xmlns="http://www.w3.org/2000/svg">
<line y1="-0.5" x2="310.438" y2="-0.5" transform="matrix(0.657135 -0.753773 0.657135 0.753773 0 234)" stroke="#979797"/>
<line y1="-0.5" x2="258.699" y2="-0.5" transform="matrix(0.657135 -0.753773 0.657135 0.753773 0 195)" stroke="#979797"/>
<line y1="-0.5" x2="279.395" y2="-0.5" transform="matrix(0.657135 -0.753773 0.657135 0.753773 27.2002 241.8)" stroke="#979797"/>
<line y1="-0.5" x2="206.959" y2="-0.5" transform="matrix(0.657135 -0.753773 0.657135 0.753773 0 156)" stroke="#979797"/>
<line y1="-0.5" x2="279.395" y2="-0.5" transform="matrix(0.657135 -0.753773 0.657135 0.753773 61.2002 241.8)" stroke="#979797"/>
<line y1="-0.5" x2="155.219" y2="-0.5" transform="matrix(0.657135 -0.753773 0.657135 0.753773 0 117)" stroke="#979797"/>
<line y1="-0.5" x2="175.915" y2="-0.5" transform="matrix(0.657135 -0.753773 0.657135 0.753773 95.2002 241.8)" stroke="#979797"/>
<line y1="-0.5" x2="103.479" y2="-0.5" transform="matrix(0.657135 -0.753773 0.657135 0.753773 0 78)" stroke="#979797"/>
<line y1="-0.5" x2="124.175" y2="-0.5" transform="matrix(0.657135 -0.753773 0.657135 0.753773 129.2 241.8)" stroke="#979797"/>
<line y1="-0.5" x2="72.4356" y2="-0.5" transform="matrix(0.657135 -0.753773 0.657135 0.753773 163.2 241.8)" stroke="#979797"/>
<line y1="-0.5" x2="51.7397" y2="-0.5" transform="matrix(0.657135 -0.753773 0.657135 0.753773 0 39)" stroke="#979797"/>
<line y1="-0.5" x2="20.6959" y2="-0.5" transform="matrix(0.657135 -0.753773 0.657135 0.753773 197.2 241.8)" stroke="#979797"/>
<line y1="-0.5" x2="310.438" y2="-0.5" transform="matrix(0.657135 -0.753773 0.657135 0.753773 204 234)" stroke="#979797"/>
<line y1="-0.5" x2="258.699" y2="-0.5" transform="matrix(0.657135 -0.753773 0.657135 0.753773 204 195)" stroke="#979797"/>
<line y1="-0.5" x2="279.395" y2="-0.5" transform="matrix(0.657135 -0.753773 0.657135 0.753773 231.2 241.8)" stroke="#979797"/>
<line y1="-0.5" x2="206.959" y2="-0.5" transform="matrix(0.657135 -0.753773 0.657135 0.753773 204 156)" stroke="#979797"/>
<line y1="-0.5" x2="279.395" y2="-0.5" transform="matrix(0.657135 -0.753773 0.657135 0.753773 265.2 241.8)" stroke="#979797"/>
<line y1="-0.5" x2="155.219" y2="-0.5" transform="matrix(0.657135 -0.753773 0.657135 0.753773 204 117)" stroke="#979797"/>
<line y1="-0.5" x2="175.915" y2="-0.5" transform="matrix(0.657135 -0.753773 0.657135 0.753773 299.2 241.8)" stroke="#979797"/>
<line y1="-0.5" x2="103.479" y2="-0.5" transform="matrix(0.657135 -0.753773 0.657135 0.753773 204 78)" stroke="#979797"/>
<line y1="-0.5" x2="124.175" y2="-0.5" transform="matrix(0.657135 -0.753773 0.657135 0.753773 333.2 241.8)" stroke="#979797"/>
<line y1="-0.5" x2="72.4356" y2="-0.5" transform="matrix(0.657135 -0.753773 0.657135 0.753773 367.2 241.8)" stroke="#979797"/>
<line y1="-0.5" x2="51.7397" y2="-0.5" transform="matrix(0.657135 -0.753773 0.657135 0.753773 204 39)" stroke="#979797"/>
<line y1="-0.5" x2="20.6959" y2="-0.5" transform="matrix(0.657135 -0.753773 0.657135 0.753773 401.2 241.8)" stroke="#979797"/>
</svg>
