<svg id="_Слой_1" data-name="Слой 1" xmlns="http://www.w3.org/2000/svg" viewBox="0 0 3482.22 3558.33"><defs><style>.cls-1{fill:none;stroke:#1d1d1b;stroke-miterlimit:10}</style></defs><path class="cls-1" d="M1234.12 2722.76c56.35 138.55 167.48 140.4 313.04 209.66s356.87 61.04 567 49.3 286.43-77.48 340.43-111.52l60.79-55.79" style="animation:qpSWeUwS_draw 3000ms ease-in 0ms forwards" stroke-dasharray="1411 1413" stroke-dashoffset="1412"/><path class="cls-1" d="M1173.86 2251.55s91.7-36.34 139.7-42.26c57.13-7.04 70.83-20.35 173.74-8.22 43.31 5.1 69.24 6.03 85.3.38 2.28-.8 4.36-1.72 6.26-2.74 0 0-39.91-10.56-99.78-38.73s-105.65-44.61-131.48-37.57-31.7 31.7-55.17 35.22-50.48-16.43-63.39-12.91-58.7 49.3-55.17 106.83z" style="animation:qpSWeUwS_draw 3000ms ease-in 0ms forwards" stroke-dasharray="918 920" stroke-dashoffset="919"/><path class="cls-1" d="M1578.86 2198.72s-111.91 109.57-157.3 123.27c-34.24 10.33-109.17 30.52-149.09 14.09s-98.61-84.52-98.61-84.52" style="animation:qpSWeUwS_draw 3000ms ease-in 0ms forwards" stroke-dasharray="484 486" stroke-dashoffset="485"/><path class="cls-1" d="M854.71 1508.55c5.52 37.28 45.24 46.28 124.8 20 0 0 11.48-4.77 35.48-5.52s73.31-2.74 123.65 28.99c18.21 11.48 25.99 23.79 27.73 35.4 3.08 20.51-12.66 38.83-23.04 46.52-15.87 11.76-82.96 44.35-126.26 42.78s-66.26-11.48-85.04-33.39 27.65-72 77.22-77.74c39.21-4.54 82.98-5.81 102.92 10.89 5.27 4.41 8.88 10.08 10.29 17.28 6.78 34.43 3.57 50.47-27.4 64.74-31.32 14.44-74.34-19.35-80.6-44.91s14.62-49.93 14.62-49.93" style="animation:qpSWeUwS_draw 3000ms ease-in 0ms forwards" stroke-dasharray="1125 1127" stroke-dashoffset="1126"/><path class="cls-1" d="M1437.59 1956.9s1.57 19.57-5.48 24.26c-7.04 4.7-25.83 26.61-64.17 36.78-38.35 10.17 19.57-51.65-57.91-53.22-77.48-1.57-47.74 32.09-47.74 32.09s7.04 10.87-13.3 22.26c-20.35 11.39-94.92-39.86-113.48-44.96-19.96-5.48-33.65-35.22-27.39-51.65s38.35-75.91 54-120.52c15.65-44.61 26.86-158.8 26.61-175.3-.78-52.17-17.02-80.49-28.96-102.52-10.88-20.09-53.22-74.35-136.96-97.04-83.74-22.7-167.83 25.24-167.83 25.24" style="animation:qpSWeUwS_draw 3000ms ease-in 0ms forwards" stroke-dasharray="1254 1256" stroke-dashoffset="1255"/><path class="cls-1" d="M1209.59 2039.33c-2.61 0-48-2.09-67.83-25.04s-19.38-47.82-19.38-47.82" style="animation:qpSWeUwS_draw 3000ms ease-in 0ms forwards" stroke-dasharray="127 129" stroke-dashoffset="128"/><path class="cls-1" d="M1234.12 1909.42s1.57-19.83 34.96-26.61 68.35 2.09 75.13-14.61-69.39-49.57-69.39-98.09 1.04-116.87 9.91-146.61 8.16-237.39 59.91-276.52c51.75-39.13 208.79-72.52 253.66-83.48s53.22-7.83 72-5.22 125.22 58.96 134.61 67.3c0 0-84-28.7-128.35-23.48s-255.65 66.78-278.61 90.26-12.52 154.96-6.78 165.39 29.22-111.13 128.35-128.87 156.52 7.3 190.43 26.61" style="animation:qpSWeUwS_draw 3000ms ease-in 0ms forwards" stroke-dasharray="2159 2161" stroke-dashoffset="2160"/><path class="cls-1" d="M1640.96 1478.26s9.51 16.38 5.33 40.38-44.35 58.96-78.52 61.57-152.61-5.22-152.61-5.22c28.17-56.87 75.13-96 138.26-108 25.69-4.88 58.11 1.72 87.54 11.28.74.24 1.47.48 2.21.72 41.93 13.89 77.21 33.39 77.21 33.39s-52.3 58.3-151.83 67.76" style="animation:qpSWeUwS_draw 3000ms ease-in 0ms forwards" stroke-dasharray="827 829" stroke-dashoffset="828"/><path class="cls-1" d="M1559.4 1466.07s-23.59 10.51-20.33 40.57c2.17 19.97 14.15 36.07 39.91 46.96 23.9 10.1 51.81-7.94 51.81-7.94" style="animation:qpSWeUwS_draw 3000ms ease-in 0ms forwards" stroke-dasharray="168 170" stroke-dashoffset="169"/><path class="cls-1" d="M1602.53 1523.87l-6.85 8.59s-1.96 3.26 1.96 6.78 8.67-2.54 8.67-2.54 8.54-8.67 3.85-12.98-7.62.15-7.62.15zm-503.47 89.11l-3.93 10.26s-.88 3.7 3.92 5.87 7.5-5.05 7.5-5.05 5.52-10.85-.26-13.53c-5.78-2.68-7.22 2.45-7.22 2.45z" style="animation:qpSWeUwS_draw 3000ms ease-in 0ms forwards" stroke-dasharray="53 55" stroke-dashoffset="54"/><path class="cls-1" d="M1611.57 1822.28c-1.96.98 167.19-85.82 222.75-189 57.52-106.83 88.04-162 88.04-162" style="animation:qpSWeUwS_draw 3000ms ease-in 0ms forwards" stroke-dasharray="481 483" stroke-dashoffset="482"/><path class="cls-1" d="M.38 3454.81s291.14-333.85 452.7-399.13c163.57-66.09 547.83-234.78 648-277.04 77.03-32.5 291.13-122.09 291.13-122.09s46.96-50.48 35.22-71.61c0 0 76.38-13.01 120-22.04 58.57-12.13 178.29-97.56 252.13-159.91 66.21-55.91 216.93-150.89 240.65-200.35 20.56-42.87 76.7-158.09 95.48-214.43" style="animation:qpSWeUwS_draw 3000ms ease-in 0ms forwards" stroke-dasharray="2683 2685" stroke-dashoffset="2684"/><path class="cls-1" d="M2199.24 2110.06s-6.17 46.66-3.04 99.36 1.04 144.52 17.74 208.7 78.65 250.17 140.87 307.7c24.3 22.46 89.78 56.03 160.57 88.6 110.47 50.83 233.87 99.23 233.87 99.23s403.83 221.87 530.61 353.35 201.91 291.13 201.91 291.13" style="animation:qpSWeUwS_draw 3000ms ease-in 0ms forwards" stroke-dasharray="2084 2086" stroke-dashoffset="2085"/><path class="cls-1" d="M1427.42 2584.94c-70.51 12.5-98.61-29.35-113.48-44.22s-159.65-170.61-191.55-210.52-96.45-180.78-159.06-277.83-74.35-188.61-76.7-227.74 3.91-177.65 3.91-177.65l-35.85-138.43 1.41-288.09s1.57-164.35 39.91-221.48 222.65-63.39 283.7-90.39 191.08-87.97 234.78-100.96c60.13-17.87 132.65-44.61 240.65 30.52s200.74 240.65 219.52 293.48 78.65 192.52 117.39 302.87 77.48 214.83 77.48 312.26-23.48 312.26-23.48 312.26 38.74-190.17 37.57-241.83 17.61-126.78-32.87-254.74-172.57-423.78-152.61-437.87 119.74 117.39 146.74 150.26 131.48 255.91 170.22 226.57 45.78-158.48 109.17-162 127.96 30.52 124.43 163.17-21.13 212.48-50.48 262.96-64.57 106.83-68.09 109.17-34.04-39.91-61.04-42.26-52.83 19.96-59.87 46.96 10.57 35.22 0 65.74-53.22 66.52-38.35 124.7c8 31.29 34.7 39.91 55.04 68.09s40.7 77.22 70.43 76.17 16.7-67.3 23.48-80.87 37.04-24 36.52-54.78-26.61-49.57-31.3-78.78 15-117.65 5.09-124.96-22.94 19.38-53.09 24.78c-55.3 9.91-53.08-47.23-53.08-47.23" style="animation:qpSWeUwS_draw 3000ms ease-in 0ms forwards" stroke-dasharray="7345 7347" stroke-dashoffset="7346"/><path class="cls-1" d="M2253.53 1595.72s36.34 47.12 35.7 69.23c-.64 22.1-41.67 79.81-24.86 96.97 16.8 17.16 82.31-39.41 93.92-61.64 11.61-22.23 18.35-73.35 9.59-90.13-16.83-32.23-36.52-48.46-68.42-57.44-31.89-8.98-69.77-6.73-41.82 32.65 39.68 55.93 55.21 15.98 64.81 39.76 23.21 57.51-24.84 93.85-33.87 87.58" style="animation:qpSWeUwS_draw 3000ms ease-in 0ms forwards" stroke-dasharray="760 762" stroke-dashoffset="761"/><path class="cls-1" d="M2420.1 1380.07s2.8-155.69 42.71-188.56 3.13-223.04-29.74-286.43-101.74-255.13-190.96-316.17-133.83-79.83-133.83-79.83 84.52 16.43 129.13-35.22 109.17 1.57 116.22-38.35 25.83-143.22-4.7-159.65 63.39-100.96 7.04-169.04-176.09-126.78-251.22-77.48-68.09-62.4-164.35-18.29-206.61 27.68-211.3 86.38-80.87 159.65-70.96 208.96 118.61 89.22 96.55 86.87-235.72 28.17-350.76 39.91-237.7 40.95-456.26 238.7C849.06 761.09 801.84 861 789.58 939.52c-28.9 185.1-26.61 262.96-24.26 298.96 3.97 60.82 89.37 270.09 89.37 270.09" style="animation:qpSWeUwS_draw 3000ms ease-in 0ms forwards" stroke-dasharray="4486 4488" stroke-dashoffset="4487"/><path class="cls-1" d="M2190.46 155.13s-54-49.3-72.78-21.13 9.39 124.43-58.7 103.3-70.43-164.35-115.04-147.91" style="animation:qpSWeUwS_draw 3000ms ease-in 0ms forwards" stroke-dasharray="425 427" stroke-dashoffset="426"/><path class="cls-1" d="M1853.94 316.43c36-3 45.39-59.35 64.17-40.57s14.09 81.39 46.96 111.13m188.84-15.34c25.87-25.22 74.58 4.63 72.7-21.87-1.87-26.5-52.23-63.99-53.14-108.31" style="animation:qpSWeUwS_draw 3000ms ease-in 0ms forwards" stroke-dasharray="206 208" stroke-dashoffset="207"/><path class="cls-1" d="M1965.55 2961.48s32.85-41.75 72.52-52.79c39.67-11.04 261.48-54.44 261.48-54.44" style="animation:qpSWeUwS_draw 3000ms ease-in 0ms forwards" stroke-dasharray="359 361" stroke-dashoffset="360"/><path class="cls-1" d="M1698.87 2938.91s-37.57-37.57-78.26-43.83c-40.7-6.26-203.5-18.28-203.5-18.28" style="animation:qpSWeUwS_draw 3000ms ease-in 0ms forwards" stroke-dasharray="296 298" stroke-dashoffset="297"/><path class="cls-1" d="M2281.25 1415.33s17.69-43.03 39.65-51.65c20.61-8.09 61.83-1.57 74.35 13.3s19.04 27.39 22.17 45.39" style="animation:qpSWeUwS_draw 3000ms ease-in 0ms forwards" stroke-dasharray="197 199" stroke-dashoffset="198"/><path class="cls-1" d="M2402.29 1424.73s13.97 20.82 17.48 33.65c11.35 41.5.04 144.58-2.35 140.61" style="animation:qpSWeUwS_draw 3000ms ease-in 0ms forwards" stroke-dasharray="180 182" stroke-dashoffset="181"/><path class="cls-1" d="M1104.1 1571.27s28.32 5.61 35.32 8.08c15.83 5.59 28.3 15.46 25.92 23.65" style="animation:qpSWeUwS_draw 3000ms ease-in 0ms forwards" stroke-dasharray="74 76" stroke-dashoffset="75"/><style data-made-with="vivus-instant">@keyframes qpSWeUwS_fade{0%,94.44444444444444%{stroke-opacity:1}}</style></svg>