<?xml version="1.0" encoding="utf-8"?><svg viewBox="0 0 32 58" xmlns="http://www.w3.org/2000/svg" xmlns:xlink="http://www.w3.org/1999/xlink"><style>:root>svg{display:none}:root>svg:target{display:block}</style><svg fill="none" viewBox="0 0 32 33" id="buttonArrow" xmlns="http://www.w3.org/2000/svg"><path d="M8 24.5l16-16M11 8.5h13v13" stroke="#FCF7FF" stroke-width="2" stroke-linecap="round" stroke-linejoin="round"/></svg><svg fill="none" viewBox="0 0 20 20" id="education__checkpoint" xmlns="http://www.w3.org/2000/svg"><path fill-rule="evenodd" clip-rule="evenodd" d="M6.363 1.221A9.473 9.473 0 0110 .5c1.287 0 2.516.256 3.637.721a.5.5 0 01-.383.924A8.474 8.474 0 0010 1.5c-1.153 0-2.252.23-3.254.645a.5.5 0 01-.383-.924zm11.762 4.872a.5.5 0 01.654.27c.465 1.121.721 2.35.721 3.637a9.473 9.473 0 01-.721 3.637.5.5 0 01-.924-.383c.415-1.002.645-2.1.645-3.254 0-1.153-.23-2.252-.645-3.254a.5.5 0 01.27-.653zm-16.25 0a.5.5 0 01.27.653A8.473 8.473 0 001.5 10c0 1.153.23 2.252.645 3.254a.5.5 0 01-.924.383A9.473 9.473 0 01.5 10c0-1.287.256-2.516.721-3.637a.5.5 0 01.653-.27zm12.032 12.032a.5.5 0 01-.27.654A9.473 9.473 0 0110 19.5a9.473 9.473 0 01-3.637-.721.5.5 0 11.383-.924c1.002.415 2.1.645 3.254.645 1.153 0 2.252-.23 3.254-.645a.5.5 0 01.653.27z" fill="#616161"/></svg><svg fill="none" viewBox="0 0 22 16" id="eng" xmlns="http://www.w3.org/2000/svg"><g clip-path="url(#cclip0_1_1704)"><g clip-path="url(#cclip1_1_1704)"><rect width="22" height="16" rx="2" fill="#1A47B8"/><path fill-rule="evenodd" clip-rule="evenodd" d="M2.34 0H0v2.667L19.647 16H22v-2.667L2.34 0z" fill="#fff"/><path d="M.78 0L22 14.438V16h-.762L0 1.547V0h.78z" fill="#F93939"/><path fill-rule="evenodd" clip-rule="evenodd" d="M19.905 0H22v2.667S8.391 11.55 2.095 16H0v-2.667L19.905 0z" fill="#fff"/><path d="M22 0h-.71L0 14.45V16h.78L22 1.559V0z" fill="#F93939"/><path fill-rule="evenodd" clip-rule="evenodd" d="M8 0h6.018v4.935H22v6.127h-7.982V16H8v-4.938H0V4.935h8V0z" fill="#fff"/><path fill-rule="evenodd" clip-rule="evenodd" d="M9.263 0h3.474v6.154H22v3.692h-9.263V16H9.263V9.846H0V6.154h9.263V0z" fill="#F93939"/></g></g><defs><clipPath id="cclip0_1_1704"><path fill="#fff" d="M0 0h22v16H0z"/></clipPath><clipPath id="cclip1_1_1704"><rect width="22" height="16" rx="2" fill="#fff"/></clipPath></defs></svg><svg fill="none" viewBox="0 0 28 29" id="figma" xmlns="http://www.w3.org/2000/svg"><path d="M21.438.43H6.563A6.563 6.563 0 000 6.992v14.875a6.562 6.562 0 006.563 6.563h14.875A6.562 6.562 0 0028 21.867V6.992A6.562 6.562 0 0021.437.43z" fill="#242938"/><mask id="da" style="mask-type:luminance" maskUnits="userSpaceOnUse" x="6" y="3" width="16" height="23"><path d="M6.672 3.492h14.586v21.875H6.672V3.492z" fill="#fff"/></mask><g mask="url(#da)"><path d="M10.32 25.367a3.647 3.647 0 003.645-3.646v-3.646h-3.646a3.647 3.647 0 00-3.646 3.646 3.647 3.647 0 003.646 3.646z" fill="#0ACF83"/><path d="M6.673 14.43a3.647 3.647 0 013.646-3.646h3.646v7.292h-3.646a3.647 3.647 0 01-3.646-3.646z" fill="#A259FF"/><path d="M6.673 7.138a3.647 3.647 0 013.646-3.646h3.646v7.292H10.32a3.647 3.647 0 01-3.646-3.646z" fill="#F24E1E"/><path d="M13.965 3.492h3.646a3.647 3.647 0 013.646 3.646 3.647 3.647 0 01-3.646 3.646h-3.646V3.492z" fill="#FF7262"/><path d="M21.257 14.43a3.647 3.647 0 01-3.646 3.646 3.647 3.647 0 01-3.646-3.646 3.647 3.647 0 013.646-3.646 3.647 3.647 0 013.646 3.646z" fill="#1ABCFE"/></g></svg><svg fill="none" viewBox="0 0 28 28" id="illustrator" xmlns="http://www.w3.org/2000/svg"><g clip-path="url(#eclip0_1_1670)"><path d="M23.352.398H4.648C2.081.398 0 2.447 0 4.975V22.7c0 2.528 2.081 4.577 4.648 4.577h18.704c2.567 0 4.648-2.05 4.648-4.577V4.975C28 2.447 25.919.398 23.352.398z" fill="#300"/><path d="M13.568 16.53H9.23l-.883 2.7a.218.218 0 01-.083.122.223.223 0 01-.143.044H5.924c-.126 0-.17-.068-.132-.204L9.55 8.54c.037-.111.075-.238.112-.38a3.89 3.89 0 00.076-.749.113.113 0 01.032-.097.117.117 0 01.1-.032h2.986c.087 0 .137.03.15.093l4.264 11.836c.037.123 0 .185-.113.185h-2.442a.176.176 0 01-.119-.03.171.171 0 01-.069-.1l-.958-2.737zm-3.662-2.331h2.967l-.042-.138-.068-.217-.048-.153-.078-.241-.164-.507-.145-.45-.375-1.17a35.285 35.285 0 01-.27-.877l-.068-.237-.08-.282-.123-.436-.023-.082h-.018a14.79 14.79 0 01-.343 1.317l-.279.882-.153.488-.155.494-.084.264-.083.259-.082.252-.083.246-.082.24-.08.233-.041.115zm9.898-4.957a1.382 1.382 0 01-1.033-.407 1.459 1.459 0 01-.394-1.054 1.339 1.339 0 01.422-1.026c.27-.255.629-.397 1.003-.398h.04c.45 0 .804.133 1.061.398a1.423 1.423 0 01.385 1.026 1.423 1.423 0 01-.404 1.055 1.443 1.443 0 01-1.04.408l-.04-.002zm-1.296 9.969v-8.84c0-.111.05-.167.15-.167h2.31c.1 0 .151.055.151.166v8.84c0 .124-.05.186-.15.186h-2.292c-.107 0-.163-.056-.168-.166v-.02z" fill="#FF9A00"/></g><defs><clipPath id="eclip0_1_1670"><path fill="#fff" transform="translate(0 .398)" d="M0 0h28v26.923H0z"/></clipPath></defs></svg><svg fill="none" viewBox="0 0 28 28" id="indesign" xmlns="http://www.w3.org/2000/svg"><g clip-path="url(#fclip0_1_1667)"><path d="M23.352.398H4.648C2.081.398 0 2.447 0 4.975V22.7c0 2.528 2.081 4.577 4.648 4.577h18.704c2.567 0 4.648-2.05 4.648-4.577V4.975C28 2.447 25.919.398 23.352.398z" fill="#49021F"/><path d="M10.168 7.43v11.78c0 .124-.056.186-.169.186H7.727c-.1 0-.15-.062-.15-.185V7.43c0-.099.056-.148.168-.148h2.273a.135.135 0 01.107.032.132.132 0 01.045.1l-.002.016zm6.846 12.15h-.121a5.896 5.896 0 01-2.508-.517A3.965 3.965 0 0112.63 17.5c-.415-.68-.628-1.526-.638-2.54v-.077a4.77 4.77 0 01.638-2.423 4.654 4.654 0 011.799-1.742l.06-.033c.814-.444 1.797-.666 2.95-.666h.024l.054.001.06.003.069.003.075.005.082.006.186.015.05.004V6.413c0-.086.038-.13.113-.13h2.367a.101.101 0 01.085.028.098.098 0 01.028.083v10.93c0 .229.01.457.028.685l.018.238.015.222.014.205a.19.19 0 01-.113.185 9.42 9.42 0 01-1.897.555c-.555.101-1.118.156-1.682.165zm1.025-2.293v-5.049a1.892 1.892 0 00-.31-.055 3.808 3.808 0 00-.385-.019 2.938 2.938 0 00-1.315.296 2.557 2.557 0 00-.986.851c-.257.37-.385.857-.385 1.461-.01.403.057.805.197 1.184.113.305.293.583.526.814.223.212.493.37.789.462.312.1.639.15.967.148.175 0 .338-.006.488-.019.12-.009.24-.028.356-.058l.058-.016z" fill="#F36"/></g><defs><clipPath id="fclip0_1_1667"><path fill="#fff" transform="translate(0 .398)" d="M0 0h28v26.923H0z"/></clipPath></defs></svg><svg fill="none" viewBox="0 0 28 29" id="photoshop" xmlns="http://www.w3.org/2000/svg"><g clip-path="url(#gclip0_1_1673)"><path d="M23.352.86H4.648C2.081.86 0 2.99 0 5.62v18.435c0 2.628 2.081 4.76 4.648 4.76h18.704c2.567 0 4.648-2.132 4.648-4.76V5.619C28 2.991 25.919.86 23.352.86z" fill="#001E36"/><path d="M6.305 20.463V8.173c0-.09.037-.135.113-.135h.118l.204-.003.282-.005.946-.02 1.015-.02c.356-.006.71-.01 1.06-.01.952 0 1.754.122 2.405.366a4.156 4.156 0 011.569.98c.377.384.668.847.854 1.357.176.496.265 1.02.263 1.548 0 1.026-.232 1.872-.695 2.539a3.94 3.94 0 01-1.816 1.429l-.062.023c-.763.291-1.607.397-2.534.403H9.67l-.108-.002-.12-.003-.072-.003-.044-.002-.109-.004-.132-.003-.199-.001h-.044v3.837a.157.157 0 01-.042.13.149.149 0 01-.127.043H6.436c-.087 0-.131-.05-.131-.154zm2.537-10.117v4.009c.15.012.3.019.45.02h.62a4.311 4.311 0 001.262-.194l.082-.026c.372-.114.704-.334.957-.635.236-.284.358-.676.366-1.175v-.056c.01-.372-.084-.74-.272-1.058a1.76 1.76 0 00-.817-.683 3.408 3.408 0 00-1.371-.24h-.238l-.15.002-.144.002-.202.004-.148.004-.077.003-.102.005-.087.005-.05.004-.043.005-.019.002-.017.002zm13.555 3.28a4.327 4.327 0 00-1.035-.386l-.083-.018a5.799 5.799 0 00-1.204-.153h-.101a2.374 2.374 0 00-.705.086.632.632 0 00-.366.24.616.616 0 00-.094.327c.003.113.043.22.113.308.1.12.22.22.354.295l.04.022c.268.148.544.28.827.395.63.215 1.232.51 1.793.875.383.247.699.587.921.99.187.382.28.804.272 1.231a2.814 2.814 0 01-.45 1.587 2.98 2.98 0 01-1.306 1.067c-.551.248-1.228.376-2.03.385h-.083a7.475 7.475 0 01-1.483-.133l-.104-.02a4.974 4.974 0 01-1.193-.385.254.254 0 01-.131-.212v-2.096a.115.115 0 01.046-.106.09.09 0 01.104.01c.45.27.937.469 1.446.586.449.115.909.177 1.371.183.438 0 .76-.058.968-.173a.534.534 0 00.227-.203.554.554 0 00.083-.297c0-.167-.094-.327-.282-.481a1.98 1.98 0 00-.339-.21l-.07-.036-.075-.036-.04-.019-.082-.037-.043-.02-.09-.038-.047-.02-.096-.04-.05-.02-.105-.04-.109-.042a6.845 6.845 0 01-1.662-.866 2.915 2.915 0 01-.883-1.01 2.705 2.705 0 01-.272-1.22 2.808 2.808 0 01.394-1.443c.295-.479.72-.86 1.22-1.097.552-.281 1.24-.423 2.067-.423.484-.004.968.031 1.446.106.347.045.686.139 1.007.279a.173.173 0 01.113.106.54.54 0 01.019.144v1.943a.13.13 0 01-.057.115.178.178 0 01-.161 0z" fill="#31A8FF"/></g><defs><clipPath id="gclip0_1_1673"><path fill="#fff" transform="translate(0 .86)" d="M0 0h28v28H0z"/></clipPath></defs></svg><svg fill="none" viewBox="0 0 23 16" id="rus" xmlns="http://www.w3.org/2000/svg"><g clip-path="url(#hclip0_1_1700)"><g clip-path="url(#hclip1_1_1700)"><rect x=".5" width="22" height="16" rx="2" fill="#1A47B8"/><path fill-rule="evenodd" clip-rule="evenodd" d="M.5 10.667h22V16H.5v-5.333z" fill="#F93939"/><path fill-rule="evenodd" clip-rule="evenodd" d="M.5 0h22v5.333H.5V0z" fill="#fff"/></g></g><defs><clipPath id="hclip0_1_1700"><path fill="#fff" transform="translate(.5)" d="M0 0h22v16H0z"/></clipPath><clipPath id="hclip1_1_1700"><rect x=".5" width="22" height="16" rx="2" fill="#fff"/></clipPath></defs></svg><svg fill="none" viewBox="0 0 23 16" id="ua" xmlns="http://www.w3.org/2000/svg"><g clip-path="url(#iclip0_1_1708)"><g clip-path="url(#iclip1_1_1708)"><rect x=".5" width="22" height="16" rx="2" fill="#FFDA2C"/><path fill-rule="evenodd" clip-rule="evenodd" d="M.5 0h22v8H.5V0z" fill="#3A99FF"/></g></g><defs><clipPath id="iclip0_1_1708"><path fill="#fff" transform="translate(.5)" d="M0 0h22v16H0z"/></clipPath><clipPath id="iclip1_1_1708"><rect x=".5" width="22" height="16" rx="2" fill="#fff"/></clipPath></defs></svg><svg fill="none" viewBox="0 0 30 30" id="user" xmlns="http://www.w3.org/2000/svg"><path d="M15 18.75a7.5 7.5 0 100-15 7.5 7.5 0 000 15z" stroke="#181818" stroke-miterlimit="10"/><path d="M3.633 25.312a13.126 13.126 0 0122.734 0" stroke="#181818" stroke-linecap="round" stroke-linejoin="round"/></svg><svg fill="none" viewBox="0 0 2 58" id="way" xmlns="http://www.w3.org/2000/svg"><path fill-rule="evenodd" clip-rule="evenodd" d="M.5 3.625V0h1v3.625a.5.5 0 01-1 0zm.5 6.75a.5.5 0 01.5.5v7.25a.5.5 0 01-1 0v-7.25a.5.5 0 01.5-.5zm0 14.5a.5.5 0 01.5.5v7.25a.5.5 0 01-1 0v-7.25a.5.5 0 01.5-.5zm0 14.5a.5.5 0 01.5.5v7.25a.5.5 0 01-1 0v-7.25a.5.5 0 01.5-.5zm0 14.5a.5.5 0 01.5.5V58h-1v-3.625a.5.5 0 01.5-.5z" fill="#616161"/></svg></svg>