<?xml version="1.0" encoding="utf-8"?><svg viewBox="0 0 399 58" xmlns="http://www.w3.org/2000/svg" xmlns:xlink="http://www.w3.org/1999/xlink"><style>:root>svg{display:none}:root>svg:target{display:block}</style><svg fill="#fff" viewBox="0 0 47 40" id="Dprofile_logo" xmlns="http://www.w3.org/2000/svg"><path fill-rule="evenodd" clip-rule="evenodd" d="M36.586 0H3.42A3.42 3.42 0 000 3.42v33.16A3.42 3.42 0 003.42 40h33.166A3.42 3.42 0 0040 36.58V3.42A3.42 3.42 0 0036.586 0zm.76 25.726A11.614 11.614 0 0125.73 37.332H14.296a11.61 11.61 0 01-11.61-11.607V14.268A11.607 11.607 0 0114.296 2.66h11.459A11.617 11.617 0 0137.37 14.268l-.026 11.457z"/><path d="M44.488 0c.434.001.861.112 1.24.322.397.21.724.531.94.923a2.52 2.52 0 010 2.5c-.217.39-.54.712-.934.928A2.555 2.555 0 0144.482 5a2.582 2.582 0 01-1.219-.333 2.365 2.365 0 01-.928-.928 2.493 2.493 0 010-2.5c.213-.394.535-.72.928-.939a2.544 2.544 0 011.225-.3zm0 .41a2.163 2.163 0 00-1.033.272c-.33.177-.602.444-.785.77a2.097 2.097 0 000 2.085c.18.325.451.592.78.77a2.091 2.091 0 002.087 0c.328-.178.599-.445.78-.77a2.097 2.097 0 000-2.085 1.933 1.933 0 00-.786-.77A2.163 2.163 0 0044.488.41zm-1 3.373V1.092h.928c.233-.011.467.013.692.07.14.047.26.14.34.263a.713.713 0 01.073.671.704.704 0 01-.16.235.81.81 0 01-.55.245.758.758 0 01.231.142c.153.168.288.35.401.546l.33.546h-.55l-.24-.426a2.185 2.185 0 00-.457-.627.585.585 0 00-.351-.093h-.258V3.81l-.429-.027zm.434-1.518h.55a.833.833 0 00.515-.114.356.356 0 00.143-.295.32.32 0 00-.071-.213.39.39 0 00-.181-.142 1.325 1.325 0 00-.44-.049h-.5l-.016.813z"/></svg><svg fill="#fff" viewBox="0 0 87 25" id="Dprofile_text" xmlns="http://www.w3.org/2000/svg"><path d="M65.612.61h-2.324v2.483h2.325V.609zM6.793.61H0v18.896h5.867c3.144 0 9.727-.215 9.727-9.501S8.697.609 6.794.609zm-.845 16.763H2.483V2.743h4.178c3.143 0 6.291 1.594 6.291 7.315 0 5.046-2.247 7.315-7.004 7.315zM24.13 5.253c-1.163 0-3.093.35-4.44 2.43h-.081V5.795h-2.166V24.5h2.324v-6.965c1.189 2.375 3.886 2.51 4.414 2.51 3.066 0 6-2.08 6-7.398s-2.75-7.398-6.052-7.398v.004zm-.37 13.119c-1.771 0-4.151-1.432-4.151-5.668 0-5.183 2.826-5.778 4.018-5.778 2.642 0 4.096 2.186 4.096 5.721 0 4.372-2.088 5.725-3.963 5.725zm10.73-9.935V5.791h-2.324v13.715h2.325V12.46c0-.242 0-.487.026-.728.21-3.456 2.036-4.67 5.155-4.805V5.253l-.687.026c-1.878.079-3.804 1.134-4.439 3.158h-.055zm11.89-3.184c-4.89 0-6.609 3.753-6.609 7.398 0 3.644 1.72 7.398 6.61 7.398 4.888 0 6.608-3.754 6.608-7.398 0-3.645-1.72-7.398-6.609-7.398zm0 13.119c-1.03 0-4.151-.241-4.151-5.751 0-5.51 3.118-5.752 4.151-5.752s4.151.245 4.151 5.752c0 5.506-3.118 5.75-4.15 5.75zM55.897 3.93v1.86h-2.484v1.674h2.484v12.041h2.324V7.465h2.934V5.79h-2.934V4.144c0-.565.026-1.888 1.296-1.888.24 0 .501-.052 1.638.027V.609C60.76.583 59.937.5 59.435.5c-2.406 0-3.542 1.052-3.542 3.43h.004zm9.715 1.861h-2.324v13.715h2.325V5.791zM71.694.61h-2.325v18.896h2.325V.61zm9.225 17.762c-3.067 0-4.255-2.834-4.255-5.182H87c0-.215-.026-.46-.026-.675-.133-2.97-.845-7.262-6.21-7.262-6.21 0-6.554 5.562-6.554 7.45 0 1.244.133 7.342 6.794 7.342 4.121 0 5.524-2.566 5.867-4.507h-2.222c-.291 1.511-1.48 2.834-3.727 2.834h-.003zm-.107-11.446c3.04 0 3.646 2.755 3.727 4.59h-7.875c0-1.726.712-4.59 4.151-4.59h-.003z"/></svg><svg fill="none" viewBox="0 0 399 39" id="Logo_HoldMyCode" xmlns="http://www.w3.org/2000/svg"><path d="M0 26.921h8.19v5.536H0V26.92zM22.86.695h8.24v31.762h-8.24V19.824H0V.695h8.19V13.15h14.67V.695zM74.328 16.58c0 10.038-8.768 16.53-19.083 16.53-10.358 0-19.126-6.492-19.126-16.53v-.036h8.505c0 6.619 5.5 9.582 10.621 9.582 5.092 0 10.578-2.963 10.578-9.595 0-6.62-5.486-9.621-10.578-9.621-2.523 0-5.135.731-7.148 2.27h-10.14C41.05 3.441 47.717 0 55.245 0 65.56 0 74.328 6.494 74.328 16.58zM87.44 25.696H103.3v6.758H87.44v-6.758zM79.256.695h8.184V25.7h-8.184V.695zM138.873 16.608c0 9.809-7.412 15.85-18.514 15.85h-13.261V14.476l.058-.05h8.126v11.36h4.77c5.647 0 10.257-2.824 10.257-9.18 0-6.367-4.61-9.229-10.257-9.229h-12.954V.695h13.319c11.044 0 18.456 6.103 18.456 15.913z" fill="#FCF7FF"/><path d="M225.666 7.812l-3.035 4.691-.265.408-.261-.403-7.62-11.781h-9.122l12.906 18.5v13.26h8.2V19.224l7.951-11.41h-8.754zM203.171.696v31.762h-8.038V11.413l-9.585 21.045h-6.638l-9.585-20.78v20.78h-7.776V7.656h7.761V.696h2.918l10.11 21.46 9.585-21.46h11.248zM333.593 16.581c0 10.037-8.767 16.53-19.082 16.53-10.359 0-19.126-6.493-19.126-16.53v-.037h8.505c0 6.62 5.5 9.582 10.621 9.582 5.092 0 10.577-2.963 10.577-9.595 0-6.62-5.485-9.62-10.577-9.62-2.524 0-5.136.73-7.148 2.269h-10.141C300.316 3.443 306.983 0 314.511 0c10.315 0 19.082 6.494 19.082 16.581zM370.558 16.608c0 9.81-7.411 15.85-18.514 15.85h-13.261V14.426h8.185v11.36h4.77c5.646 0 10.256-2.824 10.256-9.18 0-6.367-4.61-9.229-10.256-9.229h-12.955V.695h13.319c11.045 0 18.456 6.103 18.456 15.913zM399.001 25.801h-23.328v6.66h23.328V25.8zM383.858 7.377v6.04h13.684v6.228h-21.869V.695h23.27v6.682h-15.085zM294.099 27.279l-5.951-5.145c-.974 1.407-2.616 2.811-5.2 3.49v7.258c5.315-.71 8.905-3.01 11.151-5.603zM268.949 16.651c0-6.676 5.545-9.72 10.469-9.72 4.111 0 6.548 1.496 7.929 3.15l5.841-5.046C290.469 2.263 286.069.03 279.417.03c-10.262 0-18.971 6.72-18.971 16.62 0 8.354 6.061 14.33 14.305 15.998v-7.527c-3.344-1.402-5.802-4.328-5.802-8.47z" fill="#9C4B97"/></svg><svg fill="none" viewBox="0 0 28 28" id="behance" xmlns="http://www.w3.org/2000/svg"><path d="M26.88 0H1.12C.5 0 0 .5 0 1.12v25.76C0 27.5.5 28 1.12 28h25.76c.62 0 1.12-.5 1.12-1.12V1.12C28 .5 27.5 0 26.88 0zm-9.852 8.361h4.844v1.18h-4.845v-1.18zM14 18.088c-.227.43-.55.802-.945 1.085a4.156 4.156 0 01-1.358.62 5.859 5.859 0 01-1.561.199H4.34V8.053h5.635c.57 0 1.088.053 1.561.151a3.34 3.34 0 011.204.493c.332.228.595.533.78.91.183.375.277.844.277 1.4 0 .603-.136 1.1-.41 1.502-.276.402-.675.728-1.218.983.739.21 1.281.585 1.638 1.11.364.532.543 1.169.543 1.918 0 .609-.115 1.13-.35 1.568zm9.758-1.848h-6.244c0 .679.235 1.33.588 1.68.357.346.868.521 1.537.521.483 0 .892-.122 1.242-.363.346-.242.556-.497.634-.764h2.093c-.337 1.04-.848 1.782-1.54 2.23-.687.448-1.527.672-2.503.672a5.048 5.048 0 01-1.845-.326 3.921 3.921 0 01-1.396-.927 4.24 4.24 0 01-.879-1.442 5.247 5.247 0 01-.311-1.841c0-.647.108-1.25.319-1.81a4.203 4.203 0 012.306-2.411 4.545 4.545 0 011.802-.35c.736 0 1.372.14 1.925.427.533.274.995.667 1.351 1.148.354.48.602 1.026.76 1.642.15.605.203 1.242.161 1.914zm-4.27-3.346c-.378 0-.697.066-.941.196-.245.13-.448.29-.602.476-.147.18-.256.386-.319.609a2.618 2.618 0 00-.109.567h3.868c-.056-.606-.266-1.054-.546-1.369-.294-.311-.766-.479-1.351-.479zm-8.697-.354c.304-.22.451-.584.451-1.084a1.409 1.409 0 00-.144-.686 1.104 1.104 0 00-.405-.417 1.569 1.569 0 00-.582-.21 3.39 3.39 0 00-.675-.06h-2.46v2.79h2.663c.459.004.847-.108 1.152-.332zm.412 2.52c-.342-.262-.801-.392-1.371-.392H6.968v3.29h2.807c.263 0 .505-.024.739-.073.235-.049.445-.133.623-.252.178-.116.322-.273.43-.476.105-.203.158-.462.158-.773 0-.62-.175-1.058-.521-1.324z" fill="#FCF7FF"/></svg><svg fill="none" viewBox="0 0 32 33" id="buttonArrow" xmlns="http://www.w3.org/2000/svg"><path d="M8 24.5l16-16M11 8.5h13v13" stroke="#FCF7FF" stroke-width="2" stroke-linecap="round" stroke-linejoin="round"/></svg><svg fill="none" viewBox="0 0 20 20" id="education__checkpoint" xmlns="http://www.w3.org/2000/svg"><path fill-rule="evenodd" clip-rule="evenodd" d="M6.363 1.221A9.473 9.473 0 0110 .5c1.287 0 2.516.256 3.637.721a.5.5 0 01-.383.924A8.474 8.474 0 0010 1.5c-1.153 0-2.252.23-3.254.645a.5.5 0 01-.383-.924zm11.762 4.872a.5.5 0 01.654.27c.465 1.121.721 2.35.721 3.637a9.473 9.473 0 01-.721 3.637.5.5 0 01-.924-.383c.415-1.002.645-2.1.645-3.254 0-1.153-.23-2.252-.645-3.254a.5.5 0 01.27-.653zm-16.25 0a.5.5 0 01.27.653A8.473 8.473 0 001.5 10c0 1.153.23 2.252.645 3.254a.5.5 0 01-.924.383A9.473 9.473 0 01.5 10c0-1.287.256-2.516.721-3.637a.5.5 0 01.653-.27zm12.032 12.032a.5.5 0 01-.27.654A9.473 9.473 0 0110 19.5a9.473 9.473 0 01-3.637-.721.5.5 0 11.383-.924c1.002.415 2.1.645 3.254.645 1.153 0 2.252-.23 3.254-.645a.5.5 0 01.653.27z" fill="#616161"/></svg><svg fill="none" viewBox="0 0 22 16" id="eng" xmlns="http://www.w3.org/2000/svg"><g clip-path="url(#gclip0_1_1704)"><g clip-path="url(#gclip1_1_1704)"><rect width="22" height="16" rx="2" fill="#1A47B8"/><path fill-rule="evenodd" clip-rule="evenodd" d="M2.34 0H0v2.667L19.647 16H22v-2.667L2.34 0z" fill="#fff"/><path d="M.78 0L22 14.438V16h-.762L0 1.547V0h.78z" fill="#F93939"/><path fill-rule="evenodd" clip-rule="evenodd" d="M19.905 0H22v2.667S8.391 11.55 2.095 16H0v-2.667L19.905 0z" fill="#fff"/><path d="M22 0h-.71L0 14.45V16h.78L22 1.559V0z" fill="#F93939"/><path fill-rule="evenodd" clip-rule="evenodd" d="M8 0h6.018v4.935H22v6.127h-7.982V16H8v-4.938H0V4.935h8V0z" fill="#fff"/><path fill-rule="evenodd" clip-rule="evenodd" d="M9.263 0h3.474v6.154H22v3.692h-9.263V16H9.263V9.846H0V6.154h9.263V0z" fill="#F93939"/></g></g><defs><clipPath id="gclip0_1_1704"><path fill="#fff" d="M0 0h22v16H0z"/></clipPath><clipPath id="gclip1_1_1704"><rect width="22" height="16" rx="2" fill="#fff"/></clipPath></defs></svg><svg fill="none" viewBox="0 0 28 29" id="figma" xmlns="http://www.w3.org/2000/svg"><path d="M21.438.43H6.563A6.563 6.563 0 000 6.992v14.875a6.562 6.562 0 006.563 6.563h14.875A6.562 6.562 0 0028 21.867V6.992A6.562 6.562 0 0021.437.43z" fill="#242938"/><mask id="ha" style="mask-type:luminance" maskUnits="userSpaceOnUse" x="6" y="3" width="16" height="23"><path d="M6.672 3.492h14.586v21.875H6.672V3.492z" fill="#fff"/></mask><g mask="url(#ha)"><path d="M10.32 25.367a3.647 3.647 0 003.645-3.646v-3.646h-3.646a3.647 3.647 0 00-3.646 3.646 3.647 3.647 0 003.646 3.646z" fill="#0ACF83"/><path d="M6.673 14.43a3.647 3.647 0 013.646-3.646h3.646v7.292h-3.646a3.647 3.647 0 01-3.646-3.646z" fill="#A259FF"/><path d="M6.673 7.138a3.647 3.647 0 013.646-3.646h3.646v7.292H10.32a3.647 3.647 0 01-3.646-3.646z" fill="#F24E1E"/><path d="M13.965 3.492h3.646a3.647 3.647 0 013.646 3.646 3.647 3.647 0 01-3.646 3.646h-3.646V3.492z" fill="#FF7262"/><path d="M21.257 14.43a3.647 3.647 0 01-3.646 3.646 3.647 3.647 0 01-3.646-3.646 3.647 3.647 0 013.646-3.646 3.647 3.647 0 013.646 3.646z" fill="#1ABCFE"/></g></svg><svg fill="none" viewBox="0 0 28 28" id="illustrator" xmlns="http://www.w3.org/2000/svg"><g clip-path="url(#iclip0_1_1670)"><path d="M23.352.398H4.648C2.081.398 0 2.447 0 4.975V22.7c0 2.528 2.081 4.577 4.648 4.577h18.704c2.567 0 4.648-2.05 4.648-4.577V4.975C28 2.447 25.919.398 23.352.398z" fill="#300"/><path d="M13.568 16.53H9.23l-.883 2.7a.218.218 0 01-.083.122.223.223 0 01-.143.044H5.924c-.126 0-.17-.068-.132-.204L9.55 8.54c.037-.111.075-.238.112-.38a3.89 3.89 0 00.076-.749.113.113 0 01.032-.097.117.117 0 01.1-.032h2.986c.087 0 .137.03.15.093l4.264 11.836c.037.123 0 .185-.113.185h-2.442a.176.176 0 01-.119-.03.171.171 0 01-.069-.1l-.958-2.737zm-3.662-2.331h2.967l-.042-.138-.068-.217-.048-.153-.078-.241-.164-.507-.145-.45-.375-1.17a35.285 35.285 0 01-.27-.877l-.068-.237-.08-.282-.123-.436-.023-.082h-.018a14.79 14.79 0 01-.343 1.317l-.279.882-.153.488-.155.494-.084.264-.083.259-.082.252-.083.246-.082.24-.08.233-.041.115zm9.898-4.957a1.382 1.382 0 01-1.033-.407 1.459 1.459 0 01-.394-1.054 1.339 1.339 0 01.422-1.026c.27-.255.629-.397 1.003-.398h.04c.45 0 .804.133 1.061.398a1.423 1.423 0 01.385 1.026 1.423 1.423 0 01-.404 1.055 1.443 1.443 0 01-1.04.408l-.04-.002zm-1.296 9.969v-8.84c0-.111.05-.167.15-.167h2.31c.1 0 .151.055.151.166v8.84c0 .124-.05.186-.15.186h-2.292c-.107 0-.163-.056-.168-.166v-.02z" fill="#FF9A00"/></g><defs><clipPath id="iclip0_1_1670"><path fill="#fff" transform="translate(0 .398)" d="M0 0h28v26.923H0z"/></clipPath></defs></svg><svg fill="none" viewBox="0 0 28 28" id="indesign" xmlns="http://www.w3.org/2000/svg"><g clip-path="url(#jclip0_1_1667)"><path d="M23.352.398H4.648C2.081.398 0 2.447 0 4.975V22.7c0 2.528 2.081 4.577 4.648 4.577h18.704c2.567 0 4.648-2.05 4.648-4.577V4.975C28 2.447 25.919.398 23.352.398z" fill="#49021F"/><path d="M10.168 7.43v11.78c0 .124-.056.186-.169.186H7.727c-.1 0-.15-.062-.15-.185V7.43c0-.099.056-.148.168-.148h2.273a.135.135 0 01.107.032.132.132 0 01.045.1l-.002.016zm6.846 12.15h-.121a5.896 5.896 0 01-2.508-.517A3.965 3.965 0 0112.63 17.5c-.415-.68-.628-1.526-.638-2.54v-.077a4.77 4.77 0 01.638-2.423 4.654 4.654 0 011.799-1.742l.06-.033c.814-.444 1.797-.666 2.95-.666h.024l.054.001.06.003.069.003.075.005.082.006.186.015.05.004V6.413c0-.086.038-.13.113-.13h2.367a.101.101 0 01.085.028.098.098 0 01.028.083v10.93c0 .229.01.457.028.685l.018.238.015.222.014.205a.19.19 0 01-.113.185 9.42 9.42 0 01-1.897.555c-.555.101-1.118.156-1.682.165zm1.025-2.293v-5.049a1.892 1.892 0 00-.31-.055 3.808 3.808 0 00-.385-.019 2.938 2.938 0 00-1.315.296 2.557 2.557 0 00-.986.851c-.257.37-.385.857-.385 1.461-.01.403.057.805.197 1.184.113.305.293.583.526.814.223.212.493.37.789.462.312.1.639.15.967.148.175 0 .338-.006.488-.019.12-.009.24-.028.356-.058l.058-.016z" fill="#F36"/></g><defs><clipPath id="jclip0_1_1667"><path fill="#fff" transform="translate(0 .398)" d="M0 0h28v26.923H0z"/></clipPath></defs></svg><svg fill="none" viewBox="0 0 28 28" id="mail" xmlns="http://www.w3.org/2000/svg"><path d="M3.5 6.125h21V21a.875.875 0 01-.875.875H4.375A.875.875 0 013.5 21V6.125z" stroke="#7546F7" stroke-linecap="round" stroke-linejoin="round"/><path d="M24.5 6.125L14 15.75 3.5 6.125" stroke="#7546F7" stroke-linecap="round" stroke-linejoin="round"/></svg><svg fill="none" viewBox="0 0 28 28" id="phone" xmlns="http://www.w3.org/2000/svg"><path d="M10.117 13.65a9.144 9.144 0 004.266 4.255.875.875 0 00.864-.066l2.734-1.827a.865.865 0 01.831-.076l5.12 2.198a.864.864 0 01.524.908 5.25 5.25 0 01-5.206 4.583A14.875 14.875 0 014.375 8.75a5.25 5.25 0 014.583-5.206.864.864 0 01.908.525l2.198 5.13a.876.876 0 01-.066.82l-1.826 2.778a.874.874 0 00-.055.853v0z" stroke="#7546F7" stroke-linecap="round" stroke-linejoin="round"/></svg><svg fill="none" viewBox="0 0 28 29" id="photoshop" xmlns="http://www.w3.org/2000/svg"><g clip-path="url(#mclip0_1_1673)"><path d="M23.352.86H4.648C2.081.86 0 2.99 0 5.62v18.435c0 2.628 2.081 4.76 4.648 4.76h18.704c2.567 0 4.648-2.132 4.648-4.76V5.619C28 2.991 25.919.86 23.352.86z" fill="#001E36"/><path d="M6.305 20.463V8.173c0-.09.037-.135.113-.135h.118l.204-.003.282-.005.946-.02 1.015-.02c.356-.006.71-.01 1.06-.01.952 0 1.754.122 2.405.366a4.156 4.156 0 011.569.98c.377.384.668.847.854 1.357.176.496.265 1.02.263 1.548 0 1.026-.232 1.872-.695 2.539a3.94 3.94 0 01-1.816 1.429l-.062.023c-.763.291-1.607.397-2.534.403H9.67l-.108-.002-.12-.003-.072-.003-.044-.002-.109-.004-.132-.003-.199-.001h-.044v3.837a.157.157 0 01-.042.13.149.149 0 01-.127.043H6.436c-.087 0-.131-.05-.131-.154zm2.537-10.117v4.009c.15.012.3.019.45.02h.62a4.311 4.311 0 001.262-.194l.082-.026c.372-.114.704-.334.957-.635.236-.284.358-.676.366-1.175v-.056c.01-.372-.084-.74-.272-1.058a1.76 1.76 0 00-.817-.683 3.408 3.408 0 00-1.371-.24h-.238l-.15.002-.144.002-.202.004-.148.004-.077.003-.102.005-.087.005-.05.004-.043.005-.019.002-.017.002zm13.555 3.28a4.327 4.327 0 00-1.035-.386l-.083-.018a5.799 5.799 0 00-1.204-.153h-.101a2.374 2.374 0 00-.705.086.632.632 0 00-.366.24.616.616 0 00-.094.327c.003.113.043.22.113.308.1.12.22.22.354.295l.04.022c.268.148.544.28.827.395.63.215 1.232.51 1.793.875.383.247.699.587.921.99.187.382.28.804.272 1.231a2.814 2.814 0 01-.45 1.587 2.98 2.98 0 01-1.306 1.067c-.551.248-1.228.376-2.03.385h-.083a7.475 7.475 0 01-1.483-.133l-.104-.02a4.974 4.974 0 01-1.193-.385.254.254 0 01-.131-.212v-2.096a.115.115 0 01.046-.106.09.09 0 01.104.01c.45.27.937.469 1.446.586.449.115.909.177 1.371.183.438 0 .76-.058.968-.173a.534.534 0 00.227-.203.554.554 0 00.083-.297c0-.167-.094-.327-.282-.481a1.98 1.98 0 00-.339-.21l-.07-.036-.075-.036-.04-.019-.082-.037-.043-.02-.09-.038-.047-.02-.096-.04-.05-.02-.105-.04-.109-.042a6.845 6.845 0 01-1.662-.866 2.915 2.915 0 01-.883-1.01 2.705 2.705 0 01-.272-1.22 2.808 2.808 0 01.394-1.443c.295-.479.72-.86 1.22-1.097.552-.281 1.24-.423 2.067-.423.484-.004.968.031 1.446.106.347.045.686.139 1.007.279a.173.173 0 01.113.106.54.54 0 01.019.144v1.943a.13.13 0 01-.057.115.178.178 0 01-.161 0z" fill="#31A8FF"/></g><defs><clipPath id="mclip0_1_1673"><path fill="#fff" transform="translate(0 .86)" d="M0 0h28v28H0z"/></clipPath></defs></svg><svg fill="none" viewBox="0 0 23 16" id="rus" xmlns="http://www.w3.org/2000/svg"><g clip-path="url(#nclip0_1_1700)"><g clip-path="url(#nclip1_1_1700)"><rect x=".5" width="22" height="16" rx="2" fill="#1A47B8"/><path fill-rule="evenodd" clip-rule="evenodd" d="M.5 10.667h22V16H.5v-5.333z" fill="#F93939"/><path fill-rule="evenodd" clip-rule="evenodd" d="M.5 0h22v5.333H.5V0z" fill="#fff"/></g></g><defs><clipPath id="nclip0_1_1700"><path fill="#fff" transform="translate(.5)" d="M0 0h22v16H0z"/></clipPath><clipPath id="nclip1_1_1700"><rect x=".5" width="22" height="16" rx="2" fill="#fff"/></clipPath></defs></svg><svg fill="none" viewBox="0 0 28 28" id="telegram" xmlns="http://www.w3.org/2000/svg"><g clip-path="url(#oclip0_113_808)" fill-rule="evenodd" clip-rule="evenodd"><path d="M28 14c0 7.732-6.268 14-14 14S0 21.732 0 14 6.268 0 14 0s14 6.268 14 14zm-13.498-3.665c-1.362.567-4.084 1.74-8.165 3.517-.663.264-1.01.522-1.041.774-.054.426.48.594 1.206.822l.307.097c.714.233 1.676.505 2.176.515.453.01.96-.177 1.518-.56 3.813-2.575 5.782-3.876 5.905-3.904.087-.02.208-.044.29.028.082.073.074.211.065.248-.053.225-2.147 2.172-3.23 3.18-.339.314-.578.537-.627.588-.11.114-.222.222-.33.325-.663.64-1.161 1.12.028 1.905.572.376 1.03.688 1.486.999.498.34.995.678 1.639 1.1.163.107.32.218.472.327.58.413 1.101.785 1.745.726.374-.035.76-.386.957-1.436.464-2.479 1.376-7.851 1.586-10.065a2.469 2.469 0 00-.023-.551.59.59 0 00-.2-.38c-.167-.135-.426-.164-.542-.162-.526.01-1.334.29-5.222 1.907z" fill="#08C"/><path d="M28 14c0 7.732-6.268 14-14 14S0 21.732 0 14 6.268 0 14 0s14 6.268 14 14zm-13.498-3.665c-1.362.567-4.084 1.74-8.165 3.517-.663.264-1.01.522-1.041.774-.054.426.48.594 1.206.822l.307.097c.714.233 1.676.505 2.176.515.453.01.96-.177 1.518-.56 3.813-2.575 5.782-3.876 5.905-3.904.087-.02.208-.044.29.028.082.073.074.211.065.248-.053.225-2.147 2.172-3.23 3.18-.339.314-.578.537-.627.588-.11.114-.222.222-.33.325-.663.64-1.161 1.12.028 1.905.572.376 1.03.688 1.486.999.498.34.995.678 1.639 1.1.163.107.32.218.472.327.58.413 1.101.785 1.745.726.374-.035.76-.386.957-1.436.464-2.479 1.376-7.851 1.586-10.065a2.469 2.469 0 00-.023-.551.59.59 0 00-.2-.38c-.167-.135-.426-.164-.542-.162-.526.01-1.334.29-5.222 1.907z" fill="#0F0F0F" fill-opacity=".2"/></g><defs><clipPath id="oclip0_113_808"><path fill="#fff" d="M0 0h28v28H0z"/></clipPath></defs></svg><svg fill="none" viewBox="0 0 23 16" id="ua" xmlns="http://www.w3.org/2000/svg"><g clip-path="url(#pclip0_1_1708)"><g clip-path="url(#pclip1_1_1708)"><rect x=".5" width="22" height="16" rx="2" fill="#FFDA2C"/><path fill-rule="evenodd" clip-rule="evenodd" d="M.5 0h22v8H.5V0z" fill="#3A99FF"/></g></g><defs><clipPath id="pclip0_1_1708"><path fill="#fff" transform="translate(.5)" d="M0 0h22v16H0z"/></clipPath><clipPath id="pclip1_1_1708"><rect x=".5" width="22" height="16" rx="2" fill="#fff"/></clipPath></defs></svg><svg fill="none" viewBox="0 0 30 30" id="user" xmlns="http://www.w3.org/2000/svg"><path d="M15 18.75a7.5 7.5 0 100-15 7.5 7.5 0 000 15z" stroke="#181818" stroke-miterlimit="10"/><path d="M3.633 25.312a13.126 13.126 0 0122.734 0" stroke="#181818" stroke-linecap="round" stroke-linejoin="round"/></svg><svg fill="none" viewBox="0 0 28 28" id="vk" xmlns="http://www.w3.org/2000/svg"><g clip-path="url(#rclip0_113_809)" fill-rule="evenodd" clip-rule="evenodd"><path d="M1.968 1.968C0 3.936 0 7.104 0 13.44v1.12c0 6.336 0 9.504 1.968 11.472S7.104 28 13.44 28h1.12c6.336 0 9.504 0 11.472-1.968S28 20.896 28 14.56v-1.12c0-6.336 0-9.504-1.968-11.472S20.896 0 14.56 0h-1.12C7.104 0 3.936 0 1.968 1.968zm2.757 6.549c.152 7.28 3.792 11.655 10.173 11.655h.362v-4.165c2.345.233 4.118 1.948 4.83 4.165h3.313c-.91-3.314-3.301-5.145-4.795-5.845 1.494-.864 3.594-2.964 4.095-5.81h-3.01c-.653 2.31-2.59 4.41-4.433 4.608V8.517h-3.01v8.073c-1.867-.467-4.223-2.73-4.328-8.073H4.725z" fill="#226DFF"/><path d="M1.968 1.968C0 3.936 0 7.104 0 13.44v1.12c0 6.336 0 9.504 1.968 11.472S7.104 28 13.44 28h1.12c6.336 0 9.504 0 11.472-1.968S28 20.896 28 14.56v-1.12c0-6.336 0-9.504-1.968-11.472S20.896 0 14.56 0h-1.12C7.104 0 3.936 0 1.968 1.968zm2.757 6.549c.152 7.28 3.792 11.655 10.173 11.655h.362v-4.165c2.345.233 4.118 1.948 4.83 4.165h3.313c-.91-3.314-3.301-5.145-4.795-5.845 1.494-.864 3.594-2.964 4.095-5.81h-3.01c-.653 2.31-2.59 4.41-4.433 4.608V8.517h-3.01v8.073c-1.867-.467-4.223-2.73-4.328-8.073H4.725z" fill="#0F0F0F" fill-opacity=".2"/></g><defs><clipPath id="rclip0_113_809"><path fill="#fff" d="M0 0h28v28H0z"/></clipPath></defs></svg><svg fill="none" viewBox="0 0 2 58" id="way" xmlns="http://www.w3.org/2000/svg"><path fill-rule="evenodd" clip-rule="evenodd" d="M.5 3.625V0h1v3.625a.5.5 0 01-1 0zm.5 6.75a.5.5 0 01.5.5v7.25a.5.5 0 01-1 0v-7.25a.5.5 0 01.5-.5zm0 14.5a.5.5 0 01.5.5v7.25a.5.5 0 01-1 0v-7.25a.5.5 0 01.5-.5zm0 14.5a.5.5 0 01.5.5v7.25a.5.5 0 01-1 0v-7.25a.5.5 0 01.5-.5zm0 14.5a.5.5 0 01.5.5V58h-1v-3.625a.5.5 0 01.5-.5z" fill="#616161"/></svg></svg>