<?xml version="1.0" encoding="utf-8"?><svg viewBox="0 0 32 33" xmlns="http://www.w3.org/2000/svg" xmlns:xlink="http://www.w3.org/1999/xlink"><style>:root>svg{display:none}:root>svg:target{display:block}</style><svg fill="none" viewBox="0 0 32 33" id="buttonArrow" xmlns="http://www.w3.org/2000/svg"><path d="M8 24.5l16-16M11 8.5h13v13" stroke="#FCF7FF" stroke-width="2" stroke-linecap="round" stroke-linejoin="round"/></svg><svg fill="none" viewBox="0 0 22 16" id="eng" xmlns="http://www.w3.org/2000/svg"><g clip-path="url(#bclip0_1_1704)"><g clip-path="url(#bclip1_1_1704)"><rect width="22" height="16" rx="2" fill="#1A47B8"/><path fill-rule="evenodd" clip-rule="evenodd" d="M2.34 0H0v2.667L19.647 16H22v-2.667L2.34 0z" fill="#fff"/><path d="M.78 0L22 14.438V16h-.762L0 1.547V0h.78z" fill="#F93939"/><path fill-rule="evenodd" clip-rule="evenodd" d="M19.905 0H22v2.667S8.391 11.55 2.095 16H0v-2.667L19.905 0z" fill="#fff"/><path d="M22 0h-.71L0 14.45V16h.78L22 1.559V0z" fill="#F93939"/><path fill-rule="evenodd" clip-rule="evenodd" d="M8 0h6.018v4.935H22v6.127h-7.982V16H8v-4.938H0V4.935h8V0z" fill="#fff"/><path fill-rule="evenodd" clip-rule="evenodd" d="M9.263 0h3.474v6.154H22v3.692h-9.263V16H9.263V9.846H0V6.154h9.263V0z" fill="#F93939"/></g></g><defs><clipPath id="bclip0_1_1704"><path fill="#fff" d="M0 0h22v16H0z"/></clipPath><clipPath id="bclip1_1_1704"><rect width="22" height="16" rx="2" fill="#fff"/></clipPath></defs></svg><svg fill="none" viewBox="0 0 23 16" id="rus" xmlns="http://www.w3.org/2000/svg"><g clip-path="url(#cclip0_1_1700)"><g clip-path="url(#cclip1_1_1700)"><rect x=".5" width="22" height="16" rx="2" fill="#1A47B8"/><path fill-rule="evenodd" clip-rule="evenodd" d="M.5 10.667h22V16H.5v-5.333z" fill="#F93939"/><path fill-rule="evenodd" clip-rule="evenodd" d="M.5 0h22v5.333H.5V0z" fill="#fff"/></g></g><defs><clipPath id="cclip0_1_1700"><path fill="#fff" transform="translate(.5)" d="M0 0h22v16H0z"/></clipPath><clipPath id="cclip1_1_1700"><rect x=".5" width="22" height="16" rx="2" fill="#fff"/></clipPath></defs></svg><svg fill="none" viewBox="0 0 23 16" id="ua" xmlns="http://www.w3.org/2000/svg"><g clip-path="url(#dclip0_1_1708)"><g clip-path="url(#dclip1_1_1708)"><rect x=".5" width="22" height="16" rx="2" fill="#FFDA2C"/><path fill-rule="evenodd" clip-rule="evenodd" d="M.5 0h22v8H.5V0z" fill="#3A99FF"/></g></g><defs><clipPath id="dclip0_1_1708"><path fill="#fff" transform="translate(.5)" d="M0 0h22v16H0z"/></clipPath><clipPath id="dclip1_1_1708"><rect x=".5" width="22" height="16" rx="2" fill="#fff"/></clipPath></defs></svg></svg>