<svg width="236" height="60" viewBox="0 0 236 60" fill="none" xmlns="http://www.w3.org/2000/svg">
<g clip-path="url(#clip0_791_2989)">
<path d="M6.91366 15.665C7.38132 15.05 7.99721 14.2175 8.49044 13.6225C9.96755 11.9825 10.1592 11.7675 11.5034 10.555C11.9021 10.235 12.3749 9.85 12.8374 9.4875C9.42577 12.3125 8.99132 15.44 12.1219 17.3725C12.1168 17.3725 12.1168 17.3725 12.1168 17.3775C16.4944 19.9575 26.088 19.4 33.6575 16.095C40.9894 12.895 43.6958 8.3175 40.0771 5.5975C36.9005 5.015 33.1132 4.9475 29.1061 5.4725L28.6895 4.8L29.0345 3.685C31.3908 3.4775 33.6294 3.5275 35.5614 3.85C36.0291 3.9275 36.645 4.06 37.105 4.155C37.9943 4.3675 38.4773 4.495 39.0574 4.6775C39.6503 4.85 40.1563 5.0225 41.038 5.3425C41.9018 5.675 42.2749 5.825 42.9674 6.1625C43.743 6.50866 44.4966 6.9002 45.224 7.335C50.9893 10.8825 47.4039 17.355 37.2302 21.79C27.0847 26.21 14.1561 26.905 8.36266 23.4C8.3601 23.395 8.35244 23.39 8.3371 23.385H8.34732C5.18355 21.425 4.85132 18.58 6.91366 15.665ZM33.31 40.465L33.2282 36.48L30.3328 33.33C20.7673 35.45 11.3654 34.995 6.13677 31.9825C6.11888 31.9625 6.07544 31.9425 6.05755 31.9225C3.09821 30.14 2.36732 27.84 2.58966 25.34C1.8971 28.9975 1.84088 30.3175 1.94055 33.4475C2.06321 35.4075 3.22088 37.215 5.54899 38.64L5.56688 38.66C11.1405 42.05 22.753 42.785 33.31 40.465ZM45.385 45.0275C31.884 50.325 14.9867 50.6375 7.6471 45.735C8.43973 47.6299 9.51823 49.3979 10.8467 50.98C17.5831 55.48 33.0928 55.1925 45.4795 50.33C52.7297 47.4875 57.3041 43.705 58.5052 40.16L58.8426 39.0925C59.6424 36.3875 59.7932 34.135 59.921 32.13C59.7753 36.4825 54.5339 41.4325 45.385 45.0275ZM15.5821 55.23C16.0063 55.625 17.3403 57.2275 24.0998 58.9975C25.927 59.3925 30.527 60.66 39.0242 58.8175L39.0753 58.06L38.4032 57.03C30.5193 58.855 21.7614 58.245 15.5821 55.23ZM35.0912 23.7075L42.2698 29.03C42.2698 29.03 43.8057 30.1125 42.3567 30.8725C40.9128 31.625 37.2047 33.4675 37.2047 33.4675L33.5425 32.13L31.7051 32.93L34.9455 35.6825L34.9711 39.965L36.875 39.1375L38.1374 35.52C38.1374 35.52 42.0142 34.06 43.5527 33.51C45.0988 32.9725 44.8918 34.8125 44.8918 34.8125L44.1302 43.59L46.6602 42.49L50.8258 30.6475C50.8258 30.6475 53.0338 29.5975 54.5875 28.675C56.1388 27.7525 56.6703 26.2225 56.6703 26.2225C56.6703 26.2225 55.1574 25.585 53.4146 26.0975C51.6717 26.605 49.3998 27.51 49.3998 27.51L37.6135 22.6125L35.0912 23.7075ZM19.9035 6.8675L24.777 10.665L26.1084 10.47L23.4558 7.0625C23.4558 7.0625 22.8782 6.3575 23.6551 6.19C24.4371 6.02 26.4151 5.625 26.4151 5.625L27.9024 6.7875L28.9042 6.6425L27.7695 4.8775L28.3675 2.92L27.399 3.0575L26.2515 4.5475C26.2515 4.5475 24.2378 4.7325 23.4455 4.7975C22.6482 4.8575 22.9907 4.02 22.9907 4.02L24.5189 0L23.1798 0.1925L19.6531 5.215C19.6531 5.215 18.4775 5.425 17.6265 5.6625C16.773 5.8975 16.3232 6.5425 16.3232 6.5425C16.3232 6.5425 16.9493 7.0375 17.831 7.02C18.7203 7.0025 19.9035 6.8675 19.9035 6.8675ZM43.9897 55.6625L40.8361 54.05L40.1103 54.2975L41.9784 55.9325C41.9784 55.9325 42.3771 56.265 41.958 56.4425C41.5389 56.6175 40.4707 57.0475 40.4707 57.0475L39.589 56.6625L39.0651 56.8475L39.7985 57.6125L39.727 58.73L40.2739 58.545L40.6828 57.6375C40.6828 57.6375 41.7919 57.315 42.234 57.2C42.6735 57.0825 42.5739 57.5875 42.5739 57.5875L42.1573 60L42.8857 59.7525L44.3142 56.5625C44.3142 56.5625 44.9454 56.32 45.3978 56.0975C45.8501 55.875 46.029 55.465 46.029 55.465C46.029 55.465 45.6278 55.25 45.132 55.3575C44.6337 55.46 43.9897 55.6625 43.9897 55.6625Z" fill="#F7F7F7"/>
</g>
<path d="M72.4981 9.72001C72.4981 8.90401 72.3861 8.30401 72.1621 7.92001C71.9381 7.52001 71.4901 7.32001 70.8181 7.32001H70.5781V6.60001H73.4581C74.0341 6.60001 74.4741 6.69601 74.7781 6.88801C75.0821 7.08001 75.2981 7.40001 75.4261 7.84801C75.5541 8.28001 75.6181 8.90401 75.6181 9.72001V13.68H82.0981V6.60001H85.2181V19.32C85.2181 20.136 85.3301 20.744 85.5541 21.144C85.7781 21.528 86.2261 21.72 86.8981 21.72H87.1381V22.44H84.2581C83.6821 22.44 83.2421 22.352 82.9381 22.176C82.6341 21.984 82.4181 21.672 82.2901 21.24C82.1621 20.792 82.0981 20.152 82.0981 19.32V14.76H75.6181V22.44H72.4981V9.72001Z" fill="#F7F7F7"/>
<path d="M93.6886 22.68C92.5846 22.68 91.6166 22.424 90.7846 21.912C89.9526 21.4 89.3046 20.704 88.8406 19.824C88.3926 18.928 88.1686 17.92 88.1686 16.8C88.1686 15.552 88.3926 14.488 88.8406 13.608C89.3046 12.728 89.9366 12.064 90.7366 11.616C91.5366 11.152 92.4406 10.92 93.4486 10.92C94.4406 10.92 95.3366 11.12 96.1366 11.52C96.9366 11.92 97.5686 12.488 98.0326 13.224C98.4966 13.944 98.7286 14.776 98.7286 15.72C98.7286 16.024 98.7126 16.368 98.6806 16.752L98.6326 17.232H91.4086C91.4086 18.752 91.6406 19.864 92.1046 20.568C92.5686 21.256 93.2166 21.6 94.0486 21.6C94.8166 21.6 95.4566 21.432 95.9686 21.096C96.4966 20.744 97.0006 20.248 97.4806 19.608L98.2246 20.16C97.7606 20.88 97.1766 21.48 96.4726 21.96C95.7846 22.44 94.8566 22.68 93.6886 22.68ZM95.4886 16.152C95.4886 14.648 95.3126 13.584 94.9606 12.96C94.6086 12.32 94.1046 12 93.4486 12C92.8406 12 92.3446 12.328 91.9606 12.984C91.5926 13.624 91.4086 14.68 91.4086 16.152H95.4886Z" fill="#F7F7F7"/>
<path d="M104.652 22.68C102.684 22.68 101.204 22.04 100.212 20.76L100.932 20.16C101.7 21.12 102.7 21.6 103.932 21.6C104.7 21.6 105.308 21.424 105.756 21.072C106.22 20.72 106.452 20.176 106.452 19.44C106.452 18.656 106.236 18.08 105.804 17.712C105.388 17.344 104.644 17.16 103.572 17.16H102.372V16.08H103.572C104.516 16.08 105.172 15.928 105.54 15.624C105.908 15.304 106.092 14.776 106.092 14.04C106.092 13.368 105.884 12.864 105.468 12.528C105.052 12.176 104.54 12 103.932 12C103.212 12 102.604 12.248 102.108 12.744C101.612 13.224 101.34 13.856 101.292 14.64H100.572C100.572 13.808 100.604 13.192 100.668 12.792C100.732 12.376 100.9 12.032 101.172 11.76C101.46 11.472 101.9 11.264 102.492 11.136C103.084 10.992 103.764 10.92 104.532 10.92C106.02 10.92 107.188 11.184 108.036 11.712C108.9 12.224 109.332 13 109.332 14.04C109.332 14.744 109.068 15.328 108.54 15.792C108.028 16.256 107.332 16.552 106.452 16.68C107.444 16.808 108.228 17.12 108.804 17.616C109.396 18.112 109.692 18.72 109.692 19.44C109.692 20.544 109.252 21.36 108.372 21.888C107.492 22.416 106.252 22.68 104.652 22.68Z" fill="#F7F7F7"/>
<path d="M115.307 22.68C114.011 22.68 113.003 22.392 112.283 21.816C111.579 21.224 111.227 20.432 111.227 19.44C111.227 18.64 111.411 17.976 111.779 17.448C112.163 16.92 112.827 16.52 113.771 16.248C114.715 15.976 116.027 15.84 117.707 15.84H118.067C118.067 14.448 117.875 13.464 117.491 12.888C117.107 12.296 116.539 12 115.787 12C115.163 12 114.651 12.152 114.251 12.456C113.851 12.76 113.563 13.328 113.387 14.16H112.067C112.067 13.616 112.099 13.152 112.163 12.768C112.243 12.384 112.411 12.048 112.667 11.76C113.163 11.2 114.363 10.92 116.267 10.92C117.867 10.92 119.083 11.344 119.915 12.192C120.763 13.024 121.187 14.28 121.187 15.96V22.44H119.147L118.307 21.36H118.187C118.043 21.584 117.819 21.808 117.515 22.032C116.971 22.464 116.235 22.68 115.307 22.68ZM116.027 21.48C116.363 21.48 116.651 21.416 116.891 21.288C117.131 21.144 117.363 20.952 117.587 20.712C117.795 20.488 117.955 20.224 118.067 19.92V16.92H117.707C116.571 16.92 115.747 17.128 115.235 17.544C114.723 17.944 114.467 18.576 114.467 19.44C114.467 20.096 114.603 20.6 114.875 20.952C115.147 21.304 115.531 21.48 116.027 21.48Z" fill="#F7F7F7"/>
<path d="M129.037 22.68C127.341 22.68 125.997 22.16 125.005 21.12C124.013 20.064 123.517 18.584 123.517 16.68V15.96C123.517 14.008 123.685 12.464 124.021 11.328C124.373 10.176 124.845 9.34401 125.437 8.83201C126.045 8.30401 126.813 7.93601 127.741 7.72801L131.077 6.96001C131.813 6.78401 132.357 6.61601 132.709 6.45601C133.077 6.28001 133.293 6.04801 133.357 5.76001H134.077V7.68001C134.077 8.51201 133.597 9.03201 132.637 9.24001L128.701 10.128C127.661 10.384 126.813 10.912 126.157 11.712C125.501 12.496 125.141 13.592 125.077 15H125.197C125.597 13.992 126.141 13.224 126.829 12.696C127.517 12.152 128.413 11.88 129.517 11.88C131.037 11.88 132.253 12.336 133.165 13.248C134.093 14.144 134.557 15.488 134.557 17.28C134.557 19.088 134.069 20.44 133.093 21.336C132.133 22.232 130.781 22.68 129.037 22.68ZM129.037 21.6C129.645 21.6 130.173 21.272 130.621 20.616C131.085 19.96 131.317 18.848 131.317 17.28C131.317 16.24 131.197 15.4 130.957 14.76C130.733 14.104 130.445 13.64 130.093 13.368C129.757 13.096 129.405 12.96 129.037 12.96C128.669 12.96 128.309 13.096 127.957 13.368C127.621 13.64 127.333 14.104 127.093 14.76C126.869 15.4 126.757 16.24 126.757 17.28C126.757 18.848 126.981 19.96 127.429 20.616C127.893 21.272 128.429 21.6 129.037 21.6Z" fill="#F7F7F7"/>
<path d="M137.411 14.28C137.411 13.464 137.299 12.864 137.075 12.48C136.851 12.08 136.403 11.88 135.731 11.88H135.491V11.16H138.371C138.947 11.16 139.387 11.256 139.691 11.448C139.995 11.64 140.211 11.96 140.339 12.408C140.467 12.84 140.531 13.464 140.531 14.28V15.72H142.091C143.611 15.72 144.811 16.016 145.691 16.608C146.571 17.184 147.011 18.008 147.011 19.08C147.011 20.152 146.571 20.984 145.691 21.576C144.811 22.152 143.611 22.44 142.091 22.44H137.411V14.28ZM150.371 22.44C149.795 22.44 149.355 22.352 149.051 22.176C148.747 21.984 148.531 21.672 148.403 21.24C148.275 20.792 148.211 20.152 148.211 19.32V11.16H151.331V19.32C151.331 20.136 151.443 20.744 151.667 21.144C151.891 21.528 152.339 21.72 153.011 21.72H153.251V22.44H150.371ZM141.611 21.48C142.219 21.48 142.731 21.296 143.147 20.928C143.563 20.544 143.771 19.928 143.771 19.08C143.771 18.232 143.563 17.624 143.147 17.256C142.731 16.872 142.219 16.68 141.611 16.68C141.227 16.68 140.867 16.736 140.531 16.848V21.312C140.867 21.424 141.227 21.48 141.611 21.48Z" fill="#F7F7F7"/>
<path d="M155.01 14.28C155.01 13.464 154.898 12.864 154.674 12.48C154.45 12.08 154.002 11.88 153.33 11.88H153.21V11.16H159.642C161.13 11.16 162.306 11.408 163.17 11.904C164.05 12.4 164.49 13.112 164.49 14.04C164.49 14.744 164.226 15.312 163.698 15.744C163.17 16.16 162.418 16.432 161.442 16.56C162.514 16.704 163.37 17.016 164.01 17.496C164.65 17.96 164.97 18.568 164.97 19.32C164.97 21.4 163.194 22.44 159.642 22.44H155.01V14.28ZM158.97 15.96C159.61 15.96 160.146 15.792 160.578 15.456C161.026 15.104 161.25 14.632 161.25 14.04C161.25 13.416 161.042 12.944 160.626 12.624C160.226 12.288 159.754 12.12 159.21 12.12C158.826 12.12 158.466 12.176 158.13 12.288V15.96H158.97ZM159.21 21.48C159.962 21.48 160.57 21.296 161.034 20.928C161.498 20.544 161.73 20.008 161.73 19.32C161.73 18.568 161.482 18 160.986 17.616C160.506 17.232 159.834 17.04 158.97 17.04H158.13V21.312C158.466 21.424 158.826 21.48 159.21 21.48Z" fill="#F7F7F7"/>
<path d="M170.596 22.68C169.3 22.68 168.292 22.392 167.572 21.816C166.868 21.224 166.516 20.432 166.516 19.44C166.516 18.64 166.7 17.976 167.068 17.448C167.452 16.92 168.116 16.52 169.06 16.248C170.004 15.976 171.316 15.84 172.996 15.84H173.356C173.356 14.448 173.164 13.464 172.78 12.888C172.396 12.296 171.828 12 171.076 12C170.452 12 169.94 12.152 169.54 12.456C169.14 12.76 168.852 13.328 168.676 14.16H167.356C167.356 13.616 167.388 13.152 167.452 12.768C167.532 12.384 167.7 12.048 167.956 11.76C168.452 11.2 169.652 10.92 171.556 10.92C173.156 10.92 174.372 11.344 175.204 12.192C176.052 13.024 176.476 14.28 176.476 15.96V22.44H174.436L173.596 21.36H173.476C173.332 21.584 173.108 21.808 172.804 22.032C172.26 22.464 171.524 22.68 170.596 22.68ZM171.316 21.48C171.652 21.48 171.94 21.416 172.18 21.288C172.42 21.144 172.652 20.952 172.876 20.712C173.084 20.488 173.244 20.224 173.356 19.92V16.92H172.996C171.86 16.92 171.036 17.128 170.524 17.544C170.012 17.944 169.756 18.576 169.756 19.44C169.756 20.096 169.892 20.6 170.164 20.952C170.436 21.304 170.82 21.48 171.316 21.48Z" fill="#F7F7F7"/>
<path d="M184.134 22.68C183.03 22.68 182.062 22.424 181.23 21.912C180.398 21.4 179.75 20.704 179.286 19.824C178.838 18.928 178.614 17.92 178.614 16.8C178.614 15.552 178.838 14.488 179.286 13.608C179.75 12.728 180.382 12.064 181.182 11.616C181.982 11.152 182.886 10.92 183.894 10.92C184.886 10.92 185.782 11.12 186.582 11.52C187.382 11.92 188.014 12.488 188.478 13.224C188.942 13.944 189.174 14.776 189.174 15.72C189.174 16.024 189.158 16.368 189.126 16.752L189.078 17.232H181.854C181.854 18.752 182.086 19.864 182.55 20.568C183.014 21.256 183.662 21.6 184.494 21.6C185.262 21.6 185.902 21.432 186.414 21.096C186.942 20.744 187.446 20.248 187.926 19.608L188.67 20.16C188.206 20.88 187.622 21.48 186.918 21.96C186.23 22.44 185.302 22.68 184.134 22.68ZM185.934 16.152C185.934 14.648 185.758 13.584 185.406 12.96C185.054 12.32 184.55 12 183.894 12C183.286 12 182.79 12.328 182.406 12.984C182.038 13.624 181.854 14.68 181.854 16.152H185.934Z" fill="#F7F7F7"/>
<path d="M205.873 23.04C204.161 23.04 202.921 22.664 202.153 21.912C201.385 21.144 201.001 19.96 201.001 18.36V14.184L197.545 22.44H196.753L192.577 13.944V22.416H191.377V11.16H194.305L197.857 18.384L200.977 10.92H204.121V18.36C204.121 19.72 204.249 20.712 204.505 21.336C204.761 21.96 205.217 22.328 205.873 22.44V23.04Z" fill="#F7F7F7"/>
<path d="M207.817 14.28C207.817 13.464 207.705 12.864 207.481 12.48C207.257 12.08 206.809 11.88 206.137 11.88H205.897V11.16H208.777C209.353 11.16 209.793 11.256 210.097 11.448C210.401 11.64 210.617 11.96 210.745 12.408C210.873 12.84 210.937 13.464 210.937 14.28V15.72H212.497C214.017 15.72 215.217 16.016 216.097 16.608C216.977 17.184 217.417 18.008 217.417 19.08C217.417 20.152 216.977 20.984 216.097 21.576C215.217 22.152 214.017 22.44 212.497 22.44H207.817V14.28ZM220.777 22.44C220.201 22.44 219.761 22.352 219.457 22.176C219.153 21.984 218.937 21.672 218.809 21.24C218.681 20.792 218.617 20.152 218.617 19.32V11.16H221.737V19.32C221.737 20.136 221.849 20.744 222.073 21.144C222.297 21.528 222.745 21.72 223.417 21.72H223.657V22.44H220.777ZM212.017 21.48C212.625 21.48 213.137 21.296 213.553 20.928C213.969 20.544 214.177 19.928 214.177 19.08C214.177 18.232 213.969 17.624 213.553 17.256C213.137 16.872 212.625 16.68 212.017 16.68C211.633 16.68 211.273 16.736 210.937 16.848V21.312C211.273 21.424 211.633 21.48 212.017 21.48Z" fill="#F7F7F7"/>
<path d="M230.048 22.68C228.944 22.68 227.976 22.424 227.144 21.912C226.312 21.4 225.664 20.704 225.2 19.824C224.752 18.928 224.528 17.92 224.528 16.8C224.528 15.552 224.752 14.488 225.2 13.608C225.664 12.728 226.296 12.064 227.096 11.616C227.896 11.152 228.8 10.92 229.808 10.92C230.8 10.92 231.696 11.12 232.496 11.52C233.296 11.92 233.928 12.488 234.392 13.224C234.856 13.944 235.088 14.776 235.088 15.72C235.088 16.024 235.072 16.368 235.04 16.752L234.992 17.232H227.768C227.768 18.752 228 19.864 228.464 20.568C228.928 21.256 229.576 21.6 230.408 21.6C231.176 21.6 231.816 21.432 232.328 21.096C232.856 20.744 233.36 20.248 233.84 19.608L234.584 20.16C234.12 20.88 233.536 21.48 232.832 21.96C232.144 22.44 231.216 22.68 230.048 22.68ZM231.848 16.152C231.848 14.648 231.672 13.584 231.32 12.96C230.968 12.32 230.464 12 229.808 12C229.2 12 228.704 12.328 228.32 12.984C227.952 13.624 227.768 14.68 227.768 16.152H231.848Z" fill="#F7F7F7"/>
<path d="M72.4981 36.72C72.4981 35.904 72.3861 35.304 72.1621 34.92C71.9381 34.52 71.4901 34.32 70.8181 34.32H70.5781V33.6H84.9781V49.44H81.8581V34.68H75.6181V49.44H72.4981V36.72Z" fill="#F7F7F7"/>
<path d="M88.973 53.4C89.853 53.4 90.565 53.232 91.109 52.896C91.653 52.56 92.093 51.952 92.429 51.072L92.933 49.776L88.613 40.32C88.085 39.168 87.341 38.528 86.381 38.4V37.92H88.493C89.197 37.92 89.821 38.096 90.365 38.448C90.909 38.784 91.325 39.248 91.613 39.84L94.373 45.888L97.301 38.16H98.573L93.725 51C93.277 52.248 92.757 53.096 92.165 53.544C91.573 54.008 90.829 54.24 89.933 54.24H88.973V53.4Z" fill="#F7F7F7"/>
<path d="M103.224 39.24H102.504C101.752 39.24 101.184 39.44 100.8 39.84C100.416 40.24 100.224 40.88 100.224 41.76H99.5039V40.08C99.5039 38.8 100.104 38.16 101.304 38.16H109.968V39.24H106.344V49.44H103.224V39.24Z" fill="#F7F7F7"/>
<path d="M116.259 49.68C115.155 49.68 114.187 49.424 113.355 48.912C112.523 48.4 111.875 47.704 111.411 46.824C110.963 45.928 110.739 44.92 110.739 43.8C110.739 42.552 110.963 41.488 111.411 40.608C111.875 39.728 112.507 39.064 113.307 38.616C114.107 38.152 115.011 37.92 116.019 37.92C117.011 37.92 117.907 38.12 118.707 38.52C119.507 38.92 120.139 39.488 120.603 40.224C121.067 40.944 121.299 41.776 121.299 42.72C121.299 43.024 121.283 43.368 121.251 43.752L121.203 44.232H113.979C113.979 45.752 114.211 46.864 114.675 47.568C115.139 48.256 115.787 48.6 116.619 48.6C117.387 48.6 118.027 48.432 118.539 48.096C119.067 47.744 119.571 47.248 120.051 46.608L120.795 47.16C120.331 47.88 119.747 48.48 119.043 48.96C118.355 49.44 117.427 49.68 116.259 49.68ZM118.059 43.152C118.059 41.648 117.883 40.584 117.531 39.96C117.179 39.32 116.675 39 116.019 39C115.411 39 114.915 39.328 114.531 39.984C114.163 40.624 113.979 41.68 113.979 43.152H118.059Z" fill="#F7F7F7"/>
<path d="M123.958 41.28C123.958 40.464 123.846 39.864 123.622 39.48C123.398 39.08 122.95 38.88 122.278 38.88H122.038V38.16H124.918C125.494 38.16 125.934 38.256 126.238 38.448C126.542 38.64 126.758 38.96 126.886 39.408C127.014 39.84 127.078 40.464 127.078 41.28V48.36H129.838V38.16H132.958V48.36H135.718V38.16H138.838V49.44H123.958V41.28Z" fill="#F7F7F7"/>
<path d="M146.681 49.68C145.577 49.68 144.609 49.424 143.777 48.912C142.945 48.4 142.297 47.704 141.833 46.824C141.385 45.928 141.161 44.92 141.161 43.8C141.161 42.552 141.385 41.488 141.833 40.608C142.297 39.728 142.929 39.064 143.729 38.616C144.529 38.152 145.433 37.92 146.441 37.92C147.433 37.92 148.329 38.12 149.129 38.52C149.929 38.92 150.561 39.488 151.025 40.224C151.489 40.944 151.721 41.776 151.721 42.72C151.721 43.024 151.705 43.368 151.673 43.752L151.625 44.232H144.401C144.401 45.752 144.633 46.864 145.097 47.568C145.561 48.256 146.209 48.6 147.041 48.6C147.809 48.6 148.449 48.432 148.961 48.096C149.489 47.744 149.993 47.248 150.473 46.608L151.217 47.16C150.753 47.88 150.169 48.48 149.465 48.96C148.777 49.44 147.849 49.68 146.681 49.68ZM148.481 43.152C148.481 41.648 148.305 40.584 147.953 39.96C147.601 39.32 147.097 39 146.441 39C145.833 39 145.337 39.328 144.953 39.984C144.585 40.624 144.401 41.68 144.401 43.152H148.481Z" fill="#F7F7F7"/>
<path d="M159.108 49.68C157.876 49.68 156.828 49.416 155.964 48.888C155.1 48.36 154.444 47.656 153.996 46.776C153.564 45.88 153.348 44.888 153.348 43.8C153.348 42.712 153.564 41.728 153.996 40.848C154.444 39.952 155.1 39.24 155.964 38.712C156.828 38.184 157.876 37.92 159.108 37.92C161.028 37.92 162.268 38.2 162.828 38.76C163.1 39.032 163.268 39.392 163.332 39.84C163.396 40.288 163.428 41.048 163.428 42.12H162.708C162.644 41.112 162.332 40.344 161.772 39.816C161.212 39.272 160.444 39 159.468 39C158.588 39 157.884 39.408 157.356 40.224C156.844 41.024 156.588 42.216 156.588 43.8C156.588 47 157.588 48.6 159.588 48.6C160.356 48.6 160.996 48.432 161.508 48.096C162.036 47.744 162.54 47.248 163.02 46.608L163.764 47.16C163.3 47.88 162.716 48.48 162.012 48.96C161.308 49.44 160.34 49.68 159.108 49.68Z" fill="#F7F7F7"/>
<path d="M168.638 39.24H167.918C167.166 39.24 166.598 39.44 166.214 39.84C165.83 40.24 165.638 40.88 165.638 41.76H164.918V40.08C164.918 38.8 165.518 38.16 166.718 38.16H175.382V39.24H171.758V49.44H168.638V39.24Z" fill="#F7F7F7"/>
<path d="M177.369 41.28C177.369 40.464 177.257 39.864 177.033 39.48C176.809 39.08 176.361 38.88 175.689 38.88H175.569V38.16H182.001C183.489 38.16 184.665 38.408 185.529 38.904C186.409 39.4 186.849 40.112 186.849 41.04C186.849 41.744 186.585 42.312 186.057 42.744C185.529 43.16 184.777 43.432 183.801 43.56C184.873 43.704 185.729 44.016 186.369 44.496C187.009 44.96 187.329 45.568 187.329 46.32C187.329 48.4 185.553 49.44 182.001 49.44H177.369V41.28ZM181.329 42.96C181.969 42.96 182.505 42.792 182.937 42.456C183.385 42.104 183.609 41.632 183.609 41.04C183.609 40.416 183.401 39.944 182.985 39.624C182.585 39.288 182.113 39.12 181.569 39.12C181.185 39.12 180.825 39.176 180.489 39.288V42.96H181.329ZM181.569 48.48C182.321 48.48 182.929 48.296 183.393 47.928C183.857 47.544 184.089 47.008 184.089 46.32C184.089 45.568 183.841 45 183.345 44.616C182.865 44.232 182.193 44.04 181.329 44.04H180.489V48.312C180.825 48.424 181.185 48.48 181.569 48.48Z" fill="#F7F7F7"/>
<path d="M190.075 41.28C190.075 40.464 189.963 39.864 189.739 39.48C189.515 39.08 189.067 38.88 188.395 38.88H188.155V38.16H191.035C191.611 38.16 192.051 38.256 192.355 38.448C192.659 38.64 192.875 38.96 193.003 39.408C193.131 39.84 193.195 40.464 193.195 41.28V46.44L197.515 38.16H200.395V49.44H197.275V41.16L192.955 49.44H190.075V41.28Z" fill="#F7F7F7"/>
<path d="M203.763 49.8C203.203 49.8 202.683 49.72 202.203 49.56V48.936C202.939 48.84 203.619 48.248 204.243 47.16L205.683 44.664C204.835 44.536 204.163 44.2 203.667 43.656C203.171 43.096 202.923 42.424 202.923 41.64C202.923 40.44 203.387 39.56 204.315 39C205.259 38.44 206.555 38.16 208.203 38.16H214.443V38.88H214.323C213.651 38.88 213.203 39.08 212.979 39.48C212.755 39.864 212.643 40.464 212.643 41.28V49.44H209.523V44.784H208.467L207.027 47.64C206.659 48.392 206.227 48.944 205.731 49.296C205.251 49.632 204.595 49.8 203.763 49.8ZM208.443 43.8C208.731 43.8 208.979 43.776 209.187 43.728C209.395 43.664 209.507 43.632 209.523 43.632V39.288C209.507 39.288 209.395 39.264 209.187 39.216C208.979 39.152 208.731 39.12 208.443 39.12C207.771 39.12 207.219 39.304 206.787 39.672C206.371 40.024 206.163 40.6 206.163 41.4C206.163 42.2 206.379 42.8 206.811 43.2C207.243 43.6 207.787 43.8 208.443 43.8Z" fill="#F7F7F7"/>
<defs>
<clipPath id="clip0_791_2989">
<rect width="61.3333" height="60" fill="white" transform="translate(0.245117)"/>
</clipPath>
</defs>
</svg>
