<svg width="226" height="54" viewBox="0 0 226 54" fill="none" xmlns="http://www.w3.org/2000/svg">
<mask id="path-1-outside-1_802_2022" maskUnits="userSpaceOnUse" x="0" y="0" width="226" height="54" fill="black">
<rect fill="white" width="226" height="54"/>
<path d="M40.884 3.548C41.5427 4.20666 41.872 5.056 41.872 6.096C41.872 6.96267 41.6813 7.84667 41.3 8.748L29.028 39.948L28.456 40.208L21.592 18.42L13.116 39.948L12.544 40.208L1 3.548H5.42L14.728 34.332L21.332 17.588L16.912 3.548H21.332L30.64 34.332L40.676 8.748C41.0573 7.88133 41.248 6.98 41.248 6.044C41.248 5.108 40.988 4.38 40.468 3.86L40.884 3.548Z"/>
<path d="M50.8006 39.948C49.3792 39.948 48.2872 39.636 47.5246 39.012C46.7966 38.388 46.4152 37.764 46.3806 37.14L46.3286 36.256V13.948H49.9686V36.256C49.9686 37.2613 50.1592 38.0413 50.5406 38.596C50.9566 39.116 51.3552 39.3933 51.7366 39.428L52.3606 39.532H53.9726V39.948H50.8006ZM46.6406 8.124C46.2246 7.708 46.0166 7.188 46.0166 6.564C46.0166 5.94 46.2246 5.42 46.6406 5.004C47.0566 4.55333 47.5766 4.328 48.2006 4.328C48.8246 4.328 49.3446 4.55333 49.7606 5.004C50.2112 5.42 50.4366 5.94 50.4366 6.564C50.4366 7.188 50.2112 7.708 49.7606 8.124C49.3446 8.54 48.8246 8.748 48.2006 8.748C47.5766 8.748 47.0566 8.54 46.6406 8.124Z"/>
<path d="M78.7055 39.948C77.2841 39.948 76.1921 39.636 75.4295 39.012C74.7015 38.388 74.3201 37.764 74.2855 37.14L74.2335 36.256V19.928C74.2335 17.1893 73.5228 15.4387 72.1015 14.676C71.3735 14.3293 70.4721 14.156 69.3975 14.156C67.1788 14.156 65.1855 15.04 63.4175 16.808C61.6495 18.5413 60.7655 20.1013 60.7655 21.488V39.948H57.1255V13.948H60.7655V19.876C61.3548 18.3853 62.4468 16.9987 64.0415 15.716C65.6361 14.3987 67.3868 13.74 69.2935 13.74C71.2001 13.74 72.7428 13.9307 73.9215 14.312C75.1348 14.6587 76.0188 15.1613 76.5735 15.82C77.4401 16.8947 77.8735 18.2813 77.8735 19.98V36.256C77.8735 37.2613 78.0641 38.0413 78.4455 38.596C78.8615 39.116 79.2775 39.3933 79.6935 39.428L80.2655 39.532H81.8775V39.948H78.7055Z"/>
<path d="M87.5247 27.26C87.5247 31.5587 88.2701 34.7133 89.7607 36.724C91.2861 38.7347 93.2794 39.74 95.7408 39.74C99.2074 39.74 102.293 39.22 104.997 38.18L105.153 38.544C102.379 39.6187 99.2421 40.156 95.7408 40.156C92.2741 40.156 89.4487 39.116 87.2647 37.036C85.0807 34.956 83.9887 31.7493 83.9887 27.416C83.9887 23.0827 85.1328 19.72 87.4208 17.328C89.7088 14.936 92.6208 13.74 96.1568 13.74C98.9994 13.74 101.391 14.5893 103.333 16.288C105.274 17.9867 106.245 20.5 106.245 23.828C106.245 24.0013 106.245 24.1747 106.245 24.348H87.6807C87.5767 25.284 87.5247 26.2547 87.5247 27.26ZM102.709 23.932C102.674 20.604 102.033 18.1427 100.785 16.548C99.5368 14.9533 97.9248 14.156 95.9488 14.156C93.9728 14.156 92.2048 15.0227 90.6448 16.756C89.1194 18.4893 88.1488 20.8813 87.7327 23.932H102.709Z"/>
<path d="M140.661 15.768C140.106 15.3173 139.205 14.936 137.957 14.624C136.744 14.312 135.825 14.156 135.201 14.156C134.577 14.156 134.213 14.156 134.109 14.156C132.237 14.1907 130.885 14.676 130.053 15.612C129.221 16.5133 128.805 17.536 128.805 18.68C128.805 19.824 129.169 20.7947 129.897 21.592C130.625 22.3547 131.526 22.9613 132.601 23.412C133.71 23.828 134.889 24.3133 136.137 24.868C137.42 25.4227 138.598 25.9947 139.673 26.584C140.782 27.1387 141.701 27.9707 142.429 29.08C143.157 30.1547 143.521 31.5067 143.521 33.136C143.521 34.7653 142.949 36.152 141.805 37.296C140.661 38.44 139.378 39.2027 137.957 39.584C136.57 39.9653 135.062 40.156 133.433 40.156C129.897 40.156 127.245 39.376 125.477 37.816L125.789 37.504C126.482 38.1627 127.505 38.7 128.857 39.116C130.244 39.532 131.578 39.74 132.861 39.74C134.906 39.74 136.588 39.1853 137.905 38.076C139.257 36.932 139.933 35.528 139.933 33.864C139.933 32.1653 139.43 30.8133 138.425 29.808C137.42 28.768 136.189 27.9707 134.733 27.416C133.312 26.8267 131.873 26.2547 130.417 25.7C128.961 25.1107 127.73 24.3133 126.725 23.308C125.72 22.268 125.217 21.072 125.217 19.72C125.217 18.368 125.529 17.276 126.153 16.444C126.777 15.5773 127.609 14.9707 128.649 14.624C130.417 14.0347 132.185 13.74 133.953 13.74C136.934 13.74 139.257 14.2947 140.921 15.404L140.661 15.768Z"/>
<path d="M168.239 39.948C166.818 39.948 165.726 39.636 164.963 39.012C164.235 38.388 163.854 37.764 163.819 37.14L163.767 36.256V19.928C163.767 17.1893 163.039 15.4387 161.583 14.676C160.89 14.3293 160.006 14.156 158.931 14.156C156.782 14.156 154.84 15.04 153.107 16.808C151.408 18.5413 150.559 20.1013 150.559 21.488V39.948H146.919V1H150.559V19.876C151.114 18.3853 152.171 16.9987 153.731 15.716C155.291 14.3987 157.042 13.74 158.983 13.74C162.346 13.74 164.582 14.3293 165.691 15.508C166.835 16.652 167.407 18.1427 167.407 19.98V36.256C167.407 37.2613 167.598 38.0413 167.979 38.596C168.395 39.116 168.794 39.3933 169.175 39.428L169.799 39.532H171.411V39.948H168.239Z"/>
<path d="M186.043 40.156C182.403 40.156 179.439 39.116 177.151 37.036C174.863 34.956 173.719 31.7493 173.719 27.416C173.719 23.0827 174.898 19.72 177.255 17.328C179.647 14.936 182.663 13.74 186.303 13.74C189.978 13.74 192.959 14.78 195.247 16.86C197.535 18.94 198.679 22.1467 198.679 26.48C198.679 30.8133 197.483 34.176 195.091 36.568C192.734 38.96 189.718 40.156 186.043 40.156ZM186.407 14.156C183.773 14.156 181.589 15.3347 179.855 17.692C178.122 20.0147 177.255 23.2733 177.255 27.468C177.255 31.628 178.053 34.7133 179.647 36.724C181.242 38.7347 183.357 39.74 185.991 39.74C188.626 39.74 190.81 38.5787 192.543 36.256C194.277 33.8987 195.143 30.64 195.143 26.48C195.143 22.2853 194.346 19.1827 192.751 17.172C191.157 15.1613 189.042 14.156 186.407 14.156Z"/>
<path d="M202.321 13.948H205.961V20.396C206.551 18.8013 207.643 17.2933 209.237 15.872C210.832 14.4507 212.635 13.74 214.645 13.74C221.683 13.74 225.201 17.8653 225.201 26.116C225.201 35.476 220.66 40.156 211.577 40.156C209.948 40.156 208.076 39.7747 205.961 39.012V52.948H202.321V13.948ZM214.593 14.156C212.444 14.156 210.503 15.092 208.769 16.964C207.036 18.8013 206.1 20.4653 205.961 21.956V38.544C208.076 39.3413 209.931 39.74 211.525 39.74C218.216 39.74 221.561 35.1813 221.561 26.064C221.561 18.1253 219.239 14.156 214.593 14.156Z"/>
</mask>
<path d="M40.884 3.548C41.5427 4.20666 41.872 5.056 41.872 6.096C41.872 6.96267 41.6813 7.84667 41.3 8.748L29.028 39.948L28.456 40.208L21.592 18.42L13.116 39.948L12.544 40.208L1 3.548H5.42L14.728 34.332L21.332 17.588L16.912 3.548H21.332L30.64 34.332L40.676 8.748C41.0573 7.88133 41.248 6.98 41.248 6.044C41.248 5.108 40.988 4.38 40.468 3.86L40.884 3.548Z" fill="#FCF7FF"/>
<path d="M50.8006 39.948C49.3792 39.948 48.2872 39.636 47.5246 39.012C46.7966 38.388 46.4152 37.764 46.3806 37.14L46.3286 36.256V13.948H49.9686V36.256C49.9686 37.2613 50.1592 38.0413 50.5406 38.596C50.9566 39.116 51.3552 39.3933 51.7366 39.428L52.3606 39.532H53.9726V39.948H50.8006ZM46.6406 8.124C46.2246 7.708 46.0166 7.188 46.0166 6.564C46.0166 5.94 46.2246 5.42 46.6406 5.004C47.0566 4.55333 47.5766 4.328 48.2006 4.328C48.8246 4.328 49.3446 4.55333 49.7606 5.004C50.2112 5.42 50.4366 5.94 50.4366 6.564C50.4366 7.188 50.2112 7.708 49.7606 8.124C49.3446 8.54 48.8246 8.748 48.2006 8.748C47.5766 8.748 47.0566 8.54 46.6406 8.124Z" fill="#FCF7FF"/>
<path d="M78.7055 39.948C77.2841 39.948 76.1921 39.636 75.4295 39.012C74.7015 38.388 74.3201 37.764 74.2855 37.14L74.2335 36.256V19.928C74.2335 17.1893 73.5228 15.4387 72.1015 14.676C71.3735 14.3293 70.4721 14.156 69.3975 14.156C67.1788 14.156 65.1855 15.04 63.4175 16.808C61.6495 18.5413 60.7655 20.1013 60.7655 21.488V39.948H57.1255V13.948H60.7655V19.876C61.3548 18.3853 62.4468 16.9987 64.0415 15.716C65.6361 14.3987 67.3868 13.74 69.2935 13.74C71.2001 13.74 72.7428 13.9307 73.9215 14.312C75.1348 14.6587 76.0188 15.1613 76.5735 15.82C77.4401 16.8947 77.8735 18.2813 77.8735 19.98V36.256C77.8735 37.2613 78.0641 38.0413 78.4455 38.596C78.8615 39.116 79.2775 39.3933 79.6935 39.428L80.2655 39.532H81.8775V39.948H78.7055Z" fill="#FCF7FF"/>
<path d="M87.5247 27.26C87.5247 31.5587 88.2701 34.7133 89.7607 36.724C91.2861 38.7347 93.2794 39.74 95.7408 39.74C99.2074 39.74 102.293 39.22 104.997 38.18L105.153 38.544C102.379 39.6187 99.2421 40.156 95.7408 40.156C92.2741 40.156 89.4487 39.116 87.2647 37.036C85.0807 34.956 83.9887 31.7493 83.9887 27.416C83.9887 23.0827 85.1328 19.72 87.4208 17.328C89.7088 14.936 92.6208 13.74 96.1568 13.74C98.9994 13.74 101.391 14.5893 103.333 16.288C105.274 17.9867 106.245 20.5 106.245 23.828C106.245 24.0013 106.245 24.1747 106.245 24.348H87.6807C87.5767 25.284 87.5247 26.2547 87.5247 27.26ZM102.709 23.932C102.674 20.604 102.033 18.1427 100.785 16.548C99.5368 14.9533 97.9248 14.156 95.9488 14.156C93.9728 14.156 92.2048 15.0227 90.6448 16.756C89.1194 18.4893 88.1488 20.8813 87.7327 23.932H102.709Z" fill="#FCF7FF"/>
<path d="M140.661 15.768C140.106 15.3173 139.205 14.936 137.957 14.624C136.744 14.312 135.825 14.156 135.201 14.156C134.577 14.156 134.213 14.156 134.109 14.156C132.237 14.1907 130.885 14.676 130.053 15.612C129.221 16.5133 128.805 17.536 128.805 18.68C128.805 19.824 129.169 20.7947 129.897 21.592C130.625 22.3547 131.526 22.9613 132.601 23.412C133.71 23.828 134.889 24.3133 136.137 24.868C137.42 25.4227 138.598 25.9947 139.673 26.584C140.782 27.1387 141.701 27.9707 142.429 29.08C143.157 30.1547 143.521 31.5067 143.521 33.136C143.521 34.7653 142.949 36.152 141.805 37.296C140.661 38.44 139.378 39.2027 137.957 39.584C136.57 39.9653 135.062 40.156 133.433 40.156C129.897 40.156 127.245 39.376 125.477 37.816L125.789 37.504C126.482 38.1627 127.505 38.7 128.857 39.116C130.244 39.532 131.578 39.74 132.861 39.74C134.906 39.74 136.588 39.1853 137.905 38.076C139.257 36.932 139.933 35.528 139.933 33.864C139.933 32.1653 139.43 30.8133 138.425 29.808C137.42 28.768 136.189 27.9707 134.733 27.416C133.312 26.8267 131.873 26.2547 130.417 25.7C128.961 25.1107 127.73 24.3133 126.725 23.308C125.72 22.268 125.217 21.072 125.217 19.72C125.217 18.368 125.529 17.276 126.153 16.444C126.777 15.5773 127.609 14.9707 128.649 14.624C130.417 14.0347 132.185 13.74 133.953 13.74C136.934 13.74 139.257 14.2947 140.921 15.404L140.661 15.768Z" fill="#FCF7FF"/>
<path d="M168.239 39.948C166.818 39.948 165.726 39.636 164.963 39.012C164.235 38.388 163.854 37.764 163.819 37.14L163.767 36.256V19.928C163.767 17.1893 163.039 15.4387 161.583 14.676C160.89 14.3293 160.006 14.156 158.931 14.156C156.782 14.156 154.84 15.04 153.107 16.808C151.408 18.5413 150.559 20.1013 150.559 21.488V39.948H146.919V1H150.559V19.876C151.114 18.3853 152.171 16.9987 153.731 15.716C155.291 14.3987 157.042 13.74 158.983 13.74C162.346 13.74 164.582 14.3293 165.691 15.508C166.835 16.652 167.407 18.1427 167.407 19.98V36.256C167.407 37.2613 167.598 38.0413 167.979 38.596C168.395 39.116 168.794 39.3933 169.175 39.428L169.799 39.532H171.411V39.948H168.239Z" fill="#FCF7FF"/>
<path d="M186.043 40.156C182.403 40.156 179.439 39.116 177.151 37.036C174.863 34.956 173.719 31.7493 173.719 27.416C173.719 23.0827 174.898 19.72 177.255 17.328C179.647 14.936 182.663 13.74 186.303 13.74C189.978 13.74 192.959 14.78 195.247 16.86C197.535 18.94 198.679 22.1467 198.679 26.48C198.679 30.8133 197.483 34.176 195.091 36.568C192.734 38.96 189.718 40.156 186.043 40.156ZM186.407 14.156C183.773 14.156 181.589 15.3347 179.855 17.692C178.122 20.0147 177.255 23.2733 177.255 27.468C177.255 31.628 178.053 34.7133 179.647 36.724C181.242 38.7347 183.357 39.74 185.991 39.74C188.626 39.74 190.81 38.5787 192.543 36.256C194.277 33.8987 195.143 30.64 195.143 26.48C195.143 22.2853 194.346 19.1827 192.751 17.172C191.157 15.1613 189.042 14.156 186.407 14.156Z" fill="#FCF7FF"/>
<path d="M202.321 13.948H205.961V20.396C206.551 18.8013 207.643 17.2933 209.237 15.872C210.832 14.4507 212.635 13.74 214.645 13.74C221.683 13.74 225.201 17.8653 225.201 26.116C225.201 35.476 220.66 40.156 211.577 40.156C209.948 40.156 208.076 39.7747 205.961 39.012V52.948H202.321V13.948ZM214.593 14.156C212.444 14.156 210.503 15.092 208.769 16.964C207.036 18.8013 206.1 20.4653 205.961 21.956V38.544C208.076 39.3413 209.931 39.74 211.525 39.74C218.216 39.74 221.561 35.1813 221.561 26.064C221.561 18.1253 219.239 14.156 214.593 14.156Z" fill="#FCF7FF"/>
<path d="M40.884 3.548C41.5427 4.20666 41.872 5.056 41.872 6.096C41.872 6.96267 41.6813 7.84667 41.3 8.748L29.028 39.948L28.456 40.208L21.592 18.42L13.116 39.948L12.544 40.208L1 3.548H5.42L14.728 34.332L21.332 17.588L16.912 3.548H21.332L30.64 34.332L40.676 8.748C41.0573 7.88133 41.248 6.98 41.248 6.044C41.248 5.108 40.988 4.38 40.468 3.86L40.884 3.548Z" stroke="#FCF7FF" mask="url(#path-1-outside-1_802_2022)"/>
<path d="M50.8006 39.948C49.3792 39.948 48.2872 39.636 47.5246 39.012C46.7966 38.388 46.4152 37.764 46.3806 37.14L46.3286 36.256V13.948H49.9686V36.256C49.9686 37.2613 50.1592 38.0413 50.5406 38.596C50.9566 39.116 51.3552 39.3933 51.7366 39.428L52.3606 39.532H53.9726V39.948H50.8006ZM46.6406 8.124C46.2246 7.708 46.0166 7.188 46.0166 6.564C46.0166 5.94 46.2246 5.42 46.6406 5.004C47.0566 4.55333 47.5766 4.328 48.2006 4.328C48.8246 4.328 49.3446 4.55333 49.7606 5.004C50.2112 5.42 50.4366 5.94 50.4366 6.564C50.4366 7.188 50.2112 7.708 49.7606 8.124C49.3446 8.54 48.8246 8.748 48.2006 8.748C47.5766 8.748 47.0566 8.54 46.6406 8.124Z" stroke="#FCF7FF" mask="url(#path-1-outside-1_802_2022)"/>
<path d="M78.7055 39.948C77.2841 39.948 76.1921 39.636 75.4295 39.012C74.7015 38.388 74.3201 37.764 74.2855 37.14L74.2335 36.256V19.928C74.2335 17.1893 73.5228 15.4387 72.1015 14.676C71.3735 14.3293 70.4721 14.156 69.3975 14.156C67.1788 14.156 65.1855 15.04 63.4175 16.808C61.6495 18.5413 60.7655 20.1013 60.7655 21.488V39.948H57.1255V13.948H60.7655V19.876C61.3548 18.3853 62.4468 16.9987 64.0415 15.716C65.6361 14.3987 67.3868 13.74 69.2935 13.74C71.2001 13.74 72.7428 13.9307 73.9215 14.312C75.1348 14.6587 76.0188 15.1613 76.5735 15.82C77.4401 16.8947 77.8735 18.2813 77.8735 19.98V36.256C77.8735 37.2613 78.0641 38.0413 78.4455 38.596C78.8615 39.116 79.2775 39.3933 79.6935 39.428L80.2655 39.532H81.8775V39.948H78.7055Z" stroke="#FCF7FF" mask="url(#path-1-outside-1_802_2022)"/>
<path d="M87.5247 27.26C87.5247 31.5587 88.2701 34.7133 89.7607 36.724C91.2861 38.7347 93.2794 39.74 95.7408 39.74C99.2074 39.74 102.293 39.22 104.997 38.18L105.153 38.544C102.379 39.6187 99.2421 40.156 95.7408 40.156C92.2741 40.156 89.4487 39.116 87.2647 37.036C85.0807 34.956 83.9887 31.7493 83.9887 27.416C83.9887 23.0827 85.1328 19.72 87.4208 17.328C89.7088 14.936 92.6208 13.74 96.1568 13.74C98.9994 13.74 101.391 14.5893 103.333 16.288C105.274 17.9867 106.245 20.5 106.245 23.828C106.245 24.0013 106.245 24.1747 106.245 24.348H87.6807C87.5767 25.284 87.5247 26.2547 87.5247 27.26ZM102.709 23.932C102.674 20.604 102.033 18.1427 100.785 16.548C99.5368 14.9533 97.9248 14.156 95.9488 14.156C93.9728 14.156 92.2048 15.0227 90.6448 16.756C89.1194 18.4893 88.1488 20.8813 87.7327 23.932H102.709Z" stroke="#FCF7FF" mask="url(#path-1-outside-1_802_2022)"/>
<path d="M140.661 15.768C140.106 15.3173 139.205 14.936 137.957 14.624C136.744 14.312 135.825 14.156 135.201 14.156C134.577 14.156 134.213 14.156 134.109 14.156C132.237 14.1907 130.885 14.676 130.053 15.612C129.221 16.5133 128.805 17.536 128.805 18.68C128.805 19.824 129.169 20.7947 129.897 21.592C130.625 22.3547 131.526 22.9613 132.601 23.412C133.71 23.828 134.889 24.3133 136.137 24.868C137.42 25.4227 138.598 25.9947 139.673 26.584C140.782 27.1387 141.701 27.9707 142.429 29.08C143.157 30.1547 143.521 31.5067 143.521 33.136C143.521 34.7653 142.949 36.152 141.805 37.296C140.661 38.44 139.378 39.2027 137.957 39.584C136.57 39.9653 135.062 40.156 133.433 40.156C129.897 40.156 127.245 39.376 125.477 37.816L125.789 37.504C126.482 38.1627 127.505 38.7 128.857 39.116C130.244 39.532 131.578 39.74 132.861 39.74C134.906 39.74 136.588 39.1853 137.905 38.076C139.257 36.932 139.933 35.528 139.933 33.864C139.933 32.1653 139.43 30.8133 138.425 29.808C137.42 28.768 136.189 27.9707 134.733 27.416C133.312 26.8267 131.873 26.2547 130.417 25.7C128.961 25.1107 127.73 24.3133 126.725 23.308C125.72 22.268 125.217 21.072 125.217 19.72C125.217 18.368 125.529 17.276 126.153 16.444C126.777 15.5773 127.609 14.9707 128.649 14.624C130.417 14.0347 132.185 13.74 133.953 13.74C136.934 13.74 139.257 14.2947 140.921 15.404L140.661 15.768Z" stroke="#FCF7FF" mask="url(#path-1-outside-1_802_2022)"/>
<path d="M168.239 39.948C166.818 39.948 165.726 39.636 164.963 39.012C164.235 38.388 163.854 37.764 163.819 37.14L163.767 36.256V19.928C163.767 17.1893 163.039 15.4387 161.583 14.676C160.89 14.3293 160.006 14.156 158.931 14.156C156.782 14.156 154.84 15.04 153.107 16.808C151.408 18.5413 150.559 20.1013 150.559 21.488V39.948H146.919V1H150.559V19.876C151.114 18.3853 152.171 16.9987 153.731 15.716C155.291 14.3987 157.042 13.74 158.983 13.74C162.346 13.74 164.582 14.3293 165.691 15.508C166.835 16.652 167.407 18.1427 167.407 19.98V36.256C167.407 37.2613 167.598 38.0413 167.979 38.596C168.395 39.116 168.794 39.3933 169.175 39.428L169.799 39.532H171.411V39.948H168.239Z" stroke="#FCF7FF" mask="url(#path-1-outside-1_802_2022)"/>
<path d="M186.043 40.156C182.403 40.156 179.439 39.116 177.151 37.036C174.863 34.956 173.719 31.7493 173.719 27.416C173.719 23.0827 174.898 19.72 177.255 17.328C179.647 14.936 182.663 13.74 186.303 13.74C189.978 13.74 192.959 14.78 195.247 16.86C197.535 18.94 198.679 22.1467 198.679 26.48C198.679 30.8133 197.483 34.176 195.091 36.568C192.734 38.96 189.718 40.156 186.043 40.156ZM186.407 14.156C183.773 14.156 181.589 15.3347 179.855 17.692C178.122 20.0147 177.255 23.2733 177.255 27.468C177.255 31.628 178.053 34.7133 179.647 36.724C181.242 38.7347 183.357 39.74 185.991 39.74C188.626 39.74 190.81 38.5787 192.543 36.256C194.277 33.8987 195.143 30.64 195.143 26.48C195.143 22.2853 194.346 19.1827 192.751 17.172C191.157 15.1613 189.042 14.156 186.407 14.156Z" stroke="#FCF7FF" mask="url(#path-1-outside-1_802_2022)"/>
<path d="M202.321 13.948H205.961V20.396C206.551 18.8013 207.643 17.2933 209.237 15.872C210.832 14.4507 212.635 13.74 214.645 13.74C221.683 13.74 225.201 17.8653 225.201 26.116C225.201 35.476 220.66 40.156 211.577 40.156C209.948 40.156 208.076 39.7747 205.961 39.012V52.948H202.321V13.948ZM214.593 14.156C212.444 14.156 210.503 15.092 208.769 16.964C207.036 18.8013 206.1 20.4653 205.961 21.956V38.544C208.076 39.3413 209.931 39.74 211.525 39.74C218.216 39.74 221.561 35.1813 221.561 26.064C221.561 18.1253 219.239 14.156 214.593 14.156Z" stroke="#FCF7FF" mask="url(#path-1-outside-1_802_2022)"/>
</svg>
