<svg width="1430" height="705" fill="none" xmlns="http://www.w3.org/2000/svg">
    <path d="M230.514 2.724c-8.418 0-12.628.742-22.036.742-11.885 0-18.075-.742-26.246-.742-.743 0-.743 2.97 0 2.97 15.847 0 20.798 8.172 15.104 22.78L156.73 131.227l-30.95-66.356 14.361-36.397c6.685-16.837 15.103-22.78 25.502-22.78.991 0 .991-2.97 0-2.97-7.923 0-11.885.742-20.55.742-10.895 0-11.142-.742-16.342-.742-.743 0-.743 2.97 0 2.97 10.152 0 11.39 6.438 5.695 21.542L122.313 57.69l-15.598-33.673c-7.428-15.846-7.428-18.322 2.476-18.322.99 0 .99-2.971 0-2.971-5.2 0-10.895.742-24.017.742-8.419 0-12.628-.742-18.57-.742-.743 0-.743 2.97 0 2.97 8.418 0 13.618 5.696 19.065 17.58l26.493 57.195-20.056 50.758-50.014-107.21c-6.933-14.856-3.22-18.322 9.904-18.322.99 0 .99-2.971 0-2.971-7.18 0-14.856.742-31.445.742-9.41 0-13.618-.742-19.808-.742-.99 0-.99 2.97 0 2.97 9.904 0 14.113 3.962 20.303 17.58l62.147 133.951c.495 1.238 4.952 1.238 5.447 0l26.988-69.328 32.188 69.328c.495 1.238 4.952 1.238 5.447 0l50.51-128.751c6.19-16.094 15.599-22.78 26.741-22.78.99 0 .99-2.97 0-2.97ZM348.576 119.838c-4.705 20.303-17.332 31.94-36.15 31.94h-16.094c-13.617 0-16.836-3.467-16.836-15.351v-56.7h26.493c17.827 0 25.502 6.685 25.502 20.798 0 .99 2.972.99 2.972 0 0-8.666-.743-15.599-.743-23.522 0-6.19.247-10.647.247-20.798 0-.743-2.723-.743-2.723 0 0 12.132-7.428 17.827-24.512 17.827h-27.236V23.769c0-11.884 3.714-15.35 18.074-15.35h12.875c17.085 0 27.979 9.903 30.703 27.978 0 .99 2.723.743 2.723 0l-.495-31.445c0-1.486-.495-2.228-2.228-2.228H239.88c-.99 0-.99 2.97 0 2.97 17.084 0 20.055 2.972 20.055 17.085v114.638c0 14.361-2.971 17.084-20.055 17.084-.99 0-.99 2.971 0 2.971h105.477c2.971 0 3.714-.99 3.714-3.714 0-10.646 1.238-24.512 2.476-33.425 0-.991-2.971-1.486-2.971-.495ZM447.861 70.318c18.322-6.685 28.969-19.808 28.969-35.902 0-19.065-13.866-32.435-43.083-32.435-9.161 0-21.045 1.485-29.711 1.485-11.142 0-21.541-.742-29.712-.742-.743 0-.743 2.97 0 2.97 16.589 0 20.055 2.972 20.055 17.085v114.638c0 14.361-3.714 17.084-20.303 17.084-.99 0-.99 2.971 0 2.971 8.171 0 18.818-.495 29.96-.495s26.245 1.486 36.149 1.486c29.464 0 51.748-19.808 51.748-46.301 0-22.284-17.332-39.368-44.072-41.844ZM428.796 6.19c20.055 0 28.473 12.627 28.473 30.207 0 19.065-9.408 34.169-32.435 34.169-.495 0-4.704 0-10.894-.248V23.274c0-15.103 3.961-17.084 14.856-17.084Zm7.427 147.321c-18.817 0-22.283-4.705-22.283-16.094V76.755c6.19-.495 12.132-.742 17.084-.495 25.998.248 39.863 17.332 39.863 41.844 0 22.284-10.399 35.407-34.664 35.407ZM639.424 158.463c45.311 0 83.441-31.445 83.441-80.965 0-42.587-34.664-75.27-86.907-75.27-9.161 0-23.77 1.238-34.912 1.238-11.389 0-21.541-.742-29.711-.742-.991 0-.991 2.97 0 2.97 17.084 0 20.055 2.972 20.055 17.085v114.638c0 14.361-3.219 17.084-20.303 17.084-.99 0-.99 2.971 0 2.971 8.171 0 18.57-.495 29.959-.495 12.133 0 28.474 1.486 38.378 1.486Zm-2.476-4.457c-21.541 0-25.998-5.942-25.998-19.313V23.274c0-14.608 7.676-16.836 27.484-16.836 37.882 0 61.899 33.673 61.899 76.507 0 46.054-26.74 71.061-63.385 71.061ZM854.411 119.838c-4.705 20.303-17.332 31.94-36.149 31.94h-16.094c-13.618 0-16.837-3.467-16.837-15.351v-56.7h26.493c17.827 0 25.503 6.685 25.503 20.798 0 .99 2.971.99 2.971 0 0-8.666-.743-15.599-.743-23.522 0-6.19.248-10.647.248-20.798 0-.743-2.724-.743-2.724 0 0 12.132-7.428 17.827-24.512 17.827h-27.236V23.769c0-11.884 3.714-15.35 18.075-15.35h12.875c17.084 0 27.978 9.903 30.702 27.978 0 .99 2.723.743 2.723 0l-.495-31.445c0-1.486-.495-2.228-2.228-2.228H745.715c-.99 0-.99 2.97 0 2.97 17.085 0 20.056 2.972 20.056 17.085v114.638c0 14.361-2.971 17.084-20.056 17.084-.99 0-.99 2.971 0 2.971h105.477c2.971 0 3.714-.99 3.714-3.714 0-10.646 1.238-24.512 2.476-33.425 0-.991-2.971-1.486-2.971-.495ZM907.643 30.455c0-14.609 8.418-26.246 25.75-26.246 25.007 0 34.416 25.75 36.644 37.14.495 1.486 2.971.99 2.971-.248l-.99-30.95c0-1.733-1.238-3.218-3.961-4.456C959.391 1.98 948.249 0 938.097 0c-23.274 0-48.034 12.38-48.034 39.12 0 22.532 17.58 33.179 34.911 44.073 17.827 11.142 36.15 22.036 36.15 45.806 0 20.55-13.866 26.74-27.484 26.74-25.502 0-38.13-24.76-44.072-45.063-.495-1.238-3.219-.99-2.971.496l2.476 35.406c0 2.724.742 3.962 2.228 4.704 9.656 5.695 23.769 9.162 36.397 9.162 32.188 0 51.748-18.57 51.748-42.835 0-23.77-19.065-35.159-37.387-46.3-17.58-10.648-34.416-20.799-34.416-40.854ZM1044.32 137.417V23.274c0-14.113 2.97-17.58 20.06-17.58.74 0 .74-2.97 0-2.97-7.93 0-18.32.742-30.46.742-11.14 0-21.79-.742-29.96-.742-.74 0-.74 2.97 0 2.97 17.09 0 20.31 2.972 20.31 17.085v114.638c0 14.361-3.22 17.084-20.31 17.084-.74 0-.74 2.971 0 2.971 8.17 0 18.82-.495 29.96-.495 12.14 0 22.29.495 30.46.495.74 0 .74-2.971 0-2.971-17.58 0-20.06-2.723-20.06-17.084ZM1176.28 160.444c17.33 0 36.89-2.972 54.23-6.933 2.22-.743 2.97-.991 2.97-2.971 0-3.962-1.74-5.2-1.74-21.789 0-26.245.75-29.217 11.39-28.969 1.74 0 1.24-3.466 0-3.466-19.56.99-35.65.99-57.19-.496-1.73 0-1.73 3.962.25 3.962 25 0 26.98 2.724 26.98 26.493 0 25.503-8.66 29.959-30.7 29.959-41.84 0-72.54-34.168-72.54-83.44 0-40.854 21.29-67.1 61.15-67.1 27.24 0 47.29 13.866 55.96 38.378.25.99 2.72.496 2.72-.247l-2.97-29.96c-.24-2.97-.24-3.961-3.22-5.694-9.65-5.2-26.24-8.171-41.59-8.171-53.98 0-94.09 33.178-94.09 81.707 0 43.825 32.68 78.737 88.39 78.737ZM1428.79 2.724c-6.69 0-14.86.742-23.28.742-8.66 0-15.84-.742-22.53-.742-.74 0-.74 2.97 0 2.97 13.37 0 19.32 8.42 19.32 25.503v95.573l-92.36-111.171c-7.67-9.409-7.43-12.875-11.88-12.875-3.47 0-10.4.495-18.33.495-5.2 0-12.13-.495-18.07-.495-.99 0-.99 2.97 0 2.97 6.68 0 13.12 2.477 21.54 10.895V129c0 17.331-6.44 25.502-20.8 25.502-.99 0-.99 2.971 0 2.971 7.18 0 15.6-.495 24.27-.495 8.66 0 15.84.495 22.53.495.99 0 .99-2.971 0-2.971-13.37 0-19.56-8.171-19.56-25.502V23.522l116.12 137.664c.5.496 2.97.248 2.97-.495V31.197c0-17.084 6.44-25.502 20.06-25.502.99 0 .99-2.971 0-2.971ZM1199.02 274.168c8.42 0 12.62.742 22.03.742 11.89 0 18.08-.742 26.25-.742.74 0 .74 2.971 0 2.971-15.85 0-20.8 8.171-15.1 22.779l40.6 102.753 30.95-66.356-14.36-36.397c-6.68-16.837-15.1-22.779-25.5-22.779-.99 0-.99-2.971 0-2.971 7.92 0 11.88.742 20.55.742 10.89 0 11.14-.742 16.34-.742.74 0 .74 2.971 0 2.971-10.15 0-11.39 6.437-5.69 21.541l12.13 30.454 15.6-33.673c7.42-15.846 7.42-18.322-2.48-18.322-.99 0-.99-2.971 0-2.971 5.2 0 10.89.742 24.02.742 8.42 0 12.62-.742 18.57-.742.74 0 .74 2.971 0 2.971-8.42 0-13.62 5.695-19.07 17.579l-26.49 57.195 20.05 50.758 50.02-107.21c6.93-14.856 3.22-18.322-9.9-18.322-.99 0-.99-2.971 0-2.971 7.18 0 14.85.742 31.44.742 9.41 0 13.62-.742 19.81-.742.99 0 .99 2.971 0 2.971-9.91 0-14.11 3.961-20.3 17.579l-62.15 133.951c-.5 1.238-4.95 1.238-5.45 0l-26.99-69.328-32.18 69.328c-.5 1.238-4.96 1.238-5.45 0l-50.51-128.751c-6.19-16.094-15.6-22.779-26.74-22.779-.99 0-.99-2.971 0-2.971ZM1080.96 391.282c4.7 20.303 17.33 31.94 36.14 31.94h16.1c13.62 0 16.84-3.467 16.84-15.351v-56.7h-26.5c-17.82 0-25.5 6.685-25.5 20.798 0 .99-2.97.99-2.97 0 0-8.666.74-15.599.74-23.522 0-6.19-.25-10.647-.25-20.798 0-.743 2.73-.743 2.73 0 0 12.132 7.43 17.827 24.51 17.827h27.24v-50.262c0-11.885-3.72-15.352-18.08-15.352h-12.87c-17.09 0-27.98 9.904-30.71 27.979 0 .99-2.72.743-2.72 0l.5-31.445c0-1.486.49-2.228 2.22-2.228h101.27c.99 0 .99 2.971 0 2.971-17.08 0-20.05 2.971-20.05 17.084v114.638c0 14.361 2.97 17.084 20.05 17.084.99 0 .99 2.972 0 2.972h-105.48c-2.97 0-3.71-.991-3.71-3.714 0-10.647-1.24-24.513-2.48-33.426 0-.991 2.98-1.486 2.98-.495ZM981.671 341.762c-18.323-6.685-28.969-19.808-28.969-35.902 0-19.065 13.865-32.435 43.082-32.435 9.156 0 21.046 1.485 29.716 1.485 11.14 0 21.54-.742 29.71-.742.74 0 .74 2.971 0 2.971-16.59 0-20.06 2.971-20.06 17.084v114.638c0 14.361 3.72 17.084 20.3 17.084 1 0 1 2.972 0 2.972-8.17 0-18.81-.496-29.95-.496-11.15 0-26.25 1.486-36.154 1.486-29.464 0-51.748-19.808-51.748-46.301 0-22.284 17.332-39.368 44.073-41.844Zm19.069-64.128c-20.06 0-28.478 12.628-28.478 30.207 0 19.065 9.409 34.169 32.438 34.169.49 0 4.7 0 10.89-.248v-47.044c0-15.103-3.96-17.084-14.85-17.084Zm-7.432 147.321c18.822 0 22.282-4.704 22.282-16.094V348.2c-6.19-.496-12.13-.743-17.083-.496-25.998.248-39.863 17.332-39.863 41.844 0 22.284 10.399 35.407 34.664 35.407ZM790.107 429.907c-45.31 0-83.441-31.445-83.441-80.965 0-42.587 34.664-75.27 86.907-75.27 9.161 0 23.77 1.238 34.912 1.238 11.389 0 21.541-.742 29.711-.742.991 0 .991 2.971 0 2.971-17.084 0-20.055 2.971-20.055 17.084v114.638c0 14.361 3.219 17.084 20.303 17.084.99 0 .99 2.972 0 2.972-8.171 0-18.57-.496-29.959-.496-12.133 0-28.474 1.486-38.378 1.486Zm2.476-4.457c21.541 0 25.998-5.942 25.998-19.313V294.718c0-14.608-7.676-16.836-27.484-16.836-37.882 0-61.899 33.673-61.899 76.507 0 46.054 26.74 71.061 63.385 71.061ZM575.12 391.282c4.705 20.303 17.332 31.94 36.15 31.94h16.093c13.618 0 16.837-3.467 16.837-15.351v-56.7h-26.493c-17.827 0-25.502 6.685-25.502 20.798 0 .99-2.972.99-2.972 0 0-8.666.743-15.599.743-23.522 0-6.19-.247-10.647-.247-20.798 0-.743 2.723-.743 2.723 0 0 12.132 7.428 17.827 24.512 17.827H644.2v-50.262c0-11.885-3.714-15.352-18.075-15.352H613.25c-17.084 0-27.978 9.904-30.702 27.979 0 .99-2.723.743-2.723 0l.495-31.445c0-1.486.495-2.228 2.228-2.228h101.268c.99 0 .99 2.971 0 2.971-17.084 0-20.056 2.971-20.056 17.084v114.638c0 14.361 2.972 17.084 20.056 17.084.99 0 .99 2.972 0 2.972H578.339c-2.971 0-3.714-.991-3.714-3.714 0-10.647-1.238-24.513-2.476-33.426 0-.991 2.971-1.486 2.971-.495ZM521.889 301.899c0-14.609-8.419-26.246-25.751-26.246-25.007 0-34.416 25.75-36.644 37.14-.495 1.486-2.971.99-2.971-.248l.99-30.949c0-1.734 1.238-3.219 3.962-4.457 8.666-3.714 19.808-5.695 29.959-5.695 23.274 0 48.034 12.38 48.034 39.121 0 22.531-17.579 33.178-34.911 44.072-17.827 11.142-36.15 22.036-36.15 45.806 0 20.55 13.866 26.74 27.484 26.74 25.502 0 38.13-24.759 44.072-45.063.495-1.238 3.219-.99 2.971.496l-2.476 35.406c0 2.724-.742 3.962-2.228 4.705-9.656 5.694-23.769 9.161-36.397 9.161-32.188 0-51.748-18.57-51.748-42.835 0-23.769 19.065-35.159 37.387-46.301 17.58-10.646 34.417-20.798 34.417-40.853ZM385.209 408.861V294.718c0-14.113-2.972-17.579-20.056-17.579-.743 0-.743-2.971 0-2.971 7.923 0 18.322.742 30.455.742 11.142 0 21.788-.742 29.959-.742.743 0 .743 2.971 0 2.971-17.084 0-20.303 2.971-20.303 17.084v114.638c0 14.361 3.219 17.084 20.303 17.084.743 0 .743 2.972 0 2.972-8.171 0-18.817-.496-29.959-.496-12.133 0-22.284.496-30.455.496-.743 0-.743-2.972 0-2.972 17.58 0 20.056-2.723 20.056-17.084ZM253.248 431.888c-17.331 0-36.892-2.971-54.223-6.933-2.229-.743-2.972-.99-2.972-2.971 0-3.962 1.733-5.2 1.733-21.789 0-26.245-.742-29.216-11.389-28.969-1.733 0-1.238-3.466 0-3.466 19.56.99 35.654.99 57.195-.495 1.733 0 1.733 3.961-.247 3.961-25.008 0-26.989 2.724-26.989 26.493 0 25.503 8.666 29.96 30.702 29.96 41.845 0 72.547-34.169 72.547-83.441 0-40.854-21.294-67.099-61.157-67.099-27.236 0-47.291 13.865-55.957 38.378-.248.99-2.724.495-2.724-.248l2.971-29.959c.248-2.972.248-3.962 3.219-5.695 9.657-5.2 26.246-8.171 41.597-8.171 53.976 0 94.087 33.178 94.087 81.707 0 43.825-32.683 78.737-88.393 78.737ZM.743 274.168c6.685 0 14.856.742 23.274.742 8.666 0 15.846-.742 22.531-.742.743 0 .743 2.971 0 2.971-13.37 0-19.312 8.418-19.312 25.502v95.573l92.354-111.171c7.676-9.409 7.428-12.875 11.885-12.875 3.466 0 10.399.495 18.322.495 5.199 0 12.132-.495 18.075-.495.99 0 .99 2.971 0 2.971-6.686 0-13.123 2.476-21.542 10.894v112.41c0 17.332 6.438 25.502 20.799 25.502.99 0 .99 2.972 0 2.972-7.181 0-15.599-.496-24.265-.496s-15.846.496-22.531.496c-.991 0-.991-2.972 0-2.972 13.37 0 19.56-8.17 19.56-25.502V294.966L23.769 432.63c-.495.496-2.97.248-2.97-.495V302.641c0-17.084-6.438-25.502-20.056-25.502-.99 0-.99-2.971 0-2.971ZM230.514 545.612c-8.418 0-12.628.743-22.036.743-11.885 0-18.075-.743-26.246-.743-.743 0-.743 2.971 0 2.971 15.847 0 20.798 8.171 15.104 22.779L156.73 674.115l-30.95-66.356 14.361-36.397c6.685-16.837 15.103-22.779 25.502-22.779.991 0 .991-2.971 0-2.971-7.923 0-11.885.743-20.55.743-10.895 0-11.142-.743-16.342-.743-.743 0-.743 2.971 0 2.971 10.152 0 11.39 6.438 5.695 21.541l-12.133 30.455-15.598-33.674c-7.428-15.846-7.428-18.322 2.476-18.322.99 0 .99-2.971 0-2.971-5.2 0-10.895.743-24.017.743-8.419 0-12.628-.743-18.57-.743-.743 0-.743 2.971 0 2.971 8.418 0 13.618 5.695 19.065 17.579l26.493 57.196-20.056 50.757-50.014-107.21c-6.933-14.856-3.22-18.322 9.904-18.322.99 0 .99-2.971 0-2.971-7.18 0-14.856.743-31.445.743-9.41 0-13.618-.743-19.808-.743-.99 0-.99 2.971 0 2.971 9.904 0 14.113 3.962 20.303 17.579l62.147 133.951c.495 1.238 4.952 1.238 5.447 0l26.988-69.327 32.188 69.327c.495 1.238 4.952 1.238 5.447 0l50.51-128.751c6.19-16.094 15.599-22.779 26.741-22.779.99 0 .99-2.971 0-2.971ZM348.576 662.726c-4.705 20.303-17.332 31.94-36.15 31.94h-16.094c-13.617 0-16.836-3.467-16.836-15.351v-56.7h26.493c17.827 0 25.502 6.685 25.502 20.798 0 .99 2.972.99 2.972 0 0-8.666-.743-15.599-.743-23.522 0-6.19.247-10.647.247-20.798 0-.743-2.723-.743-2.723 0 0 12.132-7.428 17.827-24.512 17.827h-27.236v-50.262c0-11.885 3.714-15.351 18.074-15.351h12.875c17.085 0 27.979 9.903 30.703 27.978 0 .991 2.723.743 2.723 0l-.495-31.445c0-1.485-.495-2.228-2.228-2.228H239.88c-.99 0-.99 2.971 0 2.971 17.084 0 20.055 2.971 20.055 17.084v114.638c0 14.361-2.971 17.084-20.055 17.084-.99 0-.99 2.972 0 2.972h105.477c2.971 0 3.714-.991 3.714-3.714 0-10.647 1.238-24.513 2.476-33.426 0-.991-2.971-1.486-2.971-.495ZM447.861 613.206c18.322-6.685 28.969-19.808 28.969-35.902 0-19.065-13.866-32.435-43.083-32.435-9.161 0-21.045 1.486-29.711 1.486-11.142 0-21.541-.743-29.712-.743-.743 0-.743 2.971 0 2.971 16.589 0 20.055 2.971 20.055 17.084v114.638c0 14.361-3.714 17.084-20.303 17.084-.99 0-.99 2.972 0 2.972 8.171 0 18.818-.496 29.96-.496s26.245 1.486 36.149 1.486c29.464 0 51.748-19.808 51.748-46.301 0-22.284-17.332-39.368-44.072-41.844Zm-19.065-64.128c20.055 0 28.473 12.628 28.473 30.207 0 19.065-9.408 34.169-32.435 34.169-.495 0-4.704 0-10.894-.248v-47.044c0-15.103 3.961-17.084 14.856-17.084Zm7.427 147.321c-18.817 0-22.283-4.704-22.283-16.094v-60.661c6.19-.496 12.132-.743 17.084-.496 25.998.248 39.863 17.332 39.863 41.845 0 22.283-10.399 35.406-34.664 35.406ZM639.424 701.351c45.311 0 83.441-31.445 83.441-80.965 0-42.586-34.664-75.269-86.907-75.269-9.161 0-23.77 1.238-34.912 1.238-11.389 0-21.541-.743-29.711-.743-.991 0-.991 2.971 0 2.971 17.084 0 20.055 2.971 20.055 17.084v114.638c0 14.361-3.219 17.084-20.303 17.084-.99 0-.99 2.972 0 2.972 8.171 0 18.57-.496 29.959-.496 12.133 0 28.474 1.486 38.378 1.486Zm-2.476-4.457c-21.541 0-25.998-5.942-25.998-19.312v-111.42c0-14.608 7.676-16.836 27.484-16.836 37.882 0 61.899 33.673 61.899 76.508 0 46.053-26.74 71.06-63.385 71.06ZM854.411 662.726c-4.705 20.303-17.332 31.94-36.149 31.94h-16.094c-13.618 0-16.837-3.467-16.837-15.351v-56.7h26.493c17.827 0 25.503 6.685 25.503 20.798 0 .99 2.971.99 2.971 0 0-8.666-.743-15.599-.743-23.522 0-6.19.248-10.647.248-20.798 0-.743-2.724-.743-2.724 0 0 12.132-7.428 17.827-24.512 17.827h-27.236v-50.262c0-11.885 3.714-15.351 18.075-15.351h12.875c17.084 0 27.978 9.903 30.702 27.978 0 .991 2.723.743 2.723 0l-.495-31.445c0-1.485-.495-2.228-2.228-2.228H745.715c-.99 0-.99 2.971 0 2.971 17.085 0 20.056 2.971 20.056 17.084v114.638c0 14.361-2.971 17.084-20.056 17.084-.99 0-.99 2.972 0 2.972h105.477c2.971 0 3.714-.991 3.714-3.714 0-10.647 1.238-24.513 2.476-33.426 0-.991-2.971-1.486-2.971-.495ZM907.643 573.343c0-14.609 8.418-26.246 25.75-26.246 25.007 0 34.416 25.751 36.644 37.14.495 1.486 2.971.99 2.971-.248l-.99-30.949c0-1.733-1.238-3.219-3.961-4.457-8.666-3.714-19.808-5.695-29.96-5.695-23.274 0-48.034 12.38-48.034 39.121 0 22.531 17.58 33.178 34.911 44.072 17.827 11.142 36.15 22.036 36.15 45.806 0 20.55-13.866 26.74-27.484 26.74-25.502 0-38.13-24.759-44.072-45.062-.495-1.238-3.219-.991-2.971.495l2.476 35.406c0 2.724.742 3.962 2.228 4.705 9.656 5.694 23.769 9.161 36.397 9.161 32.188 0 51.748-18.57 51.748-42.835 0-23.769-19.065-35.159-37.387-46.301-17.58-10.646-34.416-20.798-34.416-40.853ZM1044.32 680.305V566.162c0-14.113 2.97-17.579 20.06-17.579.74 0 .74-2.971 0-2.971-7.93 0-18.32.743-30.46.743-11.14 0-21.79-.743-29.96-.743-.74 0-.74 2.971 0 2.971 17.09 0 20.31 2.971 20.31 17.084v114.638c0 14.361-3.22 17.084-20.31 17.084-.74 0-.74 2.972 0 2.972 8.17 0 18.82-.496 29.96-.496 12.14 0 22.29.496 30.46.496.74 0 .74-2.972 0-2.972-17.58 0-20.06-2.723-20.06-17.084ZM1176.28 703.332c17.33 0 36.89-2.971 54.23-6.933 2.22-.743 2.97-.99 2.97-2.971 0-3.962-1.74-5.2-1.74-21.789 0-26.245.75-29.216 11.39-28.969 1.74 0 1.24-3.466 0-3.466-19.56.99-35.65.99-57.19-.495-1.73 0-1.73 3.961.25 3.961 25 0 26.98 2.724 26.98 26.493 0 25.503-8.66 29.96-30.7 29.96-41.84 0-72.54-34.169-72.54-83.441 0-40.854 21.29-67.099 61.15-67.099 27.24 0 47.29 13.865 55.96 38.378.25.99 2.72.495 2.72-.248l-2.97-29.959c-.24-2.971-.24-3.962-3.22-5.695-9.65-5.2-26.24-8.171-41.59-8.171-53.98 0-94.09 33.178-94.09 81.708 0 43.824 32.68 78.736 88.39 78.736ZM1428.79 545.612c-6.69 0-14.86.743-23.28.743-8.66 0-15.84-.743-22.53-.743-.74 0-.74 2.971 0 2.971 13.37 0 19.32 8.418 19.32 25.503v95.572l-92.36-111.171c-7.67-9.409-7.43-12.875-11.88-12.875-3.47 0-10.4.495-18.33.495-5.2 0-12.13-.495-18.07-.495-.99 0-.99 2.971 0 2.971 6.68 0 13.12 2.476 21.54 10.894v112.41c0 17.332-6.44 25.502-20.8 25.502-.99 0-.99 2.972 0 2.972 7.18 0 15.6-.496 24.27-.496 8.66 0 15.84.496 22.53.496.99 0 .99-2.972 0-2.972-13.37 0-19.56-8.17-19.56-25.502V566.41l116.12 137.665c.5.495 2.97.247 2.97-.496V574.086c0-17.085 6.44-25.503 20.06-25.503.99 0 .99-2.971 0-2.971Z" fill="#E9E9E9"/>
</svg>
