<svg width="25" height="6" fill="none" xmlns="http://www.w3.org/2000/svg">
    <path d="M2.548 5.514.602.709H.571c.01.102.02.225.027.372a20.316 20.316 0 0 1 .028 1.002v3.431H0V.085h.999l1.834 4.516h.028L4.723.085h.991v5.429h-.666V2.038A20.272 20.272 0 0 1 5.1.716h-.032l-1.97 4.798h-.55ZM10.525 5.514H7.299V.085h3.226v.557H7.973V2.4h2.405v.55H7.973v2.008h2.552v.557ZM16.2 5.514h-.675V2.956h-3.043v2.558h-.673V.085h.673V2.4h3.043V.085h.674v5.429ZM25 2.792c0 .419-.054.8-.163 1.144a2.43 2.43 0 0 1-.479.884c-.214.247-.48.438-.8.571a2.875 2.875 0 0 1-1.106.197c-.55 0-1.012-.107-1.387-.323a2.168 2.168 0 0 1-.856-.917c-.195-.396-.304-.859-.325-1.389h-1.418v2.555h-.674V.085h.674v2.317h1.43c.037-.485.155-.907.353-1.266.2-.361.483-.64.848-.839C21.46.099 21.909 0 22.44 0c.558 0 1.025.116 1.403.349.38.23.668.555.864.973.195.418.293.908.293 1.47Zm-4.41-.01c0 .462.064.863.194 1.202.132.337.334.598.606.784.272.183.62.274 1.042.274.434 0 .788-.091 1.062-.274.275-.184.477-.443.607-.78.129-.337.194-.735.194-1.196 0-.46-.065-.857-.195-1.192a1.562 1.562 0 0 0-.598-.772c-.272-.18-.623-.271-1.054-.271-.428 0-.78.09-1.054.271a1.584 1.584 0 0 0-.606.769c-.132.331-.198.726-.198 1.184Z" fill="#000"/>
</svg>
