<?xml version="1.0" encoding="utf-8"?><svg viewBox="0 0 40 40" xmlns="http://www.w3.org/2000/svg"
    xmlns:xlink="http://www.w3.org/1999/xlink">
    <style>
        :root>svg {
            display: none
        }

        :root>svg:target {
            display: block
        }
    </style><svg fill="none" viewBox="0 0 22 16" id="eng" xmlns="http://www.w3.org/2000/svg">
        <path
            d="M0 2.498v2.425h3.44L0 2.498zM2.85 16h5.094v-3.592L2.85 16zm11.206-3.591V16h5.093l-5.093-3.591zM0 11.077v2.425l3.44-2.425H0zM19.15 0h-5.094v3.592L19.15 0zM22 13.503v-2.426h-3.441L22 13.503zm0-8.58V2.498l-3.44 2.425H22zM7.944 0H2.85l5.094 3.592V0z"
            fill="#1A47B8" />
        <path
            d="M15.363 11.077l5.935 4.185c.29-.3.499-.671.605-1.076l-4.409-3.109h-2.13zm-7.419 0H6.636L.702 15.262c.318.326.726.559 1.184.667l6.058-4.272v-.58zm6.112-6.154h1.308L21.298.738a2.432 2.432 0 00-1.183-.667l-6.06 4.272v.58zm-7.42 0L.702.738c-.29.301-.499.672-.606 1.077l4.41 3.108h2.13z"
            fill="#F93939" />
        <path
            d="M22 9.846h-9.167V16h1.223v-3.591L19.149 16h.407a2.423 2.423 0 001.742-.738l-5.935-4.185h2.131l4.41 3.109c.056-.207.096-.422.096-.647v-.036l-3.441-2.426H22v-1.23zm-22 0v1.23h3.44L0 13.503v.037c0 .67.268 1.278.702 1.723l5.934-4.185h1.308v.58L1.886 15.93c.18.043.365.071.558.071h.406l5.094-3.592V16h1.223V9.846H0zm22-7.384a2.46 2.46 0 00-.702-1.724l-5.934 4.185h-1.308v-.58L20.115.07a2.429 2.429 0 00-.56-.071h-.405l-5.094 3.592V0h-1.223v6.154H22v-1.23h-3.44L22 2.497v-.036zM7.944 0v3.592L2.85 0h-.406A2.42 2.42 0 00.702.738l5.934 4.185h-2.13L.095 1.815c-.06.21-.093.428-.096.647v.036l3.44 2.425H0v1.23h9.167V0H7.944z"
            fill="#fff" />
        <path d="M12.833 6.154V0H9.167v6.154H0v3.692h9.167V16h3.666V9.846H22V6.154h-9.167z" fill="#F93939" /></svg><svg
        fill="none" viewBox="0 0 22 16" id="rus" xmlns="http://www.w3.org/2000/svg">
        <path d="M18.563 0H3.438C1.159 0 0 1.751 0 3.911v1.422h22V3.911C22 1.751 20.84 0 18.562 0z" fill="#fff" />
        <path d="M0 5.333h22v5.334H0V5.334z" fill="#1A47B8" />
        <path d="M0 12.089c0 2.16 1.16 3.91 3.438 3.91h15.124C20.84 16 22 14.25 22 12.09v-1.423H0v1.423z"
            fill="#F93939" /></svg><svg fill="none" viewBox="0 0 40 40" id="telegram"
        xmlns="http://www.w3.org/2000/svg">
        <g clip-path="url(#ca)" fill-rule="evenodd" clip-rule="evenodd">
            <path
                d="M40 20c0 11.046-8.954 20-20 20S0 31.046 0 20 8.954 0 20 0s20 8.954 20 20zm-19.283-5.235c-1.946.809-5.833 2.484-11.664 5.024-.947.376-1.443.745-1.488 1.105-.076.609.686.848 1.724 1.175.141.044.288.09.438.139 1.02.332 2.394.72 3.108.735.648.014 1.371-.253 2.17-.8 5.447-3.678 8.259-5.537 8.435-5.577.125-.028.298-.063.415.04.117.104.105.301.093.354-.076.322-3.068 3.104-4.616 4.543-.483.449-.825.767-.895.84-.157.163-.317.317-.47.465-.95.914-1.66 1.6.039 2.72.817.538 1.47.983 2.122 1.427.712.485 1.422.969 2.341 1.571.234.154.458.313.676.468.829.591 1.573 1.122 2.493 1.037.534-.05 1.086-.552 1.366-2.05.663-3.542 1.965-11.217 2.266-14.38a3.528 3.528 0 00-.033-.787c-.027-.155-.082-.377-.285-.541-.24-.195-.61-.236-.775-.233-.752.013-1.906.415-7.46 2.725z"
                fill="#08C" fill-opacity=".6" />
            <path
                d="M40 20c0 11.046-8.954 20-20 20S0 31.046 0 20 8.954 0 20 0s20 8.954 20 20zm-19.283-5.235c-1.946.809-5.833 2.484-11.664 5.024-.947.376-1.443.745-1.488 1.105-.076.609.686.848 1.724 1.175.141.044.288.09.438.139 1.02.332 2.394.72 3.108.735.648.014 1.371-.253 2.17-.8 5.447-3.678 8.259-5.537 8.435-5.577.125-.028.298-.063.415.04.117.104.105.301.093.354-.076.322-3.068 3.104-4.616 4.543-.483.449-.825.767-.895.84-.157.163-.317.317-.47.465-.95.914-1.66 1.6.039 2.72.817.538 1.47.983 2.122 1.427.712.485 1.422.969 2.341 1.571.234.154.458.313.676.468.829.591 1.573 1.122 2.493 1.037.534-.05 1.086-.552 1.366-2.05.663-3.542 1.965-11.217 2.266-14.38a3.528 3.528 0 00-.033-.787c-.027-.155-.082-.377-.285-.541-.24-.195-.61-.236-.775-.233-.752.013-1.906.415-7.46 2.725z"
                fill="#000" fill-opacity=".2" />
        </g>
        <defs>
            <clipPath id="ca">
                <path fill="#fff" d="M0 0h40v40H0z" />
            </clipPath>
        </defs>
    </svg><svg fill="none" viewBox="0 0 22 16" id="ukr" xmlns="http://www.w3.org/2000/svg">
        <path
            d="M22 13.547c0 .65-.258 1.274-.716 1.734a2.44 2.44 0 01-1.728.719H2.444a2.44 2.44 0 01-1.728-.719A2.457 2.457 0 010 13.547v-5.52h22v5.52z"
            fill="#FFDA2C" />
        <path
            d="M19.556 0H2.444A2.44 2.44 0 00.716.718 2.457 2.457 0 000 2.453v5.52h22v-5.52c0-.65-.258-1.275-.716-1.735A2.44 2.44 0 0019.556 0z"
            fill="#3A99FF" /></svg>
</svg>