<svg width="377" height="605" fill="none" xmlns="http://www.w3.org/2000/svg">
    <g clip-path="url(#clip0_709_332)">
        <path transform="translate(-171)" fill="url(#paint0_radial_709_332)" d="M0 0h547.61v604.4H0Z" style="stroke-dasharray:2305 2307;stroke-dashoffset:2306;animation:GoUSTvYn_draw 2666ms ease-in-out 0ms forwards"/>
        <path d="M249.5 397.5s-60.11 6.57-105.5-22.65-60-57.13-66.26-77.35c-6.26-20.22-6.78-85.43 0-103.7.43-1.15 33.07-75.95 36-88.17 3.13-13.04 39.65-50.61 104.87-40.17 65.22 10.44 79.49 25.42 88.53 87.32" stroke="#0F0F0F" stroke-miterlimit="10" style="stroke-dasharray:673 675;stroke-dashoffset:674;animation:GoUSTvYn_draw 2666ms ease-in-out 63ms forwards"/>
        <path d="M249.38 176.59s-17.33-12-33.39 0m0 0s4.52 56.87-49.91 57.39c-54.43.52-50.26-69.39-50.26-69.39s14.72-23.48 59.36-18.13c0 0 29.33 7.7 40.81 30.13Z" stroke="#0F0F0F" stroke-miterlimit="10" style="stroke-dasharray:337 339;stroke-dashoffset:338;animation:GoUSTvYn_draw 2666ms ease-in-out 126ms forwards"/>
        <path d="M77.74 193.8s18.26-25.04 37.57-29.22" stroke="#0F0F0F" stroke-miterlimit="10" style="stroke-dasharray:49 51;stroke-dashoffset:50;animation:GoUSTvYn_draw 2666ms ease-in-out 190ms forwards"/>
        <path d="M186.78 313.28s28.17-2.61 48 0 28.7 3.13 33.91 5.74c0 0-8.87 15.65-32.87 15.13-24-.52-49.04-20.87-49.04-20.87Z" stroke="#0F0F0F" stroke-miterlimit="10" style="stroke-dasharray:175 177;stroke-dashoffset:176;animation:GoUSTvYn_draw 2666ms ease-in-out 253ms forwards"/>
        <path d="M186.78 313.28s35.09-13.17 49.04-12.39c12.59.71 32.87 18.13 32.87 18.13-1.43-18.91-19.83-34.96-19.83-34.96-2.89.51-6.5 4-12.15 3.23-2.32-.32-5.46-4.54-8.2-4.54-2.74 0-41.74 30.52-41.74 30.52" stroke="#0F0F0F" stroke-miterlimit="10" style="stroke-dasharray:204 206;stroke-dashoffset:205;animation:GoUSTvYn_draw 2666ms ease-in-out 317ms forwards"/>
        <path d="M224.8 259.74c-2.54-4.3-1.17-8.68 4.7-10.44 0 0 6.65-3.25 4.89 7.7" stroke="#0F0F0F" stroke-miterlimit="10" style="stroke-dasharray:26 28;stroke-dashoffset:27;animation:GoUSTvYn_draw 2666ms ease-in-out 380ms forwards"/>
        <path d="M248.87 256.61s3.13-8.02 6.26-6.46c3.13 1.56 2.74 8.02-3.13 12.91" stroke="#0F0F0F" stroke-miterlimit="10" style="stroke-dasharray:26 28;stroke-dashoffset:27;animation:GoUSTvYn_draw 2666ms ease-in-out 444ms forwards"/>
        <path d="M252.97 268.93s8.36-2.09 9.73-7.57c1.37-5.48 2.8-18.36-5.7-26.36m-36.56 3.14c-10.68 9.2-13.04 18.47-13.04 21.59 0 5.22 4.7 7.63 9.65 7.89" stroke="#0F0F0F" stroke-miterlimit="10" style="stroke-dasharray:81 83;stroke-dashoffset:82;animation:GoUSTvYn_draw 2666ms ease-in-out 507ms forwards"/>
        <path d="M257.07 235.24s-16.03-22.4-17.07-39.61" stroke="#0F0F0F" stroke-miterlimit="10" style="stroke-dasharray:44 46;stroke-dashoffset:45;animation:GoUSTvYn_draw 2666ms ease-in-out 571ms forwards"/>
        <path d="M196.43 196.93s-19.83 5.48-35.22 5.74c-15.39.26-20.87-7.04-27.91-8.87 0 0 15.39-10.7 30.26-9.91 14.87.79 32.87 13.04 32.87 13.04Z" stroke="#0F0F0F" stroke-miterlimit="10" style="stroke-dasharray:134 136;stroke-dashoffset:135;animation:GoUSTvYn_draw 2666ms ease-in-out 634ms forwards"/>
        <path d="M251 200.5s13.37 5.98 22.5 6.5c9.13.52 30.67-3.02 30.67-3.02s-13.57-11.49-24.52-14.62c-3.27-.93-7.15-.83-10.99-.23-9.04 1.41-18.66 5.37-18.66 5.37" stroke="#0F0F0F" stroke-miterlimit="10" style="stroke-dasharray:114 116;stroke-dashoffset:115;animation:GoUSTvYn_draw 2666ms ease-in-out 698ms forwards"/>
        <path d="M161.11 201.93c5.556 0 10.06-4.047 10.06-9.04 0-4.993-4.504-9.04-10.06-9.04-5.556 0-10.06 4.047-10.06 9.04 0 4.993 4.504 9.04 10.06 9.04Z" stroke="#0F0F0F" stroke-miterlimit="10" style="stroke-dasharray:61 63;stroke-dashoffset:62;animation:GoUSTvYn_draw 2666ms ease-in-out 761ms forwards"/>
        <path d="M272.76 207.08c5.556 0 10.06-4.047 10.06-9.04 0-4.993-4.504-9.04-10.06-9.04-5.556 0-10.06 4.047-10.06 9.04 0 4.993 4.504 9.04 10.06 9.04Z" stroke="#0F0F0F" stroke-miterlimit="10" style="stroke-dasharray:61 63;stroke-dashoffset:62;animation:GoUSTvYn_draw 2666ms ease-in-out 825ms forwards"/>
        <path d="M77.5 298s15.37 62.59 19.02 88.67c3.65 26.08 1.57 52.17 11.48 68.87 9.91 16.7 61.57 100.7 37.57 152.35L5.5 621S-51 632-68 575c-18-42 38-131 17-215 0 0-48.39-130.89 65.87-194.28 0 0 36-31.3 34.43-72C47.73 53.02 125.22 4.5 176.09 4.5c50.87 0 122.87 12.52 156.52 68.09 33.65 55.57 51.65 145.57 39.91 192.52-11.74 46.95-39.13 54.78-44.61 103.3-5.48 48.52 22.7 157.3 22.7 157.3.173 18.69-5.01 61.292-27.13 82.18m-116.87-9.4s17.22-40.7.78-98.61l41.48-102.52s21.91-3.91 38.35-28.96 37.27-97.38 38.35-104.87c1.08-7.49-1.69-30.12-2.09-31.3 0 0 30.78-36.52 27.13-60 0 0-24-16.17-54.78-16.17-27.6 0-43.45 14.68-46.44 22.23-.34.87-.52 1.65-.52 2.3 0 6.26 1.57 49.57 31.83 58.96 30.26 9.39 42.78-7.3 42.78-7.3" stroke="#0F0F0F" stroke-miterlimit="10" style="stroke-dasharray:2694 2696;stroke-dashoffset:2695;animation:GoUSTvYn_draw 2666ms ease-in-out 888ms forwards"/>
        <path d="M147.65 173.2s12-3.65 20.87-2.35c8.87 1.3 18.26 7.3 18.26 7.3" stroke="#0F0F0F" stroke-miterlimit="10" style="stroke-dasharray:41 43;stroke-dashoffset:42;animation:GoUSTvYn_draw 2666ms ease-in-out 952ms forwards"/>
        <path d="M260.87 183.85s12.26-7.79 23.48-4.65c11.22 3.14 17.22 12.26 17.22 12.26" stroke="#0F0F0F" stroke-miterlimit="10" style="stroke-dasharray:47 49;stroke-dashoffset:48;animation:GoUSTvYn_draw 2666ms ease-in-out 1015ms forwards"/>
        <path d="M70 152s-10.138 18.904-44.428 53.896c-34.29 34.991 8.207 98.495 0 151.104" stroke="#0F0F0F" stroke-miterlimit="10" style="stroke-dasharray:226 228;stroke-dashoffset:227;animation:GoUSTvYn_draw 2666ms ease-in-out 1079ms forwards"/>
        <path d="M356.09 229.71c4.7 24.36-34.43 76.79-43.83 114.36-9.4 37.57-5.48 92.35 4.7 120.52" stroke="#0F0F0F" stroke-miterlimit="10" style="stroke-dasharray:246 248;stroke-dashoffset:247;animation:GoUSTvYn_draw 2666ms ease-in-out 1142ms forwards"/>
        <path d="M268.821 418c.78 28.17 17.74 57.13 12.78 79.83-4.96 22.7-34.8 62.4-28.81 83.74" stroke="#0F0F0F" stroke-miterlimit="10" style="stroke-dasharray:172 174;stroke-dashoffset:173;animation:GoUSTvYn_draw 2666ms ease-in-out 1206ms forwards"/>
        <path d="M53.821 347c.78 28.17 17.74 57.13 12.78 79.83-4.96 22.7-34.8 62.4-28.81 83.74" stroke="#0F0F0F" stroke-miterlimit="10" style="stroke-dasharray:172 174;stroke-dashoffset:173;animation:GoUSTvYn_draw 2666ms ease-in-out 1269ms forwards"/>
    </g>
    <defs>
        <radialGradient id="paint0_radial_709_332" cx="0" cy="0" r="1" gradientUnits="userSpaceOnUse" gradientTransform="matrix(0 302.2 -273.805 0 273.805 302.2)">
            <stop stop-color="#fff"/>
            <stop offset="1" stop-color="#fff" stop-opacity="0"/>
        </radialGradient>
        <clipPath id="clip0_709_332">
            <path fill="#fff" transform="translate(-171)" d="M0 0h547.61v604.4H0Z" style="stroke-dasharray:2305 2307;stroke-dashoffset:2306;animation:GoUSTvYn_draw 2666ms ease-in-out 1333ms forwards"/>
        </clipPath>
    </defs>
    <style data-made-with="vivus-instant">
        @keyframes GoUSTvYn_draw{to{stroke-dashoffset:0}}@keyframes GoUSTvYn_fade{0%,95.1219512195122%{stroke-opacity:1}to{stroke-opacity:0}}
    </style>
</svg>
