<svg width="195" height="92" viewBox="0 0 195 92" fill="none" xmlns="http://www.w3.org/2000/svg">
<path d="M43.1802 27.8648V16.6694C41.8488 16.9688 40.6486 17.1184 39.5795 17.1184C38.1877 17.1184 37.0278 16.9189 36.0999 16.5198C35.1922 16.1007 34.5064 15.4721 34.0424 14.6339C33.5986 13.7957 33.3768 12.748 33.3768 11.4908V3.61811H36.8261V11.4908C36.8261 12.2491 36.937 12.8877 37.1589 13.4066C37.3808 13.9055 37.7439 14.2847 38.2482 14.5441C38.7525 14.7836 39.4181 14.9033 40.2452 14.9033C40.6688 14.9033 41.1226 14.8734 41.6068 14.8135C42.1111 14.7536 42.6355 14.6638 43.1802 14.5441V3.61811H46.6295V27.8648H43.1802Z" fill="#181818"/>
<path d="M51.0412 27.8648V3.61811H60.542V6.13258H54.4603V14.1549H59.3922V16.5497H54.4603V25.4401H60.6025V27.8648H51.0412Z" fill="#181818"/>
<path d="M66.6609 27.8648V6.13258H62.5156V3.61811H74.1042V6.13258H70.0799V27.8648H66.6609Z" fill="#181818"/>
<path d="M77.072 27.8648V3.61811H82.6999C83.8093 3.61811 84.7675 3.73784 85.5743 3.97732C86.4014 4.21679 87.0872 4.58598 87.6318 5.08488C88.1765 5.58379 88.5799 6.22238 88.8421 7.00067C89.1044 7.75901 89.2355 8.65703 89.2355 9.69475C89.2355 10.6926 89.1044 11.5607 88.8421 12.299C88.6001 13.0174 88.2168 13.5862 87.6924 14.0053C87.1881 14.4244 86.5325 14.6938 85.7256 14.8135C86.714 15.033 87.5108 15.4122 88.116 15.951C88.7211 16.4699 89.1649 17.1484 89.4473 17.9865C89.7499 18.8047 89.9011 19.7926 89.9011 20.95C89.9011 21.9877 89.7801 22.9356 89.5381 23.7938C89.296 24.6519 88.9127 25.3803 88.3883 25.979C87.884 26.5776 87.2284 27.0466 86.4215 27.3859C85.6348 27.7052 84.6969 27.8648 83.6076 27.8648H77.072ZM80.4911 25.4401H82.7907C84.3237 25.4401 85.3424 25.0909 85.8466 24.3924C86.3711 23.674 86.6333 22.5265 86.6333 20.95C86.6333 19.9323 86.4921 19.0841 86.2097 18.4056C85.9475 17.7071 85.5138 17.1883 84.9087 16.849C84.3237 16.4898 83.5269 16.3102 82.5183 16.3102H80.4911V25.4401ZM80.4911 13.7359H82.5183C83.4866 13.7359 84.243 13.6062 84.7876 13.3467C85.3323 13.0673 85.7155 12.6283 85.9374 12.0296C86.1593 11.4309 86.2703 10.6526 86.2703 9.69475C86.2703 8.57721 86.0988 7.76898 85.7559 7.27008C85.413 6.77118 84.8784 6.46186 84.1522 6.34212C83.4261 6.20243 82.478 6.13258 81.308 6.13258H80.4911V13.7359Z" fill="#181818"/>
<path d="M93.5446 27.8648V3.61811H103.045V6.13258H96.9636V14.1549H101.896V16.5497H96.9636V25.4401H103.106V27.8648H93.5446Z" fill="#181818"/>
<path d="M106.471 27.8648V3.61811H112.553C114.026 3.61811 115.196 3.88752 116.063 4.42633C116.95 4.94519 117.596 5.70353 117.999 6.70133C118.403 7.69914 118.605 8.90649 118.605 10.3234C118.605 11.6006 118.373 12.7081 117.909 13.6461C117.465 14.584 116.799 15.3124 115.912 15.8313C115.024 16.3302 113.915 16.5796 112.583 16.5796H109.89V27.8648H106.471ZM109.89 14.1549H111.464C112.452 14.1549 113.229 14.0452 113.794 13.8257C114.358 13.6062 114.762 13.227 115.004 12.6882C115.246 12.1294 115.367 11.3511 115.367 10.3533C115.367 9.19585 115.276 8.3078 115.095 7.68916C114.933 7.07052 114.58 6.64146 114.036 6.40199C113.491 6.16252 112.644 6.04278 111.494 6.04278H109.89V14.1549Z" fill="#181818"/>
<path d="M124.307 27.8648V6.13258H120.162V3.61811H131.75V6.13258H127.726V27.8648H124.307Z" fill="#181818"/>
<path d="M140.982 28.1342C139.327 28.1342 138.006 27.8149 137.018 27.1763C136.029 26.5377 135.323 25.6297 134.9 24.4523C134.476 23.2549 134.264 21.858 134.264 20.2615V11.0717C134.264 9.47523 134.476 8.10824 134.9 6.97074C135.344 5.81328 136.05 4.93521 137.018 4.33653C138.006 3.71789 139.327 3.40857 140.982 3.40857C142.636 3.40857 143.947 3.71789 144.915 4.33653C145.883 4.95517 146.579 5.83324 147.003 6.97074C147.447 8.10824 147.668 9.47523 147.668 11.0717V20.2915C147.668 21.868 147.447 23.245 147.003 24.4224C146.579 25.5998 145.883 26.5178 144.915 27.1763C143.947 27.8149 142.636 28.1342 140.982 28.1342ZM140.982 25.4701C141.889 25.4701 142.575 25.2905 143.039 24.9313C143.503 24.5521 143.816 24.0332 143.977 23.3747C144.138 22.6962 144.219 21.9079 144.219 21.0099V10.3832C144.219 9.48521 144.138 8.7169 143.977 8.07831C143.816 7.41975 143.503 6.92085 143.039 6.5816C142.575 6.22238 141.889 6.04278 140.982 6.04278C140.074 6.04278 139.378 6.22238 138.894 6.5816C138.43 6.92085 138.117 7.41975 137.956 8.07831C137.794 8.7169 137.714 9.48521 137.714 10.3832V21.0099C137.714 21.9079 137.794 22.6962 137.956 23.3747C138.117 24.0332 138.43 24.5521 138.894 24.9313C139.378 25.2905 140.074 25.4701 140.982 25.4701Z" fill="#181818"/>
<path d="M151.634 27.8648V3.61811H161.135V6.13258H155.053V14.1549H159.985V16.5497H155.053V25.4401H161.195V27.8648H151.634Z" fill="#181818"/>
<path d="M24.9771 56.3648V34.6326H20.8319V32.1181H32.4205V34.6326H28.3962V56.3648H24.9771Z" fill="#181818"/>
<path d="M35.3883 56.3648V32.1181H41.0162C42.1256 32.1181 43.0837 32.2378 43.8906 32.4773C44.7176 32.7168 45.4035 33.086 45.9481 33.5849C46.4927 34.0838 46.8962 34.7224 47.1584 35.5007C47.4206 36.259 47.5518 37.157 47.5518 38.1948C47.5518 39.1926 47.4206 40.0607 47.1584 40.799C46.9164 41.5175 46.5331 42.0862 46.0086 42.5053C45.5043 42.9244 44.8488 43.1938 44.0419 43.3135C45.0303 43.533 45.8271 43.9122 46.4322 44.451C47.0374 44.9699 47.4812 45.6484 47.7636 46.4865C48.0661 47.3047 48.2174 48.2926 48.2174 49.45C48.2174 50.4877 48.0964 51.4356 47.8543 52.2938C47.6123 53.1519 47.229 53.8803 46.7045 54.479C46.2003 55.0776 45.5447 55.5466 44.7378 55.8859C43.9511 56.2052 43.0131 56.3648 41.9239 56.3648H35.3883ZM38.8074 53.9401H41.1069C42.64 53.9401 43.6586 53.5909 44.1629 52.8924C44.6874 52.174 44.9496 51.0265 44.9496 49.45C44.9496 48.4323 44.8084 47.5841 44.526 46.9056C44.2638 46.2071 43.8301 45.6883 43.2249 45.349C42.64 44.9898 41.8432 44.8102 40.8346 44.8102H38.8074V53.9401ZM38.8074 42.2359H40.8346C41.8028 42.2359 42.5593 42.1062 43.1039 41.8467C43.6485 41.5673 44.0318 41.1283 44.2537 40.5296C44.4756 39.9309 44.5865 39.1526 44.5865 38.1948C44.5865 37.0772 44.4151 36.269 44.0722 35.7701C43.7292 35.2712 43.1947 34.9619 42.4685 34.8421C41.7423 34.7024 40.7943 34.6326 39.6243 34.6326H38.8074V42.2359Z" fill="#181818"/>
<path d="M58.1241 56.6342C56.47 56.6342 55.1488 56.3149 54.1604 55.6763C53.172 55.0377 52.466 54.1297 52.0424 52.9523C51.6188 51.7549 51.407 50.358 51.407 48.7615V39.5717C51.407 37.9752 51.6188 36.6082 52.0424 35.4707C52.4862 34.3133 53.1922 33.4352 54.1604 32.8365C55.1488 32.2179 56.47 31.9086 58.1241 31.9086C59.7782 31.9086 61.0893 32.2179 62.0576 32.8365C63.0258 33.4552 63.7217 34.3332 64.1453 35.4707C64.5891 36.6082 64.811 37.9752 64.811 39.5717V48.7915C64.811 50.368 64.5891 51.745 64.1453 52.9224C63.7217 54.0998 63.0258 55.0178 62.0576 55.6763C61.0893 56.3149 59.7782 56.6342 58.1241 56.6342ZM58.1241 53.9701C59.0318 53.9701 59.7177 53.7905 60.1816 53.4313C60.6456 53.0521 60.9582 52.5332 61.1196 51.8747C61.281 51.1962 61.3617 50.4079 61.3617 49.5099V38.8832C61.3617 37.9852 61.281 37.2169 61.1196 36.5783C60.9582 35.9198 60.6456 35.4208 60.1816 35.0816C59.7177 34.7224 59.0318 34.5428 58.1241 34.5428C57.2164 34.5428 56.5205 34.7224 56.0364 35.0816C55.5724 35.4208 55.2598 35.9198 55.0984 36.5783C54.937 37.2169 54.8563 37.9852 54.8563 38.8832V49.5099C54.8563 50.4079 54.937 51.1962 55.0984 51.8747C55.2598 52.5332 55.5724 53.0521 56.0364 53.4313C56.5205 53.7905 57.2164 53.9701 58.1241 53.9701Z" fill="#181818"/>
<path d="M68.7766 56.3648V32.1181H74.8584C76.3309 32.1181 77.5008 32.3875 78.3682 32.9263C79.2558 33.4452 79.9013 34.2035 80.3047 35.2013C80.7081 36.1991 80.9098 37.4065 80.9098 38.8234C80.9098 40.1006 80.6779 41.2081 80.2139 42.1461C79.7701 43.084 79.1045 43.8124 78.2169 44.3313C77.3294 44.8302 76.2199 45.0796 74.8886 45.0796H72.1957V56.3648H68.7766ZM72.1957 42.6549H73.7691C74.7575 42.6549 75.5341 42.5452 76.0989 42.3257C76.6637 42.1062 77.0671 41.727 77.3092 41.1882C77.5513 40.6294 77.6723 39.8511 77.6723 38.8533C77.6723 37.6959 77.5815 36.8078 77.4 36.1892C77.2386 35.5705 76.8856 35.1415 76.341 34.902C75.7963 34.6625 74.9491 34.5428 73.7993 34.5428H72.1957V42.6549Z" fill="#181818"/>
<path d="M93.2993 56.3648V45.1694C91.968 45.4688 90.7678 45.6184 89.6987 45.6184C88.3068 45.6184 87.147 45.4189 86.2191 45.0198C85.3114 44.6007 84.6255 43.9721 84.1616 43.1339C83.7178 42.2957 83.4959 41.248 83.4959 39.9908V32.1181H86.9453V39.9908C86.9453 40.7491 87.0562 41.3877 87.2781 41.9066C87.5 42.4055 87.8631 42.7847 88.3674 43.0441C88.8716 43.2836 89.5373 43.4033 90.3643 43.4033C90.7879 43.4033 91.2418 43.3734 91.7259 43.3135C92.2302 43.2536 92.7547 43.1638 93.2993 43.0441V32.1181H96.7487V56.3648H93.2993Z" fill="#181818"/>
<path d="M101.16 56.3648V32.1181H110.661V34.6326H104.579V42.6549H109.511V45.0497H104.579V53.9401H110.722V56.3648H101.16Z" fill="#181818"/>
<path d="M120.229 56.6342C118.495 56.6342 117.143 56.275 116.175 55.5566C115.227 54.8382 114.561 53.8703 114.178 52.653C113.815 51.4357 113.633 50.0786 113.633 48.5819V40.0207C113.633 38.3843 113.815 36.9575 114.178 35.7402C114.561 34.5228 115.227 33.5849 116.175 32.9263C117.143 32.2478 118.495 31.9086 120.229 31.9086C121.762 31.9086 122.973 32.188 123.86 32.7467C124.768 33.3055 125.413 34.1037 125.797 35.1415C126.2 36.1792 126.402 37.4264 126.402 38.8832V40.799H123.164V39.0928C123.164 38.1948 123.114 37.4065 123.013 36.728C122.932 36.0295 122.69 35.4907 122.287 35.1115C121.883 34.7324 121.208 34.5428 120.26 34.5428C119.291 34.5428 118.585 34.7523 118.142 35.1714C117.698 35.5705 117.405 36.1492 117.264 36.9076C117.143 37.646 117.083 38.514 117.083 39.5119V49.1207C117.083 50.3381 117.183 51.3059 117.385 52.0244C117.587 52.7228 117.92 53.2217 118.384 53.5211C118.848 53.8204 119.473 53.9701 120.26 53.9701C121.187 53.9701 121.853 53.7705 122.257 53.3714C122.66 52.9523 122.912 52.3836 123.013 51.6651C123.114 50.9467 123.164 50.1086 123.164 49.1507V47.3546H126.402V49.1507C126.402 50.6274 126.22 51.9346 125.857 53.0721C125.494 54.1896 124.869 55.0677 123.981 55.7063C123.094 56.3249 121.843 56.6342 120.229 56.6342Z" fill="#181818"/>
<path d="M130.264 56.3648V32.1181H133.683V42.8944H134.954L139.341 32.1181H142.76L137.919 43.6428L143.366 56.3648H139.947L134.984 44.5408H133.683V56.3648H130.264Z" fill="#181818"/>
<path d="M152.498 56.6342C150.844 56.6342 149.522 56.3149 148.534 55.6763C147.546 55.0377 146.84 54.1297 146.416 52.9523C145.992 51.7549 145.781 50.358 145.781 48.7615V39.5717C145.781 37.9752 145.992 36.6082 146.416 35.4707C146.86 34.3133 147.566 33.4352 148.534 32.8365C149.522 32.2179 150.844 31.9086 152.498 31.9086C154.152 31.9086 155.463 32.2179 156.431 32.8365C157.399 33.4552 158.095 34.3332 158.519 35.4707C158.963 36.6082 159.185 37.9752 159.185 39.5717V48.7915C159.185 50.368 158.963 51.745 158.519 52.9224C158.095 54.0998 157.399 55.0178 156.431 55.6763C155.463 56.3149 154.152 56.6342 152.498 56.6342ZM152.498 53.9701C153.405 53.9701 154.091 53.7905 154.555 53.4313C155.019 53.0521 155.332 52.5332 155.493 51.8747C155.655 51.1962 155.735 50.4079 155.735 49.5099V38.8832C155.735 37.9852 155.655 37.2169 155.493 36.5783C155.332 35.9198 155.019 35.4208 154.555 35.0816C154.091 34.7224 153.405 34.5428 152.498 34.5428C151.59 34.5428 150.894 34.7224 150.41 35.0816C149.946 35.4208 149.633 35.9198 149.472 36.5783C149.311 37.2169 149.23 37.9852 149.23 38.8832V49.5099C149.23 50.4079 149.311 51.1962 149.472 51.8747C149.633 52.5332 149.946 53.0521 150.41 53.4313C150.894 53.7905 151.59 53.9701 152.498 53.9701Z" fill="#181818"/>
<path d="M163.15 56.3648V32.1181H172.651V34.6326H166.569V42.6549H171.501V45.0497H166.569V53.9401H172.712V56.3648H163.15Z" fill="#181818"/>
<path d="M16.4847 85.1342C14.8307 85.1342 13.5094 84.8149 12.521 84.1763C11.5326 83.5377 10.8266 82.6297 10.403 81.4523C9.97938 80.2549 9.76758 78.858 9.76758 77.2615V68.0717C9.76758 66.4752 9.97938 65.1082 10.403 63.9707C10.8468 62.8133 11.5528 61.9352 12.521 61.3365C13.5094 60.7179 14.8307 60.4086 16.4847 60.4086C18.1388 60.4086 19.45 60.7179 20.4182 61.3365C21.3864 61.9552 22.0823 62.8332 22.5059 63.9707C22.9497 65.1082 23.1716 66.4752 23.1716 68.0717V77.2915C23.1716 78.868 22.9497 80.245 22.5059 81.4224C22.0823 82.5998 21.3864 83.5178 20.4182 84.1763C19.45 84.8149 18.1388 85.1342 16.4847 85.1342ZM16.4847 82.4701C17.3924 82.4701 18.0783 82.2905 18.5422 81.9313C19.0062 81.5521 19.3188 81.0332 19.4802 80.3747C19.6416 79.6962 19.7223 78.9079 19.7223 78.0099V67.3832C19.7223 66.4852 19.6416 65.7169 19.4802 65.0783C19.3188 64.4198 19.0062 63.9208 18.5422 63.5816C18.0783 63.2224 17.3924 63.0428 16.4847 63.0428C15.577 63.0428 14.8811 63.2224 14.397 63.5816C13.933 63.9208 13.6204 64.4198 13.459 65.0783C13.2976 65.7169 13.2169 66.4852 13.2169 67.3832V78.0099C13.2169 78.9079 13.2976 79.6962 13.459 80.3747C13.6204 81.0332 13.933 81.5521 14.397 81.9313C14.8811 82.2905 15.577 82.4701 16.4847 82.4701Z" fill="#181818"/>
<path d="M27.1372 84.8648V60.6181H37.6668V63.0727H30.5563V70.7059H31.3127C33.0878 70.7059 34.5503 70.9155 35.7001 71.3345C36.87 71.7337 37.7374 72.4421 38.3022 73.4599C38.8872 74.4776 39.1797 75.9145 39.1797 77.7704C39.1797 79.0276 39.0284 80.1053 38.7258 81.0033C38.4232 81.8814 37.9492 82.6098 37.3037 83.1885C36.6784 83.7672 35.8816 84.1963 34.9134 84.4757C33.9653 84.7351 32.8256 84.8648 31.4943 84.8648H27.1372ZM30.5563 82.4401H31.5245C32.5331 82.4401 33.3602 82.3304 34.0057 82.1109C34.6713 81.8714 35.1554 81.4124 35.458 80.7339C35.7808 80.0554 35.9421 79.0576 35.9421 77.7405C35.9421 76.0841 35.6194 74.9067 34.9739 74.2082C34.3486 73.5098 33.1685 73.1605 31.4338 73.1605H30.5563V82.4401Z" fill="#181818"/>
<path d="M44.9026 84.8648V63.1924H40.9389V60.6181H48.3217V70.7059H49.2596C51.0347 70.7059 52.5073 70.9155 53.6772 71.3345C54.8472 71.7337 55.7146 72.4421 56.2794 73.4599C56.8643 74.4776 57.1568 75.9145 57.1568 77.7704C57.1568 79.0276 56.9955 80.1053 56.6727 81.0033C56.3701 81.8814 55.9062 82.6098 55.2809 83.1885C54.6556 83.7672 53.8588 84.1963 52.8905 84.4757C51.9223 84.7351 50.7725 84.8648 49.4412 84.8648H44.9026ZM48.3217 82.4401H49.4714C50.48 82.4401 51.3071 82.3304 51.9526 82.1109C52.6182 81.8714 53.1124 81.4124 53.4352 80.7339C53.7579 80.0554 53.9193 79.0576 53.9193 77.7405C53.9193 76.0841 53.5965 74.9067 52.951 74.2082C52.3056 73.5098 51.1154 73.1605 49.3807 73.1605H48.3217V82.4401Z" fill="#181818"/>
<path d="M60.4665 84.8648V60.6181H69.9673V63.1326H63.8856V71.155H68.8175V73.5497H63.8856V82.4401H70.0278V84.8648H60.4665Z" fill="#181818"/>
<path d="M71.8199 89.2651V82.4401H72.9394C73.2823 82.1608 73.6151 81.8215 73.9379 81.4224C74.2808 81.0233 74.5935 80.5044 74.8759 79.8658C75.1784 79.2073 75.4508 78.3691 75.6928 77.3513C75.9349 76.3136 76.1467 75.0165 76.3282 73.4599C76.5299 71.9033 76.6812 70.0174 76.7821 67.8023L77.1754 60.6181H87.4327V82.4401H89.7928V89.2651H87.1604L86.8881 84.8648H74.7246L74.4523 89.2651H71.8199ZM76.1164 82.4401H84.0439V63.1326H80.0801L79.8381 68.6105C79.7574 70.7658 79.6263 72.5818 79.4447 74.0586C79.2834 75.5154 79.0816 76.7227 78.8396 77.6806C78.6177 78.6185 78.3555 79.3869 78.0529 79.9855C77.7705 80.5643 77.4578 81.0332 77.1149 81.3924C76.7922 81.7517 76.4593 82.1009 76.1164 82.4401Z" fill="#181818"/>
<path d="M92.9684 84.8648V60.6181H95.9941V77.4112L103.165 60.6181H105.616V84.8648H102.62V67.8023L95.51 84.8648H92.9684Z" fill="#181818"/>
<path d="M110.061 84.8648V60.6181H113.481V71.0951H119.774V60.6181H123.193V84.8648H119.774V73.5198H113.481V84.8648H110.061Z" fill="#181818"/>
<path d="M127.627 84.8648V60.6181H137.128V63.1326H131.046V71.155H135.978V73.5497H131.046V82.4401H137.189V84.8648H127.627Z" fill="#181818"/>
<path d="M140.554 84.8648V60.6181H143.973V71.0951H150.267V60.6181H153.686V84.8648H150.267V73.5198H143.973V84.8648H140.554Z" fill="#181818"/>
<path d="M158.12 84.8648V60.6181H161.146V77.4112L168.317 60.6181H170.768V84.8648H167.772V67.8023L160.662 84.8648H158.12Z" fill="#181818"/>
<path d="M175.213 84.8648V60.6181H184.714V63.1326H178.632V71.155H183.564V73.5497H178.632V82.4401H184.774V84.8648H175.213Z" fill="#181818"/>
<path d="M0 91.1352V0.864868H6.61881V5.85971H3.21915V86.1404H6.61881V91.1352H0Z" fill="#181818"/>
<path d="M194.073 91.1352V0.864868H187.454V5.85971H190.854V86.1404H187.454V91.1352H194.073Z" fill="#181818"/>
</svg>
