<svg width="231" height="60" viewBox="0 0 231 60" fill="none" xmlns="http://www.w3.org/2000/svg">
<rect x="1.69481" y="5.87877" width="57.4229" height="52.8327" rx="11.597" stroke="#27496C" stroke-width="2.57711"/>
<line x1="13.2456" y1="1.89781" x2="13.2456" y2="9.15676" stroke="#27496C" stroke-width="2.57711" stroke-linecap="round"/>
<line x1="32.2944" y1="1.89781" x2="32.2944" y2="9.15676" stroke="#27496C" stroke-width="2.57711" stroke-linecap="round"/>
<line x1="51.3442" y1="1.89781" x2="51.3442" y2="9.15676" stroke="#27496C" stroke-width="2.57711" stroke-linecap="round"/>
<rect x="9.25586" y="14.2623" width="10.5" height="8.19672" rx="3.86567" fill="#EFAF52"/>
<rect x="9.25586" y="29.0165" width="10.5" height="8.19672" rx="3.86567" fill="#C28327"/>
<rect x="9.25586" y="43.7705" width="10.5" height="8.19672" rx="3.86567" fill="#FCF7FF"/>
<rect x="25.7559" y="14.2623" width="10.5" height="8.19672" rx="3.86567" fill="#EFAF52"/>
<rect x="25.7559" y="29.0165" width="10.5" height="8.19672" rx="3.86567" fill="#FCF7FF"/>
<rect x="25.7559" y="43.7705" width="10.5" height="8.19672" rx="3.86567" fill="#FCF7FF"/>
<rect x="42.2568" y="14.2623" width="10.5" height="8.19672" rx="3.86567" fill="#EFAF52"/>
<rect x="42.2568" y="29.0165" width="10.5" height="8.19672" rx="3.86567" fill="#FCF7FF"/>
<rect x="42.2568" y="43.7705" width="10.5" height="8.19672" rx="3.86567" fill="#FCF7FF"/>
<path d="M92.2553 25.1939C92.1113 25.3379 91.9313 25.4099 91.7153 25.4099C91.4993 25.4279 91.3193 25.3469 91.1753 25.1669L82.5083 14.7179L90.4193 4.56595C90.5633 4.42195 90.7433 4.34095 90.9593 4.32295C91.1753 4.30495 91.3643 4.36795 91.5263 4.51195C91.7063 4.65595 91.7963 4.82695 91.7963 5.02495C91.7963 5.20495 91.7242 5.39395 91.5802 5.59195L84.4793 14.6369L92.4172 24.1139C92.5613 24.2939 92.6063 24.4829 92.5522 24.6809C92.5163 24.8609 92.4173 25.0319 92.2553 25.1939ZM78.9713 25.4099C78.7373 25.4099 78.5393 25.3379 78.3773 25.1939C78.2333 25.0319 78.1612 24.8339 78.1612 24.5999V5.13295C78.1612 4.89895 78.2333 4.70995 78.3773 4.56595C78.5393 4.40395 78.7373 4.32295 78.9713 4.32295C79.2053 4.32295 79.3943 4.40395 79.5383 4.56595C79.7003 4.70995 79.7813 4.89895 79.7813 5.13295V14.0429H83.9393V15.5009H79.7813V24.5999C79.7813 24.8339 79.7003 25.0319 79.5383 25.1939C79.3943 25.3379 79.2053 25.4099 78.9713 25.4099Z" fill="#1F2025"/>
<path d="M100.752 25.5719C99.3116 25.5719 98.0156 25.2479 96.8636 24.5999C95.7296 23.9339 94.8296 23.0339 94.1636 21.8999C93.5156 20.7479 93.1916 19.4609 93.1916 18.0389C93.1916 16.5989 93.5156 15.3119 94.1636 14.1779C94.8296 13.0259 95.7296 12.1259 96.8636 11.4779C98.0156 10.8119 99.3116 10.4789 100.752 10.4789C102.192 10.4789 103.479 10.8119 104.613 11.4779C105.747 12.1259 106.638 13.0259 107.286 14.1779C107.952 15.3119 108.285 16.5989 108.285 18.0389L107.61 19.1189C107.61 20.3429 107.304 21.4409 106.692 22.4129C106.098 23.3849 105.288 24.1589 104.262 24.7349C103.236 25.2929 102.066 25.5719 100.752 25.5719ZM100.752 24.0599C101.886 24.0599 102.894 23.7989 103.776 23.2769C104.676 22.7369 105.378 22.0169 105.882 21.1169C106.404 20.1989 106.665 19.1729 106.665 18.0389C106.665 16.8869 106.404 15.8609 105.882 14.9609C105.378 14.0429 104.676 13.3229 103.776 12.8009C102.894 12.2609 101.886 11.9909 100.752 11.9909C99.6356 11.9909 98.6276 12.2609 97.7276 12.8009C96.8276 13.3229 96.1166 14.0429 95.5946 14.9609C95.0726 15.8609 94.8116 16.8869 94.8116 18.0389C94.8116 19.1729 95.0726 20.1989 95.5946 21.1169C96.1166 22.0169 96.8276 22.7369 97.7276 23.2769C98.6276 23.7989 99.6356 24.0599 100.752 24.0599ZM107.475 25.4099C107.241 25.4099 107.043 25.3379 106.881 25.1939C106.737 25.0319 106.665 24.8339 106.665 24.5999V19.6589L107.178 18.0389H108.285V24.5999C108.285 24.8339 108.213 25.0319 108.069 25.1939C107.925 25.3379 107.727 25.4099 107.475 25.4099Z" fill="#1F2025"/>
<path d="M117.808 10.6139C117.988 10.6139 118.159 10.6589 118.321 10.7489C118.483 10.8389 118.6 10.9829 118.672 11.1809L124.747 24.3839C124.837 24.5639 124.837 24.7529 124.747 24.9509C124.675 25.1489 124.54 25.2929 124.342 25.3829C124.144 25.4729 123.937 25.4819 123.721 25.4099C123.523 25.3379 123.379 25.2029 123.289 25.0049L117.349 11.9099H118.456L112.408 24.9779C112.318 25.1759 112.156 25.3109 111.922 25.3829C111.706 25.4549 111.499 25.4459 111.301 25.3559C111.103 25.2659 110.968 25.1219 110.896 24.9239C110.824 24.7259 110.824 24.5369 110.896 24.3569L117.052 11.1809C117.25 10.8029 117.502 10.6139 117.808 10.6139Z" fill="#1F2025"/>
<path d="M134.734 25.5449C133.312 25.5449 132.043 25.2299 130.927 24.5999C129.829 23.9519 128.965 23.0609 128.335 21.9269C127.705 20.7929 127.39 19.4969 127.39 18.0389C127.39 16.5629 127.687 15.2669 128.281 14.1509C128.875 13.0169 129.694 12.1259 130.738 11.4779C131.782 10.8299 132.979 10.5059 134.329 10.5059C135.661 10.5059 136.84 10.8209 137.866 11.4509C138.892 12.0629 139.693 12.9179 140.269 14.0159C140.845 15.0959 141.133 16.3469 141.133 17.7689C141.133 18.0029 141.061 18.1919 140.917 18.3359C140.773 18.4619 140.584 18.5249 140.35 18.5249H128.47V17.1209H140.782L139.594 18.0119C139.63 16.8419 139.432 15.8069 139 14.9069C138.568 14.0069 137.947 13.3049 137.137 12.8009C136.345 12.2789 135.409 12.0179 134.329 12.0179C133.303 12.0179 132.385 12.2789 131.575 12.8009C130.783 13.3049 130.153 14.0069 129.685 14.9069C129.235 15.8069 129.01 16.8509 129.01 18.0389C129.01 19.2089 129.253 20.2439 129.739 21.1439C130.225 22.0439 130.9 22.7549 131.764 23.2769C132.628 23.7809 133.618 24.0329 134.734 24.0329C135.436 24.0329 136.138 23.9159 136.84 23.6819C137.56 23.4299 138.127 23.1059 138.541 22.7099C138.685 22.5659 138.856 22.4939 139.054 22.4939C139.27 22.4759 139.45 22.5299 139.594 22.6559C139.792 22.8179 139.891 22.9979 139.891 23.1959C139.909 23.3939 139.828 23.5739 139.648 23.7359C139.072 24.2579 138.316 24.6899 137.38 25.0319C136.462 25.3739 135.58 25.5449 134.734 25.5449Z" fill="#1F2025"/>
<path d="M157.424 25.4099C157.19 25.4099 156.992 25.3379 156.83 25.1939C156.686 25.0319 156.614 24.8339 156.614 24.5999V11.4509C156.614 11.1989 156.686 11.0009 156.83 10.8569C156.992 10.7129 157.19 10.6409 157.424 10.6409C157.676 10.6409 157.874 10.7129 158.018 10.8569C158.162 11.0009 158.234 11.1989 158.234 11.4509V24.5999C158.234 24.8339 158.162 25.0319 158.018 25.1939C157.874 25.3379 157.676 25.4099 157.424 25.4099ZM145.463 25.4099C145.229 25.4099 145.031 25.3379 144.869 25.1939C144.725 25.0319 144.653 24.8339 144.653 24.5999V11.4509C144.653 11.1989 144.725 11.0009 144.869 10.8569C145.031 10.7129 145.229 10.6409 145.463 10.6409C145.715 10.6409 145.913 10.7129 146.057 10.8569C146.201 11.0009 146.273 11.1989 146.273 11.4509V24.5999C146.273 24.8339 146.201 25.0319 146.057 25.1939C145.913 25.3379 145.715 25.4099 145.463 25.4099ZM145.922 18.8489V17.3909H157.289V18.8489H145.922Z" fill="#1F2025"/>
<path d="M169.834 25.5719C168.358 25.5719 167.053 25.2479 165.919 24.5999C164.785 23.9519 163.894 23.0609 163.246 21.9269C162.598 20.7929 162.274 19.4969 162.274 18.0389C162.274 16.5629 162.607 15.2579 163.273 14.1239C163.939 12.9899 164.839 12.0989 165.973 11.4509C167.125 10.8029 168.412 10.4789 169.834 10.4789C171.31 10.4789 172.606 10.8029 173.722 11.4509C174.856 12.0989 175.747 12.9899 176.395 14.1239C177.043 15.2579 177.367 16.5629 177.367 18.0389L176.422 19.1189C176.422 20.3789 176.143 21.4949 175.585 22.4669C175.027 23.4389 174.253 24.2039 173.263 24.7619C172.273 25.3019 171.13 25.5719 169.834 25.5719ZM169.942 31.0529C168.448 31.0529 167.17 30.7739 166.108 30.2159C165.064 29.6579 164.2 28.9469 163.516 28.0829C163.372 27.9029 163.3 27.7139 163.3 27.5159C163.3 27.3179 163.39 27.1559 163.57 27.0299C163.75 26.8859 163.957 26.8319 164.191 26.8679C164.443 26.9039 164.632 27.0209 164.758 27.2189C165.316 27.8849 166.027 28.4339 166.891 28.8659C167.755 29.3159 168.772 29.5409 169.942 29.5409C171.058 29.5409 172.048 29.2709 172.912 28.7309C173.794 28.1909 174.487 27.4439 174.991 26.4899C175.495 25.5539 175.747 24.5009 175.747 23.3309V19.0379L176.476 18.0389H177.367V23.3309C177.367 24.7889 177.043 26.1029 176.395 27.2729C175.747 28.4429 174.865 29.3609 173.749 30.0269C172.633 30.7109 171.364 31.0529 169.942 31.0529ZM169.834 24.0599C170.986 24.0599 172.003 23.8079 172.885 23.3039C173.785 22.7819 174.487 22.0709 174.991 21.1709C175.495 20.2529 175.747 19.2089 175.747 18.0389C175.747 16.8509 175.495 15.8069 174.991 14.9069C174.487 13.9889 173.785 13.2779 172.885 12.7739C172.003 12.2519 170.986 11.9909 169.834 11.9909C168.682 11.9909 167.656 12.2519 166.756 12.7739C165.856 13.2779 165.154 13.9889 164.65 14.9069C164.146 15.8069 163.894 16.8509 163.894 18.0389C163.894 19.2089 164.146 20.2529 164.65 21.1709C165.154 22.0709 165.856 22.7819 166.756 23.3039C167.656 23.8079 168.682 24.0599 169.834 24.0599Z" fill="#1F2025"/>
<path d="M188.159 25.5719C186.719 25.5719 185.423 25.2479 184.271 24.5999C183.137 23.9339 182.237 23.0339 181.571 21.8999C180.923 20.7479 180.599 19.4609 180.599 18.0389C180.599 16.5989 180.923 15.3119 181.571 14.1779C182.237 13.0259 183.137 12.1259 184.271 11.4779C185.423 10.8119 186.719 10.4789 188.159 10.4789C189.599 10.4789 190.886 10.8119 192.02 11.4779C193.154 12.1259 194.045 13.0259 194.693 14.1779C195.359 15.3119 195.692 16.5989 195.692 18.0389L195.017 19.1189C195.017 20.3429 194.711 21.4409 194.099 22.4129C193.505 23.3849 192.695 24.1589 191.669 24.7349C190.643 25.2929 189.473 25.5719 188.159 25.5719ZM188.159 24.0599C189.293 24.0599 190.301 23.7989 191.183 23.2769C192.083 22.7369 192.785 22.0169 193.289 21.1169C193.811 20.1989 194.072 19.1729 194.072 18.0389C194.072 16.8869 193.811 15.8609 193.289 14.9609C192.785 14.0429 192.083 13.3229 191.183 12.8009C190.301 12.2609 189.293 11.9909 188.159 11.9909C187.043 11.9909 186.035 12.2609 185.135 12.8009C184.235 13.3229 183.524 14.0429 183.002 14.9609C182.48 15.8609 182.219 16.8869 182.219 18.0389C182.219 19.1729 182.48 20.1989 183.002 21.1169C183.524 22.0169 184.235 22.7369 185.135 23.2769C186.035 23.7989 187.043 24.0599 188.159 24.0599ZM194.882 25.4099C194.648 25.4099 194.45 25.3379 194.288 25.1939C194.144 25.0319 194.072 24.8339 194.072 24.5999V19.6589L194.585 18.0389H195.692V24.5999C195.692 24.8339 195.62 25.0319 195.476 25.1939C195.332 25.3379 195.134 25.4099 194.882 25.4099Z" fill="#1F2025"/>
<path d="M200.544 31.7279C200.31 31.7279 200.112 31.6469 199.95 31.4849C199.806 31.3409 199.734 31.1519 199.734 30.9179V17.8769C199.77 16.4549 200.112 15.1949 200.76 14.0969C201.426 12.9809 202.326 12.0989 203.46 11.4509C204.594 10.8029 205.863 10.4789 207.267 10.4789C208.707 10.4789 209.994 10.8119 211.128 11.4779C212.28 12.1259 213.18 13.0259 213.828 14.1779C214.494 15.3119 214.827 16.5989 214.827 18.0389C214.827 19.4609 214.494 20.7479 213.828 21.8999C213.18 23.0339 212.28 23.9339 211.128 24.5999C209.994 25.2479 208.707 25.5719 207.267 25.5719C205.971 25.5719 204.801 25.2929 203.757 24.7349C202.731 24.1769 201.93 23.4299 201.354 22.4939V30.9179C201.354 31.1519 201.282 31.3409 201.138 31.4849C200.994 31.6469 200.796 31.7279 200.544 31.7279ZM207.267 24.0599C208.401 24.0599 209.409 23.7989 210.291 23.2769C211.191 22.7369 211.902 22.0169 212.424 21.1169C212.946 20.1989 213.207 19.1729 213.207 18.0389C213.207 16.8869 212.946 15.8609 212.424 14.9609C211.902 14.0429 211.191 13.3229 210.291 12.8009C209.409 12.2609 208.401 11.9909 207.267 11.9909C206.151 11.9909 205.143 12.2609 204.243 12.8009C203.343 13.3229 202.632 14.0429 202.11 14.9609C201.606 15.8609 201.354 16.8869 201.354 18.0389C201.354 19.1729 201.606 20.1989 202.11 21.1169C202.632 22.0169 203.343 22.7369 204.243 23.2769C205.143 23.7989 206.151 24.0599 207.267 24.0599Z" fill="#1F2025"/>
<path d="M224.871 25.6799C223.701 25.6799 222.666 25.4639 221.766 25.0319C220.866 24.5819 220.155 23.9699 219.633 23.1959C219.129 22.4039 218.877 21.5039 218.877 20.4959V11.4239C218.895 11.1899 218.976 11.0009 219.12 10.8569C219.264 10.7129 219.453 10.6409 219.687 10.6409C219.939 10.6409 220.137 10.7129 220.281 10.8569C220.425 11.0009 220.497 11.1989 220.497 11.4509V15.8519H224.871C226.059 15.8519 227.076 16.0679 227.922 16.4999C228.786 16.9319 229.443 17.5169 229.893 18.2549C230.361 18.9929 230.595 19.8299 230.595 20.7659C230.595 21.7199 230.352 22.5749 229.866 23.3309C229.38 24.0689 228.705 24.6449 227.841 25.0589C226.977 25.4729 225.987 25.6799 224.871 25.6799ZM224.871 24.2219C226.077 24.2219 227.058 23.9339 227.814 23.3579C228.588 22.7819 228.975 21.9179 228.975 20.7659C228.975 19.7039 228.624 18.8669 227.922 18.2549C227.238 17.6249 226.221 17.3099 224.871 17.3099H220.497V20.5229C220.497 21.2429 220.668 21.8819 221.01 22.4399C221.37 22.9979 221.874 23.4389 222.522 23.7629C223.188 24.0689 223.971 24.2219 224.871 24.2219Z" fill="#1F2025"/>
<path d="M86.1533 55.4099C85.9193 55.4099 85.7212 55.3379 85.5592 55.1939C85.4152 55.0319 85.3433 54.834 85.3433 54.5999V48.8489H82.5083L77.7293 55.1669C77.6033 55.3469 77.4233 55.4279 77.1893 55.4099C76.9733 55.4099 76.7933 55.3379 76.6493 55.1939C76.4873 55.0319 76.4062 54.8609 76.4062 54.6809C76.4243 54.4829 76.4963 54.2939 76.6223 54.1139L81.2663 47.9849L77.2433 41.9099C77.1173 41.7119 77.0453 41.5229 77.0273 41.3429C77.0273 41.1449 77.1173 40.9739 77.2973 40.8299C77.4593 40.6859 77.6213 40.6229 77.7833 40.6409C77.9633 40.6589 78.1252 40.7399 78.2693 40.8839L82.5893 47.3909H85.3433V41.4509C85.3433 41.1989 85.4152 41.0009 85.5592 40.8569C85.7212 40.7129 85.9193 40.6409 86.1533 40.6409C86.4053 40.6409 86.6033 40.7129 86.7473 40.8569C86.8913 41.0009 86.9633 41.1989 86.9633 41.4509V47.3909H89.6363L94.0373 40.8839C94.1813 40.7399 94.3343 40.6589 94.4963 40.6409C94.6763 40.6229 94.8472 40.6859 95.0093 40.8299C95.1893 40.9739 95.2703 41.1449 95.2523 41.3429C95.2523 41.5229 95.1893 41.7119 95.0632 41.9099L91.0403 47.9849L95.6842 54.1139C95.8283 54.2939 95.9003 54.4829 95.9003 54.6809C95.9003 54.8609 95.8193 55.0319 95.6573 55.1939C95.5133 55.3379 95.3333 55.4099 95.1173 55.4099C94.9013 55.4279 94.7213 55.3469 94.5772 55.1669L89.7983 48.8489H86.9633V54.5999C86.9633 54.834 86.8913 55.0319 86.7473 55.1939C86.6033 55.3379 86.4053 55.4099 86.1533 55.4099Z" fill="#1F2025"/>
<path d="M105.836 55.5989C104.54 55.5989 103.379 55.3379 102.353 54.8159C101.327 54.2759 100.508 53.4929 99.896 52.4669C99.302 51.4409 99.005 50.1899 99.005 48.7139V41.4509C99.005 41.2169 99.077 41.0279 99.221 40.8839C99.383 40.7219 99.581 40.6409 99.815 40.6409C100.049 40.6409 100.238 40.7219 100.382 40.8839C100.544 41.0279 100.625 41.2169 100.625 41.4509V48.7139C100.625 49.8839 100.85 50.8649 101.3 51.6569C101.768 52.431 102.389 53.0159 103.163 53.4119C103.955 53.7899 104.846 53.9789 105.836 53.9789C106.808 53.9789 107.681 53.7899 108.455 53.4119C109.229 53.0339 109.841 52.5299 110.291 51.8999C110.741 51.2519 110.966 50.5229 110.966 49.7129H112.316C112.244 50.8289 111.911 51.8369 111.317 52.7369C110.723 53.6189 109.949 54.3209 108.995 54.8429C108.059 55.3469 107.006 55.5989 105.836 55.5989ZM111.776 55.4099C111.542 55.4099 111.344 55.3379 111.182 55.1939C111.038 55.0319 110.966 54.834 110.966 54.5999V41.4509C110.966 41.1989 111.038 41.0009 111.182 40.8569C111.344 40.7129 111.542 40.6409 111.776 40.6409C112.028 40.6409 112.226 40.7129 112.37 40.8569C112.514 41.0009 112.586 41.1989 112.586 41.4509V54.5999C112.586 54.834 112.514 55.0319 112.37 55.1939C112.226 55.3379 112.028 55.4099 111.776 55.4099Z" fill="#1F2025"/>
<path d="M121.87 55.6799C121.132 55.6799 120.394 55.5629 119.656 55.3289C118.918 55.0949 118.252 54.7799 117.658 54.3839C117.082 53.9699 116.632 53.5109 116.308 53.0069C116.2 52.8089 116.191 52.611 116.281 52.4129C116.371 52.2149 116.533 52.0619 116.767 51.9539C116.929 51.8819 117.109 51.8909 117.307 51.9809C117.505 52.0529 117.667 52.1789 117.793 52.3589C118.261 52.8629 118.846 53.2949 119.548 53.6549C120.25 53.9969 121.015 54.1679 121.843 54.1679C122.959 54.1679 123.886 53.9339 124.624 53.4659C125.38 52.9799 125.758 52.2689 125.758 51.3329C125.758 50.5229 125.452 49.8299 124.84 49.2539C124.246 48.6779 123.49 48.3719 122.572 48.3359H121.33C121.042 48.3359 120.799 48.2639 120.601 48.1199C120.421 47.9759 120.331 47.7959 120.331 47.5799C120.331 47.3639 120.421 47.1839 120.601 47.0399C120.799 46.8959 121.042 46.8239 121.33 46.8239H122.572C123.31 46.8239 123.922 46.5899 124.408 46.1219C124.912 45.6359 125.164 45.0419 125.164 44.3399C125.164 43.6559 124.849 43.0799 124.219 42.6119C123.607 42.1439 122.833 41.9099 121.897 41.9099C120.943 41.9099 120.187 42.0809 119.629 42.4229C119.071 42.7469 118.612 43.1609 118.252 43.6649C118.126 43.8449 117.955 43.9619 117.739 44.0159C117.541 44.0699 117.343 44.0519 117.145 43.9619C116.911 43.8539 116.758 43.7009 116.686 43.5029C116.632 43.2869 116.668 43.0799 116.794 42.8819C117.352 42.1619 118.045 41.5679 118.873 41.0999C119.719 40.6139 120.727 40.3709 121.897 40.3709C122.833 40.3709 123.661 40.5419 124.381 40.8839C125.119 41.2079 125.704 41.6579 126.136 42.2339C126.568 42.8099 126.784 43.4669 126.784 44.2049C126.784 44.7809 126.631 45.3209 126.325 45.8249C126.037 46.3289 125.632 46.7519 125.11 47.0939C124.606 47.4359 124.021 47.6609 123.355 47.7689V47.4179C124.129 47.4179 124.813 47.5889 125.407 47.9309C126.019 48.2729 126.496 48.7409 126.838 49.3349C127.198 49.9289 127.378 50.6039 127.378 51.3599C127.378 52.1699 127.135 52.9079 126.649 53.5739C126.181 54.2219 125.533 54.7349 124.705 55.1129C123.877 55.4909 122.932 55.6799 121.87 55.6799Z" fill="#1F2025"/>
<path d="M143.792 55.4099C143.558 55.4099 143.36 55.3379 143.198 55.1939C143.054 55.0319 142.982 54.834 142.982 54.5999V41.4509C142.982 41.1989 143.054 41.0009 143.198 40.8569C143.36 40.7129 143.558 40.6409 143.792 40.6409C144.044 40.6409 144.242 40.7129 144.386 40.8569C144.53 41.0009 144.602 41.1989 144.602 41.4509V54.5999C144.602 54.834 144.53 55.0319 144.386 55.1939C144.242 55.3379 144.044 55.4099 143.792 55.4099ZM131.831 55.4099C131.597 55.4099 131.399 55.3379 131.237 55.1939C131.093 55.0319 131.021 54.834 131.021 54.5999V41.4509C131.021 41.1989 131.093 41.0009 131.237 40.8569C131.399 40.7129 131.597 40.6409 131.831 40.6409C132.083 40.6409 132.281 40.7129 132.425 40.8569C132.569 41.0009 132.641 41.1989 132.641 41.4509V54.5999C132.641 54.834 132.569 55.0319 132.425 55.1939C132.281 55.3379 132.083 55.4099 131.831 55.4099ZM132.29 48.8489V47.3909H143.657V48.8489H132.29Z" fill="#1F2025"/>
<path d="M156.013 55.5989C154.717 55.5989 153.556 55.3379 152.53 54.8159C151.504 54.2759 150.685 53.4929 150.073 52.4669C149.479 51.4409 149.182 50.1899 149.182 48.7139V41.4509C149.182 41.2169 149.254 41.0279 149.398 40.8839C149.56 40.7219 149.758 40.6409 149.992 40.6409C150.226 40.6409 150.415 40.7219 150.559 40.8839C150.721 41.0279 150.802 41.2169 150.802 41.4509V48.7139C150.802 49.8839 151.027 50.8649 151.477 51.6569C151.945 52.431 152.566 53.0159 153.34 53.4119C154.132 53.7899 155.023 53.9789 156.013 53.9789C156.985 53.9789 157.858 53.7899 158.632 53.4119C159.406 53.0339 160.018 52.5299 160.468 51.8999C160.918 51.2519 161.143 50.5229 161.143 49.7129H162.493C162.421 50.8289 162.088 51.8369 161.494 52.7369C160.9 53.6189 160.126 54.3209 159.172 54.8429C158.236 55.3469 157.183 55.5989 156.013 55.5989ZM161.953 55.4099C161.719 55.4099 161.521 55.3379 161.359 55.1939C161.215 55.0319 161.143 54.834 161.143 54.5999V41.4509C161.143 41.1989 161.215 41.0009 161.359 40.8569C161.521 40.7129 161.719 40.6409 161.953 40.6409C162.205 40.6409 162.403 40.7129 162.547 40.8569C162.691 41.0009 162.763 41.1989 162.763 41.4509V54.5999C162.763 54.834 162.691 55.0319 162.547 55.1939C162.403 55.3379 162.205 55.4099 161.953 55.4099Z" fill="#1F2025"/>
</svg>
