<svg width="1430" height="162" viewBox="0 0 1430 162" fill="none" xmlns="http://www.w3.org/2000/svg">
<path d="M230.514 2.72359C222.096 2.72359 217.886 3.46638 208.478 3.46638C196.593 3.46638 190.403 2.72359 182.232 2.72359C181.489 2.72359 181.489 5.69476 182.232 5.69476C198.079 5.69476 203.03 13.8655 197.336 28.4738L156.73 131.227L125.78 64.8707L140.141 28.4738C146.826 11.6371 155.244 5.69476 165.643 5.69476C166.634 5.69476 166.634 2.72359 165.643 2.72359C157.72 2.72359 153.758 3.46638 145.093 3.46638C134.198 3.46638 133.951 2.72359 128.751 2.72359C128.008 2.72359 128.008 5.69476 128.751 5.69476C138.903 5.69476 140.141 12.1323 134.446 27.2358L122.313 57.6904L106.715 24.017C99.2869 8.17074 99.2868 5.69476 109.191 5.69476C110.181 5.69476 110.181 2.72359 109.191 2.72359C103.991 2.72359 98.2965 3.46638 85.1738 3.46638C76.7554 3.46638 72.5462 2.72359 66.6039 2.72359C65.8611 2.72359 65.8611 5.69476 66.6039 5.69476C75.0222 5.69476 80.2218 11.3895 85.669 23.2742L112.162 80.4694L92.1065 131.227L42.0917 24.017C35.1589 9.16113 38.8729 5.69476 51.9956 5.69476C52.986 5.69476 52.986 2.72359 51.9956 2.72359C44.8153 2.72359 37.1397 3.46638 20.5506 3.46638C11.1419 3.46638 6.93275 2.72359 0.742794 2.72359C-0.247598 2.72359 -0.247598 5.69476 0.742794 5.69476C10.6467 5.69476 14.8559 9.65634 21.0458 23.2742L83.193 157.225C83.6882 158.463 88.1449 158.463 88.6401 157.225L115.628 87.8973L147.816 157.225C148.311 158.463 152.768 158.463 153.263 157.225L203.773 28.4738C209.963 12.3799 219.372 5.69476 230.514 5.69476C231.504 5.69476 231.504 2.72359 230.514 2.72359Z" fill="#E9E9E9"/>
<path d="M348.576 119.838C343.871 140.141 331.244 151.778 312.426 151.778H296.332C282.715 151.778 279.496 148.311 279.496 136.427V79.7266H305.989C323.816 79.7266 331.491 86.4118 331.491 100.525C331.491 101.515 334.463 101.515 334.463 100.525C334.463 91.8589 333.72 84.9262 333.72 77.003C333.72 70.8131 333.967 66.3563 333.967 56.2048C333.967 55.462 331.244 55.462 331.244 56.2048C331.244 68.3371 323.816 74.0319 306.732 74.0319H279.496V23.7694C279.496 11.8847 283.21 8.41833 297.57 8.41833H310.445C327.53 8.41833 338.424 18.3223 341.148 36.3969C341.148 37.3873 343.871 37.1397 343.871 36.3969L343.376 4.95196C343.376 3.46637 342.881 2.72359 341.148 2.72359H239.88C238.89 2.72359 238.89 5.69476 239.88 5.69476C256.964 5.69476 259.935 8.66594 259.935 22.779V137.417C259.935 151.778 256.964 154.501 239.88 154.501C238.89 154.501 238.89 157.472 239.88 157.472H345.357C348.328 157.472 349.071 156.482 349.071 153.758C349.071 143.112 350.309 129.246 351.547 120.333C351.547 119.342 348.576 118.847 348.576 119.838Z" fill="#E9E9E9"/>
<path d="M447.861 70.3179C466.183 63.6327 476.83 50.51 476.83 34.4161C476.83 15.3511 462.964 1.98079 433.747 1.98079C424.586 1.98079 412.702 3.46638 404.036 3.46638C392.894 3.46638 382.495 2.72359 374.324 2.72359C373.581 2.72359 373.581 5.69476 374.324 5.69476C390.913 5.69476 394.379 8.66594 394.379 22.779V137.417C394.379 151.778 390.665 154.501 374.076 154.501C373.086 154.501 373.086 157.472 374.076 157.472C382.247 157.472 392.894 156.977 404.036 156.977C415.178 156.977 430.281 158.463 440.185 158.463C469.649 158.463 491.933 138.655 491.933 112.162C491.933 89.8781 474.601 72.7939 447.861 70.3179ZM428.796 6.18996C448.851 6.18996 457.269 18.8175 457.269 36.3969C457.269 55.462 447.861 70.5655 424.834 70.5655C424.339 70.5655 420.13 70.5655 413.94 70.3179V23.2742C413.94 8.17074 417.901 6.18996 428.796 6.18996ZM436.223 153.511C417.406 153.511 413.94 148.806 413.94 137.417V76.7554C420.13 76.2602 426.072 76.0126 431.024 76.2602C457.022 76.5078 470.887 93.5921 470.887 118.104C470.887 140.388 460.488 153.511 436.223 153.511Z" fill="#E9E9E9"/>
<path d="M639.424 158.463C684.735 158.463 722.865 127.018 722.865 77.4982C722.865 34.9113 688.201 2.22839 635.958 2.22839C626.797 2.22839 612.188 3.46638 601.046 3.46638C589.657 3.46638 579.505 2.72359 571.335 2.72359C570.344 2.72359 570.344 5.69476 571.335 5.69476C588.419 5.69476 591.39 8.66594 591.39 22.779V137.417C591.39 151.778 588.171 154.501 571.087 154.501C570.097 154.501 570.097 157.472 571.087 157.472C579.258 157.472 589.657 156.977 601.046 156.977C613.179 156.977 629.52 158.463 639.424 158.463ZM636.948 154.006C615.407 154.006 610.95 148.064 610.95 134.693V23.2742C610.95 8.66595 618.626 6.43756 638.434 6.43756C676.316 6.43756 700.333 40.1109 700.333 82.9454C700.333 128.999 673.593 154.006 636.948 154.006Z" fill="#E9E9E9"/>
<path d="M854.411 119.838C849.706 140.141 837.079 151.778 818.262 151.778H802.168C788.55 151.778 785.331 148.311 785.331 136.427V79.7266H811.824C829.651 79.7266 837.327 86.4118 837.327 100.525C837.327 101.515 840.298 101.515 840.298 100.525C840.298 91.8589 839.555 84.9262 839.555 77.003C839.555 70.8131 839.803 66.3563 839.803 56.2048C839.803 55.462 837.079 55.462 837.079 56.2048C837.079 68.3371 829.651 74.0319 812.567 74.0319H785.331V23.7694C785.331 11.8847 789.045 8.41833 803.406 8.41833H816.281C833.365 8.41833 844.259 18.3223 846.983 36.3969C846.983 37.3873 849.706 37.1397 849.706 36.3969L849.211 4.95196C849.211 3.46637 848.716 2.72359 846.983 2.72359H745.715C744.725 2.72359 744.725 5.69476 745.715 5.69476C762.8 5.69476 765.771 8.66594 765.771 22.779V137.417C765.771 151.778 762.8 154.501 745.715 154.501C744.725 154.501 744.725 157.472 745.715 157.472H851.192C854.163 157.472 854.906 156.482 854.906 153.758C854.906 143.112 856.144 129.246 857.382 120.333C857.382 119.342 854.411 118.847 854.411 119.838Z" fill="#E9E9E9"/>
<path d="M907.643 30.4546C907.643 15.8463 916.061 4.20918 933.393 4.20918C958.4 4.20918 967.809 29.9594 970.037 41.3489C970.532 42.8345 973.008 42.3393 973.008 41.1013L972.018 10.1515C972.018 8.41833 970.78 6.93274 968.057 5.69476C959.391 1.98079 948.249 0 938.097 0C914.823 0 890.063 12.3799 890.063 39.1205C890.063 61.6519 907.643 72.2987 924.974 83.193C942.801 94.3349 961.124 105.229 961.124 128.999C961.124 149.549 947.258 155.739 933.64 155.739C908.138 155.739 895.51 130.979 889.568 110.676C889.073 109.438 886.349 109.686 886.597 111.172L889.073 146.578C889.073 149.302 889.815 150.54 891.301 151.282C900.957 156.977 915.07 160.444 927.698 160.444C959.886 160.444 979.446 141.874 979.446 117.609C979.446 93.8397 960.381 82.4502 942.059 71.3083C924.479 60.6615 907.643 50.51 907.643 30.4546Z" fill="#E9E9E9"/>
<path d="M1044.32 137.417V23.2742C1044.32 9.16113 1047.29 5.69476 1064.38 5.69476C1065.12 5.69476 1065.12 2.72359 1064.38 2.72359C1056.45 2.72359 1046.06 3.46638 1033.92 3.46638C1022.78 3.46638 1012.13 2.72359 1003.96 2.72359C1003.22 2.72359 1003.22 5.69476 1003.96 5.69476C1021.05 5.69476 1024.27 8.66594 1024.27 22.779V137.417C1024.27 151.778 1021.05 154.501 1003.96 154.501C1003.22 154.501 1003.22 157.472 1003.96 157.472C1012.13 157.472 1022.78 156.977 1033.92 156.977C1046.06 156.977 1056.21 157.472 1064.38 157.472C1065.12 157.472 1065.12 154.501 1064.38 154.501C1046.8 154.501 1044.32 151.778 1044.32 137.417Z" fill="#E9E9E9"/>
<path d="M1176.28 160.444C1193.61 160.444 1213.17 157.472 1230.51 153.511C1232.73 152.768 1233.48 152.52 1233.48 150.54C1233.48 146.578 1231.74 145.34 1231.74 128.751C1231.74 102.506 1232.49 99.5345 1243.13 99.7821C1244.87 99.7821 1244.37 96.3157 1243.13 96.3157C1223.57 97.3061 1207.48 97.3061 1185.94 95.8205C1184.21 95.8205 1184.21 99.7821 1186.19 99.7821C1211.19 99.7821 1213.17 102.506 1213.17 126.275C1213.17 151.778 1204.51 156.234 1182.47 156.234C1140.63 156.234 1109.93 122.066 1109.93 72.7939C1109.93 31.9402 1131.22 5.69476 1171.08 5.69476C1198.32 5.69476 1218.37 19.5603 1227.04 44.0725C1227.29 45.0629 1229.76 44.5677 1229.76 43.8249L1226.79 13.8655C1226.55 10.8943 1226.55 9.90393 1223.57 8.17074C1213.92 2.97119 1197.33 0 1181.98 0C1128 0 1087.89 33.1782 1087.89 81.7074C1087.89 125.532 1120.57 160.444 1176.28 160.444Z" fill="#E9E9E9"/>
<path d="M1428.79 2.72359C1422.1 2.72359 1413.93 3.46638 1405.51 3.46638C1396.85 3.46638 1389.67 2.72359 1382.98 2.72359C1382.24 2.72359 1382.24 5.69476 1382.98 5.69476C1396.35 5.69476 1402.3 14.1131 1402.3 31.1974V126.77L1309.94 15.5987C1302.27 6.18996 1302.51 2.72359 1298.06 2.72359C1294.59 2.72359 1287.66 3.21878 1279.73 3.21878C1274.53 3.21878 1267.6 2.72359 1261.66 2.72359C1260.67 2.72359 1260.67 5.69476 1261.66 5.69476C1268.34 5.69476 1274.78 8.17073 1283.2 16.5891V128.999C1283.2 146.33 1276.76 154.501 1262.4 154.501C1261.41 154.501 1261.41 157.472 1262.4 157.472C1269.58 157.472 1278 156.977 1286.67 156.977C1295.33 156.977 1302.51 157.472 1309.2 157.472C1310.19 157.472 1310.19 154.501 1309.2 154.501C1295.83 154.501 1289.64 146.33 1289.64 128.999V23.5218L1405.76 161.186C1406.26 161.682 1408.73 161.434 1408.73 160.691V31.1974C1408.73 14.1131 1415.17 5.69476 1428.79 5.69476C1429.78 5.69476 1429.78 2.72359 1428.79 2.72359Z" fill="#E9E9E9"/>
</svg>
