<svg width="1430" height="705" viewBox="0 0 1430 705" fill="none" xmlns="http://www.w3.org/2000/svg">
<path d="M230.514 2.72359C222.096 2.72359 217.886 3.46638 208.478 3.46638C196.593 3.46638 190.403 2.72359 182.232 2.72359C181.489 2.72359 181.489 5.69476 182.232 5.69476C198.079 5.69476 203.03 13.8655 197.336 28.4738L156.73 131.227L125.78 64.8707L140.141 28.4738C146.826 11.6371 155.244 5.69476 165.643 5.69476C166.634 5.69476 166.634 2.72359 165.643 2.72359C157.72 2.72359 153.758 3.46638 145.093 3.46638C134.198 3.46638 133.951 2.72359 128.751 2.72359C128.008 2.72359 128.008 5.69476 128.751 5.69476C138.903 5.69476 140.141 12.1323 134.446 27.2358L122.313 57.6904L106.715 24.017C99.2869 8.17074 99.2868 5.69476 109.191 5.69476C110.181 5.69476 110.181 2.72359 109.191 2.72359C103.991 2.72359 98.2965 3.46638 85.1738 3.46638C76.7554 3.46638 72.5462 2.72359 66.6039 2.72359C65.8611 2.72359 65.8611 5.69476 66.6039 5.69476C75.0222 5.69476 80.2218 11.3895 85.669 23.2742L112.162 80.4694L92.1065 131.227L42.0917 24.017C35.1589 9.16113 38.8729 5.69476 51.9956 5.69476C52.986 5.69476 52.986 2.72359 51.9956 2.72359C44.8153 2.72359 37.1397 3.46638 20.5506 3.46638C11.1419 3.46638 6.93275 2.72359 0.742794 2.72359C-0.247598 2.72359 -0.247598 5.69476 0.742794 5.69476C10.6467 5.69476 14.8559 9.65634 21.0458 23.2742L83.193 157.225C83.6882 158.463 88.1449 158.463 88.6401 157.225L115.628 87.8973L147.816 157.225C148.311 158.463 152.768 158.463 153.263 157.225L203.773 28.4738C209.963 12.3799 219.372 5.69476 230.514 5.69476C231.504 5.69476 231.504 2.72359 230.514 2.72359Z" fill="#E9E9E9"/>
<path d="M348.576 119.838C343.871 140.141 331.244 151.778 312.426 151.778H296.332C282.715 151.778 279.496 148.311 279.496 136.427V79.7266H305.989C323.816 79.7266 331.491 86.4118 331.491 100.525C331.491 101.515 334.463 101.515 334.463 100.525C334.463 91.8589 333.72 84.9262 333.72 77.003C333.72 70.8131 333.967 66.3563 333.967 56.2048C333.967 55.462 331.244 55.462 331.244 56.2048C331.244 68.3371 323.816 74.0319 306.732 74.0319H279.496V23.7694C279.496 11.8847 283.21 8.41833 297.57 8.41833H310.445C327.53 8.41833 338.424 18.3223 341.148 36.3969C341.148 37.3873 343.871 37.1397 343.871 36.3969L343.376 4.95196C343.376 3.46637 342.881 2.72359 341.148 2.72359H239.88C238.89 2.72359 238.89 5.69476 239.88 5.69476C256.964 5.69476 259.935 8.66594 259.935 22.779V137.417C259.935 151.778 256.964 154.501 239.88 154.501C238.89 154.501 238.89 157.472 239.88 157.472H345.357C348.328 157.472 349.071 156.482 349.071 153.758C349.071 143.112 350.309 129.246 351.547 120.333C351.547 119.342 348.576 118.847 348.576 119.838Z" fill="#E9E9E9"/>
<path d="M447.861 70.3179C466.183 63.6327 476.83 50.51 476.83 34.4161C476.83 15.3511 462.964 1.98079 433.747 1.98079C424.586 1.98079 412.702 3.46638 404.036 3.46638C392.894 3.46638 382.495 2.72359 374.324 2.72359C373.581 2.72359 373.581 5.69476 374.324 5.69476C390.913 5.69476 394.379 8.66594 394.379 22.779V137.417C394.379 151.778 390.665 154.501 374.076 154.501C373.086 154.501 373.086 157.472 374.076 157.472C382.247 157.472 392.894 156.977 404.036 156.977C415.178 156.977 430.281 158.463 440.185 158.463C469.649 158.463 491.933 138.655 491.933 112.162C491.933 89.8781 474.601 72.7939 447.861 70.3179ZM428.796 6.18996C448.851 6.18996 457.269 18.8175 457.269 36.3969C457.269 55.462 447.861 70.5655 424.834 70.5655C424.339 70.5655 420.13 70.5655 413.94 70.3179V23.2742C413.94 8.17074 417.901 6.18996 428.796 6.18996ZM436.223 153.511C417.406 153.511 413.94 148.806 413.94 137.417V76.7554C420.13 76.2602 426.072 76.0126 431.024 76.2602C457.022 76.5078 470.887 93.5921 470.887 118.104C470.887 140.388 460.488 153.511 436.223 153.511Z" fill="#E9E9E9"/>
<path d="M639.424 158.463C684.735 158.463 722.865 127.018 722.865 77.4982C722.865 34.9113 688.201 2.22839 635.958 2.22839C626.797 2.22839 612.188 3.46638 601.046 3.46638C589.657 3.46638 579.505 2.72359 571.335 2.72359C570.344 2.72359 570.344 5.69476 571.335 5.69476C588.419 5.69476 591.39 8.66594 591.39 22.779V137.417C591.39 151.778 588.171 154.501 571.087 154.501C570.097 154.501 570.097 157.472 571.087 157.472C579.258 157.472 589.657 156.977 601.046 156.977C613.179 156.977 629.52 158.463 639.424 158.463ZM636.948 154.006C615.407 154.006 610.95 148.064 610.95 134.693V23.2742C610.95 8.66595 618.626 6.43756 638.434 6.43756C676.316 6.43756 700.333 40.1109 700.333 82.9454C700.333 128.999 673.593 154.006 636.948 154.006Z" fill="#E9E9E9"/>
<path d="M854.411 119.838C849.706 140.141 837.079 151.778 818.262 151.778H802.168C788.55 151.778 785.331 148.311 785.331 136.427V79.7266H811.824C829.651 79.7266 837.327 86.4118 837.327 100.525C837.327 101.515 840.298 101.515 840.298 100.525C840.298 91.8589 839.555 84.9262 839.555 77.003C839.555 70.8131 839.803 66.3563 839.803 56.2048C839.803 55.462 837.079 55.462 837.079 56.2048C837.079 68.3371 829.651 74.0319 812.567 74.0319H785.331V23.7694C785.331 11.8847 789.045 8.41833 803.406 8.41833H816.281C833.365 8.41833 844.259 18.3223 846.983 36.3969C846.983 37.3873 849.706 37.1397 849.706 36.3969L849.211 4.95196C849.211 3.46637 848.716 2.72359 846.983 2.72359H745.715C744.725 2.72359 744.725 5.69476 745.715 5.69476C762.8 5.69476 765.771 8.66594 765.771 22.779V137.417C765.771 151.778 762.8 154.501 745.715 154.501C744.725 154.501 744.725 157.472 745.715 157.472H851.192C854.163 157.472 854.906 156.482 854.906 153.758C854.906 143.112 856.144 129.246 857.382 120.333C857.382 119.342 854.411 118.847 854.411 119.838Z" fill="#E9E9E9"/>
<path d="M907.643 30.4546C907.643 15.8463 916.061 4.20918 933.393 4.20918C958.4 4.20918 967.809 29.9594 970.037 41.3489C970.532 42.8345 973.008 42.3393 973.008 41.1013L972.018 10.1515C972.018 8.41833 970.78 6.93274 968.057 5.69476C959.391 1.98079 948.249 0 938.097 0C914.823 0 890.063 12.3799 890.063 39.1205C890.063 61.6519 907.643 72.2987 924.974 83.193C942.801 94.3349 961.124 105.229 961.124 128.999C961.124 149.549 947.258 155.739 933.64 155.739C908.138 155.739 895.51 130.979 889.568 110.676C889.073 109.438 886.349 109.686 886.597 111.172L889.073 146.578C889.073 149.302 889.815 150.54 891.301 151.282C900.957 156.977 915.07 160.444 927.698 160.444C959.886 160.444 979.446 141.874 979.446 117.609C979.446 93.8397 960.381 82.4502 942.059 71.3083C924.479 60.6615 907.643 50.51 907.643 30.4546Z" fill="#E9E9E9"/>
<path d="M1044.32 137.417V23.2742C1044.32 9.16113 1047.29 5.69476 1064.38 5.69476C1065.12 5.69476 1065.12 2.72359 1064.38 2.72359C1056.45 2.72359 1046.06 3.46638 1033.92 3.46638C1022.78 3.46638 1012.13 2.72359 1003.96 2.72359C1003.22 2.72359 1003.22 5.69476 1003.96 5.69476C1021.05 5.69476 1024.27 8.66594 1024.27 22.779V137.417C1024.27 151.778 1021.05 154.501 1003.96 154.501C1003.22 154.501 1003.22 157.472 1003.96 157.472C1012.13 157.472 1022.78 156.977 1033.92 156.977C1046.06 156.977 1056.21 157.472 1064.38 157.472C1065.12 157.472 1065.12 154.501 1064.38 154.501C1046.8 154.501 1044.32 151.778 1044.32 137.417Z" fill="#E9E9E9"/>
<path d="M1176.28 160.444C1193.61 160.444 1213.17 157.472 1230.51 153.511C1232.73 152.768 1233.48 152.52 1233.48 150.54C1233.48 146.578 1231.74 145.34 1231.74 128.751C1231.74 102.506 1232.49 99.5345 1243.13 99.7821C1244.87 99.7821 1244.37 96.3157 1243.13 96.3157C1223.57 97.3061 1207.48 97.3061 1185.94 95.8205C1184.21 95.8205 1184.21 99.7821 1186.19 99.7821C1211.19 99.7821 1213.17 102.506 1213.17 126.275C1213.17 151.778 1204.51 156.234 1182.47 156.234C1140.63 156.234 1109.93 122.066 1109.93 72.7939C1109.93 31.9402 1131.22 5.69476 1171.08 5.69476C1198.32 5.69476 1218.37 19.5603 1227.04 44.0725C1227.29 45.0629 1229.76 44.5677 1229.76 43.8249L1226.79 13.8655C1226.55 10.8943 1226.55 9.90393 1223.57 8.17074C1213.92 2.97119 1197.33 0 1181.98 0C1128 0 1087.89 33.1782 1087.89 81.7074C1087.89 125.532 1120.57 160.444 1176.28 160.444Z" fill="#E9E9E9"/>
<path d="M1428.79 2.72359C1422.1 2.72359 1413.93 3.46638 1405.51 3.46638C1396.85 3.46638 1389.67 2.72359 1382.98 2.72359C1382.24 2.72359 1382.24 5.69476 1382.98 5.69476C1396.35 5.69476 1402.3 14.1131 1402.3 31.1974V126.77L1309.94 15.5987C1302.27 6.18996 1302.51 2.72359 1298.06 2.72359C1294.59 2.72359 1287.66 3.21878 1279.73 3.21878C1274.53 3.21878 1267.6 2.72359 1261.66 2.72359C1260.67 2.72359 1260.67 5.69476 1261.66 5.69476C1268.34 5.69476 1274.78 8.17073 1283.2 16.5891V128.999C1283.2 146.33 1276.76 154.501 1262.4 154.501C1261.41 154.501 1261.41 157.472 1262.4 157.472C1269.58 157.472 1278 156.977 1286.67 156.977C1295.33 156.977 1302.51 157.472 1309.2 157.472C1310.19 157.472 1310.19 154.501 1309.2 154.501C1295.83 154.501 1289.64 146.33 1289.64 128.999V23.5218L1405.76 161.186C1406.26 161.682 1408.73 161.434 1408.73 160.691V31.1974C1408.73 14.1131 1415.17 5.69476 1428.79 5.69476C1429.78 5.69476 1429.78 2.72359 1428.79 2.72359Z" fill="#E9E9E9"/>
<path d="M1199.02 274.168C1207.44 274.168 1211.64 274.91 1221.05 274.91C1232.94 274.91 1239.13 274.168 1247.3 274.168C1248.04 274.168 1248.04 277.139 1247.3 277.139C1231.45 277.139 1226.5 285.31 1232.2 299.918L1272.8 402.671L1303.75 336.315L1289.39 299.918C1282.71 283.081 1274.29 277.139 1263.89 277.139C1262.9 277.139 1262.9 274.168 1263.89 274.168C1271.81 274.168 1275.77 274.91 1284.44 274.91C1295.33 274.91 1295.58 274.168 1300.78 274.168C1301.52 274.168 1301.52 277.139 1300.78 277.139C1290.63 277.139 1289.39 283.576 1295.09 298.68L1307.22 329.134L1322.82 295.461C1330.24 279.615 1330.24 277.139 1320.34 277.139C1319.35 277.139 1319.35 274.168 1320.34 274.168C1325.54 274.168 1331.23 274.91 1344.36 274.91C1352.78 274.91 1356.98 274.168 1362.93 274.168C1363.67 274.168 1363.67 277.139 1362.93 277.139C1354.51 277.139 1349.31 282.834 1343.86 294.718L1317.37 351.913L1337.42 402.671L1387.44 295.461C1394.37 280.605 1390.66 277.139 1377.54 277.139C1376.55 277.139 1376.55 274.168 1377.54 274.168C1384.72 274.168 1392.39 274.91 1408.98 274.91C1418.39 274.91 1422.6 274.168 1428.79 274.168C1429.78 274.168 1429.78 277.139 1428.79 277.139C1418.88 277.139 1414.68 281.1 1408.49 294.718L1346.34 428.669C1345.84 429.907 1341.39 429.907 1340.89 428.669L1313.9 359.341L1281.72 428.669C1281.22 429.907 1276.76 429.907 1276.27 428.669L1225.76 299.918C1219.57 283.824 1210.16 277.139 1199.02 277.139C1198.03 277.139 1198.03 274.168 1199.02 274.168Z" fill="#E9E9E9"/>
<path d="M1080.96 391.282C1085.66 411.585 1098.29 423.222 1117.1 423.222H1133.2C1146.82 423.222 1150.04 419.755 1150.04 407.871V351.171H1123.54C1105.72 351.171 1098.04 357.856 1098.04 371.969C1098.04 372.959 1095.07 372.959 1095.07 371.969C1095.07 363.303 1095.81 356.37 1095.81 348.447C1095.81 342.257 1095.56 337.8 1095.56 327.649C1095.56 326.906 1098.29 326.906 1098.29 327.649C1098.29 339.781 1105.72 345.476 1122.8 345.476H1150.04V295.214C1150.04 283.329 1146.32 279.862 1131.96 279.862H1119.09C1102 279.862 1091.11 289.766 1088.38 307.841C1088.38 308.831 1085.66 308.584 1085.66 307.841L1086.16 276.396C1086.16 274.91 1086.65 274.168 1088.38 274.168H1189.65C1190.64 274.168 1190.64 277.139 1189.65 277.139C1172.57 277.139 1169.6 280.11 1169.6 294.223V408.861C1169.6 423.222 1172.57 425.945 1189.65 425.945C1190.64 425.945 1190.64 428.917 1189.65 428.917H1084.17C1081.2 428.917 1080.46 427.926 1080.46 425.203C1080.46 414.556 1079.22 400.69 1077.98 391.777C1077.98 390.786 1080.96 390.291 1080.96 391.282Z" fill="#E9E9E9"/>
<path d="M981.671 341.762C963.348 335.077 952.702 321.954 952.702 305.86C952.702 286.795 966.567 273.425 995.784 273.425C1004.94 273.425 1016.83 274.91 1025.5 274.91C1036.64 274.91 1047.04 274.168 1055.21 274.168C1055.95 274.168 1055.95 277.139 1055.21 277.139C1038.62 277.139 1035.15 280.11 1035.15 294.223V408.861C1035.15 423.222 1038.87 425.945 1055.45 425.945C1056.45 425.945 1056.45 428.917 1055.45 428.917C1047.28 428.917 1036.64 428.421 1025.5 428.421C1014.35 428.421 999.25 429.907 989.346 429.907C959.882 429.907 937.598 410.099 937.598 383.606C937.598 361.322 954.93 344.238 981.671 341.762ZM1000.74 277.634C980.68 277.634 972.262 290.262 972.262 307.841C972.262 326.906 981.671 342.01 1004.7 342.01C1005.19 342.01 1009.4 342.01 1015.59 341.762V294.718C1015.59 279.615 1011.63 277.634 1000.74 277.634ZM993.308 424.955C1012.13 424.955 1015.59 420.251 1015.59 408.861V348.2C1009.4 347.704 1003.46 347.457 998.507 347.704C972.509 347.952 958.644 365.036 958.644 389.548C958.644 411.832 969.043 424.955 993.308 424.955Z" fill="#E9E9E9"/>
<path d="M790.107 429.907C744.797 429.907 706.666 398.462 706.666 348.942C706.666 306.355 741.33 273.672 793.573 273.672C802.734 273.672 817.343 274.91 828.485 274.91C839.874 274.91 850.026 274.168 858.196 274.168C859.187 274.168 859.187 277.139 858.196 277.139C841.112 277.139 838.141 280.11 838.141 294.223V408.861C838.141 423.222 841.36 425.945 858.444 425.945C859.434 425.945 859.434 428.917 858.444 428.917C850.273 428.917 839.874 428.421 828.485 428.421C816.352 428.421 800.011 429.907 790.107 429.907ZM792.583 425.45C814.124 425.45 818.581 419.508 818.581 406.137V294.718C818.581 280.11 810.905 277.882 791.097 277.882C753.215 277.882 729.198 311.555 729.198 354.389C729.198 400.443 755.938 425.45 792.583 425.45Z" fill="#E9E9E9"/>
<path d="M575.12 391.282C579.825 411.585 592.452 423.222 611.27 423.222H627.363C640.981 423.222 644.2 419.755 644.2 407.871V351.171H617.707C599.88 351.171 592.205 357.856 592.205 371.969C592.205 372.959 589.233 372.959 589.233 371.969C589.233 363.303 589.976 356.37 589.976 348.447C589.976 342.257 589.729 337.8 589.729 327.649C589.729 326.906 592.452 326.906 592.452 327.649C592.452 339.781 599.88 345.476 616.964 345.476H644.2V295.214C644.2 283.329 640.486 279.862 626.125 279.862H613.25C596.166 279.862 585.272 289.766 582.548 307.841C582.548 308.831 579.825 308.584 579.825 307.841L580.32 276.396C580.32 274.91 580.815 274.168 582.548 274.168H683.816C684.806 274.168 684.806 277.139 683.816 277.139C666.732 277.139 663.76 280.11 663.76 294.223V408.861C663.76 423.222 666.732 425.945 683.816 425.945C684.806 425.945 684.806 428.917 683.816 428.917H578.339C575.368 428.917 574.625 427.926 574.625 425.203C574.625 414.556 573.387 400.69 572.149 391.777C572.149 390.786 575.12 390.291 575.12 391.282Z" fill="#E9E9E9"/>
<path d="M521.889 301.899C521.889 287.29 513.47 275.653 496.138 275.653C471.131 275.653 461.722 301.403 459.494 312.793C458.999 314.279 456.523 313.783 456.523 312.545L457.513 281.596C457.513 279.862 458.751 278.377 461.475 277.139C470.141 273.425 481.283 271.444 491.434 271.444C514.708 271.444 539.468 283.824 539.468 310.565C539.468 333.096 521.889 343.743 504.557 354.637C486.73 365.779 468.407 376.673 468.407 400.443C468.407 420.993 482.273 427.183 495.891 427.183C521.393 427.183 534.021 402.424 539.963 382.12C540.458 380.882 543.182 381.13 542.934 382.616L540.458 418.022C540.458 420.746 539.716 421.984 538.23 422.727C528.574 428.421 514.461 431.888 501.833 431.888C469.645 431.888 450.085 413.318 450.085 389.053C450.085 365.284 469.15 353.894 487.472 342.752C505.052 332.106 521.889 321.954 521.889 301.899Z" fill="#E9E9E9"/>
<path d="M385.209 408.861V294.718C385.209 280.605 382.237 277.139 365.153 277.139C364.41 277.139 364.41 274.168 365.153 274.168C373.076 274.168 383.475 274.91 395.608 274.91C406.75 274.91 417.396 274.168 425.567 274.168C426.31 274.168 426.31 277.139 425.567 277.139C408.483 277.139 405.264 280.11 405.264 294.223V408.861C405.264 423.222 408.483 425.945 425.567 425.945C426.31 425.945 426.31 428.917 425.567 428.917C417.396 428.917 406.75 428.421 395.608 428.421C383.475 428.421 373.324 428.917 365.153 428.917C364.41 428.917 364.41 425.945 365.153 425.945C382.733 425.945 385.209 423.222 385.209 408.861Z" fill="#E9E9E9"/>
<path d="M253.248 431.888C235.917 431.888 216.356 428.917 199.025 424.955C196.796 424.212 196.053 423.965 196.053 421.984C196.053 418.022 197.786 416.784 197.786 400.195C197.786 373.95 197.044 370.979 186.397 371.226C184.664 371.226 185.159 367.76 186.397 367.76C205.957 368.75 222.051 368.75 243.592 367.265C245.325 367.265 245.325 371.226 243.345 371.226C218.337 371.226 216.356 373.95 216.356 397.719C216.356 423.222 225.022 427.679 247.058 427.679C288.903 427.679 319.605 393.51 319.605 344.238C319.605 303.384 298.311 277.139 258.448 277.139C231.212 277.139 211.157 291.004 202.491 315.517C202.243 316.507 199.767 316.012 199.767 315.269L202.738 285.31C202.986 282.338 202.986 281.348 205.957 279.615C215.614 274.415 232.203 271.444 247.554 271.444C301.53 271.444 341.641 304.622 341.641 353.151C341.641 396.976 308.958 431.888 253.248 431.888Z" fill="#E9E9E9"/>
<path d="M0.742798 274.168C7.42795 274.168 15.5986 274.91 24.017 274.91C32.6829 274.91 39.8633 274.168 46.5485 274.168C47.2913 274.168 47.2913 277.139 46.5485 277.139C33.1782 277.139 27.2358 285.557 27.2358 302.641V398.214L119.59 287.043C127.266 277.634 127.018 274.168 131.475 274.168C134.941 274.168 141.874 274.663 149.797 274.663C154.996 274.663 161.929 274.168 167.872 274.168C168.862 274.168 168.862 277.139 167.872 277.139C161.186 277.139 154.749 279.615 146.33 288.033V400.443C146.33 417.775 152.768 425.945 167.129 425.945C168.119 425.945 168.119 428.917 167.129 428.917C159.948 428.917 151.53 428.421 142.864 428.421C134.198 428.421 127.018 428.917 120.333 428.917C119.342 428.917 119.342 425.945 120.333 425.945C133.703 425.945 139.893 417.775 139.893 400.443V294.966L23.7694 432.63C23.2742 433.126 20.7982 432.878 20.7982 432.135V302.641C20.7982 285.557 14.3607 277.139 0.742798 277.139C-0.247597 277.139 -0.247597 274.168 0.742798 274.168Z" fill="#E9E9E9"/>
<path d="M230.514 545.612C222.096 545.612 217.886 546.355 208.478 546.355C196.593 546.355 190.403 545.612 182.232 545.612C181.489 545.612 181.489 548.583 182.232 548.583C198.079 548.583 203.03 556.754 197.336 571.362L156.73 674.115L125.78 607.759L140.141 571.362C146.826 554.525 155.244 548.583 165.643 548.583C166.634 548.583 166.634 545.612 165.643 545.612C157.72 545.612 153.758 546.355 145.093 546.355C134.198 546.355 133.951 545.612 128.751 545.612C128.008 545.612 128.008 548.583 128.751 548.583C138.903 548.583 140.141 555.021 134.446 570.124L122.313 600.579L106.715 566.905C99.2869 551.059 99.2868 548.583 109.191 548.583C110.181 548.583 110.181 545.612 109.191 545.612C103.991 545.612 98.2965 546.355 85.1738 546.355C76.7554 546.355 72.5462 545.612 66.6039 545.612C65.8611 545.612 65.8611 548.583 66.6039 548.583C75.0222 548.583 80.2218 554.278 85.669 566.162L112.162 623.358L92.1065 674.115L42.0917 566.905C35.1589 552.049 38.8729 548.583 51.9956 548.583C52.986 548.583 52.986 545.612 51.9956 545.612C44.8153 545.612 37.1397 546.355 20.5506 546.355C11.1419 546.355 6.93275 545.612 0.742794 545.612C-0.247598 545.612 -0.247598 548.583 0.742794 548.583C10.6467 548.583 14.8559 552.545 21.0458 566.162L83.193 700.113C83.6882 701.351 88.1449 701.351 88.6401 700.113L115.628 630.786L147.816 700.113C148.311 701.351 152.768 701.351 153.263 700.113L203.773 571.362C209.963 555.268 219.372 548.583 230.514 548.583C231.504 548.583 231.504 545.612 230.514 545.612Z" fill="#E9E9E9"/>
<path d="M348.576 662.726C343.871 683.029 331.244 694.666 312.426 694.666H296.332C282.715 694.666 279.496 691.199 279.496 679.315V622.615H305.989C323.816 622.615 331.491 629.3 331.491 643.413C331.491 644.403 334.463 644.403 334.463 643.413C334.463 634.747 333.72 627.814 333.72 619.891C333.72 613.701 333.967 609.244 333.967 599.093C333.967 598.35 331.244 598.35 331.244 599.093C331.244 611.225 323.816 616.92 306.732 616.92H279.496V566.658C279.496 554.773 283.21 551.307 297.57 551.307H310.445C327.53 551.307 338.424 561.21 341.148 579.285C341.148 580.276 343.871 580.028 343.871 579.285L343.376 547.84C343.376 546.355 342.881 545.612 341.148 545.612H239.88C238.89 545.612 238.89 548.583 239.88 548.583C256.964 548.583 259.935 551.554 259.935 565.667V680.305C259.935 694.666 256.964 697.389 239.88 697.389C238.89 697.389 238.89 700.361 239.88 700.361H345.357C348.328 700.361 349.071 699.37 349.071 696.647C349.071 686 350.309 672.134 351.547 663.221C351.547 662.23 348.576 661.735 348.576 662.726Z" fill="#E9E9E9"/>
<path d="M447.861 613.206C466.183 606.521 476.83 593.398 476.83 577.304C476.83 558.239 462.964 544.869 433.747 544.869C424.586 544.869 412.702 546.355 404.036 546.355C392.894 546.355 382.495 545.612 374.324 545.612C373.581 545.612 373.581 548.583 374.324 548.583C390.913 548.583 394.379 551.554 394.379 565.667V680.305C394.379 694.666 390.665 697.389 374.076 697.389C373.086 697.389 373.086 700.361 374.076 700.361C382.247 700.361 392.894 699.865 404.036 699.865C415.178 699.865 430.281 701.351 440.185 701.351C469.649 701.351 491.933 681.543 491.933 655.05C491.933 632.766 474.601 615.682 447.861 613.206ZM428.796 549.078C448.851 549.078 457.269 561.706 457.269 579.285C457.269 598.35 447.861 613.454 424.834 613.454C424.339 613.454 420.13 613.454 413.94 613.206V566.162C413.94 551.059 417.901 549.078 428.796 549.078ZM436.223 696.399C417.406 696.399 413.94 691.695 413.94 680.305V619.644C420.13 619.148 426.072 618.901 431.024 619.148C457.022 619.396 470.887 636.48 470.887 660.993C470.887 683.276 460.488 696.399 436.223 696.399Z" fill="#E9E9E9"/>
<path d="M639.424 701.351C684.735 701.351 722.865 669.906 722.865 620.386C722.865 577.8 688.201 545.117 635.958 545.117C626.797 545.117 612.188 546.355 601.046 546.355C589.657 546.355 579.505 545.612 571.335 545.612C570.344 545.612 570.344 548.583 571.335 548.583C588.419 548.583 591.39 551.554 591.39 565.667V680.305C591.39 694.666 588.171 697.389 571.087 697.389C570.097 697.389 570.097 700.361 571.087 700.361C579.258 700.361 589.657 699.865 601.046 699.865C613.179 699.865 629.52 701.351 639.424 701.351ZM636.948 696.894C615.407 696.894 610.95 690.952 610.95 677.582V566.162C610.95 551.554 618.626 549.326 638.434 549.326C676.316 549.326 700.333 582.999 700.333 625.834C700.333 671.887 673.593 696.894 636.948 696.894Z" fill="#E9E9E9"/>
<path d="M854.411 662.726C849.706 683.029 837.079 694.666 818.262 694.666H802.168C788.55 694.666 785.331 691.199 785.331 679.315V622.615H811.824C829.651 622.615 837.327 629.3 837.327 643.413C837.327 644.403 840.298 644.403 840.298 643.413C840.298 634.747 839.555 627.814 839.555 619.891C839.555 613.701 839.803 609.244 839.803 599.093C839.803 598.35 837.079 598.35 837.079 599.093C837.079 611.225 829.651 616.92 812.567 616.92H785.331V566.658C785.331 554.773 789.045 551.307 803.406 551.307H816.281C833.365 551.307 844.259 561.21 846.983 579.285C846.983 580.276 849.706 580.028 849.706 579.285L849.211 547.84C849.211 546.355 848.716 545.612 846.983 545.612H745.715C744.725 545.612 744.725 548.583 745.715 548.583C762.8 548.583 765.771 551.554 765.771 565.667V680.305C765.771 694.666 762.8 697.389 745.715 697.389C744.725 697.389 744.725 700.361 745.715 700.361H851.192C854.163 700.361 854.906 699.37 854.906 696.647C854.906 686 856.144 672.134 857.382 663.221C857.382 662.23 854.411 661.735 854.411 662.726Z" fill="#E9E9E9"/>
<path d="M907.643 573.343C907.643 558.734 916.061 547.097 933.393 547.097C958.4 547.097 967.809 572.848 970.037 584.237C970.532 585.723 973.008 585.227 973.008 583.989L972.018 553.04C972.018 551.307 970.78 549.821 968.057 548.583C959.391 544.869 948.249 542.888 938.097 542.888C914.823 542.888 890.063 555.268 890.063 582.009C890.063 604.54 907.643 615.187 924.974 626.081C942.801 637.223 961.124 648.117 961.124 671.887C961.124 692.437 947.258 698.627 933.64 698.627C908.138 698.627 895.51 673.868 889.568 653.565C889.073 652.327 886.349 652.574 886.597 654.06L889.073 689.466C889.073 692.19 889.815 693.428 891.301 694.171C900.957 699.865 915.07 703.332 927.698 703.332C959.886 703.332 979.446 684.762 979.446 660.497C979.446 636.728 960.381 625.338 942.059 614.196C924.479 603.55 907.643 593.398 907.643 573.343Z" fill="#E9E9E9"/>
<path d="M1044.32 680.305V566.162C1044.32 552.049 1047.29 548.583 1064.38 548.583C1065.12 548.583 1065.12 545.612 1064.38 545.612C1056.45 545.612 1046.06 546.355 1033.92 546.355C1022.78 546.355 1012.13 545.612 1003.96 545.612C1003.22 545.612 1003.22 548.583 1003.96 548.583C1021.05 548.583 1024.27 551.554 1024.27 565.667V680.305C1024.27 694.666 1021.05 697.389 1003.96 697.389C1003.22 697.389 1003.22 700.361 1003.96 700.361C1012.13 700.361 1022.78 699.865 1033.92 699.865C1046.06 699.865 1056.21 700.361 1064.38 700.361C1065.12 700.361 1065.12 697.389 1064.38 697.389C1046.8 697.389 1044.32 694.666 1044.32 680.305Z" fill="#E9E9E9"/>
<path d="M1176.28 703.332C1193.61 703.332 1213.17 700.361 1230.51 696.399C1232.73 695.656 1233.48 695.409 1233.48 693.428C1233.48 689.466 1231.74 688.228 1231.74 671.639C1231.74 645.394 1232.49 642.423 1243.13 642.67C1244.87 642.67 1244.37 639.204 1243.13 639.204C1223.57 640.194 1207.48 640.194 1185.94 638.709C1184.21 638.709 1184.21 642.67 1186.19 642.67C1211.19 642.67 1213.17 645.394 1213.17 669.163C1213.17 694.666 1204.51 699.123 1182.47 699.123C1140.63 699.123 1109.93 664.954 1109.93 615.682C1109.93 574.828 1131.22 548.583 1171.08 548.583C1198.32 548.583 1218.37 562.448 1227.04 586.961C1227.29 587.951 1229.76 587.456 1229.76 586.713L1226.79 556.754C1226.55 553.783 1226.55 552.792 1223.57 551.059C1213.92 545.859 1197.33 542.888 1181.98 542.888C1128 542.888 1087.89 576.066 1087.89 624.596C1087.89 668.42 1120.57 703.332 1176.28 703.332Z" fill="#E9E9E9"/>
<path d="M1428.79 545.612C1422.1 545.612 1413.93 546.355 1405.51 546.355C1396.85 546.355 1389.67 545.612 1382.98 545.612C1382.24 545.612 1382.24 548.583 1382.98 548.583C1396.35 548.583 1402.3 557.001 1402.3 574.086V669.658L1309.94 558.487C1302.27 549.078 1302.51 545.612 1298.06 545.612C1294.59 545.612 1287.66 546.107 1279.73 546.107C1274.53 546.107 1267.6 545.612 1261.66 545.612C1260.67 545.612 1260.67 548.583 1261.66 548.583C1268.34 548.583 1274.78 551.059 1283.2 559.477V671.887C1283.2 689.219 1276.76 697.389 1262.4 697.389C1261.41 697.389 1261.41 700.361 1262.4 700.361C1269.58 700.361 1278 699.865 1286.67 699.865C1295.33 699.865 1302.51 700.361 1309.2 700.361C1310.19 700.361 1310.19 697.389 1309.2 697.389C1295.83 697.389 1289.64 689.219 1289.64 671.887V566.41L1405.76 704.075C1406.26 704.57 1408.73 704.322 1408.73 703.579V574.086C1408.73 557.001 1415.17 548.583 1428.79 548.583C1429.78 548.583 1429.78 545.612 1428.79 545.612Z" fill="#E9E9E9"/>
</svg>
