<svg width="345" height="35" viewBox="0 0 345 35" fill="none" xmlns="http://www.w3.org/2000/svg">
<path d="M0 26.4754H7.08176V31.9195H0V26.4754ZM19.7654 0.683655H26.8909V31.9195H19.7654V19.4959H0V0.683655H7.08176V12.932H19.7654V0.683655Z" fill="white"/>
<path d="M64.2746 16.3065C64.2746 26.1775 56.6937 32.563 47.7747 32.563C38.8182 32.563 31.2373 26.1775 31.2373 16.3065V16.2698H38.5913C38.5913 22.7797 43.347 25.6939 47.7747 25.6939C52.1777 25.6939 56.9206 22.7797 56.9206 16.2572C56.9206 9.74652 52.1777 6.79557 47.7747 6.79557C45.5927 6.79557 43.3342 7.51472 41.5941 9.02737H32.8262C35.501 3.38526 41.2653 0 47.7747 0C56.6937 0 64.2746 6.3863 64.2746 16.3065Z" fill="white"/>
<path d="M75.6043 25.2708H89.3164V31.9177H75.6043V25.2708Z" fill="white"/>
<path d="M68.5314 0.683716H75.6084V25.2734H68.5314V0.683716Z" fill="white"/>
<path d="M120.072 16.3329C120.072 25.98 113.664 31.9202 104.064 31.9202H92.5977V14.2372L92.6478 14.1879H99.6746V25.3602H103.799C108.681 25.3602 112.667 22.583 112.667 16.3329C112.667 10.071 108.681 7.2562 103.799 7.2562H92.5977V0.683655H104.114C113.664 0.683655 120.072 6.68573 120.072 16.3329Z" fill="white"/>
<path d="M195.13 7.68304L192.506 12.2961L192.277 12.6976L192.051 12.3008L185.463 0.714539H177.575L188.734 18.9093V31.9503H195.824V18.9054L202.699 7.68304H195.13Z" fill="black"/>
<path d="M175.681 0.683044V31.9196H168.73V11.2231L160.442 31.9196H154.703L146.415 11.4836V31.9196H139.691V7.52791H146.402V0.683044H148.925L157.667 21.7881L165.955 0.683044H175.681Z" fill="black"/>
<path d="M288.449 16.3065C288.449 26.1775 280.869 32.563 271.949 32.563C262.993 32.563 255.412 26.1775 255.412 16.3065V16.2698H262.766C262.766 22.7797 267.522 25.6939 271.949 25.6939C276.352 25.6939 281.095 22.7797 281.095 16.2572C281.095 9.74652 276.352 6.79557 271.949 6.79557C269.767 6.79557 267.509 7.51472 265.769 9.02737H257.001C259.676 3.38526 265.441 0 271.949 0C280.869 0 288.449 6.3863 288.449 16.3065Z" fill="black"/>
<path d="M320.408 16.3329C320.408 25.98 314 31.9202 304.4 31.9202H292.934V14.1879H300.011V25.3602H304.135C309.017 25.3602 313.003 22.583 313.003 16.3329C313.003 10.071 309.017 7.2562 304.135 7.2562H292.934V0.683655H304.45C314 0.683655 320.408 6.68573 320.408 16.3329Z" fill="black"/>
<path d="M345.002 25.3741H324.831V31.9232H345.002V25.3741Z" fill="black"/>
<path d="M331.908 7.25541V13.1949H343.741V19.3206H324.831V0.683655H344.951V7.25541H331.908Z" fill="black"/>
<path d="M254.306 26.8265L249.16 21.7666C248.317 23.1504 246.898 24.5313 244.664 25.1994L244.664 32.3374C249.26 31.6387 252.364 29.3766 254.306 26.8265Z" fill="black"/>
<path d="M232.559 16.3762C232.559 9.8107 237.353 6.81592 241.611 6.81592C245.166 6.81592 247.273 8.28788 248.467 9.91556L253.517 4.95191C251.167 2.22633 247.362 0.031311 241.61 0.031311C232.737 0.031311 225.207 6.63907 225.207 16.3762C225.207 24.5913 230.448 30.4682 237.575 32.1091V24.7063C234.684 23.3283 232.559 20.4509 232.559 16.3762Z" fill="black"/>
</svg>
