<svg width="25" height="6" viewBox="0 0 25 6" fill="none" xmlns="http://www.w3.org/2000/svg">
<path d="M2.54795 5.51397L0.602314 0.709205H0.570613C0.58118 0.810696 0.590426 0.934467 0.598352 1.08052C0.606277 1.22657 0.612881 1.38623 0.618165 1.55951C0.623448 1.73031 0.62609 1.90483 0.62609 2.08306V5.51397H0V0.0854016H0.998573L2.83325 4.60055H2.86099L4.72341 0.0854016H5.71406V5.51397H5.04834V2.0385C5.04834 1.8776 5.05099 1.7167 5.05627 1.55579C5.06155 1.39242 5.06816 1.23894 5.07608 1.09537C5.08401 0.949319 5.09193 0.823073 5.09986 0.716631H5.06816L3.09875 5.51397H2.54795Z" fill="black"/>
<path d="M10.5246 5.51397H7.2991V0.0854016H10.5246V0.642369H7.97274V2.39867H10.378V2.94821H7.97274V4.95701H10.5246V5.51397Z" fill="black"/>
<path d="M16.1991 5.51397H15.5254V2.95564H12.4822V5.51397H11.8085V0.0854016H12.4822V2.39867H15.5254V0.0854016H16.1991V5.51397Z" fill="black"/>
<path d="M25 2.79226C25 3.21061 24.9458 3.59182 24.8375 3.9359C24.7319 4.27751 24.572 4.57208 24.3581 4.81962C24.1441 5.06716 23.8773 5.25777 23.5576 5.39144C23.2406 5.52264 22.8721 5.58824 22.4521 5.58824C21.9026 5.58824 21.4403 5.48056 21.0651 5.26519C20.6927 5.04736 20.4074 4.74165 20.2092 4.34806C20.0137 3.95199 19.9054 3.48909 19.8843 2.95935H18.4657V5.51397H17.792V0.0854016H18.4657V2.40238H19.8962C19.9332 1.9172 20.0507 1.49515 20.2489 1.13621C20.4496 0.774803 20.7323 0.495082 21.0968 0.297049C21.4614 0.0990163 21.9092 0 22.4402 0C22.9976 0 23.4652 0.116344 23.8429 0.349033C24.2233 0.579246 24.5113 0.903524 24.7068 1.32187C24.9023 1.74021 25 2.23034 25 2.79226ZM20.5896 2.78112C20.5896 3.24402 20.6544 3.64504 20.7838 3.98417C20.9159 4.32083 21.118 4.58198 21.3901 4.76764C21.6622 4.95082 22.0096 5.04241 22.4322 5.04241C22.8655 5.04241 23.2195 4.95082 23.4942 4.76764C23.769 4.58446 23.971 4.32454 24.1005 3.98788C24.2299 3.65123 24.2947 3.25269 24.2947 2.79226C24.2947 2.33184 24.2299 1.93453 24.1005 1.60035C23.9737 1.26617 23.7742 1.00873 23.5021 0.828024C23.23 0.647319 22.8787 0.556967 22.4481 0.556967C22.0201 0.556967 21.6688 0.647319 21.394 0.828024C21.1219 1.00625 20.9199 1.26246 20.7878 1.59664C20.6557 1.92834 20.5896 2.32317 20.5896 2.78112Z" fill="black"/>
</svg>
