<svg width="234" height="63" viewBox="0 0 234 63" fill="none" xmlns="http://www.w3.org/2000/svg">
<path d="M19.493 30.6929C20.396 29.5749 21.213 28.8009 21.944 28.2849C23.191 27.4249 24.61 26.9949 26.201 26.9949C27.964 26.9949 29.426 27.4679 30.501 28.3279C31.103 28.8439 31.705 29.5749 32.178 30.5639C33.038 29.3599 34.027 28.4569 35.145 27.8549C36.306 27.2959 37.553 26.9949 38.972 26.9949C41.982 26.9949 44.046 28.1129 45.164 30.3059C45.723 31.4669 46.024 33.0149 46.024 35.0359V49.9999H42.111V34.3909C42.111 32.8859 41.724 31.8539 40.993 31.2949C40.219 30.7359 39.316 30.4349 38.241 30.4349C36.736 30.4349 35.489 30.9509 34.414 31.9399C33.339 32.9289 32.78 34.6059 32.78 36.9279V49.9999H28.953V35.3369C28.953 33.7889 28.781 32.6709 28.394 31.9829C27.835 30.9509 26.76 30.3919 25.212 30.3919C23.75 30.3919 22.46 30.9509 21.299 32.0689C20.138 33.1869 19.536 35.1649 19.536 38.0889V49.9999H15.752V27.5109H19.493V30.6929Z" fill="#272727"/>
<path d="M54.5813 23.4259H50.7113V19.1689H54.5813V23.4259ZM54.5813 49.9999H50.7113V27.5969H54.5813V49.9999Z" fill="#272727"/>
<path d="M62.9955 30.6929C64.0705 29.4029 65.1885 28.4569 66.3925 27.8549C67.5535 27.2959 68.8865 26.9949 70.3485 26.9949C73.5305 26.9949 75.6805 28.1129 76.7985 30.3489C77.4005 31.5529 77.7445 33.3159 77.7445 35.5949V49.9999H73.8745V35.8099C73.8745 34.4769 73.6595 33.3589 73.2725 32.4989C72.6275 31.1229 71.3805 30.3919 69.6175 30.3919C68.7145 30.3919 67.9835 30.4779 67.4245 30.6929C66.3925 30.9939 65.4895 31.5959 64.6725 32.5419C64.0705 33.2729 63.6835 34.0469 63.4685 34.8209C63.2965 35.6379 63.1675 36.7559 63.1675 38.2179V49.9999H59.3835V27.5109H62.9955V30.6929Z" fill="#272727"/>
<path d="M86.2871 23.4259H82.4171V19.1689H86.2871V23.4259ZM86.2871 49.9999H82.4171V27.5969H86.2871V49.9999Z" fill="#272727"/>
<path d="M94.8303 30.6929C95.7333 29.5749 96.5503 28.8009 97.2813 28.2849C98.5283 27.4249 99.9473 26.9949 101.538 26.9949C103.301 26.9949 104.763 27.4679 105.838 28.3279C106.44 28.8439 107.042 29.5749 107.515 30.5639C108.375 29.3599 109.364 28.4569 110.482 27.8549C111.643 27.2959 112.89 26.9949 114.309 26.9949C117.319 26.9949 119.383 28.1129 120.501 30.3059C121.06 31.4669 121.361 33.0149 121.361 35.0359V49.9999H117.448V34.3909C117.448 32.8859 117.061 31.8539 116.33 31.2949C115.556 30.7359 114.653 30.4349 113.578 30.4349C112.073 30.4349 110.826 30.9509 109.751 31.9399C108.676 32.9289 108.117 34.6059 108.117 36.9279V49.9999H104.29V35.3369C104.29 33.7889 104.118 32.6709 103.731 31.9829C103.172 30.9509 102.097 30.3919 100.549 30.3919C99.0873 30.3919 97.7973 30.9509 96.6363 32.0689C95.4753 33.1869 94.8733 35.1649 94.8733 38.0889V49.9999H91.0893V27.5109H94.8303V30.6929Z" fill="#272727"/>
<path d="M138.132 36.3689C138.992 36.2829 139.551 35.8959 139.852 35.2939C140.024 34.9499 140.11 34.4769 140.11 33.8319C140.11 32.5419 139.637 31.5959 138.734 31.0369C137.831 30.4349 136.498 30.1769 134.821 30.1769C132.843 30.1769 131.424 30.6929 130.607 31.7679C130.134 32.3269 129.833 33.2299 129.704 34.3909H126.178C126.221 31.5959 127.124 29.6609 128.887 28.5859C130.607 27.5109 132.585 26.9519 134.907 26.9519C137.53 26.9519 139.68 27.4679 141.314 28.4999C142.991 29.4889 143.808 31.0799 143.808 33.1869V46.1299C143.808 46.5169 143.894 46.8609 144.023 47.0759C144.195 47.3339 144.539 47.4199 145.055 47.4199C145.227 47.4199 145.399 47.4199 145.614 47.3769C145.829 47.3769 146.044 47.3339 146.302 47.3339V50.0859C145.7 50.2579 145.27 50.3869 144.926 50.4299C144.625 50.4729 144.195 50.4729 143.679 50.4729C142.389 50.4729 141.443 49.9999 140.841 49.0969C140.54 48.6239 140.325 47.9359 140.196 47.0329C139.422 48.0219 138.347 48.9249 136.885 49.6559C135.423 50.3869 133.875 50.7739 132.112 50.7739C130.048 50.7739 128.328 50.1289 126.995 48.8389C125.705 47.5919 125.017 46.0009 125.017 44.1089C125.017 42.0019 125.662 40.4109 126.952 39.2499C128.285 38.0889 129.962 37.4009 132.112 37.1429L138.132 36.3689ZM130.177 46.6029C130.951 47.2479 131.897 47.5489 133.015 47.5489C134.305 47.5489 135.638 47.2479 136.842 46.6029C138.949 45.5709 140.024 43.9369 140.024 41.6149V38.5619C139.551 38.8629 138.949 39.1209 138.218 39.2929C137.487 39.4649 136.756 39.6369 136.068 39.7229L133.789 40.0239C132.413 40.1959 131.381 40.4539 130.693 40.8839C129.575 41.5289 128.973 42.5609 128.973 44.0229C128.973 45.0979 129.36 45.9579 130.177 46.6029Z" fill="#272727"/>
<path d="M152.995 49.9999H149.211V19.1689H152.995V49.9999Z" fill="#272727"/>
<path d="M161.624 23.4259H157.754V19.1689H161.624V23.4259ZM161.624 49.9999H157.754V27.5969H161.624V49.9999Z" fill="#272727"/>
<path d="M168.706 42.9479C168.792 44.1949 169.093 45.1839 169.652 45.8289C170.598 47.0759 172.232 47.6779 174.597 47.6779C176.016 47.6779 177.22 47.3339 178.295 46.7319C179.37 46.1299 179.886 45.2269 179.886 43.9369C179.886 42.9479 179.456 42.2169 178.596 41.7439C178.037 41.3999 177.005 41.0559 175.371 40.6689L172.361 39.8949C170.469 39.4219 169.05 38.9059 168.147 38.3039C166.513 37.2719 165.696 35.8529 165.696 34.0469C165.696 31.9399 166.47 30.2199 168.018 28.8869C169.523 27.5969 171.587 26.9089 174.167 26.9089C177.564 26.9089 180.015 27.8979 181.52 29.9189C182.466 31.1659 182.896 32.5419 182.853 33.9609H179.284C179.241 33.1009 178.897 32.3269 178.381 31.6389C177.521 30.6499 176.016 30.1769 173.866 30.1769C172.447 30.1769 171.372 30.4349 170.641 30.9939C169.91 31.5099 169.523 32.2409 169.523 33.1439C169.523 34.1329 169.996 34.9069 170.985 35.5089C171.544 35.8529 172.361 36.1539 173.479 36.4119L175.973 37.0139C178.682 37.6589 180.488 38.3469 181.434 38.9489C182.896 39.8949 183.627 41.3999 183.627 43.5069C183.627 45.4849 182.853 47.2479 181.348 48.6669C179.8 50.1289 177.521 50.8599 174.425 50.8599C171.071 50.8599 168.706 50.0859 167.287 48.5809C165.911 47.0759 165.18 45.1839 165.051 42.9479H168.706Z" fill="#272727"/>
<path d="M190.808 30.6929C191.711 29.5749 192.528 28.8009 193.259 28.2849C194.506 27.4249 195.925 26.9949 197.516 26.9949C199.279 26.9949 200.741 27.4679 201.816 28.3279C202.418 28.8439 203.02 29.5749 203.493 30.5639C204.353 29.3599 205.342 28.4569 206.46 27.8549C207.621 27.2959 208.868 26.9949 210.287 26.9949C213.297 26.9949 215.361 28.1129 216.479 30.3059C217.038 31.4669 217.339 33.0149 217.339 35.0359V49.9999H213.426V34.3909C213.426 32.8859 213.039 31.8539 212.308 31.2949C211.534 30.7359 210.631 30.4349 209.556 30.4349C208.051 30.4349 206.804 30.9509 205.729 31.9399C204.654 32.9289 204.095 34.6059 204.095 36.9279V49.9999H200.268V35.3369C200.268 33.7889 200.096 32.6709 199.709 31.9829C199.15 30.9509 198.075 30.3919 196.527 30.3919C195.065 30.3919 193.775 30.9509 192.614 32.0689C191.453 33.1869 190.851 35.1649 190.851 38.0889V49.9999H187.067V27.5109H190.808V30.6929Z" fill="#272727"/>
<line y1="62" x2="234" y2="62" stroke="#A0A0A0" stroke-width="2"/>
<path d="M225.865 9V13.6344L221.895 12.2991L221 15.1662L225.048 16.423L222.401 20.2719L224.814 22L227.539 18.3867L230.186 22L232.599 20.2719L229.952 16.423L234 15.1662L233.105 12.2991L229.135 13.6344V9H225.865Z" fill="#A0A0A0"/>
</svg>
