<svg width="220" height="56" viewBox="0 0 220 56" fill="none" xmlns="http://www.w3.org/2000/svg">
<path d="M33.778 7.39994L27.1748 3.24609V55.9999H33.778V7.39994Z" fill="#21211B"/>
<path d="M43.6827 14.0461L37.4923 9.89225V55.9999H43.6827V14.0461Z" fill="#21211B"/>
<path d="M54.0002 35.6461L46.9843 31.0769V55.9999H54.0002V35.6461Z" fill="#21211B"/>
<path d="M26.7617 2L19.3282 7.22581M19.3282 7.22581V56M19.3282 7.22581L10.74 13.0551V56V26.3871L1.99981 35.1653V56" stroke="#EA9C1B" stroke-width="3"/>
<path d="M97.2578 7.01245V30.4468H93.4818L82.4397 14.4844H82.2452V30.4468H78V7.01245H81.7989L92.8295 22.9863H93.0355V7.01245H97.2578Z" fill="#21211B"/>
<path d="M106.129 7.01245V30.4468H101.883V7.01245H106.129Z" fill="#21211B"/>
<path d="M110.726 30.4468V7.01245H119.514C121.314 7.01245 122.824 7.32521 124.045 7.95074C125.273 8.57627 126.2 9.45353 126.825 10.5825C127.459 11.7039 127.775 13.0122 127.775 14.5073C127.775 16.0101 127.455 17.3146 126.814 18.4207C126.181 19.5192 125.246 20.3697 124.01 20.9724C122.775 21.5674 121.257 21.8649 119.456 21.8649H113.197V18.3406H118.884C119.937 18.3406 120.799 18.1956 121.47 17.9058C122.142 17.6083 122.637 17.1772 122.958 16.6128C123.286 16.0406 123.45 15.3388 123.45 14.5073C123.45 13.6758 123.286 12.9664 122.958 12.379C122.63 11.784 122.13 11.3339 121.459 11.0288C120.788 10.716 119.922 10.5596 118.861 10.5596H114.971V30.4468H110.726ZM122.832 19.8281L128.633 30.4468H123.896L118.198 19.8281H122.832Z" fill="#21211B"/>
<path d="M134.22 7.01245L140.319 25.4578H140.559L146.647 7.01245H151.315L143.054 30.4468H137.813L129.563 7.01245H134.22Z" fill="#21211B"/>
<path d="M154.674 30.4468H150.142L158.392 7.01245H163.633L171.895 30.4468H167.363L161.104 11.8183H160.921L154.674 30.4468ZM154.822 21.2584H167.18V24.6683H154.822V21.2584Z" fill="#21211B"/>
<path d="M194.239 7.01245V30.4468H190.463L179.421 14.4844H179.227V30.4468H174.981V7.01245H178.78L189.811 22.9863H190.017V7.01245H194.239Z" fill="#21211B"/>
<path d="M201.874 30.4468H197.343L205.593 7.01245H210.834L219.095 30.4468H214.564L208.305 11.8183H208.122L201.874 30.4468ZM202.023 21.2584H214.381V24.6683H202.023V21.2584Z" fill="#21211B"/>
<path d="M87.3878 43.787H86.4477C86.3777 43.437 86.251 43.1136 86.0677 42.8169C85.8877 42.5169 85.661 42.2552 85.3876 42.0319C85.1143 41.8085 84.8043 41.6352 84.4576 41.5118C84.1109 41.3885 83.7359 41.3268 83.3325 41.3268C82.6858 41.3268 82.0958 41.4952 81.5624 41.8319C81.0324 42.1686 80.6073 42.6636 80.2873 43.317C79.9706 43.967 79.8123 44.7637 79.8123 45.7071C79.8123 46.6572 79.9706 47.4572 80.2873 48.1073C80.6073 48.7573 81.0324 49.2507 81.5624 49.5874C82.0958 49.9207 82.6858 50.0874 83.3325 50.0874C83.7359 50.0874 84.1109 50.0257 84.4576 49.9024C84.8043 49.779 85.1143 49.6074 85.3876 49.3873C85.661 49.164 85.8877 48.9023 86.0677 48.6023C86.251 48.3023 86.3777 47.9773 86.4477 47.6272H87.3878C87.3044 48.0973 87.1477 48.5356 86.9177 48.9423C86.6911 49.3457 86.401 49.699 86.0477 50.0024C85.6977 50.3057 85.2943 50.5424 84.8376 50.7124C84.3809 50.8824 83.8792 50.9674 83.3325 50.9674C82.4725 50.9674 81.7091 50.7524 81.0424 50.3224C80.3757 49.889 79.8523 49.279 79.4723 48.4923C79.0956 47.7056 78.9072 46.7772 78.9072 45.7071C78.9072 44.637 79.0956 43.7087 79.4723 42.9219C79.8523 42.1352 80.3757 41.5268 81.0424 41.0968C81.7091 40.6635 82.4725 40.4468 83.3325 40.4468C83.8792 40.4468 84.3809 40.5318 84.8376 40.7018C85.2943 40.8685 85.6977 41.1052 86.0477 41.4118C86.401 41.7152 86.6911 42.0685 86.9177 42.4719C87.1477 42.8753 87.3044 43.3136 87.3878 43.787Z" fill="#EA9C1B"/>
<path d="M92.3843 50.9874C91.721 50.9874 91.1342 50.8191 90.6242 50.4824C90.1175 50.1457 89.7208 49.6807 89.4341 49.0873C89.1475 48.4906 89.0041 47.8022 89.0041 47.0222C89.0041 46.2355 89.1475 45.5438 89.4341 44.9471C89.7208 44.347 90.1175 43.8803 90.6242 43.547C91.1342 43.2103 91.721 43.0419 92.3843 43.0419C93.0477 43.0419 93.6327 43.2103 94.1394 43.547C94.6461 43.8837 95.0428 44.3504 95.3295 44.9471C95.6195 45.5438 95.7645 46.2355 95.7645 47.0222C95.7645 47.8022 95.6212 48.4906 95.3345 49.0873C95.0478 49.6807 94.6495 50.1457 94.1394 50.4824C93.6327 50.8191 93.0477 50.9874 92.3843 50.9874ZM92.3843 50.1724C92.9177 50.1724 93.3694 50.029 93.7394 49.7424C94.1094 49.4557 94.3895 49.074 94.5795 48.5973C94.7728 48.1206 94.8695 47.5956 94.8695 47.0222C94.8695 46.4488 94.7728 45.9221 94.5795 45.4421C94.3895 44.9621 94.1094 44.577 93.7394 44.287C93.3694 43.997 92.9177 43.852 92.3843 43.852C91.8543 43.852 91.4026 43.997 91.0292 44.287C90.6592 44.577 90.3775 44.9621 90.1842 45.4421C89.9942 45.9221 89.8992 46.4488 89.8992 47.0222C89.8992 47.5956 89.9942 48.1206 90.1842 48.5973C90.3775 49.074 90.6592 49.4557 91.0292 49.7424C91.3993 50.029 91.851 50.1724 92.3843 50.1724Z" fill="#EA9C1B"/>
<path d="M98.6085 46.0271V50.8274H97.7184V43.1469H98.5835V44.352H98.6635C98.8435 43.9587 99.1235 43.6436 99.5035 43.407C99.8869 43.1669 100.36 43.0469 100.924 43.0469C101.44 43.0469 101.894 43.1553 102.284 43.372C102.677 43.5853 102.982 43.9003 103.199 44.317C103.419 44.7337 103.529 45.2454 103.529 45.8521V50.8274H102.639V45.9071C102.639 45.2771 102.462 44.7787 102.109 44.412C101.759 44.0453 101.289 43.862 100.699 43.862C100.295 43.862 99.9369 43.9487 99.6235 44.122C99.3102 44.2954 99.0618 44.5454 98.8785 44.8721C98.6985 45.1954 98.6085 45.5804 98.6085 46.0271Z" fill="#EA9C1B"/>
<path d="M111.033 44.8321L110.218 45.0621C110.138 44.8321 110.025 44.6237 109.878 44.437C109.731 44.2504 109.54 44.102 109.303 43.992C109.07 43.882 108.78 43.827 108.433 43.827C107.913 43.827 107.486 43.9503 107.153 44.197C106.819 44.4437 106.653 44.762 106.653 45.1521C106.653 45.4821 106.766 45.7504 106.993 45.9571C107.223 46.1605 107.576 46.3221 108.053 46.4422L109.213 46.7272C109.856 46.8839 110.338 47.1322 110.658 47.4722C110.981 47.8122 111.143 48.2389 111.143 48.7523C111.143 49.1857 111.023 49.5707 110.783 49.9074C110.543 50.2441 110.208 50.5091 109.778 50.7024C109.351 50.8924 108.856 50.9874 108.293 50.9874C107.543 50.9874 106.924 50.8191 106.438 50.4824C105.951 50.1424 105.639 49.6524 105.503 49.0123L106.358 48.8023C106.468 49.259 106.683 49.604 107.003 49.8374C107.326 50.0707 107.751 50.1874 108.278 50.1874C108.868 50.1874 109.34 50.0557 109.693 49.7924C110.046 49.5257 110.223 49.1923 110.223 48.7923C110.223 48.4823 110.12 48.2223 109.913 48.0123C109.706 47.7989 109.393 47.6422 108.973 47.5422L107.718 47.2422C107.051 47.0822 106.558 46.8288 106.238 46.4822C105.918 46.1355 105.758 45.7054 105.758 45.1921C105.758 44.7687 105.873 44.397 106.103 44.077C106.333 43.7537 106.649 43.5003 107.053 43.317C107.456 43.1336 107.916 43.0419 108.433 43.0419C109.136 43.0419 109.698 43.202 110.118 43.522C110.541 43.8387 110.846 44.2754 111.033 44.8321Z" fill="#EA9C1B"/>
<path d="M116.117 43.1469V43.922H112.452V43.1469H116.117ZM113.597 41.3068H114.492V48.8223C114.492 49.1423 114.547 49.394 114.657 49.5774C114.767 49.7574 114.91 49.8857 115.087 49.9624C115.264 50.0357 115.452 50.0724 115.652 50.0724C115.769 50.0724 115.869 50.0657 115.952 50.0524C116.035 50.0357 116.109 50.019 116.172 50.0024L116.362 50.8074C116.275 50.8408 116.169 50.8708 116.042 50.8974C115.915 50.9274 115.759 50.9424 115.572 50.9424C115.245 50.9424 114.93 50.8708 114.627 50.7274C114.327 50.5841 114.08 50.3707 113.887 50.0874C113.694 49.804 113.597 49.4523 113.597 49.0323V41.3068Z" fill="#EA9C1B"/>
<path d="M118.138 50.8274V43.1469H119.004V44.327H119.069C119.222 43.9403 119.489 43.6286 119.869 43.392C120.252 43.1519 120.685 43.0319 121.169 43.0319C121.242 43.0319 121.324 43.0336 121.414 43.0369C121.504 43.0403 121.579 43.0436 121.639 43.0469V43.952C121.599 43.9453 121.529 43.9353 121.429 43.922C121.329 43.9087 121.22 43.902 121.104 43.902C120.704 43.902 120.347 43.987 120.034 44.157C119.724 44.3237 119.479 44.5554 119.299 44.8521C119.119 45.1487 119.029 45.4871 119.029 45.8671V50.8274H118.138Z" fill="#EA9C1B"/>
<path d="M128.038 47.8922V43.1469H128.928V50.8274H128.038V49.5524H127.968C127.788 49.9457 127.503 50.2741 127.113 50.5374C126.723 50.7974 126.246 50.9274 125.683 50.9274C125.193 50.9274 124.758 50.8208 124.378 50.6074C123.998 50.3907 123.699 50.0741 123.483 49.6574C123.266 49.2407 123.158 48.729 123.158 48.1223V43.1469H124.048V48.0673C124.048 48.6673 124.224 49.1507 124.578 49.5174C124.931 49.8807 125.384 50.0624 125.938 50.0624C126.284 50.0624 126.618 49.979 126.938 49.8124C127.258 49.6457 127.521 49.4023 127.728 49.0823C127.934 48.759 128.038 48.3623 128.038 47.8922Z" fill="#EA9C1B"/>
<path d="M134.284 50.9874C133.598 50.9874 132.999 50.8158 132.489 50.4724C131.983 50.1291 131.589 49.659 131.309 49.0623C131.029 48.4656 130.889 47.7856 130.889 47.0222C130.889 46.2521 131.031 45.5671 131.314 44.9671C131.601 44.367 131.998 43.897 132.504 43.557C133.011 43.2136 133.599 43.0419 134.269 43.0419C134.783 43.0419 135.248 43.1419 135.665 43.342C136.081 43.5386 136.425 43.817 136.695 44.177C136.968 44.5337 137.14 44.9504 137.21 45.4271H136.31C136.216 44.9937 135.991 44.6237 135.635 44.317C135.281 44.007 134.831 43.852 134.284 43.852C133.794 43.852 133.361 43.9853 132.984 44.252C132.608 44.5154 132.313 44.8837 132.099 45.3571C131.889 45.8271 131.784 46.3722 131.784 46.9922C131.784 47.6156 131.888 48.1673 132.094 48.6473C132.301 49.124 132.591 49.4973 132.964 49.7674C133.341 50.0374 133.781 50.1724 134.284 50.1724C134.624 50.1724 134.935 50.1091 135.215 49.9824C135.498 49.8524 135.735 49.669 135.925 49.4323C136.118 49.1957 136.248 48.914 136.315 48.5873H137.215C137.148 49.0507 136.983 49.464 136.72 49.8274C136.46 50.1874 136.121 50.4707 135.705 50.6774C135.291 50.8841 134.818 50.9874 134.284 50.9874Z" fill="#EA9C1B"/>
<path d="M142.147 43.1469V43.922H138.482V43.1469H142.147ZM139.627 41.3068H140.522V48.8223C140.522 49.1423 140.577 49.394 140.687 49.5774C140.797 49.7574 140.941 49.8857 141.117 49.9624C141.294 50.0357 141.482 50.0724 141.682 50.0724C141.799 50.0724 141.899 50.0657 141.982 50.0524C142.066 50.0357 142.139 50.019 142.202 50.0024L142.392 50.8074C142.306 50.8408 142.199 50.8708 142.072 50.8974C141.946 50.9274 141.789 50.9424 141.602 50.9424C141.276 50.9424 140.961 50.8708 140.657 50.7274C140.357 50.5841 140.111 50.3707 139.917 50.0874C139.724 49.804 139.627 49.4523 139.627 49.0323V41.3068Z" fill="#EA9C1B"/>
<path d="M144.179 50.8274V43.1469H145.074V50.8274H144.179ZM144.634 41.8269C144.451 41.8269 144.294 41.7652 144.164 41.6419C144.034 41.5152 143.969 41.3635 143.969 41.1868C143.969 41.0101 144.034 40.8601 144.164 40.7368C144.294 40.6101 144.451 40.5468 144.634 40.5468C144.817 40.5468 144.974 40.6101 145.104 40.7368C145.234 40.8601 145.299 41.0101 145.299 41.1868C145.299 41.3635 145.234 41.5152 145.104 41.6419C144.974 41.7652 144.817 41.8269 144.634 41.8269Z" fill="#EA9C1B"/>
<path d="M150.413 50.9874C149.75 50.9874 149.163 50.8191 148.653 50.4824C148.146 50.1457 147.749 49.6807 147.463 49.0873C147.176 48.4906 147.033 47.8022 147.033 47.0222C147.033 46.2355 147.176 45.5438 147.463 44.9471C147.749 44.347 148.146 43.8803 148.653 43.547C149.163 43.2103 149.75 43.0419 150.413 43.0419C151.076 43.0419 151.661 43.2103 152.168 43.547C152.675 43.8837 153.071 44.3504 153.358 44.9471C153.648 45.5438 153.793 46.2355 153.793 47.0222C153.793 47.8022 153.65 48.4906 153.363 49.0873C153.076 49.6807 152.678 50.1457 152.168 50.4824C151.661 50.8191 151.076 50.9874 150.413 50.9874ZM150.413 50.1724C150.946 50.1724 151.398 50.029 151.768 49.7424C152.138 49.4557 152.418 49.074 152.608 48.5973C152.801 48.1206 152.898 47.5956 152.898 47.0222C152.898 46.4488 152.801 45.9221 152.608 45.4421C152.418 44.9621 152.138 44.577 151.768 44.287C151.398 43.997 150.946 43.852 150.413 43.852C149.883 43.852 149.431 43.997 149.058 44.287C148.688 44.577 148.406 44.9621 148.213 45.4421C148.023 45.9221 147.928 46.4488 147.928 47.0222C147.928 47.5956 148.023 48.1206 148.213 48.5973C148.406 49.074 148.688 49.4557 149.058 49.7424C149.428 50.029 149.88 50.1724 150.413 50.1724Z" fill="#EA9C1B"/>
<path d="M156.637 46.0271V50.8274H155.747V43.1469H156.612V44.352H156.692C156.872 43.9587 157.152 43.6436 157.532 43.407C157.916 43.1669 158.389 43.0469 158.952 43.0469C159.469 43.0469 159.922 43.1553 160.312 43.372C160.706 43.5853 161.011 43.9003 161.227 44.317C161.447 44.7337 161.557 45.2454 161.557 45.8521V50.8274H160.667V45.9071C160.667 45.2771 160.491 44.7787 160.137 44.412C159.787 44.0453 159.317 43.862 158.727 43.862C158.324 43.862 157.966 43.9487 157.652 44.122C157.339 44.2954 157.09 44.5454 156.907 44.8721C156.727 45.1954 156.637 45.5804 156.637 46.0271Z" fill="#EA9C1B"/>
<path d="M170.602 50.9674C169.972 50.9674 169.422 50.8458 168.952 50.6024C168.482 50.3557 168.117 50.0207 167.857 49.5974C167.597 49.174 167.467 48.6956 167.467 48.1623C167.467 47.7756 167.545 47.4272 167.702 47.1172C167.862 46.8038 168.092 46.5072 168.392 46.2271C168.692 45.9438 169.055 45.6504 169.482 45.3471L170.967 44.242C171.32 43.9887 171.588 43.7403 171.772 43.497C171.959 43.2503 172.052 42.9486 172.052 42.5919C172.052 42.2486 171.922 41.9419 171.662 41.6719C171.405 41.3985 171.072 41.2618 170.662 41.2618C170.375 41.2618 170.118 41.3335 169.892 41.4768C169.668 41.6202 169.49 41.8069 169.357 42.0369C169.227 42.2636 169.162 42.5019 169.162 42.7519C169.162 42.9853 169.222 43.2203 169.342 43.457C169.462 43.6903 169.623 43.937 169.827 44.197C170.03 44.4537 170.257 44.737 170.507 45.0471L175.187 50.8274H174.107L170.027 45.8221C169.683 45.4021 169.378 45.0271 169.112 44.697C168.845 44.3637 168.635 44.0437 168.482 43.737C168.328 43.427 168.252 43.0953 168.252 42.7419C168.252 42.3052 168.353 41.9169 168.557 41.5768C168.76 41.2335 169.04 40.9635 169.397 40.7668C169.757 40.5701 170.168 40.4718 170.632 40.4718C171.105 40.4718 171.515 40.5685 171.862 40.7618C172.212 40.9551 172.482 41.2118 172.672 41.5318C172.865 41.8519 172.962 42.2052 172.962 42.5919C172.962 43.0553 172.842 43.4653 172.602 43.822C172.365 44.1787 172.02 44.5287 171.567 44.8721L169.707 46.2621C169.197 46.6455 168.847 47.0005 168.657 47.3272C168.467 47.6539 168.372 47.9323 168.372 48.1623C168.372 48.5223 168.465 48.854 168.652 49.1573C168.838 49.4607 169.097 49.704 169.427 49.8874C169.76 50.0707 170.142 50.1641 170.572 50.1674C170.998 50.1641 171.4 50.0791 171.777 49.9124C172.154 49.7424 172.49 49.5007 172.787 49.1873C173.087 48.874 173.327 48.499 173.507 48.0623C173.69 47.6256 173.797 47.1389 173.827 46.6022L174.692 46.6122C174.679 47.1622 174.604 47.6289 174.467 48.0123C174.334 48.3923 174.18 48.7056 174.007 48.9523C173.834 49.199 173.682 49.3973 173.552 49.5474C173.515 49.5974 173.479 49.6474 173.442 49.6974C173.405 49.7474 173.367 49.7974 173.327 49.8474C172.994 50.2141 172.579 50.4924 172.082 50.6824C171.588 50.8724 171.095 50.9674 170.602 50.9674Z" fill="#EA9C1B"/>
<path d="M181.687 40.5868V50.8274H180.752V40.5868H181.687Z" fill="#EA9C1B"/>
<path d="M185.115 46.0271V50.8274H184.225V43.1469H185.09V44.352H185.17C185.35 43.9587 185.63 43.6436 186.01 43.407C186.394 43.1669 186.867 43.0469 187.43 43.0469C187.947 43.0469 188.4 43.1553 188.79 43.372C189.184 43.5853 189.489 43.9003 189.705 44.317C189.925 44.7337 190.035 45.2454 190.035 45.8521V50.8274H189.145V45.9071C189.145 45.2771 188.969 44.7787 188.615 44.412C188.265 44.0453 187.795 43.862 187.205 43.862C186.802 43.862 186.444 43.9487 186.13 44.122C185.817 44.2954 185.569 44.5454 185.385 44.8721C185.205 45.1954 185.115 45.5804 185.115 46.0271Z" fill="#EA9C1B"/>
<path d="M198.05 43.1469L195.245 50.8274H194.295L191.489 43.1469H192.454L194.735 49.6524H194.805L197.085 43.1469H198.05Z" fill="#EA9C1B"/>
<path d="M202.621 50.9874C201.905 50.9874 201.285 50.8208 200.761 50.4874C200.238 50.1507 199.833 49.6857 199.546 49.0923C199.263 48.4956 199.121 47.8089 199.121 47.0322C199.121 46.2588 199.263 45.5721 199.546 44.9721C199.833 44.3687 200.228 43.897 200.731 43.557C201.238 43.2136 201.823 43.0419 202.486 43.0419C202.903 43.0419 203.305 43.1186 203.691 43.272C204.078 43.422 204.425 43.6536 204.731 43.967C205.041 44.277 205.286 44.6687 205.466 45.1421C205.646 45.6121 205.736 46.1688 205.736 46.8122V47.2522H199.736V46.4672H204.826C204.826 45.9738 204.726 45.5304 204.526 45.1371C204.33 44.7404 204.055 44.427 203.701 44.197C203.351 43.967 202.946 43.852 202.486 43.852C202 43.852 201.571 43.982 201.201 44.242C200.831 44.502 200.541 44.8454 200.331 45.2721C200.124 45.6988 200.019 46.1655 200.016 46.6722V47.1422C200.016 47.7522 200.121 48.2856 200.331 48.7423C200.544 49.1957 200.846 49.5474 201.236 49.7974C201.626 50.0474 202.088 50.1724 202.621 50.1724C202.985 50.1724 203.303 50.1157 203.576 50.0024C203.853 49.889 204.085 49.7374 204.271 49.5474C204.461 49.354 204.605 49.1423 204.701 48.9123L205.546 49.1873C205.43 49.5107 205.238 49.809 204.971 50.0824C204.708 50.3557 204.378 50.5758 203.981 50.7424C203.588 50.9058 203.135 50.9874 202.621 50.9874Z" fill="#EA9C1B"/>
<path d="M212.858 44.8321L212.043 45.0621C211.963 44.8321 211.85 44.6237 211.703 44.437C211.556 44.2504 211.365 44.102 211.128 43.992C210.895 43.882 210.605 43.827 210.258 43.827C209.738 43.827 209.311 43.9503 208.978 44.197C208.645 44.4437 208.478 44.762 208.478 45.1521C208.478 45.4821 208.591 45.7504 208.818 45.9571C209.048 46.1605 209.401 46.3221 209.878 46.4422L211.038 46.7272C211.681 46.8839 212.163 47.1322 212.483 47.4722C212.807 47.8122 212.968 48.2389 212.968 48.7523C212.968 49.1857 212.848 49.5707 212.608 49.9074C212.368 50.2441 212.033 50.5091 211.603 50.7024C211.176 50.8924 210.681 50.9874 210.118 50.9874C209.368 50.9874 208.75 50.8191 208.263 50.4824C207.776 50.1424 207.465 49.6524 207.328 49.0123L208.183 48.8023C208.293 49.259 208.508 49.604 208.828 49.8374C209.151 50.0707 209.576 50.1874 210.103 50.1874C210.693 50.1874 211.165 50.0557 211.518 49.7924C211.871 49.5257 212.048 49.1923 212.048 48.7923C212.048 48.4823 211.945 48.2223 211.738 48.0123C211.531 47.7989 211.218 47.6422 210.798 47.5422L209.543 47.2422C208.876 47.0822 208.383 46.8288 208.063 46.4822C207.743 46.1355 207.583 45.7054 207.583 45.1921C207.583 44.7687 207.698 44.397 207.928 44.077C208.158 43.7537 208.475 43.5003 208.878 43.317C209.281 43.1336 209.741 43.0419 210.258 43.0419C210.961 43.0419 211.523 43.202 211.943 43.522C212.366 43.8387 212.672 44.2754 212.858 44.8321Z" fill="#EA9C1B"/>
<path d="M217.942 43.1469V43.922H214.277V43.1469H217.942ZM215.422 41.3068H216.317V48.8223C216.317 49.1423 216.372 49.394 216.482 49.5774C216.592 49.7574 216.736 49.8857 216.912 49.9624C217.089 50.0357 217.277 50.0724 217.477 50.0724C217.594 50.0724 217.694 50.0657 217.777 50.0524C217.861 50.0357 217.934 50.019 217.997 50.0024L218.187 50.8074C218.101 50.8408 217.994 50.8708 217.867 50.8974C217.741 50.9274 217.584 50.9424 217.397 50.9424C217.071 50.9424 216.756 50.8708 216.452 50.7274C216.152 50.5841 215.905 50.3707 215.712 50.0874C215.519 49.804 215.422 49.4523 215.422 49.0323V41.3068Z" fill="#EA9C1B"/>
<path d="M87.3878 43.787H86.4477C86.3777 43.437 86.251 43.1136 86.0677 42.8169C85.8877 42.5169 85.661 42.2552 85.3876 42.0319C85.1143 41.8085 84.8043 41.6352 84.4576 41.5118C84.1109 41.3885 83.7359 41.3268 83.3325 41.3268C82.6858 41.3268 82.0958 41.4952 81.5624 41.8319C81.0324 42.1686 80.6073 42.6636 80.2873 43.317C79.9706 43.967 79.8123 44.7637 79.8123 45.7071C79.8123 46.6572 79.9706 47.4572 80.2873 48.1073C80.6073 48.7573 81.0324 49.2507 81.5624 49.5874C82.0958 49.9207 82.6858 50.0874 83.3325 50.0874C83.7359 50.0874 84.1109 50.0257 84.4576 49.9024C84.8043 49.779 85.1143 49.6074 85.3876 49.3873C85.661 49.164 85.8877 48.9023 86.0677 48.6023C86.251 48.3023 86.3777 47.9773 86.4477 47.6272H87.3878C87.3044 48.0973 87.1477 48.5356 86.9177 48.9423C86.6911 49.3457 86.401 49.699 86.0477 50.0024C85.6977 50.3057 85.2943 50.5424 84.8376 50.7124C84.3809 50.8824 83.8792 50.9674 83.3325 50.9674C82.4725 50.9674 81.7091 50.7524 81.0424 50.3224C80.3757 49.889 79.8523 49.279 79.4723 48.4923C79.0956 47.7056 78.9072 46.7772 78.9072 45.7071C78.9072 44.637 79.0956 43.7087 79.4723 42.9219C79.8523 42.1352 80.3757 41.5268 81.0424 41.0968C81.7091 40.6635 82.4725 40.4468 83.3325 40.4468C83.8792 40.4468 84.3809 40.5318 84.8376 40.7018C85.2943 40.8685 85.6977 41.1052 86.0477 41.4118C86.401 41.7152 86.6911 42.0685 86.9177 42.4719C87.1477 42.8753 87.3044 43.3136 87.3878 43.787Z" stroke="#EA9C1B"/>
<path d="M92.3843 50.9874C91.721 50.9874 91.1342 50.8191 90.6242 50.4824C90.1175 50.1457 89.7208 49.6807 89.4341 49.0873C89.1475 48.4906 89.0041 47.8022 89.0041 47.0222C89.0041 46.2355 89.1475 45.5438 89.4341 44.9471C89.7208 44.347 90.1175 43.8803 90.6242 43.547C91.1342 43.2103 91.721 43.0419 92.3843 43.0419C93.0477 43.0419 93.6327 43.2103 94.1394 43.547C94.6461 43.8837 95.0428 44.3504 95.3295 44.9471C95.6195 45.5438 95.7645 46.2355 95.7645 47.0222C95.7645 47.8022 95.6212 48.4906 95.3345 49.0873C95.0478 49.6807 94.6495 50.1457 94.1394 50.4824C93.6327 50.8191 93.0477 50.9874 92.3843 50.9874ZM92.3843 50.1724C92.9177 50.1724 93.3694 50.029 93.7394 49.7424C94.1094 49.4557 94.3895 49.074 94.5795 48.5973C94.7728 48.1206 94.8695 47.5956 94.8695 47.0222C94.8695 46.4488 94.7728 45.9221 94.5795 45.4421C94.3895 44.9621 94.1094 44.577 93.7394 44.287C93.3694 43.997 92.9177 43.852 92.3843 43.852C91.8543 43.852 91.4026 43.997 91.0292 44.287C90.6592 44.577 90.3775 44.9621 90.1842 45.4421C89.9942 45.9221 89.8992 46.4488 89.8992 47.0222C89.8992 47.5956 89.9942 48.1206 90.1842 48.5973C90.3775 49.074 90.6592 49.4557 91.0292 49.7424C91.3993 50.029 91.851 50.1724 92.3843 50.1724Z" stroke="#EA9C1B"/>
<path d="M98.6085 46.0271V50.8274H97.7184V43.1469H98.5835V44.352H98.6635C98.8435 43.9587 99.1235 43.6436 99.5035 43.407C99.8869 43.1669 100.36 43.0469 100.924 43.0469C101.44 43.0469 101.894 43.1553 102.284 43.372C102.677 43.5853 102.982 43.9003 103.199 44.317C103.419 44.7337 103.529 45.2454 103.529 45.8521V50.8274H102.639V45.9071C102.639 45.2771 102.462 44.7787 102.109 44.412C101.759 44.0453 101.289 43.862 100.699 43.862C100.295 43.862 99.9369 43.9487 99.6235 44.122C99.3102 44.2954 99.0618 44.5454 98.8785 44.8721C98.6985 45.1954 98.6085 45.5804 98.6085 46.0271Z" stroke="#EA9C1B"/>
<path d="M111.033 44.8321L110.218 45.0621C110.138 44.8321 110.025 44.6237 109.878 44.437C109.731 44.2504 109.54 44.102 109.303 43.992C109.07 43.882 108.78 43.827 108.433 43.827C107.913 43.827 107.486 43.9503 107.153 44.197C106.819 44.4437 106.653 44.762 106.653 45.1521C106.653 45.4821 106.766 45.7504 106.993 45.9571C107.223 46.1605 107.576 46.3221 108.053 46.4422L109.213 46.7272C109.856 46.8839 110.338 47.1322 110.658 47.4722C110.981 47.8122 111.143 48.2389 111.143 48.7523C111.143 49.1857 111.023 49.5707 110.783 49.9074C110.543 50.2441 110.208 50.5091 109.778 50.7024C109.351 50.8924 108.856 50.9874 108.293 50.9874C107.543 50.9874 106.924 50.8191 106.438 50.4824C105.951 50.1424 105.639 49.6524 105.503 49.0123L106.358 48.8023C106.468 49.259 106.683 49.604 107.003 49.8374C107.326 50.0707 107.751 50.1874 108.278 50.1874C108.868 50.1874 109.34 50.0557 109.693 49.7924C110.046 49.5257 110.223 49.1923 110.223 48.7923C110.223 48.4823 110.12 48.2223 109.913 48.0123C109.706 47.7989 109.393 47.6422 108.973 47.5422L107.718 47.2422C107.051 47.0822 106.558 46.8288 106.238 46.4822C105.918 46.1355 105.758 45.7054 105.758 45.1921C105.758 44.7687 105.873 44.397 106.103 44.077C106.333 43.7537 106.649 43.5003 107.053 43.317C107.456 43.1336 107.916 43.0419 108.433 43.0419C109.136 43.0419 109.698 43.202 110.118 43.522C110.541 43.8387 110.846 44.2754 111.033 44.8321Z" stroke="#EA9C1B"/>
<path d="M116.117 43.1469V43.922H112.452V43.1469H116.117ZM113.597 41.3068H114.492V48.8223C114.492 49.1423 114.547 49.394 114.657 49.5774C114.767 49.7574 114.91 49.8857 115.087 49.9624C115.264 50.0357 115.452 50.0724 115.652 50.0724C115.769 50.0724 115.869 50.0657 115.952 50.0524C116.035 50.0357 116.109 50.019 116.172 50.0024L116.362 50.8074C116.275 50.8408 116.169 50.8708 116.042 50.8974C115.915 50.9274 115.759 50.9424 115.572 50.9424C115.245 50.9424 114.93 50.8708 114.627 50.7274C114.327 50.5841 114.08 50.3707 113.887 50.0874C113.694 49.804 113.597 49.4523 113.597 49.0323V41.3068Z" stroke="#EA9C1B"/>
<path d="M118.138 50.8274V43.1469H119.004V44.327H119.069C119.222 43.9403 119.489 43.6286 119.869 43.392C120.252 43.1519 120.685 43.0319 121.169 43.0319C121.242 43.0319 121.324 43.0336 121.414 43.0369C121.504 43.0403 121.579 43.0436 121.639 43.0469V43.952C121.599 43.9453 121.529 43.9353 121.429 43.922C121.329 43.9087 121.22 43.902 121.104 43.902C120.704 43.902 120.347 43.987 120.034 44.157C119.724 44.3237 119.479 44.5554 119.299 44.8521C119.119 45.1487 119.029 45.4871 119.029 45.8671V50.8274H118.138Z" stroke="#EA9C1B"/>
<path d="M128.038 47.8922V43.1469H128.928V50.8274H128.038V49.5524H127.968C127.788 49.9457 127.503 50.2741 127.113 50.5374C126.723 50.7974 126.246 50.9274 125.683 50.9274C125.193 50.9274 124.758 50.8208 124.378 50.6074C123.998 50.3907 123.699 50.0741 123.483 49.6574C123.266 49.2407 123.158 48.729 123.158 48.1223V43.1469H124.048V48.0673C124.048 48.6673 124.224 49.1507 124.578 49.5174C124.931 49.8807 125.384 50.0624 125.938 50.0624C126.284 50.0624 126.618 49.979 126.938 49.8124C127.258 49.6457 127.521 49.4023 127.728 49.0823C127.934 48.759 128.038 48.3623 128.038 47.8922Z" stroke="#EA9C1B"/>
<path d="M134.284 50.9874C133.598 50.9874 132.999 50.8158 132.489 50.4724C131.983 50.1291 131.589 49.659 131.309 49.0623C131.029 48.4656 130.889 47.7856 130.889 47.0222C130.889 46.2521 131.031 45.5671 131.314 44.9671C131.601 44.367 131.998 43.897 132.504 43.557C133.011 43.2136 133.599 43.0419 134.269 43.0419C134.783 43.0419 135.248 43.1419 135.665 43.342C136.081 43.5386 136.425 43.817 136.695 44.177C136.968 44.5337 137.14 44.9504 137.21 45.4271H136.31C136.216 44.9937 135.991 44.6237 135.635 44.317C135.281 44.007 134.831 43.852 134.284 43.852C133.794 43.852 133.361 43.9853 132.984 44.252C132.608 44.5154 132.313 44.8837 132.099 45.3571C131.889 45.8271 131.784 46.3722 131.784 46.9922C131.784 47.6156 131.888 48.1673 132.094 48.6473C132.301 49.124 132.591 49.4973 132.964 49.7674C133.341 50.0374 133.781 50.1724 134.284 50.1724C134.624 50.1724 134.935 50.1091 135.215 49.9824C135.498 49.8524 135.735 49.669 135.925 49.4323C136.118 49.1957 136.248 48.914 136.315 48.5873H137.215C137.148 49.0507 136.983 49.464 136.72 49.8274C136.46 50.1874 136.121 50.4707 135.705 50.6774C135.291 50.8841 134.818 50.9874 134.284 50.9874Z" stroke="#EA9C1B"/>
<path d="M142.147 43.1469V43.922H138.482V43.1469H142.147ZM139.627 41.3068H140.522V48.8223C140.522 49.1423 140.577 49.394 140.687 49.5774C140.797 49.7574 140.941 49.8857 141.117 49.9624C141.294 50.0357 141.482 50.0724 141.682 50.0724C141.799 50.0724 141.899 50.0657 141.982 50.0524C142.066 50.0357 142.139 50.019 142.202 50.0024L142.392 50.8074C142.306 50.8408 142.199 50.8708 142.072 50.8974C141.946 50.9274 141.789 50.9424 141.602 50.9424C141.276 50.9424 140.961 50.8708 140.657 50.7274C140.357 50.5841 140.111 50.3707 139.917 50.0874C139.724 49.804 139.627 49.4523 139.627 49.0323V41.3068Z" stroke="#EA9C1B"/>
<path d="M144.179 50.8274V43.1469H145.074V50.8274H144.179ZM144.634 41.8269C144.451 41.8269 144.294 41.7652 144.164 41.6419C144.034 41.5152 143.969 41.3635 143.969 41.1868C143.969 41.0101 144.034 40.8601 144.164 40.7368C144.294 40.6101 144.451 40.5468 144.634 40.5468C144.817 40.5468 144.974 40.6101 145.104 40.7368C145.234 40.8601 145.299 41.0101 145.299 41.1868C145.299 41.3635 145.234 41.5152 145.104 41.6419C144.974 41.7652 144.817 41.8269 144.634 41.8269Z" stroke="#EA9C1B"/>
<path d="M150.413 50.9874C149.75 50.9874 149.163 50.8191 148.653 50.4824C148.146 50.1457 147.749 49.6807 147.463 49.0873C147.176 48.4906 147.033 47.8022 147.033 47.0222C147.033 46.2355 147.176 45.5438 147.463 44.9471C147.749 44.347 148.146 43.8803 148.653 43.547C149.163 43.2103 149.75 43.0419 150.413 43.0419C151.076 43.0419 151.661 43.2103 152.168 43.547C152.675 43.8837 153.071 44.3504 153.358 44.9471C153.648 45.5438 153.793 46.2355 153.793 47.0222C153.793 47.8022 153.65 48.4906 153.363 49.0873C153.076 49.6807 152.678 50.1457 152.168 50.4824C151.661 50.8191 151.076 50.9874 150.413 50.9874ZM150.413 50.1724C150.946 50.1724 151.398 50.029 151.768 49.7424C152.138 49.4557 152.418 49.074 152.608 48.5973C152.801 48.1206 152.898 47.5956 152.898 47.0222C152.898 46.4488 152.801 45.9221 152.608 45.4421C152.418 44.9621 152.138 44.577 151.768 44.287C151.398 43.997 150.946 43.852 150.413 43.852C149.883 43.852 149.431 43.997 149.058 44.287C148.688 44.577 148.406 44.9621 148.213 45.4421C148.023 45.9221 147.928 46.4488 147.928 47.0222C147.928 47.5956 148.023 48.1206 148.213 48.5973C148.406 49.074 148.688 49.4557 149.058 49.7424C149.428 50.029 149.88 50.1724 150.413 50.1724Z" stroke="#EA9C1B"/>
<path d="M156.637 46.0271V50.8274H155.747V43.1469H156.612V44.352H156.692C156.872 43.9587 157.152 43.6436 157.532 43.407C157.916 43.1669 158.389 43.0469 158.952 43.0469C159.469 43.0469 159.922 43.1553 160.312 43.372C160.706 43.5853 161.011 43.9003 161.227 44.317C161.447 44.7337 161.557 45.2454 161.557 45.8521V50.8274H160.667V45.9071C160.667 45.2771 160.491 44.7787 160.137 44.412C159.787 44.0453 159.317 43.862 158.727 43.862C158.324 43.862 157.966 43.9487 157.652 44.122C157.339 44.2954 157.09 44.5454 156.907 44.8721C156.727 45.1954 156.637 45.5804 156.637 46.0271Z" stroke="#EA9C1B"/>
<path d="M170.602 50.9674C169.972 50.9674 169.422 50.8458 168.952 50.6024C168.482 50.3557 168.117 50.0207 167.857 49.5974C167.597 49.174 167.467 48.6956 167.467 48.1623C167.467 47.7756 167.545 47.4272 167.702 47.1172C167.862 46.8038 168.092 46.5072 168.392 46.2271C168.692 45.9438 169.055 45.6504 169.482 45.3471L170.967 44.242C171.32 43.9887 171.588 43.7403 171.772 43.497C171.959 43.2503 172.052 42.9486 172.052 42.5919C172.052 42.2486 171.922 41.9419 171.662 41.6719C171.405 41.3985 171.072 41.2618 170.662 41.2618C170.375 41.2618 170.118 41.3335 169.892 41.4768C169.668 41.6202 169.49 41.8069 169.357 42.0369C169.227 42.2636 169.162 42.5019 169.162 42.7519C169.162 42.9853 169.222 43.2203 169.342 43.457C169.462 43.6903 169.623 43.937 169.827 44.197C170.03 44.4537 170.257 44.737 170.507 45.0471L175.187 50.8274H174.107L170.027 45.8221C169.683 45.4021 169.378 45.0271 169.112 44.697C168.845 44.3637 168.635 44.0437 168.482 43.737C168.328 43.427 168.252 43.0953 168.252 42.7419C168.252 42.3052 168.353 41.9169 168.557 41.5768C168.76 41.2335 169.04 40.9635 169.397 40.7668C169.757 40.5701 170.168 40.4718 170.632 40.4718C171.105 40.4718 171.515 40.5685 171.862 40.7618C172.212 40.9551 172.482 41.2118 172.672 41.5318C172.865 41.8519 172.962 42.2052 172.962 42.5919C172.962 43.0553 172.842 43.4653 172.602 43.822C172.365 44.1787 172.02 44.5287 171.567 44.8721L169.707 46.2621C169.197 46.6455 168.847 47.0005 168.657 47.3272C168.467 47.6539 168.372 47.9323 168.372 48.1623C168.372 48.5223 168.465 48.854 168.652 49.1573C168.838 49.4607 169.097 49.704 169.427 49.8874C169.76 50.0707 170.142 50.1641 170.572 50.1674C170.998 50.1641 171.4 50.0791 171.777 49.9124C172.154 49.7424 172.49 49.5007 172.787 49.1873C173.087 48.874 173.327 48.499 173.507 48.0623C173.69 47.6256 173.797 47.1389 173.827 46.6022L174.692 46.6122C174.679 47.1622 174.604 47.6289 174.467 48.0123C174.334 48.3923 174.18 48.7056 174.007 48.9523C173.834 49.199 173.682 49.3973 173.552 49.5474C173.515 49.5974 173.479 49.6474 173.442 49.6974C173.405 49.7474 173.367 49.7974 173.327 49.8474C172.994 50.2141 172.579 50.4924 172.082 50.6824C171.588 50.8724 171.095 50.9674 170.602 50.9674Z" stroke="#EA9C1B"/>
<path d="M181.687 40.5868V50.8274H180.752V40.5868H181.687Z" stroke="#EA9C1B"/>
<path d="M185.115 46.0271V50.8274H184.225V43.1469H185.09V44.352H185.17C185.35 43.9587 185.63 43.6436 186.01 43.407C186.394 43.1669 186.867 43.0469 187.43 43.0469C187.947 43.0469 188.4 43.1553 188.79 43.372C189.184 43.5853 189.489 43.9003 189.705 44.317C189.925 44.7337 190.035 45.2454 190.035 45.8521V50.8274H189.145V45.9071C189.145 45.2771 188.969 44.7787 188.615 44.412C188.265 44.0453 187.795 43.862 187.205 43.862C186.802 43.862 186.444 43.9487 186.13 44.122C185.817 44.2954 185.569 44.5454 185.385 44.8721C185.205 45.1954 185.115 45.5804 185.115 46.0271Z" stroke="#EA9C1B"/>
<path d="M198.05 43.1469L195.245 50.8274H194.295L191.489 43.1469H192.454L194.735 49.6524H194.805L197.085 43.1469H198.05Z" stroke="#EA9C1B"/>
<path d="M202.621 50.9874C201.905 50.9874 201.285 50.8208 200.761 50.4874C200.238 50.1507 199.833 49.6857 199.546 49.0923C199.263 48.4956 199.121 47.8089 199.121 47.0322C199.121 46.2588 199.263 45.5721 199.546 44.9721C199.833 44.3687 200.228 43.897 200.731 43.557C201.238 43.2136 201.823 43.0419 202.486 43.0419C202.903 43.0419 203.305 43.1186 203.691 43.272C204.078 43.422 204.425 43.6536 204.731 43.967C205.041 44.277 205.286 44.6687 205.466 45.1421C205.646 45.6121 205.736 46.1688 205.736 46.8122V47.2522H199.736V46.4672H204.826C204.826 45.9738 204.726 45.5304 204.526 45.1371C204.33 44.7404 204.055 44.427 203.701 44.197C203.351 43.967 202.946 43.852 202.486 43.852C202 43.852 201.571 43.982 201.201 44.242C200.831 44.502 200.541 44.8454 200.331 45.2721C200.124 45.6988 200.019 46.1655 200.016 46.6722V47.1422C200.016 47.7522 200.121 48.2856 200.331 48.7423C200.544 49.1957 200.846 49.5474 201.236 49.7974C201.626 50.0474 202.088 50.1724 202.621 50.1724C202.985 50.1724 203.303 50.1157 203.576 50.0024C203.853 49.889 204.085 49.7374 204.271 49.5474C204.461 49.354 204.605 49.1423 204.701 48.9123L205.546 49.1873C205.43 49.5107 205.238 49.809 204.971 50.0824C204.708 50.3557 204.378 50.5758 203.981 50.7424C203.588 50.9058 203.135 50.9874 202.621 50.9874Z" stroke="#EA9C1B"/>
<path d="M212.858 44.8321L212.043 45.0621C211.963 44.8321 211.85 44.6237 211.703 44.437C211.556 44.2504 211.365 44.102 211.128 43.992C210.895 43.882 210.605 43.827 210.258 43.827C209.738 43.827 209.311 43.9503 208.978 44.197C208.645 44.4437 208.478 44.762 208.478 45.1521C208.478 45.4821 208.591 45.7504 208.818 45.9571C209.048 46.1605 209.401 46.3221 209.878 46.4422L211.038 46.7272C211.681 46.8839 212.163 47.1322 212.483 47.4722C212.807 47.8122 212.968 48.2389 212.968 48.7523C212.968 49.1857 212.848 49.5707 212.608 49.9074C212.368 50.2441 212.033 50.5091 211.603 50.7024C211.176 50.8924 210.681 50.9874 210.118 50.9874C209.368 50.9874 208.75 50.8191 208.263 50.4824C207.776 50.1424 207.465 49.6524 207.328 49.0123L208.183 48.8023C208.293 49.259 208.508 49.604 208.828 49.8374C209.151 50.0707 209.576 50.1874 210.103 50.1874C210.693 50.1874 211.165 50.0557 211.518 49.7924C211.871 49.5257 212.048 49.1923 212.048 48.7923C212.048 48.4823 211.945 48.2223 211.738 48.0123C211.531 47.7989 211.218 47.6422 210.798 47.5422L209.543 47.2422C208.876 47.0822 208.383 46.8288 208.063 46.4822C207.743 46.1355 207.583 45.7054 207.583 45.1921C207.583 44.7687 207.698 44.397 207.928 44.077C208.158 43.7537 208.475 43.5003 208.878 43.317C209.281 43.1336 209.741 43.0419 210.258 43.0419C210.961 43.0419 211.523 43.202 211.943 43.522C212.366 43.8387 212.672 44.2754 212.858 44.8321Z" stroke="#EA9C1B"/>
<path d="M217.942 43.1469V43.922H214.277V43.1469H217.942ZM215.422 41.3068H216.317V48.8223C216.317 49.1423 216.372 49.394 216.482 49.5774C216.592 49.7574 216.736 49.8857 216.912 49.9624C217.089 50.0357 217.277 50.0724 217.477 50.0724C217.594 50.0724 217.694 50.0657 217.777 50.0524C217.861 50.0357 217.934 50.019 217.997 50.0024L218.187 50.8074C218.101 50.8408 217.994 50.8708 217.867 50.8974C217.741 50.9274 217.584 50.9424 217.397 50.9424C217.071 50.9424 216.756 50.8708 216.452 50.7274C216.152 50.5841 215.905 50.3707 215.712 50.0874C215.519 49.804 215.422 49.4523 215.422 49.0323V41.3068Z" stroke="#EA9C1B"/>
</svg>
