<svg width="324" height="324" viewBox="0 0 324 324" fill="none" xmlns="http://www.w3.org/2000/svg">
<path d="M299.7 162C313.12 162 324.186 151.061 322.181 137.791C319.588 120.633 314.246 103.949 306.314 88.3971C294.689 65.6037 277.83 45.888 257.119 30.8648C236.407 15.8415 212.431 5.93782 187.154 1.96486C169.908 -0.745945 152.391 -0.643098 135.275 2.21954C122.039 4.43344 115.076 18.3492 119.243 31.1063C123.41 43.8635 137.165 50.5419 150.517 49.1829C160.174 48.1999 169.952 48.4576 179.608 49.9754C197.302 52.7565 214.085 59.689 228.583 70.2053C243.081 80.7216 254.882 94.5226 263.02 110.478C267.461 119.186 270.742 128.4 272.806 137.885C275.66 150.999 286.279 162 299.7 162Z" fill="url(#paint0_linear_1_1823)"/>
<defs>
<linearGradient id="paint0_linear_1_1823" x1="324" y1="162" x2="162" y2="70" gradientUnits="userSpaceOnUse">
<stop stop-color="#7546F7"/>
<stop offset="1" stop-color="#7546F7" stop-opacity="0"/>
</linearGradient>
</defs>
</svg>
