<svg width="267" height="109" viewBox="0 0 267 109" fill="none" xmlns="http://www.w3.org/2000/svg">
<path d="M17.4902 72.585L4.26016 45.225H11.9102L20.1002 64.305L17.4902 72.585ZM17.4902 72.585L17.3102 67.32L27.0752 45.135H30.3602L19.9652 67.095C19.9052 67.245 19.7702 67.56 19.5602 68.04C19.3502 68.49 19.1252 69.015 18.8852 69.615C18.6452 70.185 18.4202 70.74 18.2102 71.28C18.0302 71.82 17.9252 72.255 17.8952 72.585H17.4902ZM25.8152 47.97C26.1452 47.16 26.1002 46.53 25.6802 46.08C25.2902 45.63 24.8252 45.405 24.2852 45.405H23.9702V45H32.9252V45.45C32.9252 45.45 32.8652 45.45 32.7452 45.45C32.6252 45.45 32.5652 45.45 32.5652 45.45C31.9652 45.45 31.3352 45.645 30.6752 46.035C30.0152 46.395 29.4602 47.04 29.0102 47.97H25.8152ZM13.0802 47.97H5.61016C5.16016 47.04 4.60516 46.395 3.94516 46.035C3.31516 45.645 2.70016 45.45 2.10016 45.45C2.10016 45.45 2.05516 45.45 1.96516 45.45C1.84516 45.45 1.78516 45.45 1.78516 45.45V45H14.9702V45.405H14.6102C14.1302 45.405 13.6802 45.63 13.2602 46.08C12.8402 46.53 12.7802 47.16 13.0802 47.97Z" fill="#ECECEC"/>
<path d="M45.3262 45V72H38.8462V45H45.3262ZM38.9812 69.165V72H35.6962V71.55C35.6962 71.55 35.7862 71.55 35.9662 71.55C36.1462 71.55 36.2512 71.55 36.2812 71.55C36.9712 71.55 37.5712 71.325 38.0812 70.875C38.5912 70.395 38.8462 69.825 38.8462 69.165H38.9812ZM45.2362 69.165H45.3262C45.3562 69.825 45.6112 70.395 46.0912 70.875C46.6012 71.325 47.2162 71.55 47.9362 71.55C47.9362 71.55 48.0112 71.55 48.1612 71.55C48.3412 71.55 48.4462 71.55 48.4762 71.55V72H45.2362V69.165ZM45.2362 47.835V45H48.4762L48.4312 45.45C48.4312 45.45 48.3562 45.45 48.2062 45.45C48.0562 45.45 47.9662 45.45 47.9362 45.45C47.2162 45.45 46.6012 45.675 46.0912 46.125C45.6112 46.575 45.3562 47.145 45.3262 47.835H45.2362ZM38.9812 47.835H38.8462C38.8462 47.145 38.5912 46.575 38.0812 46.125C37.5712 45.675 36.9562 45.45 36.2362 45.45C36.2362 45.45 36.1462 45.45 35.9662 45.45C35.7862 45.45 35.6962 45.45 35.6962 45.45V45H38.9812V47.835Z" fill="#ECECEC"/>
<path d="M80.371 60.705L80.866 67.5C80.296 68.46 79.501 69.33 78.481 70.11C77.461 70.86 76.216 71.46 74.746 71.91C73.276 72.36 71.566 72.585 69.616 72.585C66.256 72.555 63.361 71.985 60.931 70.875C58.501 69.765 56.626 68.175 55.306 66.105C54.016 64.005 53.371 61.455 53.371 58.455C53.371 55.515 54.016 53.01 55.306 50.94C56.596 48.84 58.456 47.235 60.886 46.125C63.316 44.985 66.226 44.415 69.616 44.415C71.656 44.415 73.546 44.61 75.286 45C77.056 45.39 78.526 45.885 79.696 46.485L79.741 53.64H79.381C78.631 50.88 77.446 48.945 75.826 47.835C74.206 46.725 72.286 46.17 70.066 46.17C67.876 46.17 66.046 46.68 64.576 47.7C63.136 48.72 62.041 50.145 61.291 51.975C60.571 53.805 60.211 55.95 60.211 58.41C60.211 60.9 60.571 63.06 61.291 64.89C62.041 66.72 63.121 68.145 64.531 69.165C65.941 70.185 67.636 70.725 69.616 70.785C71.746 70.785 73.501 70.455 74.881 69.795C76.291 69.135 77.401 68.07 78.211 66.6C79.051 65.13 79.651 63.165 80.011 60.705H80.371Z" fill="#ECECEC"/>
<path d="M101.549 45.135V72H95.0238V45.135H101.549ZM111.359 44.955V46.755H85.2588V44.955H111.359ZM111.359 46.62V51.39H110.864V50.985C110.894 49.695 110.534 48.675 109.784 47.925C109.064 47.175 108.059 46.785 106.769 46.755V46.62H111.359ZM111.359 44.28V45.405L106.589 44.955C107.159 44.955 107.774 44.925 108.434 44.865C109.094 44.775 109.694 44.685 110.234 44.595C110.774 44.475 111.149 44.37 111.359 44.28ZM95.1138 69.165V72H92.0987V71.55C92.0987 71.55 92.1738 71.55 92.3238 71.55C92.5038 71.55 92.5938 71.55 92.5938 71.55C93.2538 71.55 93.8088 71.325 94.2588 70.875C94.7388 70.395 94.9938 69.825 95.0238 69.165H95.1138ZM101.414 69.165H101.549C101.549 69.825 101.789 70.395 102.269 70.875C102.749 71.325 103.334 71.55 104.024 71.55C104.024 71.55 104.099 71.55 104.249 71.55C104.429 71.55 104.519 71.55 104.519 71.55V72H101.414V69.165ZM89.8487 46.62V46.755C88.5287 46.785 87.5088 47.175 86.7887 47.925C86.0987 48.675 85.7538 49.695 85.7538 50.985V51.39H85.2588V46.62H89.8487ZM85.2588 44.28C85.5287 44.34 85.9187 44.43 86.4287 44.55C86.9688 44.67 87.5538 44.775 88.1838 44.865C88.8438 44.925 89.4437 44.955 89.9837 44.955L85.2588 45.405V44.28Z" fill="#ECECEC"/>
<path d="M131.062 44.415C133.462 44.415 135.637 44.745 137.587 45.405C139.537 46.035 141.217 46.965 142.627 48.195C144.037 49.425 145.117 50.91 145.867 52.65C146.647 54.39 147.037 56.355 147.037 58.545C147.037 60.705 146.647 62.655 145.867 64.395C145.117 66.105 144.037 67.575 142.627 68.805C141.217 70.035 139.537 70.98 137.587 71.64C135.637 72.27 133.462 72.585 131.062 72.585C128.692 72.585 126.532 72.27 124.582 71.64C122.632 70.98 120.952 70.035 119.542 68.805C118.132 67.575 117.052 66.105 116.302 64.395C115.552 62.655 115.177 60.705 115.177 58.545C115.177 56.355 115.552 54.39 116.302 52.65C117.052 50.91 118.132 49.425 119.542 48.195C120.952 46.965 122.632 46.035 124.582 45.405C126.532 44.745 128.692 44.415 131.062 44.415ZM131.062 70.83C132.892 70.83 134.482 70.335 135.832 69.345C137.212 68.325 138.262 66.9 138.982 65.07C139.732 63.24 140.107 61.065 140.107 58.545C140.107 55.995 139.732 53.805 138.982 51.975C138.262 50.115 137.212 48.69 135.832 47.7C134.482 46.68 132.892 46.17 131.062 46.17C129.262 46.17 127.687 46.68 126.337 47.7C124.987 48.69 123.937 50.115 123.187 51.975C122.437 53.805 122.062 55.995 122.062 58.545C122.062 61.065 122.437 63.24 123.187 65.07C123.937 66.9 124.987 68.325 126.337 69.345C127.687 70.335 129.262 70.83 131.062 70.83Z" fill="#ECECEC"/>
<path d="M161.15 45H166.01C167.24 45 168.44 45.135 169.61 45.405C170.78 45.645 171.83 46.05 172.76 46.62C173.69 47.16 174.425 47.91 174.965 48.87C175.535 49.8 175.82 50.97 175.82 52.38C175.82 53.43 175.595 54.48 175.145 55.53C174.725 56.55 174.05 57.435 173.12 58.185C172.22 58.935 171.035 59.43 169.565 59.67C170.435 59.94 171.26 60.465 172.04 61.245C172.85 62.025 173.48 62.76 173.93 63.45C174.05 63.69 174.26 64.08 174.56 64.62C174.86 65.13 175.235 65.73 175.685 66.42C176.165 67.08 176.66 67.77 177.17 68.49C177.77 69.3 178.295 69.93 178.745 70.38C179.195 70.8 179.66 71.1 180.14 71.28C180.62 71.46 181.175 71.55 181.805 71.55V72H178.025C176.405 72 175.025 71.88 173.885 71.64C172.775 71.4 171.8 70.965 170.96 70.335C170.15 69.675 169.4 68.79 168.71 67.68C168.44 67.29 168.155 66.825 167.855 66.285C167.555 65.715 167.255 65.145 166.955 64.575C166.655 64.005 166.385 63.45 166.145 62.91C165.935 62.37 165.785 61.92 165.695 61.56C165.305 60.6 164.855 59.91 164.345 59.49C163.865 59.04 163.415 58.815 162.995 58.815V58.41C162.995 58.41 163.1 58.41 163.31 58.41C163.52 58.41 163.79 58.41 164.12 58.41C164.75 58.41 165.365 58.305 165.965 58.095C166.595 57.855 167.165 57.42 167.675 56.79C168.185 56.13 168.56 55.17 168.8 53.91C168.86 53.73 168.905 53.475 168.935 53.145C168.995 52.815 169.01 52.44 168.98 52.02C168.92 50.91 168.71 50.025 168.35 49.365C168.02 48.675 167.6 48.165 167.09 47.835C166.58 47.475 166.055 47.235 165.515 47.115C165.005 46.965 164.555 46.89 164.165 46.89C163.595 46.86 163.07 46.86 162.59 46.89C162.14 46.89 161.795 46.875 161.555 46.845C161.525 46.845 161.48 46.695 161.42 46.395C161.36 46.065 161.3 45.75 161.24 45.45C161.18 45.15 161.15 45 161.15 45ZM161.6 45V72H155.075V45H161.6ZM155.21 69.165L155.39 72H152.15V71.55C152.18 71.55 152.255 71.55 152.375 71.55C152.525 71.55 152.63 71.55 152.69 71.55C153.35 71.55 153.905 71.325 154.355 70.875C154.835 70.395 155.09 69.825 155.12 69.165H155.21ZM155.21 47.79H155.12C155.09 47.1 154.835 46.545 154.355 46.125C153.905 45.675 153.365 45.45 152.735 45.45C152.645 45.45 152.525 45.45 152.375 45.45C152.255 45.45 152.18 45.45 152.15 45.45V45H155.39L155.21 47.79ZM161.51 69.165H161.6C161.6 69.915 161.855 70.5 162.365 70.92C162.905 71.34 163.475 71.55 164.075 71.55C164.075 71.55 164.135 71.55 164.255 71.55C164.375 71.55 164.465 71.55 164.525 71.55V72H161.285L161.51 69.165Z" fill="#ECECEC"/>
<path d="M193.334 45V72H186.854V45H193.334ZM186.989 69.165V72H183.704V71.55C183.704 71.55 183.794 71.55 183.974 71.55C184.154 71.55 184.259 71.55 184.289 71.55C184.979 71.55 185.579 71.325 186.089 70.875C186.599 70.395 186.854 69.825 186.854 69.165H186.989ZM193.244 69.165H193.334C193.364 69.825 193.619 70.395 194.099 70.875C194.609 71.325 195.224 71.55 195.944 71.55C195.944 71.55 196.019 71.55 196.169 71.55C196.349 71.55 196.454 71.55 196.484 71.55V72H193.244V69.165ZM193.244 47.835V45H196.484L196.439 45.45C196.439 45.45 196.364 45.45 196.214 45.45C196.064 45.45 195.974 45.45 195.944 45.45C195.224 45.45 194.609 45.675 194.099 46.125C193.619 46.575 193.364 47.145 193.334 47.835H193.244ZM186.989 47.835H186.854C186.854 47.145 186.599 46.575 186.089 46.125C185.579 45.675 184.964 45.45 184.244 45.45C184.244 45.45 184.154 45.45 183.974 45.45C183.794 45.45 183.704 45.45 183.704 45.45V45H186.989V47.835Z" fill="#ECECEC"/>
<path d="M214.599 43.785L227.919 71.775H220.314L211.944 52.02L214.599 43.785ZM206.139 69.03C205.809 69.84 205.854 70.47 206.274 70.92C206.694 71.34 207.159 71.55 207.669 71.55H208.029V72H199.029V71.55C199.029 71.55 199.089 71.55 199.209 71.55C199.329 71.55 199.389 71.55 199.389 71.55C199.989 71.55 200.619 71.37 201.279 71.01C201.939 70.62 202.479 69.96 202.899 69.03H206.139ZM214.599 43.785L214.689 49.185L204.924 71.865H201.594L212.124 49.23C212.184 49.05 212.319 48.735 212.529 48.285C212.739 47.805 212.964 47.28 213.204 46.71C213.444 46.11 213.669 45.555 213.879 45.045C214.089 44.505 214.209 44.085 214.239 43.785H214.599ZM218.514 63.18V64.935H207.039V63.18H218.514ZM219.189 69.03H226.614C227.064 69.96 227.619 70.62 228.279 71.01C228.939 71.37 229.569 71.55 230.169 71.55C230.169 71.55 230.229 71.55 230.349 71.55C230.469 71.55 230.529 71.55 230.529 71.55V72H217.299V71.55H217.659C218.169 71.55 218.634 71.34 219.054 70.92C219.474 70.47 219.519 69.84 219.189 69.03Z" fill="#ECECEC"/>
<path d="M235.549 44.37L261.964 67.59L262.414 72.585L236.044 49.365L235.549 44.37ZM235.729 69.255V72H232.399V71.55C232.399 71.55 232.519 71.55 232.759 71.55C232.999 71.55 233.119 71.55 233.119 71.55C233.809 71.55 234.394 71.34 234.874 70.92C235.354 70.47 235.594 69.915 235.594 69.255H235.729ZM241.759 69.255C241.789 69.915 242.044 70.47 242.524 70.92C243.004 71.34 243.574 71.55 244.234 71.55C244.234 71.55 244.354 71.55 244.594 71.55C244.864 71.55 244.999 71.55 244.999 71.55V72H241.669V69.255H241.759ZM235.549 44.37L241.759 51.12V72H235.594V49.5C235.594 47.97 235.519 46.74 235.369 45.81C235.219 44.85 235.144 44.37 235.144 44.37H235.549ZM262.369 45V67.32C262.369 68.37 262.399 69.3 262.459 70.11C262.549 70.89 262.624 71.505 262.684 71.955C262.774 72.375 262.819 72.585 262.819 72.585H262.414L256.204 65.43V45H262.369ZM262.234 47.745V45H265.609V45.45C265.609 45.45 265.474 45.45 265.204 45.45C264.964 45.45 264.844 45.45 264.844 45.45C264.184 45.45 263.599 45.675 263.089 46.125C262.609 46.545 262.369 47.085 262.369 47.745H262.234ZM256.204 47.745C256.174 47.085 255.919 46.545 255.439 46.125C254.989 45.675 254.419 45.45 253.729 45.45C253.729 45.45 253.594 45.45 253.324 45.45C253.084 45.45 252.964 45.45 252.964 45.45V45H256.294V47.745H256.204Z" fill="#ECECEC"/>
<g filter="url(#filter0_f_791_3079)">
<path d="M17.4902 75.415L4.26016 102.775H11.9102L20.1002 83.695L17.4902 75.415ZM17.4902 75.415L17.3102 80.68L27.0752 102.865H30.3602L19.9652 80.905C19.9052 80.755 19.7702 80.44 19.5602 79.96C19.3502 79.51 19.1252 78.985 18.8852 78.385C18.6452 77.815 18.4202 77.26 18.2102 76.72C18.0302 76.18 17.9252 75.745 17.8952 75.415H17.4902ZM25.8152 100.03C26.1452 100.84 26.1002 101.47 25.6802 101.92C25.2902 102.37 24.8252 102.595 24.2852 102.595H23.9702V103H32.9252V102.55C32.9252 102.55 32.8652 102.55 32.7452 102.55C32.6252 102.55 32.5652 102.55 32.5652 102.55C31.9652 102.55 31.3352 102.355 30.6752 101.965C30.0152 101.605 29.4602 100.96 29.0102 100.03H25.8152ZM13.0802 100.03H5.61016C5.16016 100.96 4.60516 101.605 3.94516 101.965C3.31516 102.355 2.70016 102.55 2.10016 102.55C2.10016 102.55 2.05516 102.55 1.96516 102.55C1.84516 102.55 1.78516 102.55 1.78516 102.55V103H14.9702V102.595H14.6102C14.1302 102.595 13.6802 102.37 13.2602 101.92C12.8402 101.47 12.7802 100.84 13.0802 100.03Z" fill="#ECECEC" fill-opacity="0.6"/>
<path d="M45.3262 103V76H38.8462V103H45.3262ZM38.9812 78.835V76H35.6962V76.45C35.6962 76.45 35.7862 76.45 35.9662 76.45C36.1462 76.45 36.2512 76.45 36.2812 76.45C36.9712 76.45 37.5712 76.675 38.0812 77.125C38.5912 77.605 38.8462 78.175 38.8462 78.835H38.9812ZM45.2362 78.835H45.3262C45.3562 78.175 45.6112 77.605 46.0912 77.125C46.6012 76.675 47.2162 76.45 47.9362 76.45C47.9362 76.45 48.0112 76.45 48.1612 76.45C48.3412 76.45 48.4462 76.45 48.4762 76.45V76H45.2362V78.835ZM45.2362 100.165V103H48.4762L48.4312 102.55C48.4312 102.55 48.3562 102.55 48.2062 102.55C48.0562 102.55 47.9662 102.55 47.9362 102.55C47.2162 102.55 46.6012 102.325 46.0912 101.875C45.6112 101.425 45.3562 100.855 45.3262 100.165H45.2362ZM38.9812 100.165H38.8462C38.8462 100.855 38.5912 101.425 38.0812 101.875C37.5712 102.325 36.9562 102.55 36.2362 102.55C36.2362 102.55 36.1462 102.55 35.9662 102.55C35.7862 102.55 35.6962 102.55 35.6962 102.55V103H38.9812V100.165Z" fill="#ECECEC" fill-opacity="0.6"/>
<path d="M80.371 87.295L80.866 80.5C80.296 79.54 79.501 78.67 78.481 77.89C77.461 77.14 76.216 76.54 74.746 76.09C73.276 75.64 71.566 75.415 69.616 75.415C66.256 75.445 63.361 76.015 60.931 77.125C58.501 78.235 56.626 79.825 55.306 81.895C54.016 83.995 53.371 86.545 53.371 89.545C53.371 92.485 54.016 94.99 55.306 97.06C56.596 99.16 58.456 100.765 60.886 101.875C63.316 103.015 66.226 103.585 69.616 103.585C71.656 103.585 73.546 103.39 75.286 103C77.056 102.61 78.526 102.115 79.696 101.515L79.741 94.36H79.381C78.631 97.12 77.446 99.055 75.826 100.165C74.206 101.275 72.286 101.83 70.066 101.83C67.876 101.83 66.046 101.32 64.576 100.3C63.136 99.28 62.041 97.855 61.291 96.025C60.571 94.195 60.211 92.05 60.211 89.59C60.211 87.1 60.571 84.94 61.291 83.11C62.041 81.28 63.121 79.855 64.531 78.835C65.941 77.815 67.636 77.275 69.616 77.215C71.746 77.215 73.501 77.545 74.881 78.205C76.291 78.865 77.401 79.93 78.211 81.4C79.051 82.87 79.651 84.835 80.011 87.295H80.371Z" fill="#ECECEC" fill-opacity="0.6"/>
<path d="M101.549 102.865V76H95.0238V102.865H101.549ZM111.359 103.045V101.245H85.2588V103.045H111.359ZM111.359 101.38V96.61H110.864V97.015C110.894 98.305 110.534 99.325 109.784 100.075C109.064 100.825 108.059 101.215 106.769 101.245V101.38H111.359ZM111.359 103.72V102.595L106.589 103.045C107.159 103.045 107.774 103.075 108.434 103.135C109.094 103.225 109.694 103.315 110.234 103.405C110.774 103.525 111.149 103.63 111.359 103.72ZM95.1138 78.835V76H92.0987V76.45C92.0987 76.45 92.1738 76.45 92.3238 76.45C92.5038 76.45 92.5938 76.45 92.5938 76.45C93.2538 76.45 93.8088 76.675 94.2588 77.125C94.7388 77.605 94.9938 78.175 95.0238 78.835H95.1138ZM101.414 78.835H101.549C101.549 78.175 101.789 77.605 102.269 77.125C102.749 76.675 103.334 76.45 104.024 76.45C104.024 76.45 104.099 76.45 104.249 76.45C104.429 76.45 104.519 76.45 104.519 76.45V76H101.414V78.835ZM89.8487 101.38V101.245C88.5287 101.215 87.5088 100.825 86.7887 100.075C86.0987 99.325 85.7538 98.305 85.7538 97.015V96.61H85.2588V101.38H89.8487ZM85.2588 103.72C85.5287 103.66 85.9187 103.57 86.4287 103.45C86.9688 103.33 87.5538 103.225 88.1838 103.135C88.8438 103.075 89.4437 103.045 89.9837 103.045L85.2588 102.595V103.72Z" fill="#ECECEC" fill-opacity="0.6"/>
<path d="M131.062 103.585C133.462 103.585 135.637 103.255 137.587 102.595C139.537 101.965 141.217 101.035 142.627 99.805C144.037 98.575 145.117 97.09 145.867 95.35C146.647 93.61 147.037 91.645 147.037 89.455C147.037 87.295 146.647 85.345 145.867 83.605C145.117 81.895 144.037 80.425 142.627 79.195C141.217 77.965 139.537 77.02 137.587 76.36C135.637 75.73 133.462 75.415 131.062 75.415C128.692 75.415 126.532 75.73 124.582 76.36C122.632 77.02 120.952 77.965 119.542 79.195C118.132 80.425 117.052 81.895 116.302 83.605C115.552 85.345 115.177 87.295 115.177 89.455C115.177 91.645 115.552 93.61 116.302 95.35C117.052 97.09 118.132 98.575 119.542 99.805C120.952 101.035 122.632 101.965 124.582 102.595C126.532 103.255 128.692 103.585 131.062 103.585ZM131.062 77.17C132.892 77.17 134.482 77.665 135.832 78.655C137.212 79.675 138.262 81.1 138.982 82.93C139.732 84.76 140.107 86.935 140.107 89.455C140.107 92.005 139.732 94.195 138.982 96.025C138.262 97.885 137.212 99.31 135.832 100.3C134.482 101.32 132.892 101.83 131.062 101.83C129.262 101.83 127.687 101.32 126.337 100.3C124.987 99.31 123.937 97.885 123.187 96.025C122.437 94.195 122.062 92.005 122.062 89.455C122.062 86.935 122.437 84.76 123.187 82.93C123.937 81.1 124.987 79.675 126.337 78.655C127.687 77.665 129.262 77.17 131.062 77.17Z" fill="#ECECEC" fill-opacity="0.6"/>
<path d="M161.15 103H166.01C167.24 103 168.44 102.865 169.61 102.595C170.78 102.355 171.83 101.95 172.76 101.38C173.69 100.84 174.425 100.09 174.965 99.13C175.535 98.2 175.82 97.03 175.82 95.62C175.82 94.57 175.595 93.52 175.145 92.47C174.725 91.45 174.05 90.565 173.12 89.815C172.22 89.065 171.035 88.57 169.565 88.33C170.435 88.06 171.26 87.535 172.04 86.755C172.85 85.975 173.48 85.24 173.93 84.55C174.05 84.31 174.26 83.92 174.56 83.38C174.86 82.87 175.235 82.27 175.685 81.58C176.165 80.92 176.66 80.23 177.17 79.51C177.77 78.7 178.295 78.07 178.745 77.62C179.195 77.2 179.66 76.9 180.14 76.72C180.62 76.54 181.175 76.45 181.805 76.45V76H178.025C176.405 76 175.025 76.12 173.885 76.36C172.775 76.6 171.8 77.035 170.96 77.665C170.15 78.325 169.4 79.21 168.71 80.32C168.44 80.71 168.155 81.175 167.855 81.715C167.555 82.285 167.255 82.855 166.955 83.425C166.655 83.995 166.385 84.55 166.145 85.09C165.935 85.63 165.785 86.08 165.695 86.44C165.305 87.4 164.855 88.09 164.345 88.51C163.865 88.96 163.415 89.185 162.995 89.185V89.59C162.995 89.59 163.1 89.59 163.31 89.59C163.52 89.59 163.79 89.59 164.12 89.59C164.75 89.59 165.365 89.695 165.965 89.905C166.595 90.145 167.165 90.58 167.675 91.21C168.185 91.87 168.56 92.83 168.8 94.09C168.86 94.27 168.905 94.525 168.935 94.855C168.995 95.185 169.01 95.56 168.98 95.98C168.92 97.09 168.71 97.975 168.35 98.635C168.02 99.325 167.6 99.835 167.09 100.165C166.58 100.525 166.055 100.765 165.515 100.885C165.005 101.035 164.555 101.11 164.165 101.11C163.595 101.14 163.07 101.14 162.59 101.11C162.14 101.11 161.795 101.125 161.555 101.155C161.525 101.155 161.48 101.305 161.42 101.605C161.36 101.935 161.3 102.25 161.24 102.55C161.18 102.85 161.15 103 161.15 103ZM161.6 103V76H155.075V103H161.6ZM155.21 78.835L155.39 76H152.15V76.45C152.18 76.45 152.255 76.45 152.375 76.45C152.525 76.45 152.63 76.45 152.69 76.45C153.35 76.45 153.905 76.675 154.355 77.125C154.835 77.605 155.09 78.175 155.12 78.835H155.21ZM155.21 100.21H155.12C155.09 100.9 154.835 101.455 154.355 101.875C153.905 102.325 153.365 102.55 152.735 102.55C152.645 102.55 152.525 102.55 152.375 102.55C152.255 102.55 152.18 102.55 152.15 102.55V103H155.39L155.21 100.21ZM161.51 78.835H161.6C161.6 78.085 161.855 77.5 162.365 77.08C162.905 76.66 163.475 76.45 164.075 76.45C164.075 76.45 164.135 76.45 164.255 76.45C164.375 76.45 164.465 76.45 164.525 76.45V76H161.285L161.51 78.835Z" fill="#ECECEC" fill-opacity="0.6"/>
<path d="M193.334 103V76H186.854V103H193.334ZM186.989 78.835V76H183.704V76.45C183.704 76.45 183.794 76.45 183.974 76.45C184.154 76.45 184.259 76.45 184.289 76.45C184.979 76.45 185.579 76.675 186.089 77.125C186.599 77.605 186.854 78.175 186.854 78.835H186.989ZM193.244 78.835H193.334C193.364 78.175 193.619 77.605 194.099 77.125C194.609 76.675 195.224 76.45 195.944 76.45C195.944 76.45 196.019 76.45 196.169 76.45C196.349 76.45 196.454 76.45 196.484 76.45V76H193.244V78.835ZM193.244 100.165V103H196.484L196.439 102.55C196.439 102.55 196.364 102.55 196.214 102.55C196.064 102.55 195.974 102.55 195.944 102.55C195.224 102.55 194.609 102.325 194.099 101.875C193.619 101.425 193.364 100.855 193.334 100.165H193.244ZM186.989 100.165H186.854C186.854 100.855 186.599 101.425 186.089 101.875C185.579 102.325 184.964 102.55 184.244 102.55C184.244 102.55 184.154 102.55 183.974 102.55C183.794 102.55 183.704 102.55 183.704 102.55V103H186.989V100.165Z" fill="#ECECEC" fill-opacity="0.6"/>
<path d="M214.599 104.215L227.919 76.225H220.314L211.944 95.98L214.599 104.215ZM206.139 78.97C205.809 78.16 205.854 77.53 206.274 77.08C206.694 76.66 207.159 76.45 207.669 76.45H208.029V76H199.029V76.45C199.029 76.45 199.089 76.45 199.209 76.45C199.329 76.45 199.389 76.45 199.389 76.45C199.989 76.45 200.619 76.63 201.279 76.99C201.939 77.38 202.479 78.04 202.899 78.97H206.139ZM214.599 104.215L214.689 98.815L204.924 76.135H201.594L212.124 98.77C212.184 98.95 212.319 99.265 212.529 99.715C212.739 100.195 212.964 100.72 213.204 101.29C213.444 101.89 213.669 102.445 213.879 102.955C214.089 103.495 214.209 103.915 214.239 104.215H214.599ZM218.514 84.82V83.065H207.039V84.82H218.514ZM219.189 78.97H226.614C227.064 78.04 227.619 77.38 228.279 76.99C228.939 76.63 229.569 76.45 230.169 76.45C230.169 76.45 230.229 76.45 230.349 76.45C230.469 76.45 230.529 76.45 230.529 76.45V76H217.299V76.45H217.659C218.169 76.45 218.634 76.66 219.054 77.08C219.474 77.53 219.519 78.16 219.189 78.97Z" fill="#ECECEC" fill-opacity="0.6"/>
<path d="M235.549 103.63L261.964 80.41L262.414 75.415L236.044 98.635L235.549 103.63ZM235.729 78.745V76H232.399V76.45C232.399 76.45 232.519 76.45 232.759 76.45C232.999 76.45 233.119 76.45 233.119 76.45C233.809 76.45 234.394 76.66 234.874 77.08C235.354 77.53 235.594 78.085 235.594 78.745H235.729ZM241.759 78.745C241.789 78.085 242.044 77.53 242.524 77.08C243.004 76.66 243.574 76.45 244.234 76.45C244.234 76.45 244.354 76.45 244.594 76.45C244.864 76.45 244.999 76.45 244.999 76.45V76H241.669V78.745H241.759ZM235.549 103.63L241.759 96.88V76H235.594V98.5C235.594 100.03 235.519 101.26 235.369 102.19C235.219 103.15 235.144 103.63 235.144 103.63H235.549ZM262.369 103V80.68C262.369 79.63 262.399 78.7 262.459 77.89C262.549 77.11 262.624 76.495 262.684 76.045C262.774 75.625 262.819 75.415 262.819 75.415H262.414L256.204 82.57V103H262.369ZM262.234 100.255V103H265.609V102.55C265.609 102.55 265.474 102.55 265.204 102.55C264.964 102.55 264.844 102.55 264.844 102.55C264.184 102.55 263.599 102.325 263.089 101.875C262.609 101.455 262.369 100.915 262.369 100.255H262.234ZM256.204 100.255C256.174 100.915 255.919 101.455 255.439 101.875C254.989 102.325 254.419 102.55 253.729 102.55C253.729 102.55 253.594 102.55 253.324 102.55C253.084 102.55 252.964 102.55 252.964 102.55V103H256.294V100.255H256.204Z" fill="#ECECEC" fill-opacity="0.6"/>
</g>
<path d="M135.076 0L135.662 11.3225L140.802 1.21696L136.731 11.7987L145.537 4.65741L137.514 12.6686L148.464 9.72646L137.876 13.782L149.075 15.5476L137.754 14.9462L147.267 21.1144L137.168 15.96L143.35 25.4642L136.221 16.6481L138.003 27.8449L135.076 16.8915L132.15 27.8449L133.931 16.6481L126.802 25.4642L132.984 15.96L122.886 21.1144L132.399 14.9462L121.077 15.5476L132.276 13.782L121.689 9.72646L132.638 12.6686L124.616 4.65741L133.422 11.7987L129.351 1.21696L134.491 11.3225L135.076 0Z" fill="#ECECEC"/>
<defs>
<filter id="filter0_f_791_3079" x="0.634504" y="74.2644" width="266.126" height="31.1014" filterUnits="userSpaceOnUse" color-interpolation-filters="sRGB">
<feFlood flood-opacity="0" result="BackgroundImageFix"/>
<feBlend mode="normal" in="SourceGraphic" in2="BackgroundImageFix" result="shape"/>
<feGaussianBlur stdDeviation="0.575326" result="effect1_foregroundBlur_791_3079"/>
</filter>
</defs>
</svg>
