<svg width="222" height="53" viewBox="0 0 222 53" fill="none" xmlns="http://www.w3.org/2000/svg">
<mask id="path-1-outside-1_791_3086" maskUnits="userSpaceOnUse" x="-0.207031" y="-0.198975" width="222" height="53" fill="black">
<rect fill="white" x="-0.207031" y="-0.198975" width="222" height="53"/>
<path d="M39.91 3.30002C40.556 3.94602 40.879 4.77902 40.879 5.79903C40.879 6.64902 40.692 7.51602 40.318 8.40002L28.282 39L27.721 39.255L20.989 17.886L12.676 39L12.115 39.255L0.792969 3.30002H5.12797L14.257 33.492L20.734 17.07L16.399 3.30002H20.734L29.863 33.492L39.706 8.40002C40.08 7.55003 40.267 6.66603 40.267 5.74803C40.267 4.83003 40.012 4.11603 39.502 3.60603L39.91 3.30002Z"/>
<path d="M49.6358 39C48.2418 39 47.1708 38.694 46.4228 38.082C45.7088 37.47 45.3348 36.858 45.3008 36.246L45.2498 35.379V13.5H48.8198V35.379C48.8198 36.365 49.0068 37.13 49.3808 37.674C49.7888 38.184 50.1798 38.456 50.5538 38.49L51.1658 38.592H52.7468V39H49.6358ZM45.5558 7.78802C45.1478 7.38002 44.9438 6.87003 44.9438 6.25803C44.9438 5.64602 45.1478 5.13602 45.5558 4.72802C45.9638 4.28602 46.4738 4.06502 47.0858 4.06502C47.6978 4.06502 48.2078 4.28602 48.6158 4.72802C49.0578 5.13602 49.2788 5.64602 49.2788 6.25803C49.2788 6.87003 49.0578 7.38002 48.6158 7.78802C48.2078 8.19602 47.6978 8.40002 47.0858 8.40002C46.4738 8.40002 45.9638 8.19602 45.5558 7.78802Z"/>
<path d="M77.0041 39C75.6101 39 74.5391 38.694 73.7911 38.082C73.0771 37.47 72.7031 36.858 72.6691 36.246L72.6181 35.379V19.365C72.6181 16.679 71.9211 14.962 70.5271 14.214C69.8131 13.874 68.9291 13.704 67.8751 13.704C65.6991 13.704 63.7441 14.571 62.0101 16.305C60.2761 18.005 59.4091 19.535 59.4091 20.895V39H55.8391V13.5H59.4091V19.314C59.9871 17.852 61.0581 16.492 62.6221 15.234C64.1861 13.942 65.9031 13.296 67.7731 13.296C69.6431 13.296 71.1561 13.483 72.3121 13.857C73.5021 14.197 74.3691 14.69 74.9131 15.336C75.7631 16.39 76.1881 17.75 76.1881 19.416V35.379C76.1881 36.365 76.3751 37.13 76.7491 37.674C77.1571 38.184 77.5651 38.456 77.9731 38.49L78.5341 38.592H80.1151V39H77.0041Z"/>
<path d="M85.6538 26.556C85.6538 30.772 86.3848 33.866 87.8468 35.838C89.3428 37.81 91.2978 38.796 93.7118 38.796C97.1118 38.796 100.138 38.286 102.79 37.266L102.943 37.623C100.223 38.677 97.1458 39.204 93.7118 39.204C90.3118 39.204 87.5408 38.184 85.3988 36.144C83.2568 34.104 82.1858 30.959 82.1858 26.709C82.1858 22.459 83.3078 19.161 85.5518 16.815C87.7958 14.469 90.6518 13.296 94.1198 13.296C96.9078 13.296 99.2538 14.129 101.158 15.795C103.062 17.461 104.014 19.926 104.014 23.19C104.014 23.36 104.014 23.53 104.014 23.7H85.8068C85.7048 24.618 85.6538 25.57 85.6538 26.556ZM100.546 23.292C100.512 20.028 99.8828 17.614 98.6588 16.05C97.4348 14.486 95.8538 13.704 93.9158 13.704C91.9778 13.704 90.2438 14.554 88.7138 16.254C87.2178 17.954 86.2658 20.3 85.8578 23.292H100.546Z"/>
<path d="M137.768 15.285C137.224 14.843 136.34 14.469 135.116 14.163C133.926 13.857 133.025 13.704 132.413 13.704C131.801 13.704 131.444 13.704 131.342 13.704C129.506 13.738 128.18 14.214 127.364 15.132C126.548 16.016 126.14 17.019 126.14 18.141C126.14 19.263 126.497 20.215 127.211 20.997C127.925 21.745 128.809 22.34 129.863 22.782C130.951 23.19 132.107 23.666 133.331 24.21C134.589 24.754 135.745 25.315 136.799 25.893C137.887 26.437 138.788 27.253 139.502 28.341C140.216 29.395 140.573 30.721 140.573 32.319C140.573 33.917 140.012 35.277 138.89 36.399C137.768 37.521 136.51 38.269 135.116 38.643C133.756 39.017 132.277 39.204 130.679 39.204C127.211 39.204 124.61 38.439 122.876 36.909L123.182 36.603C123.862 37.249 124.865 37.776 126.191 38.184C127.551 38.592 128.86 38.796 130.118 38.796C132.124 38.796 133.773 38.252 135.065 37.164C136.391 36.042 137.054 34.665 137.054 33.033C137.054 31.367 136.561 30.041 135.575 29.055C134.589 28.035 133.382 27.253 131.954 26.709C130.56 26.131 129.149 25.57 127.721 25.026C126.293 24.448 125.086 23.666 124.1 22.68C123.114 21.66 122.621 20.487 122.621 19.161C122.621 17.835 122.927 16.764 123.539 15.948C124.151 15.098 124.967 14.503 125.987 14.163C127.721 13.585 129.455 13.296 131.189 13.296C134.113 13.296 136.391 13.84 138.023 14.928L137.768 15.285Z"/>
<path d="M164.816 39C163.422 39 162.351 38.694 161.603 38.082C160.889 37.47 160.515 36.858 160.481 36.246L160.43 35.379V19.365C160.43 16.679 159.716 14.962 158.288 14.214C157.608 13.874 156.741 13.704 155.687 13.704C153.579 13.704 151.675 14.571 149.975 16.305C148.309 18.005 147.476 19.535 147.476 20.895V39H143.906V0.801025H147.476V19.314C148.02 17.852 149.057 16.492 150.587 15.234C152.117 13.942 153.834 13.296 155.738 13.296C159.036 13.296 161.229 13.874 162.317 15.03C163.439 16.152 164 17.614 164 19.416V35.379C164 36.365 164.187 37.13 164.561 37.674C164.969 38.184 165.36 38.456 165.734 38.49L166.346 38.592H167.927V39H164.816Z"/>
<path d="M182.278 39.204C178.708 39.204 175.801 38.184 173.557 36.144C171.313 34.104 170.191 30.959 170.191 26.709C170.191 22.459 171.347 19.161 173.659 16.815C176.005 14.469 178.963 13.296 182.533 13.296C186.137 13.296 189.061 14.316 191.305 16.356C193.549 18.396 194.671 21.541 194.671 25.791C194.671 30.041 193.498 33.339 191.152 35.685C188.84 38.031 185.882 39.204 182.278 39.204ZM182.635 13.704C180.051 13.704 177.909 14.86 176.209 17.172C174.509 19.45 173.659 22.646 173.659 26.76C173.659 30.84 174.441 33.866 176.005 35.838C177.569 37.81 179.643 38.796 182.227 38.796C184.811 38.796 186.953 37.657 188.653 35.379C190.353 33.067 191.203 29.871 191.203 25.791C191.203 21.677 190.421 18.634 188.857 16.662C187.293 14.69 185.219 13.704 182.635 13.704Z"/>
<path d="M198.243 13.5H201.813V19.824C202.391 18.26 203.462 16.781 205.026 15.387C206.59 13.993 208.358 13.296 210.33 13.296C217.232 13.296 220.683 17.342 220.683 25.434C220.683 34.614 216.229 39.204 207.321 39.204C205.723 39.204 203.887 38.83 201.813 38.082V51.75H198.243V13.5ZM210.279 13.704C208.171 13.704 206.267 14.622 204.567 16.458C202.867 18.26 201.949 19.892 201.813 21.354V37.623C203.887 38.405 205.706 38.796 207.27 38.796C213.832 38.796 217.113 34.325 217.113 25.383C217.113 17.597 214.835 13.704 210.279 13.704Z"/>
</mask>
<path d="M39.91 3.30002C40.556 3.94602 40.879 4.77902 40.879 5.79903C40.879 6.64902 40.692 7.51602 40.318 8.40002L28.282 39L27.721 39.255L20.989 17.886L12.676 39L12.115 39.255L0.792969 3.30002H5.12797L14.257 33.492L20.734 17.07L16.399 3.30002H20.734L29.863 33.492L39.706 8.40002C40.08 7.55003 40.267 6.66603 40.267 5.74803C40.267 4.83003 40.012 4.11603 39.502 3.60603L39.91 3.30002Z" fill="#FCF7FF"/>
<path d="M49.6358 39C48.2418 39 47.1708 38.694 46.4228 38.082C45.7088 37.47 45.3348 36.858 45.3008 36.246L45.2498 35.379V13.5H48.8198V35.379C48.8198 36.365 49.0068 37.13 49.3808 37.674C49.7888 38.184 50.1798 38.456 50.5538 38.49L51.1658 38.592H52.7468V39H49.6358ZM45.5558 7.78802C45.1478 7.38002 44.9438 6.87003 44.9438 6.25803C44.9438 5.64602 45.1478 5.13602 45.5558 4.72802C45.9638 4.28602 46.4738 4.06502 47.0858 4.06502C47.6978 4.06502 48.2078 4.28602 48.6158 4.72802C49.0578 5.13602 49.2788 5.64602 49.2788 6.25803C49.2788 6.87003 49.0578 7.38002 48.6158 7.78802C48.2078 8.19602 47.6978 8.40002 47.0858 8.40002C46.4738 8.40002 45.9638 8.19602 45.5558 7.78802Z" fill="#FCF7FF"/>
<path d="M77.0041 39C75.6101 39 74.5391 38.694 73.7911 38.082C73.0771 37.47 72.7031 36.858 72.6691 36.246L72.6181 35.379V19.365C72.6181 16.679 71.9211 14.962 70.5271 14.214C69.8131 13.874 68.9291 13.704 67.8751 13.704C65.6991 13.704 63.7441 14.571 62.0101 16.305C60.2761 18.005 59.4091 19.535 59.4091 20.895V39H55.8391V13.5H59.4091V19.314C59.9871 17.852 61.0581 16.492 62.6221 15.234C64.1861 13.942 65.9031 13.296 67.7731 13.296C69.6431 13.296 71.1561 13.483 72.3121 13.857C73.5021 14.197 74.3691 14.69 74.9131 15.336C75.7631 16.39 76.1881 17.75 76.1881 19.416V35.379C76.1881 36.365 76.3751 37.13 76.7491 37.674C77.1571 38.184 77.5651 38.456 77.9731 38.49L78.5341 38.592H80.1151V39H77.0041Z" fill="#FCF7FF"/>
<path d="M85.6538 26.556C85.6538 30.772 86.3848 33.866 87.8468 35.838C89.3428 37.81 91.2978 38.796 93.7118 38.796C97.1118 38.796 100.138 38.286 102.79 37.266L102.943 37.623C100.223 38.677 97.1458 39.204 93.7118 39.204C90.3118 39.204 87.5408 38.184 85.3988 36.144C83.2568 34.104 82.1858 30.959 82.1858 26.709C82.1858 22.459 83.3078 19.161 85.5518 16.815C87.7958 14.469 90.6518 13.296 94.1198 13.296C96.9078 13.296 99.2538 14.129 101.158 15.795C103.062 17.461 104.014 19.926 104.014 23.19C104.014 23.36 104.014 23.53 104.014 23.7H85.8068C85.7048 24.618 85.6538 25.57 85.6538 26.556ZM100.546 23.292C100.512 20.028 99.8828 17.614 98.6588 16.05C97.4348 14.486 95.8538 13.704 93.9158 13.704C91.9778 13.704 90.2438 14.554 88.7138 16.254C87.2178 17.954 86.2658 20.3 85.8578 23.292H100.546Z" fill="#FCF7FF"/>
<path d="M137.768 15.285C137.224 14.843 136.34 14.469 135.116 14.163C133.926 13.857 133.025 13.704 132.413 13.704C131.801 13.704 131.444 13.704 131.342 13.704C129.506 13.738 128.18 14.214 127.364 15.132C126.548 16.016 126.14 17.019 126.14 18.141C126.14 19.263 126.497 20.215 127.211 20.997C127.925 21.745 128.809 22.34 129.863 22.782C130.951 23.19 132.107 23.666 133.331 24.21C134.589 24.754 135.745 25.315 136.799 25.893C137.887 26.437 138.788 27.253 139.502 28.341C140.216 29.395 140.573 30.721 140.573 32.319C140.573 33.917 140.012 35.277 138.89 36.399C137.768 37.521 136.51 38.269 135.116 38.643C133.756 39.017 132.277 39.204 130.679 39.204C127.211 39.204 124.61 38.439 122.876 36.909L123.182 36.603C123.862 37.249 124.865 37.776 126.191 38.184C127.551 38.592 128.86 38.796 130.118 38.796C132.124 38.796 133.773 38.252 135.065 37.164C136.391 36.042 137.054 34.665 137.054 33.033C137.054 31.367 136.561 30.041 135.575 29.055C134.589 28.035 133.382 27.253 131.954 26.709C130.56 26.131 129.149 25.57 127.721 25.026C126.293 24.448 125.086 23.666 124.1 22.68C123.114 21.66 122.621 20.487 122.621 19.161C122.621 17.835 122.927 16.764 123.539 15.948C124.151 15.098 124.967 14.503 125.987 14.163C127.721 13.585 129.455 13.296 131.189 13.296C134.113 13.296 136.391 13.84 138.023 14.928L137.768 15.285Z" fill="#FCF7FF"/>
<path d="M164.816 39C163.422 39 162.351 38.694 161.603 38.082C160.889 37.47 160.515 36.858 160.481 36.246L160.43 35.379V19.365C160.43 16.679 159.716 14.962 158.288 14.214C157.608 13.874 156.741 13.704 155.687 13.704C153.579 13.704 151.675 14.571 149.975 16.305C148.309 18.005 147.476 19.535 147.476 20.895V39H143.906V0.801025H147.476V19.314C148.02 17.852 149.057 16.492 150.587 15.234C152.117 13.942 153.834 13.296 155.738 13.296C159.036 13.296 161.229 13.874 162.317 15.03C163.439 16.152 164 17.614 164 19.416V35.379C164 36.365 164.187 37.13 164.561 37.674C164.969 38.184 165.36 38.456 165.734 38.49L166.346 38.592H167.927V39H164.816Z" fill="#FCF7FF"/>
<path d="M182.278 39.204C178.708 39.204 175.801 38.184 173.557 36.144C171.313 34.104 170.191 30.959 170.191 26.709C170.191 22.459 171.347 19.161 173.659 16.815C176.005 14.469 178.963 13.296 182.533 13.296C186.137 13.296 189.061 14.316 191.305 16.356C193.549 18.396 194.671 21.541 194.671 25.791C194.671 30.041 193.498 33.339 191.152 35.685C188.84 38.031 185.882 39.204 182.278 39.204ZM182.635 13.704C180.051 13.704 177.909 14.86 176.209 17.172C174.509 19.45 173.659 22.646 173.659 26.76C173.659 30.84 174.441 33.866 176.005 35.838C177.569 37.81 179.643 38.796 182.227 38.796C184.811 38.796 186.953 37.657 188.653 35.379C190.353 33.067 191.203 29.871 191.203 25.791C191.203 21.677 190.421 18.634 188.857 16.662C187.293 14.69 185.219 13.704 182.635 13.704Z" fill="#FCF7FF"/>
<path d="M198.243 13.5H201.813V19.824C202.391 18.26 203.462 16.781 205.026 15.387C206.59 13.993 208.358 13.296 210.33 13.296C217.232 13.296 220.683 17.342 220.683 25.434C220.683 34.614 216.229 39.204 207.321 39.204C205.723 39.204 203.887 38.83 201.813 38.082V51.75H198.243V13.5ZM210.279 13.704C208.171 13.704 206.267 14.622 204.567 16.458C202.867 18.26 201.949 19.892 201.813 21.354V37.623C203.887 38.405 205.706 38.796 207.27 38.796C213.832 38.796 217.113 34.325 217.113 25.383C217.113 17.597 214.835 13.704 210.279 13.704Z" fill="#FCF7FF"/>
<path d="M39.91 3.30002C40.556 3.94602 40.879 4.77902 40.879 5.79903C40.879 6.64902 40.692 7.51602 40.318 8.40002L28.282 39L27.721 39.255L20.989 17.886L12.676 39L12.115 39.255L0.792969 3.30002H5.12797L14.257 33.492L20.734 17.07L16.399 3.30002H20.734L29.863 33.492L39.706 8.40002C40.08 7.55003 40.267 6.66603 40.267 5.74803C40.267 4.83003 40.012 4.11603 39.502 3.60603L39.91 3.30002Z" stroke="#FCF7FF" mask="url(#path-1-outside-1_791_3086)"/>
<path d="M49.6358 39C48.2418 39 47.1708 38.694 46.4228 38.082C45.7088 37.47 45.3348 36.858 45.3008 36.246L45.2498 35.379V13.5H48.8198V35.379C48.8198 36.365 49.0068 37.13 49.3808 37.674C49.7888 38.184 50.1798 38.456 50.5538 38.49L51.1658 38.592H52.7468V39H49.6358ZM45.5558 7.78802C45.1478 7.38002 44.9438 6.87003 44.9438 6.25803C44.9438 5.64602 45.1478 5.13602 45.5558 4.72802C45.9638 4.28602 46.4738 4.06502 47.0858 4.06502C47.6978 4.06502 48.2078 4.28602 48.6158 4.72802C49.0578 5.13602 49.2788 5.64602 49.2788 6.25803C49.2788 6.87003 49.0578 7.38002 48.6158 7.78802C48.2078 8.19602 47.6978 8.40002 47.0858 8.40002C46.4738 8.40002 45.9638 8.19602 45.5558 7.78802Z" stroke="#FCF7FF" mask="url(#path-1-outside-1_791_3086)"/>
<path d="M77.0041 39C75.6101 39 74.5391 38.694 73.7911 38.082C73.0771 37.47 72.7031 36.858 72.6691 36.246L72.6181 35.379V19.365C72.6181 16.679 71.9211 14.962 70.5271 14.214C69.8131 13.874 68.9291 13.704 67.8751 13.704C65.6991 13.704 63.7441 14.571 62.0101 16.305C60.2761 18.005 59.4091 19.535 59.4091 20.895V39H55.8391V13.5H59.4091V19.314C59.9871 17.852 61.0581 16.492 62.6221 15.234C64.1861 13.942 65.9031 13.296 67.7731 13.296C69.6431 13.296 71.1561 13.483 72.3121 13.857C73.5021 14.197 74.3691 14.69 74.9131 15.336C75.7631 16.39 76.1881 17.75 76.1881 19.416V35.379C76.1881 36.365 76.3751 37.13 76.7491 37.674C77.1571 38.184 77.5651 38.456 77.9731 38.49L78.5341 38.592H80.1151V39H77.0041Z" stroke="#FCF7FF" mask="url(#path-1-outside-1_791_3086)"/>
<path d="M85.6538 26.556C85.6538 30.772 86.3848 33.866 87.8468 35.838C89.3428 37.81 91.2978 38.796 93.7118 38.796C97.1118 38.796 100.138 38.286 102.79 37.266L102.943 37.623C100.223 38.677 97.1458 39.204 93.7118 39.204C90.3118 39.204 87.5408 38.184 85.3988 36.144C83.2568 34.104 82.1858 30.959 82.1858 26.709C82.1858 22.459 83.3078 19.161 85.5518 16.815C87.7958 14.469 90.6518 13.296 94.1198 13.296C96.9078 13.296 99.2538 14.129 101.158 15.795C103.062 17.461 104.014 19.926 104.014 23.19C104.014 23.36 104.014 23.53 104.014 23.7H85.8068C85.7048 24.618 85.6538 25.57 85.6538 26.556ZM100.546 23.292C100.512 20.028 99.8828 17.614 98.6588 16.05C97.4348 14.486 95.8538 13.704 93.9158 13.704C91.9778 13.704 90.2438 14.554 88.7138 16.254C87.2178 17.954 86.2658 20.3 85.8578 23.292H100.546Z" stroke="#FCF7FF" mask="url(#path-1-outside-1_791_3086)"/>
<path d="M137.768 15.285C137.224 14.843 136.34 14.469 135.116 14.163C133.926 13.857 133.025 13.704 132.413 13.704C131.801 13.704 131.444 13.704 131.342 13.704C129.506 13.738 128.18 14.214 127.364 15.132C126.548 16.016 126.14 17.019 126.14 18.141C126.14 19.263 126.497 20.215 127.211 20.997C127.925 21.745 128.809 22.34 129.863 22.782C130.951 23.19 132.107 23.666 133.331 24.21C134.589 24.754 135.745 25.315 136.799 25.893C137.887 26.437 138.788 27.253 139.502 28.341C140.216 29.395 140.573 30.721 140.573 32.319C140.573 33.917 140.012 35.277 138.89 36.399C137.768 37.521 136.51 38.269 135.116 38.643C133.756 39.017 132.277 39.204 130.679 39.204C127.211 39.204 124.61 38.439 122.876 36.909L123.182 36.603C123.862 37.249 124.865 37.776 126.191 38.184C127.551 38.592 128.86 38.796 130.118 38.796C132.124 38.796 133.773 38.252 135.065 37.164C136.391 36.042 137.054 34.665 137.054 33.033C137.054 31.367 136.561 30.041 135.575 29.055C134.589 28.035 133.382 27.253 131.954 26.709C130.56 26.131 129.149 25.57 127.721 25.026C126.293 24.448 125.086 23.666 124.1 22.68C123.114 21.66 122.621 20.487 122.621 19.161C122.621 17.835 122.927 16.764 123.539 15.948C124.151 15.098 124.967 14.503 125.987 14.163C127.721 13.585 129.455 13.296 131.189 13.296C134.113 13.296 136.391 13.84 138.023 14.928L137.768 15.285Z" stroke="#FCF7FF" mask="url(#path-1-outside-1_791_3086)"/>
<path d="M164.816 39C163.422 39 162.351 38.694 161.603 38.082C160.889 37.47 160.515 36.858 160.481 36.246L160.43 35.379V19.365C160.43 16.679 159.716 14.962 158.288 14.214C157.608 13.874 156.741 13.704 155.687 13.704C153.579 13.704 151.675 14.571 149.975 16.305C148.309 18.005 147.476 19.535 147.476 20.895V39H143.906V0.801025H147.476V19.314C148.02 17.852 149.057 16.492 150.587 15.234C152.117 13.942 153.834 13.296 155.738 13.296C159.036 13.296 161.229 13.874 162.317 15.03C163.439 16.152 164 17.614 164 19.416V35.379C164 36.365 164.187 37.13 164.561 37.674C164.969 38.184 165.36 38.456 165.734 38.49L166.346 38.592H167.927V39H164.816Z" stroke="#FCF7FF" mask="url(#path-1-outside-1_791_3086)"/>
<path d="M182.278 39.204C178.708 39.204 175.801 38.184 173.557 36.144C171.313 34.104 170.191 30.959 170.191 26.709C170.191 22.459 171.347 19.161 173.659 16.815C176.005 14.469 178.963 13.296 182.533 13.296C186.137 13.296 189.061 14.316 191.305 16.356C193.549 18.396 194.671 21.541 194.671 25.791C194.671 30.041 193.498 33.339 191.152 35.685C188.84 38.031 185.882 39.204 182.278 39.204ZM182.635 13.704C180.051 13.704 177.909 14.86 176.209 17.172C174.509 19.45 173.659 22.646 173.659 26.76C173.659 30.84 174.441 33.866 176.005 35.838C177.569 37.81 179.643 38.796 182.227 38.796C184.811 38.796 186.953 37.657 188.653 35.379C190.353 33.067 191.203 29.871 191.203 25.791C191.203 21.677 190.421 18.634 188.857 16.662C187.293 14.69 185.219 13.704 182.635 13.704Z" stroke="#FCF7FF" mask="url(#path-1-outside-1_791_3086)"/>
<path d="M198.243 13.5H201.813V19.824C202.391 18.26 203.462 16.781 205.026 15.387C206.59 13.993 208.358 13.296 210.33 13.296C217.232 13.296 220.683 17.342 220.683 25.434C220.683 34.614 216.229 39.204 207.321 39.204C205.723 39.204 203.887 38.83 201.813 38.082V51.75H198.243V13.5ZM210.279 13.704C208.171 13.704 206.267 14.622 204.567 16.458C202.867 18.26 201.949 19.892 201.813 21.354V37.623C203.887 38.405 205.706 38.796 207.27 38.796C213.832 38.796 217.113 34.325 217.113 25.383C217.113 17.597 214.835 13.704 210.279 13.704Z" stroke="#FCF7FF" mask="url(#path-1-outside-1_791_3086)"/>
</svg>
