<svg width="22" height="16" viewBox="0 0 22 16" fill="none" xmlns="http://www.w3.org/2000/svg">
<path d="M0 2.49785V4.92308H3.43933L0 2.49785ZM2.85022 16H7.94444V12.408L2.85022 16ZM14.0556 12.4086V16H19.1492L14.0556 12.4086ZM0 11.0769V13.5022L3.44056 11.0769H0ZM19.1504 0H14.0556V3.592L19.1504 0ZM22 13.5028V11.0769H18.5588L22 13.5028ZM22 4.92308V2.49785L18.5601 4.92308H22ZM7.94444 0H2.85022L7.94444 3.592V0Z" fill="#1A47B8"/>
<path d="M15.3633 11.077L21.2984 15.2622C21.5883 14.9615 21.7966 14.5909 21.9034 14.1859L17.4943 11.077H15.3633ZM7.94445 11.077H6.63606L0.701558 15.2616C1.01995 15.5877 1.42817 15.821 1.88589 15.9293L7.94445 11.6573V11.077ZM14.0556 4.92311H15.3639L21.2984 0.738493C20.9746 0.407585 20.5641 0.176048 20.1147 0.0708008L14.0556 4.3428V4.92311ZM6.63606 4.92311L0.701558 0.738493C0.411863 1.0394 0.203389 1.4099 0.0959473 1.8148L4.50511 4.92311H6.63606Z" fill="#F93939"/>
<path d="M22 9.84615H12.8333V16H14.0556V12.4086L19.1492 16H19.5556C19.8802 16.0001 20.2016 15.9348 20.5009 15.8081C20.8002 15.6814 21.0713 15.4958 21.2984 15.2622L15.3633 11.0769H17.4943L21.9034 14.1858C21.9603 13.9785 22 13.7637 22 13.5385V13.5028L18.5588 11.0769H22V9.84615ZM0 9.84615V11.0769H3.44056L0 13.5022V13.5385C0 14.2098 0.268278 14.8172 0.701556 15.2615L6.63606 11.0769H7.94444V11.6572L1.88589 15.9286C2.06556 15.9717 2.25133 16 2.44444 16H2.85022L7.94444 12.408V16H9.16667V9.84615H0ZM22 2.46154C22.0004 1.8166 21.7483 1.19751 21.2984 0.738462L15.3639 4.92308H14.0556V4.34277L20.1147 0.0707693C19.9317 0.0255553 19.744 0.00180803 19.5556 2.32848e-07H19.1504L14.0556 3.592V2.32848e-07H12.8333V6.15385H22V4.92308H18.5601L22 2.49785V2.46154ZM7.94444 2.32848e-07V3.592L2.85022 2.32848e-07H2.44444C2.11971 -0.00014226 1.79823 0.065116 1.49892 0.191936C1.1996 0.318755 0.9285 0.504575 0.701556 0.738462L6.63606 4.92308H4.50511L0.0959444 1.81477C0.0353101 2.02505 0.00303931 2.24259 0 2.46154L0 2.49785L3.43933 4.92308H0V6.15385H9.16667V2.32848e-07H7.94444Z" fill="white"/>
<path d="M12.8333 6.15385V0H9.16667V6.15385H0V9.84615H9.16667V16H12.8333V9.84615H22V6.15385H12.8333Z" fill="#F93939"/>
</svg>
