<svg width="22" height="16" viewBox="0 0 22 16" fill="none" xmlns="http://www.w3.org/2000/svg">
<path d="M22 13.547C22 14.1976 21.7425 14.8215 21.284 15.2815C20.8256 15.7415 20.2039 16 19.5556 16H2.44444C1.79614 16 1.17438 15.7415 0.715961 15.2815C0.257539 14.8215 0 14.1976 0 13.547V8.02783H22V13.547Z" fill="#FFDA2C"/>
<path d="M19.5556 0H2.44444C1.79614 0 1.17438 0.258436 0.715961 0.718456C0.257539 1.17848 0 1.8024 0 2.45296L0 7.97213H22V2.45296C22 1.8024 21.7425 1.17848 21.284 0.718456C20.8256 0.258436 20.2039 0 19.5556 0Z" fill="#3A99FF"/>
</svg>
