<?xml version="1.0" encoding="UTF-8"?>
<svg id="_Слой_1" data-name="Слой 1" xmlns="http://www.w3.org/2000/svg" viewBox="0 0 16 16">
  <defs>
    <style>
      .cls-1 {
        fill: #fff;
      }

      .cls-2 {
        fill: #7546f7;
      }
    </style>
  </defs>
  <rect class="cls-2" width="16" height="16" rx="2.61" ry="2.61"/>
  <path class="cls-1" d="M4.8,7.46l-.41,.77v2.58h-1.32V2.41h1.32v3.66l1.75-3.66h1.3l-1.84,3.74,1.84,4.66h-1.36l-1.28-3.35Z"/>
  <path class="cls-1" d="M9.41,5.19h2.09c.66,0,1.16,.18,1.48,.53s.49,.87,.49,1.55v4.25c0,.68-.16,1.2-.49,1.55s-.82,.53-1.48,.53h-2.09V5.19Zm1.32,1.2v6h.74c.21,0,.37-.06,.49-.18,.12-.12,.18-.33,.18-.64V7.21c0-.3-.06-.52-.18-.64-.12-.12-.29-.18-.49-.18h-.74Z"/>
</svg>